<svg id="Layer_1" data-name="Layer 1" xmlns="http://www.w3.org/2000/svg" width="800" height="228" viewBox="0 0 800 228"><defs><style>.cls-1{fill:#fff;}.cls-2{fill:#bbb;}</style></defs><title>logoReversed.v4</title><path class="cls-1" d="M25.82,133.41H7.16v11.86h18.1V152H7.16v14.74H25.82v6.73H0v-46.8H25.82Z"/><path class="cls-1" d="M72.2,126.67c5.68,0,9.33.7,12.35,2.74,5.12,3.44,5.54,9,5.54,11a12.83,12.83,0,0,1-10.38,13l14.59,20H85.67l-13.4-19.15H71v19.15H63.85v-46.8ZM71,148.14h2.24c2,0,10-.21,10-7.64,0-6.6-6.24-7.23-9.75-7.23H71Z"/><path class="cls-1" d="M135.84,126.67v46.8h-7.16v-46.8Z"/><path class="cls-1" d="M210.49,137.62c-5.19-4.7-10-5.19-12.7-5.19-10.17,0-17,7.5-17,17.82,0,9.89,7.16,17.54,17.12,17.54a18.61,18.61,0,0,0,12.63-5.4v8.48a25.5,25.5,0,0,1-12.84,3.51,23.48,23.48,0,0,1-16.56-6.45,23,23,0,0,1-7.51-17.68,24.46,24.46,0,0,1,7.51-18.31c4.84-4.57,10.46-6.11,16.91-6.11a22.21,22.21,0,0,1,12.49,3.37Z"/><path class="cls-1" d="M295.6,126.67,308,158l12.62-33.54L332.78,158l12.77-31.3h7.72l-20.91,49.82L320.15,143.3l-12.34,33.19-19.93-49.82Z"/><path class="cls-1" d="M395.09,145.2h20.06V126.67h7.16v46.8h-7.16V151.93H395.09v21.54h-7.16v-46.8h7.16Z"/><path class="cls-1" d="M466.66,126.67v46.8H459.5v-46.8Z"/><path class="cls-1" d="M519.63,133.41v40.06h-7.16V133.41H501.74v-6.74h28.62v6.74Z"/><path class="cls-1" d="M590.14,162.17h-20L565,173.47h-7.71l23.29-49.53,22.17,49.53h-7.72Zm-2.88-6.73-6.94-15.86-7.23,15.86Z"/><path class="cls-1" d="M671,137.62c-5.19-4.7-10-5.19-12.7-5.19-10.17,0-17.05,7.5-17.05,17.82,0,9.89,7.16,17.54,17.12,17.54a18.61,18.61,0,0,0,12.63-5.4v8.48a25.5,25.5,0,0,1-12.84,3.51,23.48,23.48,0,0,1-16.56-6.45,23,23,0,0,1-7.51-17.68,24.46,24.46,0,0,1,7.51-18.31c4.84-4.57,10.46-6.11,16.91-6.11A22.21,22.21,0,0,1,671,129.2Z"/><path class="cls-1" d="M716.3,126.67c5.68,0,9.33.7,12.34,2.74a13,13,0,0,1,5.55,11,12.83,12.83,0,0,1-10.39,13l14.6,20h-8.63l-13.4-19.15H715.1v19.15H708v-46.8Zm-1.2,21.47h2.25c2,0,10-.21,10-7.64,0-6.6-6.24-7.23-9.75-7.23H715.1Z"/><path class="cls-1" d="M800,133.41H781.34v11.86h18.1V152h-18.1v14.74H800v6.73H774.18v-46.8H800Z"/><path class="cls-2" d="M154.89,212.61a5.73,5.73,0,0,0-4-1.63,5.26,5.26,0,0,0-5.37,5.61,5.33,5.33,0,0,0,5.39,5.53,5.84,5.84,0,0,0,4-1.71v2.68a8.07,8.07,0,0,1-4,1.1,7.37,7.37,0,0,1-5.22-2,7.23,7.23,0,0,1-2.36-5.57,7.7,7.7,0,0,1,2.36-5.77A7.29,7.29,0,0,1,151,208.9a7,7,0,0,1,3.93,1.06Z"/><path class="cls-2" d="M178.23,216.55a7.67,7.67,0,1,1-7.67-7.65A7.47,7.47,0,0,1,178.23,216.55Zm-2.26,0a5.42,5.42,0,1,0-5.41,5.57A5.27,5.27,0,0,0,176,216.55Z"/><path class="cls-2" d="M186.25,223.91l3.09-15.85,5.13,11.45,5.17-11.45,2.79,15.85h-2.3L198.62,215l-4.28,9.57L190.09,215l-1.54,8.91Z"/><path class="cls-2" d="M214.72,209.16a5.75,5.75,0,0,1,3.23.8,4.27,4.27,0,0,1,1.84,3.58,4.16,4.16,0,0,1-1.44,3.23,5.34,5.34,0,0,1-3.6,1.15h-1v6h-2.25V209.16Zm-1,6.68h1c1.94,0,2.87-1,2.87-2.32,0-.82-.33-2.28-2.9-2.28h-1Z"/><path class="cls-2" d="M243,216.55a7.67,7.67,0,1,1-7.67-7.65A7.47,7.47,0,0,1,243,216.55Zm-2.26,0a5.42,5.42,0,1,0-5.41,5.57A5.27,5.27,0,0,0,240.69,216.55Z"/><path class="cls-2" d="M258.07,212.43a2.26,2.26,0,0,0-.66-.92,2.32,2.32,0,0,0-1.59-.53c-1.37,0-2.08.81-2.08,1.76,0,.45.16,1.22,1.59,1.79l1.48.6c2.72,1.11,3.47,2.65,3.47,4.33a4.54,4.54,0,0,1-4.75,4.73,4.31,4.31,0,0,1-3.47-1.48,4.79,4.79,0,0,1-1.24-2.87l2.24-.49a3.13,3.13,0,0,0,.62,1.88,2.32,2.32,0,0,0,1.92.89,2.37,2.37,0,0,0,2.43-2.48c0-1.5-1.15-2.12-2.12-2.52l-1.42-.6c-1.21-.5-3-1.52-3-3.73a4,4,0,0,1,4.31-3.89,4.35,4.35,0,0,1,3,1,5.2,5.2,0,0,1,1.13,1.48Z"/><path class="cls-2" d="M277.41,211.29h-5.88V215h5.7v2.12h-5.7v4.64h5.88v2.13h-8.14V209.16h8.14Z"/><path class="cls-2" d="M289.27,209.16a6.53,6.53,0,0,1,3.89.87,4.1,4.1,0,0,1,1.74,3.46,4,4,0,0,1-3.27,4.12l4.6,6.3h-2.72l-4.22-6h-.4v6h-2.25V209.16Zm-.38,6.77h.71c.62,0,3.14-.07,3.14-2.41,0-2.08-2-2.28-3.08-2.28h-.77Z"/><path class="cls-2" d="M305.56,221.14l1.94.75-2.74,5.46-1.46-.59Z"/><path class="cls-2" d="M340.37,212.61a5.73,5.73,0,0,0-4-1.63,5.26,5.26,0,0,0-5.37,5.61,5.33,5.33,0,0,0,5.39,5.53,5.84,5.84,0,0,0,4-1.71v2.68a8.07,8.07,0,0,1-4,1.1,7.37,7.37,0,0,1-5.22-2,7.23,7.23,0,0,1-2.36-5.57,7.7,7.7,0,0,1,2.36-5.77,7.29,7.29,0,0,1,5.33-1.92,7,7,0,0,1,3.93,1.06Z"/><path class="cls-2" d="M363.71,216.55A7.67,7.67,0,1,1,356,208.9,7.47,7.47,0,0,1,363.71,216.55Zm-2.26,0a5.42,5.42,0,1,0-5.41,5.57A5.27,5.27,0,0,0,361.45,216.55Z"/><path class="cls-2" d="M372.72,223.91V208.17l10.7,11.2V209.16h2.25v15.65L375,213.61v10.3Z"/><path class="cls-2" d="M398.57,209.16a8.57,8.57,0,0,1,5.48,1.44,7.3,7.3,0,0,1,2.83,6,7,7,0,0,1-3,5.94,8.42,8.42,0,0,1-5.39,1.42h-3V209.16Zm-.84,12.62h1a6.39,6.39,0,0,0,3.91-1,5.16,5.16,0,0,0,2-4.19,5.27,5.27,0,0,0-2-4.25,6.57,6.57,0,0,0-3.93-1h-1Z"/><path class="cls-2" d="M418,209.16v8.89a5.17,5.17,0,0,0,.46,2.54,3.22,3.22,0,0,0,5.48,0,5.18,5.18,0,0,0,.47-2.54v-8.89h2.25v9.49a5.44,5.44,0,0,1-1.37,3.82,5.72,5.72,0,0,1-8.18,0,5.49,5.49,0,0,1-1.37-3.82v-9.49Z"/><path class="cls-2" d="M447.28,212.61a5.73,5.73,0,0,0-4-1.63,5.26,5.26,0,0,0-5.37,5.61,5.32,5.32,0,0,0,5.39,5.53,5.84,5.84,0,0,0,4-1.71v2.68a8.07,8.07,0,0,1-4,1.1,7.37,7.37,0,0,1-5.22-2,7.23,7.23,0,0,1-2.36-5.57,7.7,7.7,0,0,1,2.36-5.77,7.29,7.29,0,0,1,5.33-1.92,7,7,0,0,1,3.93,1.06Z"/><path class="cls-2" d="M460.71,211.29v12.62h-2.26V211.29h-3.38v-2.13h9v2.13Z"/><path class="cls-2" d="M486.34,216.55a7.67,7.67,0,1,1-7.67-7.65A7.47,7.47,0,0,1,486.34,216.55Zm-2.26,0a5.42,5.42,0,1,0-5.41,5.57A5.27,5.27,0,0,0,484.08,216.55Z"/><path class="cls-2" d="M498,209.16a6.53,6.53,0,0,1,3.89.87,4.1,4.1,0,0,1,1.74,3.46,4,4,0,0,1-3.27,4.12l4.6,6.3h-2.72l-4.22-6h-.4v6h-2.25V209.16Zm-.38,6.77h.71c.62,0,3.14-.07,3.14-2.41,0-2.08-2-2.28-3.07-2.28h-.78Z"/><path class="cls-2" d="M514.27,221.14l1.94.75-2.74,5.46-1.45-.59Z"/><path class="cls-2" d="M544.53,212.43a2.26,2.26,0,0,0-.66-.92,2.34,2.34,0,0,0-1.59-.53c-1.37,0-2.08.81-2.08,1.76,0,.45.15,1.22,1.59,1.79l1.48.6c2.72,1.11,3.47,2.65,3.47,4.33a4.54,4.54,0,0,1-4.75,4.73,4.31,4.31,0,0,1-3.47-1.48,4.73,4.73,0,0,1-1.24-2.87l2.23-.49a3.2,3.2,0,0,0,.62,1.88,2.34,2.34,0,0,0,1.93.89,2.37,2.37,0,0,0,2.43-2.48c0-1.5-1.15-2.12-2.12-2.52l-1.42-.6c-1.21-.5-3-1.52-3-3.73a4,4,0,0,1,4.31-3.89,4.35,4.35,0,0,1,3,1,5.18,5.18,0,0,1,1.12,1.48Z"/><path class="cls-2" d="M559,209.16a5.75,5.75,0,0,1,3.23.8,4.26,4.26,0,0,1,1.83,3.58,4.15,4.15,0,0,1-1.43,3.23,5.37,5.37,0,0,1-3.61,1.15h-1v6h-2.26V209.16Zm-1,6.68h1c2,0,2.88-1,2.88-2.32,0-.82-.33-2.28-2.9-2.28h-1Z"/><path class="cls-2" d="M580.47,211.29h-5.88V215h5.71v2.12h-5.71v4.64h5.88v2.13h-8.13V209.16h8.13Z"/><path class="cls-2" d="M598.59,220.35h-6.3l-1.61,3.56h-2.43l7.33-15.61,7,15.61h-2.43Zm-.91-2.13-2.18-5-2.28,5Z"/><path class="cls-2" d="M612.91,215l5.71-5.88h3l-6.66,6.68,6.7,8.07h-3l-5.26-6.55-.45.45v6.1h-2.25V209.16h2.25Z"/><path class="cls-2" d="M637.91,211.29H632V215h5.71v2.12H632v4.64h5.88v2.13h-8.13V209.16h8.13Z"/><path class="cls-2" d="M649.77,209.16a6.53,6.53,0,0,1,3.89.87,4.11,4.11,0,0,1,1.75,3.46,4.06,4.06,0,0,1-3.27,4.12l4.59,6.3H654l-4.23-6h-.39v6h-2.26V209.16Zm-.37,6.77h.7c.62,0,3.14-.07,3.14-2.41,0-2.08-2-2.28-3.07-2.28h-.77Z"/><path class="cls-2" d="M511.94,7.85C503.28,6.7,491.22,5.93,474,5.93a227.18,227.18,0,0,0-50.21,5.51,195.36,195.36,0,0,0-31.47,10.35A25.23,25.23,0,0,0,383.89,9a32.69,32.69,0,0,0-20.05-7.2,44,44,0,0,0-17,3.2A61.53,61.53,0,0,0,324,0c-15.08-.3-37.82,6.4-49.44,17.8-5,4.92-7.37,10.5-7.37,16.16a9.58,9.58,0,0,0,3.25,7.32c3,2.74,7.71,4.18,12.41,4.91a12.11,12.11,0,0,0-.27,2.54,4.93,4.93,0,0,0,1.92,3.9c2.54,2.08,7.45,2.93,12.57,2.93a105.8,105.8,0,0,0,17.42-1.75,131.4,131.4,0,0,0,23.64-7.28A31.65,31.65,0,0,0,353,50.89,5,5,0,0,0,355,54.72,7.15,7.15,0,0,0,359.4,56c10.6,0,33.72-14.38,33.72-28.64a20.55,20.55,0,0,0-.15-2.49C411,17.29,438.29,9.4,474,9.4c24.27,0,51.74.27,55.61,7.1.66,1.16-.58,2.84-.3,3.48s2.48.52,3.22-1.46C534.93,12.22,518.64,8.74,511.94,7.85ZM331.32,31.73a24.21,24.21,0,0,1,1.09-7.14c4.06,0,7.07.57,8.35,1.77a2.67,2.67,0,0,1,.75,2.27c0,1.23-.93,2.76-.1,2.76.41,0,3.09-2.07,3.09-3.76a4.44,4.44,0,0,0-1.64-3.49c-1.9-1.91-5.51-2.68-9.14-2.88a27.18,27.18,0,0,1,13-12.64c7.48,3.53,12.5,8.45,12.5,13.42,0,3.62-1.63,7.16-4.85,10.53a45.2,45.2,0,0,1-12.26,8.55c-1.28.65-2.58,1.26-3.88,1.84C334.22,40.19,331.32,36.35,331.32,31.73ZM283.85,43.27c-4.37-.62-8.73-1.85-11.33-4.23A6.58,6.58,0,0,1,270.26,34c0-4.81,2.24-9.45,6.65-13.78,10.91-10.68,32.9-17,47-16.71A58.73,58.73,0,0,1,342.79,7a32.45,32.45,0,0,0-5.35,3.9,27.65,27.65,0,0,0-7.19,10.34c-1.45.05-2.8.16-3.93.29a88.24,88.24,0,0,0-23.52,6.37C293,32.12,286.44,37.72,283.85,43.27Zm30,7.35c-7.56,1.52-23.37,3-27.44-.35a1.87,1.87,0,0,1-.8-1.53,8.8,8.8,0,0,1,.27-2.15c6.25.61,9.31,0,9.86-.13A3,3,0,0,0,298,44.82c.29-.79-.42-1.17-1.24-1.17a72.34,72.34,0,0,1-9.64,0c2.57-4.49,8.42-8.88,16.89-12.53a82.72,82.72,0,0,1,25.11-6.36,28.74,28.74,0,0,0-.86,7c0,5.13,2.74,9.41,6.7,12.61A129,129,0,0,1,313.89,50.62Zm39.89-2.79h-.34A28.15,28.15,0,0,1,341.66,45l1.83-.9c12.47-6.31,18.79-13.86,18.79-22,0-5.33-4-10.92-11.44-15.06a42,42,0,0,1,13-1.93c10.93,0,23,7.43,25.68,18q-1.81.8-3.6,1.62c-12.06,5.61-19.74,11-24.05,14.45C359.31,41.14,355.4,44.63,353.78,47.83Zm24.56-3.23c-6.48,4.9-14.27,8.32-18.94,8.32a4.29,4.29,0,0,1-2.59-.63,1.88,1.88,0,0,1-.71-1.53c8.22-.8,10-1.91,12-3,3-1.68,3.91-3.49,3.3-4.31s-3.89,1.1-4.83,1.46a31.21,31.21,0,0,1-9,2.58,37.47,37.47,0,0,1,6.16-6c4.18-3.38,11.64-8.57,23.42-14,.91-.42,1.84-.85,2.81-1.27,0,.4,0,.81,0,1.22C390.06,32.68,385.79,39,378.34,44.6Z"/><path class="cls-2" d="M499.93,66.38h0c-4.52,0-10.61,1-17.53,2.23-.38-1.06-.81-2.19-1.27-3.58,5.36-.9,9.73-1.52,12.74-2,1-.16,2.8-.26,2.69-.88s-2.11-.21-2.77-.21h0a106.29,106.29,0,0,0-13.58.51c-2.05-7-3.51-16.12.11-24.55a13,13,0,0,0,1-2.94c-.2-.82-2.14.13-3.61,1.63-2.56,2.61-2.63,7-2.69,12.81a52.53,52.53,0,0,0,1.74,13.23c-4.82.67-10,1.56-15.19,2.59-.88-.92-1.74-1.85-2.35-2.64-4-5.14-4.34-11.21-1.69-18.51.29-.79,1.84-4.66,1.12-5.11s-2,.64-2.83,2.22c-3,5.57-4.85,12-2.14,18.68a16.21,16.21,0,0,0,4.47,6C450,67.58,442,69.55,435.64,71.42a45.23,45.23,0,0,1-3-17.78c.14-2.65.66-6.33-.16-6.52s-1.89,3.2-2.07,4c-2.55,11.11.34,17.95,2.36,21.13a58,58,0,0,0-9.4,3.56,1.31,1.31,0,0,0-.63,1.62,1.23,1.23,0,0,0,1.09.61,1.58,1.58,0,0,0,.52-.09c2.16-.7,5.91-1.74,10.56-2.94.7.86,1.67,2,2.44,2,.44,0,.05-1.21-.45-2.5,5.86-1.49,12.88-3.17,19.91-4.74,1.92-.43,3.8-.83,5.64-1.22,1.1.48,2.45,1,2.61.64.06-.14-.21-.51-.67-1,4.76-1,9.19-1.78,13.19-2.48.42,1.47.8,2.7,1.14,3.76-25,4.92-58.22,15.07-67.52,19.5a1.91,1.91,0,0,0-.76,2.34,1.54,1.54,0,0,0,2,.74c6.42-3.06,23.61-8.68,40.87-13.38,9.8-2.67,18.81-4.56,26.5-6,.83,2.12,1.38,3.08,1.91,4.35.22.53,1.76,4.54,2.44,4.36s.82-1.51.85-1.78a14.7,14.7,0,0,0-.54-5A25.69,25.69,0,0,0,483.6,72c6.95-1.25,12.59-2.12,16.47-2.92,1.21-.25,3.52-1,3.38-1.88S500.77,66.38,499.93,66.38Z"/><path class="cls-2" d="M415.64,86.26c.35-.08-2.38-6.65-3-9.27-.78-3.3-3.32-6.94-1.52-28.24.06-.84.9-4.46.52-4.55-.81-.22-3,4.2-3.45,6.23-2.88,12-1,19,.92,25.49A24.28,24.28,0,0,0,413,84.17,7.48,7.48,0,0,0,415.64,86.26Z"/><path class="cls-2" d="M419.36,33.35a1.93,1.93,0,0,0,1.62-1.7c0-.91-.22-1.52-1.21-1.52a2.06,2.06,0,0,0-1.43.55,1.88,1.88,0,0,0-.41,1.2C417.93,32.79,418.39,33.59,419.36,33.35Z"/><path class="cls-2" d="M441.54,37.57a1.81,1.81,0,0,0,.4-1.25c0-.94-.63-1.28-1.51-1.28s-1.51,1-1.51,2,.45,1.34,1.34,1.34A2.25,2.25,0,0,0,441.54,37.57Z"/><path class="cls-2" d="M492.39,27.6c0-1-.93-1.48-2.13-1.48A2,2,0,0,0,488.08,28c0,1,.94,1.48,2.14,1.48A2,2,0,0,0,492.39,27.6Z"/><path class="cls-2" d="M465.42,32.18c.83-.94,2.85-2.83,2.65-3.39-.11-.3-.92-.31-1.51-.27A5.22,5.22,0,0,0,463,30.79c-1.87,2.82-.65,3.46.22,3.54S464.2,33.55,465.42,32.18Z"/></svg>