<?xml version="1.0" encoding="UTF-8"?>
<svg width="117px" height="117px" viewBox="0 0 117 117" version="1.1" xmlns="http://www.w3.org/2000/svg" xmlns:xlink="http://www.w3.org/1999/xlink">
    <title>jacktrip</title>
    <g id="Page-1" stroke="none" stroke-width="1" fill="none" fill-rule="evenodd">
        <g id="Artboard" transform="translate(-679.000000, -58.000000)">
            <g id="jacktrip" transform="translate(679.000000, 58.000000)">
                <path d="M65.8247612,10 C68.8746202,10 71.3464306,12.3876748 71.3464306,15.3328338 C71.3464306,18.2779928 68.8746202,20.6649472 65.8247612,20.6649472 C64.8797449,20.6649472 63.9906689,20.4351831 63.2119815,20.0318353 L52.1649133,26.1908117 C52.1164318,26.2217831 52.0672045,26.2520341 52.0164854,26.2801244 C49.1090874,27.9014384 47.150435,30.5282408 46.3396752,33.4525121 C45.5274237,36.3789443 45.8608272,39.5985238 47.5367952,42.4017908 L47.6419627,42.5768149 C47.6732892,42.6286739 47.7023781,42.6812532 47.7299753,42.7345527 L70.6057825,80.9964105 C70.7266133,81.1599104 70.8265598,81.333494 70.9071136,81.5142802 C71.9155287,83.3704002 72.0960291,85.4685289 71.5679537,87.3707458 C71.0316738,89.3060948 69.7636962,91.0592171 67.8908187,92.1770666 C66.7488931,92.95063 65.1616835,92.8461918 64.1413345,91.8608708 C62.9986629,90.7574265 62.9986629,88.9668505 64.1413345,87.8634063 L64.1420803,87.8634063 L64.1465555,87.8670076 C64.3225807,87.6977456 64.5224736,87.5472104 64.7477261,87.4211643 C65.3421838,87.0898429 65.7471908,86.5352397 65.9194865,85.913652 C66.0932741,85.2877427 66.0321128,84.6106946 65.6942341,84.0402456 L65.6905047,84.0337632 L42.681187,45.5471832 C42.6491146,45.500366 42.6177881,45.4528286 42.5886992,45.4038507 L42.4827858,45.2288265 C39.9953121,41.0671419 39.4948339,36.3083584 40.691208,31.994698 C41.888328,27.6795972 44.784538,23.7995356 49.0889489,21.3996164 C49.1426515,21.3693653 49.1970999,21.3419953 49.2522943,21.3153455 L60.3060752,15.1527678 C60.40453,12.2911594 62.8375552,10 65.8247612,10 M44.9359494,88.4669874 C44.9672759,88.5195667 44.9963648,88.5714257 45.0232161,88.6247252 L48.1327447,93.8257507 L48.1372199,93.8228696 C50.5694992,97.8901997 54.5091801,100.630084 58.8941449,101.763779 C63.2820932,102.899635 68.111596,102.430743 72.3182981,100.084844 C72.3690172,100.056753 72.4189904,100.030824 72.4697095,100.005615 C76.5966036,97.656114 79.3801873,93.8898541 80.5429973,89.6979184 C81.7199789,85.4555641 81.234418,80.7882542 78.8036304,76.7223646 L58.996329,43.5916667 C56.0337367,43.4965919 53.6611269,41.1478114 53.6611269,38.2624343 C53.6611269,35.3179956 56.1336831,32.9303208 59.1835421,32.9303208 C62.2334011,32.9303208 64.7052115,35.3179956 64.7052115,38.2624343 C64.7052115,39.1757289 64.4672793,40.0342835 64.0495926,40.7855187 L83.8576399,73.9176571 C87.0984414,79.3376428 87.750331,85.536954 86.1914645,91.1557325 C84.6557199,96.6902401 80.9703804,101.676627 75.494209,104.819138 C75.351748,104.917814 75.1988448,105.004966 75.037737,105.079153 C69.4735531,108.110744 63.1366487,108.706402 57.3845057,107.218337 C51.6249041,105.728832 46.4403675,102.1484 43.1943449,96.8328524 C43.0996196,96.6996035 43.0168281,96.5577116 42.9459705,96.4086169 L39.9744278,91.4373556 C39.9431013,91.3905385 39.9110289,91.3430011 39.88194,91.2940231 C39.5388402,90.7206931 38.9637751,90.3288695 38.3193441,90.1624886 C37.6734214,89.9961076 36.9737961,90.0558895 36.3845595,90.3843299 C34.9890383,91.1643756 33.2019358,90.7048473 32.3934136,89.3572336 C31.5856373,88.0096198 32.0615018,86.2838676 33.457023,85.5031015 C35.4514772,84.3902939 37.7517377,84.1720539 39.8289833,84.7079302 C41.9092124,85.2459673 43.786565,86.5446031 44.9359494,88.4669874" id="Fill-1" fill="#F21B1B"></path>
                <rect id="Rectangle" x="0" y="0" width="117" height="117"></rect>
            </g>
        </g>
    </g>
</svg>