<?xml version="1.0" encoding="UTF-8"?>
<svg width="210px" height="66px" viewBox="0 0 210 66" version="1.1" xmlns="http://www.w3.org/2000/svg" xmlns:xlink="http://www.w3.org/1999/xlink">
    <title>jacktrip_logo</title>
    <g id="Page-1" stroke="none" stroke-width="1" fill="none" fill-rule="evenodd">
        <g id="Artboard-Copy-3" transform="translate(-755.000000, -274.000000)">
            <g id="VIDEO-POSTER" transform="translate(82.000000, 87.000000)">
                <g id="jacktrip_logo" transform="translate(673.000000, 188.000000)">
                    <path d="M55.2335558,44.3965649 C55.2335558,46.4914887 54.2350197,47.8245163 52.2379476,47.8245163 C50.2025604,47.8245163 49.1653184,46.4534908 49.1270034,44.2061878 L43.75,44.2061878 C43.75,49.5766837 47.2835822,52.5854952 52.3149685,52.5854952 C57.2693339,52.5854952 60.6492651,49.6526795 60.6492651,44.3965649 L60.6492651,25.7330156 L55.2335558,25.7330156 L55.2335558,44.3965649 Z M198.38977,24.7931497 L200.107299,24.7931497 L200.107299,30.3497577 L200.925989,30.3497577 L200.925989,24.7931497 L202.634526,24.7931497 L202.634526,24.1332274 L198.38977,24.1332274 L198.38977,24.7931497 Z M203.641663,30.3497577 L204.459962,30.3497577 L204.459962,25.7384439 L206.537574,30.3497577 L207.113081,30.3497577 L209.18131,25.7477495 L209.18131,30.3497577 L210,30.3497577 L210,24.1778168 L209.127356,24.1778168 L206.825328,29.2792257 L204.522908,24.1778168 L203.641663,24.1778168 L203.641663,30.3497577 Z M178.182903,35.2933591 L178.182903,31.4462679 L174.688027,31.4462679 L174.688027,62.2222222 L178.182903,62.2222222 L178.182903,48.4720311 C179.488741,50.6049528 182.215753,52.6618787 186.056638,52.6618787 C191.702237,52.6618787 196.042389,48.281654 196.042389,41.8065055 C196.042389,35.2933591 191.702237,31.1035115 186.056638,31.1035115 C182.215753,31.1035115 179.450426,33.084054 178.182903,35.2933591 Z M192.470101,41.8065055 C192.470101,46.7198637 189.205897,49.6146816 185.326698,49.6146816 C181.524519,49.6146816 178.182903,46.7582493 178.182903,41.8445034 C178.182903,37.0071409 181.524519,34.1127108 185.326698,34.1127108 C189.205897,34.1127108 192.470101,36.8931473 192.470101,41.8065055 Z M166.560553,52.3191223 L170.055429,52.3191223 L170.055429,31.4466556 L166.560553,31.4466556 L166.560553,52.3191223 Z M168.365659,28.0563144 C169.633182,28.0563144 170.670034,27.0280453 170.670034,25.6950177 C170.670034,24.3619902 169.633182,23.3333333 168.365659,23.3333333 C167.021506,23.3333333 165.984655,24.3619902 165.984655,25.6950177 C165.984655,27.0280453 167.021506,28.0563144 168.365659,28.0563144 Z M157.050611,40.9686135 C157.050611,36.1312511 159.585267,34.6458443 162.926883,34.6458443 L163.848789,34.6458443 L163.848789,31.0655137 C160.507173,31.0655137 158.241114,32.5129226 157.050611,34.8362214 L157.050611,31.4462679 L153.555344,31.4462679 L153.555344,52.3191223 L157.050611,52.3191223 L157.050611,40.9686135 Z M132.446511,28.5894479 L139.782271,28.5894479 L139.782271,52.3191223 L143.277538,52.3191223 L143.277538,28.5894479 L150.574593,28.5894479 L150.574593,25.7710135 L132.446511,25.7710135 L132.446511,28.5894479 Z M112.538735,52.3191223 L117.915348,52.3191223 L117.915348,43.3299102 L125.136163,52.3191223 L132.125916,52.3191223 L122.678138,41.8065055 L132.049286,31.2178929 L125.059142,31.2178929 L117.915348,40.1687194 L117.915348,24.1332274 L112.538735,24.1332274 L112.538735,52.3191223 Z M89.2119319,41.7685076 C89.2119319,48.3956476 93.5903992,52.6618787 99.7356576,52.6618787 C105.03564,52.6618787 108.607537,49.6906773 109.759724,45.196459 L103.960474,45.196459 C103.307555,47.1010057 101.924696,48.0912769 99.6973426,48.0912769 C96.7013434,48.0912769 94.7042713,45.8819717 94.7042713,41.7685076 C94.7042713,37.6546558 96.7013434,35.4077405 99.6973426,35.4077405 C101.924696,35.4077405 103.34587,36.5503909 103.960474,38.3405563 L109.759724,38.3405563 C108.607537,33.6175752 105.03564,30.8751365 99.7356576,30.8751365 C93.5903992,30.8751365 89.2119319,35.1409799 89.2119319,41.7685076 Z M64.3494003,41.6921241 C64.3494003,48.281654 68.6512376,52.6618787 74.0282409,52.6618787 C77.4081721,52.6618787 79.8274913,51.0620905 81.0950144,49.2339273 L81.0950144,52.3191223 L86.5103328,52.3191223 L86.5103328,31.2178929 L81.0950144,31.2178929 L81.0950144,34.2267044 C79.8274913,32.4749247 77.4848022,30.8751365 74.0665559,30.8751365 C68.6512376,30.8751365 64.3494003,35.102982 64.3494003,41.6921241 Z M81.0950144,41.7685076 C81.0950144,45.7679781 78.4067082,47.9768955 75.449415,47.9768955 C72.5683609,47.9768955 69.8417397,45.6915946 69.8417397,41.6921241 C69.8417397,37.6930414 72.5683609,35.559732 75.449415,35.559732 C78.4067082,35.559732 81.0950144,37.7690372 81.0950144,41.7685076 L81.0950144,41.7685076 Z" id="Fill-2" fill="#FFFFFF" fill-rule="nonzero"></path>
                    <path d="M6.63130741,53.7025528 C6.6473662,53.7307202 6.66227793,53.7585018 6.67604261,53.7870552 L8.2700686,56.5733188 L8.27236271,56.5717754 C9.51921298,58.7507022 11.5387969,60.2184971 13.786645,60.8258339 C16.0360225,61.4343283 18.5117525,61.1831362 20.6682185,59.9264044 C20.6942184,59.911356 20.719836,59.8974652 20.7458359,59.8839603 C22.8613902,58.6252991 24.2883283,56.60766 24.8844153,54.3619801 C25.4877669,52.0892903 25.2388557,49.5889457 23.9927701,47.4107906 L13.8390272,29.6622024 C12.3203246,29.6112695 11.1040625,28.3529942 11.1040625,26.8072565 C11.1040625,25.2298786 12.3715598,23.9507671 13.9349976,23.9507671 C15.4984354,23.9507671 16.7655504,25.2298786 16.7655504,26.8072565 C16.7655504,27.2965214 16.64358,27.7564614 16.4294629,28.1589088 L26.5835881,45.9082687 C28.2449081,48.8118324 28.5790838,52.132892 27.7799679,55.1429519 C26.9927049,58.1078667 25.1035031,60.7791454 22.2962738,62.4622477 C22.2232445,62.5154958 22.1448623,62.5621843 22.0622743,62.6019275 C19.2099275,64.2259939 15.9614639,64.5450965 13.0127643,63.7479187 C10.0602412,62.9499693 7.40251164,61.031495 5.73851521,58.1842661 C5.68995649,58.1128828 5.6475154,58.0368693 5.61119195,57.9569972 L4.0879011,55.2938215 C4.07184231,55.2687409 4.05540117,55.2432744 4.04048944,55.2170362 C3.86460746,54.9098951 3.56981398,54.6999896 3.23946174,54.610857 C2.90834481,54.5217243 2.54969852,54.5537503 2.24764034,54.7293147 C1.53225953,55.1471963 0.616143844,54.9014063 0.201674148,54.1794704 C-0.212413199,53.4575344 0.0315274537,52.5330243 0.74690827,52.1147568 C1.76931784,51.5186098 2.94849178,51.4013097 4.01334244,51.6887721 C5.0797225,51.9770063 6.04210279,52.6727041 6.63130741,53.7025528 Z M17.3394609,11.6666667 C18.9028987,11.6666667 20.1700136,12.9457781 20.1700136,14.5235419 C20.1700136,16.1013056 18.9028987,17.3800313 17.3394609,17.3800313 C16.8550208,17.3800313 16.399257,17.2569433 16.0000814,17.0408641 L10.3370642,20.3403158 C10.3122113,20.3569076 10.286976,20.3731135 10.2609761,20.3881619 C8.77056752,21.256723 7.76651086,22.6639385 7.3508941,24.2305125 C6.93451264,25.798244 7.10542404,27.5230187 7.96456925,29.0247689 L8.0184809,29.1185318 C8.03453969,29.1463134 8.04945142,29.1744809 8.06359845,29.2030342 L19.790338,49.700458 C19.852279,49.7880472 19.9035142,49.8810384 19.9448082,49.9778882 C20.4617483,50.9722382 20.5542775,52.0962357 20.2835722,53.1152805 C20.0086611,54.1520746 19.3586624,55.0912473 18.3985763,55.6900952 C17.8131952,56.1045042 16.9995499,56.0485551 16.4764922,55.5207046 C15.8907287,54.9295737 15.8907287,53.9703366 16.4764922,53.3792057 L16.4768745,53.3788199 L16.4791686,53.381135 C16.5694037,53.2904589 16.6718741,53.2098151 16.7873444,53.1422904 C17.0920791,52.9647968 17.2996963,52.6676879 17.3880196,52.3346945 C17.4771077,51.9993859 17.4457548,51.6366816 17.2725493,51.331084 L17.2706375,51.3276113 L5.47545695,30.7098005 C5.45901581,30.6847199 5.44295702,30.6592534 5.42804529,30.6330152 L5.37375128,30.5392523 C4.09860696,28.3097784 3.84204869,25.7604301 4.45534149,23.4495406 C5.06901664,21.1378794 6.55368993,19.059275 8.76024402,17.773604 C8.78777337,17.7573981 8.81568507,17.7427356 8.84397913,17.7284589 L14.5104376,14.427078 C14.560908,12.8940735 15.8081407,11.6666667 17.3394609,11.6666667 L17.3394609,11.6666667 Z" id="Fill-3" fill="#F21B1B" fill-rule="nonzero"></path>
                    <text id="Powered-By" font-family="Poppins-SemiBold, Poppins" font-size="14" font-weight="500" fill="#FFFFFF">
                        <tspan x="42.7777778" y="14.7222222">Powered By</tspan>
                    </text>
                </g>
            </g>
        </g>
    </g>
</svg>