<?xml version="1.0" encoding="UTF-8"?>
<svg width="1001px" height="255px" viewBox="0 0 1001 255" version="1.1" xmlns="http://www.w3.org/2000/svg" xmlns:xlink="http://www.w3.org/1999/xlink">
    <title>jacktrip_logo</title>
    <g id="Page-1" stroke="none" stroke-width="1" fill="none" fill-rule="evenodd">
        <g id="jacktrip_logo" transform="translate(0.540543, 0.969000)" fill-rule="nonzero">
            <path d="M262.732995,161.126588 C262.732995,171.18955 257.976229,177.592745 248.462698,177.592745 C238.766644,177.592745 233.825493,171.007027 233.642971,160.212112 L208.028328,160.212112 C208.028328,186.009277 224.861393,200.462096 248.829606,200.462096 C272.430911,200.462096 288.532023,186.374322 288.532023,161.126588 L288.532023,71.4762699 L262.732995,71.4762699 L262.732995,161.126588 Z M944.691891,66.9616262 L952.873751,66.9616262 L952.873751,93.6527804 L956.773777,93.6527804 L956.773777,66.9616262 L964.912801,66.9616262 L964.912801,63.7916908 L944.691891,63.7916908 L944.691891,66.9616262 Z M969.710541,93.6527804 L973.608705,93.6527804 L973.608705,71.5023445 L983.505906,93.6527804 L986.247472,93.6527804 L996.099974,71.547044 L996.099974,93.6527804 L1000,93.6527804 L1000,64.0058757 L995.842952,64.0058757 L984.876689,88.5104821 L973.908563,64.0058757 L969.710541,64.0058757 L969.710541,93.6527804 Z M848.431643,117.399359 L848.431643,98.9198646 L831.782963,98.9198646 L831.782963,246.752093 L848.431643,246.752093 L848.431643,180.703081 C854.652315,190.948565 867.64309,200.829004 885.940062,200.829004 C912.834226,200.829004 933.50958,179.788605 933.50958,148.685243 C933.50958,117.399359 912.834226,97.2734352 885.940062,97.2734352 C867.64309,97.2734352 854.469792,106.786966 848.431643,117.399359 Z M916.49213,148.685243 C916.49213,172.286548 900.942312,186.1918 882.462818,186.1918 C864.350232,186.1918 848.431643,172.470934 848.431643,148.867766 C848.431643,125.631506 864.350232,111.728117 882.462818,111.728117 C900.942312,111.728117 916.49213,125.083938 916.49213,148.685243 Z M793.065797,199.182575 L809.714476,199.182575 L809.714476,98.9217271 L793.065797,98.9217271 L793.065797,199.182575 Z M801.664852,82.6362305 C807.703002,82.6362305 812.64229,77.6969422 812.64229,71.2937471 C812.64229,64.8905521 807.703002,59.9494013 801.664852,59.9494013 C795.261657,59.9494013 790.322369,64.8905521 790.322369,71.2937471 C790.322369,77.6969422 795.261657,82.6362305 801.664852,82.6362305 Z M747.762913,144.660431 C747.762913,121.424171 759.837349,114.289023 775.755938,114.289023 L780.147658,114.289023 L780.147658,97.0909125 C764.229069,97.0909125 753.434154,104.043538 747.762913,115.203499 L747.762913,98.9198646 L731.112371,98.9198646 L731.112371,199.182575 L747.762913,199.182575 L747.762913,144.660431 Z M630.555389,85.197136 L665.50104,85.197136 L665.50104,199.182575 L682.151582,199.182575 L682.151582,85.197136 L716.912848,85.197136 L716.912848,71.6587926 L630.555389,71.6587926 L630.555389,85.197136 Z M535.719936,199.182575 L561.332716,199.182575 L561.332716,156.002914 L595.730799,199.182575 L629.028158,199.182575 L584.021408,148.685243 L628.663113,97.8228658 L595.363891,97.8228658 L561.332716,140.818141 L561.332716,63.7916908 L535.719936,63.7916908 L535.719936,199.182575 Z M424.597124,148.50272 C424.597124,180.336173 445.455001,200.829004 474.72941,200.829004 C499.977145,200.829004 516.992732,186.556845 522.481451,164.968877 L494.855334,164.968877 C491.744997,174.117363 485.157417,178.874129 474.546887,178.874129 C460.274728,178.874129 450.761197,168.261736 450.761197,148.50272 C450.761197,128.741842 460.274728,117.948789 474.546887,117.948789 C485.157417,117.948789 491.92752,123.437508 494.855334,132.036564 L522.481451,132.036564 C516.992732,109.349734 499.977145,96.1764364 474.72941,96.1764364 C445.455001,96.1764364 424.597124,116.667405 424.597124,148.50272 Z M306.158503,148.135812 C306.158503,179.788605 326.651334,200.829004 352.265977,200.829004 C368.367088,200.829004 379.892094,193.144425 385.930244,184.362848 L385.930244,199.182575 L411.727409,199.182575 L411.727409,97.8228658 L385.930244,97.8228658 L385.930244,112.275685 C379.892094,103.861015 368.732134,96.1764364 352.4485,96.1764364 C326.651334,96.1764364 306.158503,116.484883 306.158503,148.135812 Z M385.930244,148.50272 C385.930244,167.714168 373.123854,178.324698 359.03608,178.324698 C345.311489,178.324698 332.322576,167.34726 332.322576,148.135812 C332.322576,128.926227 345.311489,118.67888 359.03608,118.67888 C373.123854,118.67888 385.930244,129.291273 385.930244,148.50272 L385.930244,148.50272 Z" id="Fill-2" fill="#FFFFFF"></path>
            <path d="M32.3017845,202.901941 C32.3800085,203.037902 32.4526451,203.172 32.5196943,203.309823 L40.2843598,216.758768 L40.2955347,216.751318 C46.3690713,227.268724 56.2066735,234.353586 67.1561742,237.285124 C78.1131249,240.22225 90.1726618,239.009778 100.677031,232.943691 C100.803679,232.871054 100.928465,232.804005 101.055113,232.738818 C111.360197,226.663419 118.31096,216.924528 121.214562,206.084914 C124.15355,195.114926 122.941078,183.046076 116.871266,172.532395 L67.4113335,86.8621902 C60.0135759,86.6163433 54.0890374,80.5428066 54.0890374,73.0817248 C54.0890374,65.4679199 60.2631478,59.2938095 67.8788152,59.2938095 C75.4944826,59.2938095 81.6667305,65.4679199 81.6667305,73.0817248 C81.6667305,75.4433453 81.0726004,77.6634176 80.0296135,79.6059808 L129.491408,165.279911 C137.58387,179.295048 139.211674,195.325386 135.319098,209.854567 C131.484258,224.165838 122.281761,237.059764 108.607457,245.183888 C108.251723,245.44091 107.869916,245.666269 107.467621,245.858105 C93.5735443,253.697269 77.7499419,255.237537 63.3865213,251.38966 C49.0044759,247.538059 36.0584001,238.277824 27.9529013,224.534608 C27.7163668,224.19005 27.5096319,223.823142 27.3326966,223.43761 L19.9125892,210.582795 C19.8343652,210.461734 19.7542787,210.338811 19.6816421,210.212162 C18.8249028,208.729631 17.3889332,207.716443 15.7797533,207.286211 C14.1668485,206.855979 12.4198453,207.010565 10.9484887,207.857992 C7.46379469,209.875054 3.00130042,208.688656 0.982375639,205.203962 C-1.03468667,201.719268 0.153573489,197.256774 3.63826746,195.237849 C8.61853026,192.360323 14.3624085,191.79413 19.5494063,193.181675 C24.7438539,194.572945 29.4317079,197.930991 32.3017845,202.901941 Z M84.4623081,0 C92.0779755,0 98.2502234,6.17411039 98.2502234,13.7897778 C98.2502234,21.4054452 92.0779755,27.5776931 84.4623081,27.5776931 C82.1025501,27.5776931 79.8824778,26.983563 77.9380521,25.940576 L50.3529091,41.8666146 C50.2318481,41.9467011 50.1089246,42.0249252 49.9822762,42.0975618 C42.7223419,46.2899969 37.831478,53.0824496 35.8069657,60.6441051 C33.7787286,68.2113481 34.6112557,76.5366192 38.7962409,83.7853786 L39.0588501,84.2379605 C39.1370741,84.3720588 39.2097107,84.5080196 39.2786224,84.6458429 L96.400784,183.584332 C96.7025052,184.007114 96.9520771,184.455971 97.1532246,184.923453 C99.6712932,189.723056 100.122013,195.14845 98.803379,200.067251 C97.4642582,205.071726 94.2980478,209.604995 89.6213687,212.495559 C86.7699168,214.495859 82.8065663,214.2258 80.2586981,211.677931 C77.4053837,208.824617 77.4053837,204.1945 80.2586981,201.341186 L80.2605606,201.339323 L80.2717354,201.350498 C80.7112799,200.912816 81.2104237,200.523558 81.7728917,200.197625 C83.2572856,199.340885 84.2686105,197.906778 84.6988426,196.299461 C85.1327997,194.680969 84.9800766,192.930241 84.1363747,191.455159 L84.1270623,191.438397 L26.6715173,91.9188146 C26.5914308,91.7977536 26.5132068,91.6748301 26.4405702,91.5481817 L26.1760985,91.0955998 C19.9647386,80.3342092 18.7150167,68.0288254 21.7024294,56.8744522 C24.6917046,45.7163541 31.9237017,35.6831919 42.672055,29.4774194 C42.8061533,29.3991953 42.9421141,29.3284212 43.0799374,29.2595096 L70.6818427,13.3241586 C70.9276896,5.92453851 77.0030888,0 84.4623081,0 L84.4623081,0 Z" id="Fill-3" fill="#F21B1B"></path>
        </g>
    </g>
</svg>