<?xml version="1.0" encoding="UTF-8"?>
<svg width="242px" height="156px" viewBox="0 0 242 156" version="1.1" xmlns="http://www.w3.org/2000/svg" xmlns:xlink="http://www.w3.org/1999/xlink">
    <title>80k_logo</title>
    <g id="Page-1" stroke="none" stroke-width="1" fill="none" fill-rule="evenodd">
        <g id="80k_logo" transform="translate(0.780000, 0.640000)" fill="#FFFFFF" fill-rule="nonzero">
            <path d="M18.9,84.13 C22.4,84.13 25.585,83.5 28.455,82.24 C31.325,80.98 33.6,79.1483333 35.28,76.745 C36.96,74.3416667 37.8,71.4833333 37.8,68.17 C37.8,65.3233333 37.1233333,62.8383333 35.77,60.715 C34.4166667,58.5916667 32.48,56.9233333 29.96,55.71 C31.9666667,54.6366667 33.565,53.1666667 34.755,51.3 C35.945,49.4333333 36.54,47.24 36.54,44.72 C36.54,42.2 35.8866667,39.9016667 34.58,37.825 C33.2733333,35.7483333 31.3016667,34.0916667 28.665,32.855 C26.0283333,31.6183333 22.7733333,31 18.9,31 C15.0266667,31 11.76,31.6183333 9.1,32.855 C6.44,34.0916667 4.45666667,35.7483333 3.15,37.825 C1.84333333,39.9016667 1.19,42.2 1.19,44.72 C1.19,49.7133333 3.38333333,53.3766667 7.77,55.71 C5.29666667,56.8766667 3.38333333,58.5216667 2.03,60.645 C0.676666667,62.7683333 0,65.2766667 0,68.17 C0,71.4833333 0.84,74.3416667 2.52,76.745 C4.2,79.1483333 6.475,80.98 9.345,82.24 C12.215,83.5 15.4,84.13 18.9,84.13 Z M18.9,52.49 C17.1266667,52.49 15.68,51.965 14.56,50.915 C13.44,49.865 12.88,48.43 12.88,46.61 C12.88,44.6966667 13.4283333,43.2033333 14.525,42.13 C15.6216667,41.0566667 17.08,40.52 18.9,40.52 C20.72,40.52 22.1783333,41.045 23.275,42.095 C24.3716667,43.145 24.92,44.6266667 24.92,46.54 C24.92,48.36 24.36,49.8066667 23.24,50.88 C22.12,51.9533333 20.6733333,52.49 18.9,52.49 Z M18.9,74.33 C16.66,74.33 14.875,73.7 13.545,72.44 C12.215,71.18 11.55,69.57 11.55,67.61 C11.55,65.51 12.2266667,63.865 13.58,62.675 C14.9333333,61.485 16.7066667,60.89 18.9,60.89 C21.0466667,60.89 22.785,61.4966667 24.115,62.71 C25.445,63.9233333 26.11,65.5566667 26.11,67.61 C26.11,69.57 25.4683333,71.18 24.185,72.44 C22.9016667,73.7 21.14,74.33 18.9,74.33 Z M64.4,82.94 C71.3066667,82.94 76.3116667,80.63 79.415,76.01 C82.5183333,71.39 84.07,65.02 84.07,56.9 C84.07,48.8733333 82.5183333,42.55 79.415,37.93 C76.3116667,33.31 71.3066667,31 64.4,31 C57.4933333,31 52.4883333,33.31 49.385,37.93 C46.2816667,42.55 44.73,48.8733333 44.73,56.9 C44.73,65.02 46.2816667,71.39 49.385,76.01 C52.4883333,80.63 57.4933333,82.94 64.4,82.94 Z M64.4,71.74 C62.16,71.74 60.4683333,71.0983333 59.325,69.815 C58.1816667,68.5316667 57.4233333,66.8516667 57.05,64.775 C56.6766667,62.6983333 56.49,60.0733333 56.49,56.9 C56.49,52.1866667 57.0033333,48.5583333 58.03,46.015 C59.0566667,43.4716667 61.18,42.2 64.4,42.2 C67.62,42.2 69.7433333,43.4716667 70.77,46.015 C71.7966667,48.5583333 72.31,52.1866667 72.31,56.9 C72.31,60.0733333 72.1233333,62.6983333 71.75,64.775 C71.3766667,66.8516667 70.6183333,68.5316667 69.475,69.815 C68.3316667,71.0983333 66.64,71.74 64.4,71.74 Z M96.67,92.18 L104.44,72.09 L93.1,72.09 L89.04,92.18 L96.67,92.18 Z M130.13,82.94 C137.036667,82.94 142.041667,80.63 145.145,76.01 C148.248333,71.39 149.8,65.02 149.8,56.9 C149.8,48.8733333 148.248333,42.55 145.145,37.93 C142.041667,33.31 137.036667,31 130.13,31 C123.223333,31 118.218333,33.31 115.115,37.93 C112.011667,42.55 110.46,48.8733333 110.46,56.9 C110.46,65.02 112.011667,71.39 115.115,76.01 C118.218333,80.63 123.223333,82.94 130.13,82.94 Z M130.13,71.74 C127.89,71.74 126.198333,71.0983333 125.055,69.815 C123.911667,68.5316667 123.153333,66.8516667 122.78,64.775 C122.406667,62.6983333 122.22,60.0733333 122.22,56.9 C122.22,52.1866667 122.733333,48.5583333 123.76,46.015 C124.786667,43.4716667 126.91,42.2 130.13,42.2 C133.35,42.2 135.473333,43.4716667 136.5,46.015 C137.526667,48.5583333 138.04,52.1866667 138.04,56.9 C138.04,60.0733333 137.853333,62.6983333 137.48,64.775 C137.106667,66.8516667 136.348333,68.5316667 135.205,69.815 C134.061667,71.0983333 132.37,71.74 130.13,71.74 Z M175.77,82.94 C182.676667,82.94 187.681667,80.63 190.785,76.01 C193.888333,71.39 195.44,65.02 195.44,56.9 C195.44,48.8733333 193.888333,42.55 190.785,37.93 C187.681667,33.31 182.676667,31 175.77,31 C168.863333,31 163.858333,33.31 160.755,37.93 C157.651667,42.55 156.1,48.8733333 156.1,56.9 C156.1,65.02 157.651667,71.39 160.755,76.01 C163.858333,80.63 168.863333,82.94 175.77,82.94 Z M175.77,71.74 C173.53,71.74 171.838333,71.0983333 170.695,69.815 C169.551667,68.5316667 168.793333,66.8516667 168.42,64.775 C168.046667,62.6983333 167.86,60.0733333 167.86,56.9 C167.86,52.1866667 168.373333,48.5583333 169.4,46.015 C170.426667,43.4716667 172.55,42.2 175.77,42.2 C178.99,42.2 181.113333,43.4716667 182.14,46.015 C183.166667,48.5583333 183.68,52.1866667 183.68,56.9 C183.68,60.0733333 183.493333,62.6983333 183.12,64.775 C182.746667,66.8516667 181.988333,68.5316667 180.845,69.815 C179.701667,71.0983333 178.01,71.74 175.77,71.74 Z M221.41,82.94 C228.316667,82.94 233.321667,80.63 236.425,76.01 C239.528333,71.39 241.08,65.02 241.08,56.9 C241.08,48.8733333 239.528333,42.55 236.425,37.93 C233.321667,33.31 228.316667,31 221.41,31 C214.503333,31 209.498333,33.31 206.395,37.93 C203.291667,42.55 201.74,48.8733333 201.74,56.9 C201.74,65.02 203.291667,71.39 206.395,76.01 C209.498333,80.63 214.503333,82.94 221.41,82.94 Z M221.41,71.74 C219.17,71.74 217.478333,71.0983333 216.335,69.815 C215.191667,68.5316667 214.433333,66.8516667 214.06,64.775 C213.686667,62.6983333 213.5,60.0733333 213.5,56.9 C213.5,52.1866667 214.013333,48.5583333 215.04,46.015 C216.066667,43.4716667 218.19,42.2 221.41,42.2 C224.63,42.2 226.753333,43.4716667 227.78,46.015 C228.806667,48.5583333 229.32,52.1866667 229.32,56.9 C229.32,60.0733333 229.133333,62.6983333 228.76,64.775 C228.386667,66.8516667 227.628333,68.5316667 226.485,69.815 C225.341667,71.0983333 223.65,71.74 221.41,71.74 Z" id="80,000"></path>
            <path d="M8.22,124.57 C9.8,124.57 11.17,124.28 12.33,123.7 C13.49,123.12 14.375,122.34 14.985,121.36 C15.595,120.38 15.9,119.29 15.9,118.09 C15.9,116.83 15.59,115.8 14.97,115 C14.35,114.2 13.615,113.59 12.765,113.17 C11.915,112.75 10.81,112.31 9.45,111.85 C8.09,111.41 7.09,111 6.45,110.62 C5.81,110.24 5.49,109.71 5.49,109.03 C5.49,108.41 5.68,107.935 6.06,107.605 C6.44,107.275 6.94,107.11 7.56,107.11 C8.28,107.11 8.87,107.305 9.33,107.695 C9.79,108.085 10.04,108.62 10.08,109.3 L10.08,109.3 L15.63,109.3 C15.53,107.32 14.77,105.775 13.35,104.665 C11.93,103.555 10.06,103 7.74,103 C5.46,103 3.61,103.555 2.19,104.665 C0.77,105.775 0.06,107.31 0.06,109.27 C0.06,110.59 0.37,111.66 0.99,112.48 C1.61,113.3 2.35,113.92 3.21,114.34 C4.07,114.76 5.18,115.18 6.54,115.6 C7.48,115.88 8.205,116.13 8.715,116.35 C9.225,116.57 9.655,116.85 10.005,117.19 C10.355,117.53 10.53,117.96 10.53,118.48 C10.53,119.1 10.31,119.585 9.87,119.935 C9.43,120.285 8.83,120.46 8.07,120.46 C7.33,120.46 6.73,120.255 6.27,119.845 C5.81,119.435 5.54,118.84 5.46,118.06 L5.46,118.06 L0,118.06 C0.04,119.44 0.425,120.62 1.155,121.6 C1.885,122.58 2.86,123.32 4.08,123.82 C5.3,124.32 6.68,124.57 8.22,124.57 Z M28.62,124.36 L28.62,107.41 L34.2,107.41 L34.2,103.3 L17.91,103.3 L17.91,107.41 L23.49,107.41 L23.49,124.36 L28.62,124.36 Z M45.39,124.57 C47.05,124.57 48.555,124.24 49.905,123.58 C51.255,122.92 52.33,121.94 53.13,120.64 C53.93,119.34 54.33,117.75 54.33,115.87 L54.33,115.87 L54.33,103.3 L49.2,103.3 L49.2,115.9 C49.2,117.16 48.88,118.13 48.24,118.81 C47.6,119.49 46.68,119.83 45.48,119.83 C44.28,119.83 43.37,119.49 42.75,118.81 C42.13,118.13 41.82,117.16 41.82,115.9 L41.82,115.9 L41.82,103.3 L36.69,103.3 L36.69,115.87 C36.69,117.75 37.07,119.345 37.83,120.655 C38.59,121.965 39.625,122.945 40.935,123.595 C42.245,124.245 43.73,124.57 45.39,124.57 Z M65.82,124.36 C68.02,124.36 69.955,123.92 71.625,123.04 C73.295,122.16 74.585,120.92 75.495,119.32 C76.405,117.72 76.86,115.89 76.86,113.83 C76.86,111.75 76.405,109.915 75.495,108.325 C74.585,106.735 73.3,105.5 71.64,104.62 C69.98,103.74 68.04,103.3 65.82,103.3 L65.82,103.3 L57.93,103.3 L57.93,124.36 L65.82,124.36 Z M65.49,119.92 L63.06,119.92 L63.06,107.68 L65.49,107.68 C67.43,107.68 68.94,108.22 70.02,109.3 C71.1,110.38 71.64,111.89 71.64,113.83 C71.64,115.77 71.1,117.27 70.02,118.33 C68.94,119.39 67.43,119.92 65.49,119.92 L65.49,119.92 Z M84.87,124.36 L84.87,103.3 L79.74,103.3 L79.74,124.36 L84.87,124.36 Z M98.55,124.57 C100.53,124.57 102.34,124.11 103.98,123.19 C105.62,122.27 106.92,120.985 107.88,119.335 C108.84,117.685 109.32,115.83 109.32,113.77 C109.32,111.71 108.845,109.86 107.895,108.22 C106.945,106.58 105.645,105.3 103.995,104.38 C102.345,103.46 100.53,103 98.55,103 C96.57,103 94.755,103.46 93.105,104.38 C91.455,105.3 90.145,106.58 89.175,108.22 C88.205,109.86 87.72,111.71 87.72,113.77 C87.72,115.83 88.205,117.685 89.175,119.335 C90.145,120.985 91.455,122.27 93.105,123.19 C94.755,124.11 96.57,124.57 98.55,124.57 Z M98.55,119.89 C96.85,119.89 95.495,119.335 94.485,118.225 C93.475,117.115 92.97,115.63 92.97,113.77 C92.97,111.89 93.475,110.4 94.485,109.3 C95.495,108.2 96.85,107.65 98.55,107.65 C100.23,107.65 101.575,108.205 102.585,109.315 C103.595,110.425 104.1,111.91 104.1,113.77 C104.1,115.61 103.595,117.09 102.585,118.21 C101.575,119.33 100.23,119.89 98.55,119.89 Z M123.66,124.36 L123.66,115.69 L131.64,115.69 L131.64,124.36 L136.77,124.36 L136.77,103.3 L131.64,103.3 L131.64,111.55 L123.66,111.55 L123.66,103.3 L118.53,103.3 L118.53,124.36 L123.66,124.36 Z M150.42,124.57 C152.4,124.57 154.21,124.11 155.85,123.19 C157.49,122.27 158.79,120.985 159.75,119.335 C160.71,117.685 161.19,115.83 161.19,113.77 C161.19,111.71 160.715,109.86 159.765,108.22 C158.815,106.58 157.515,105.3 155.865,104.38 C154.215,103.46 152.4,103 150.42,103 C148.44,103 146.625,103.46 144.975,104.38 C143.325,105.3 142.015,106.58 141.045,108.22 C140.075,109.86 139.59,111.71 139.59,113.77 C139.59,115.83 140.075,117.685 141.045,119.335 C142.015,120.985 143.325,122.27 144.975,123.19 C146.625,124.11 148.44,124.57 150.42,124.57 Z M150.42,119.89 C148.72,119.89 147.365,119.335 146.355,118.225 C145.345,117.115 144.84,115.63 144.84,113.77 C144.84,111.89 145.345,110.4 146.355,109.3 C147.365,108.2 148.72,107.65 150.42,107.65 C152.1,107.65 153.445,108.205 154.455,109.315 C155.465,110.425 155.97,111.91 155.97,113.77 C155.97,115.61 155.465,117.09 154.455,118.21 C153.445,119.33 152.1,119.89 150.42,119.89 Z M172.65,124.57 C174.31,124.57 175.815,124.24 177.165,123.58 C178.515,122.92 179.59,121.94 180.39,120.64 C181.19,119.34 181.59,117.75 181.59,115.87 L181.59,115.87 L181.59,103.3 L176.46,103.3 L176.46,115.9 C176.46,117.16 176.14,118.13 175.5,118.81 C174.86,119.49 173.94,119.83 172.74,119.83 C171.54,119.83 170.63,119.49 170.01,118.81 C169.39,118.13 169.08,117.16 169.08,115.9 L169.08,115.9 L169.08,103.3 L163.95,103.3 L163.95,115.87 C163.95,117.75 164.33,119.345 165.09,120.655 C165.85,121.965 166.885,122.945 168.195,123.595 C169.505,124.245 170.99,124.57 172.65,124.57 Z M190.32,124.36 L190.32,116.41 L191.55,116.41 L195.93,124.36 L201.72,124.36 L196.86,116.02 C198.4,115.56 199.565,114.78 200.355,113.68 C201.145,112.58 201.54,111.33 201.54,109.93 C201.54,108.69 201.25,107.565 200.67,106.555 C200.09,105.545 199.215,104.75 198.045,104.17 C196.875,103.59 195.46,103.3 193.8,103.3 L193.8,103.3 L185.19,103.3 L185.19,124.36 L190.32,124.36 Z M193.5,112.78 L190.32,112.78 L190.32,107.56 L193.5,107.56 C194.44,107.56 195.145,107.79 195.615,108.25 C196.085,108.71 196.32,109.34 196.32,110.14 C196.32,110.98 196.085,111.63 195.615,112.09 C195.145,112.55 194.44,112.78 193.5,112.78 L193.5,112.78 Z M212.37,124.57 C213.95,124.57 215.32,124.28 216.48,123.7 C217.64,123.12 218.525,122.34 219.135,121.36 C219.745,120.38 220.05,119.29 220.05,118.09 C220.05,116.83 219.74,115.8 219.12,115 C218.5,114.2 217.765,113.59 216.915,113.17 C216.065,112.75 214.96,112.31 213.6,111.85 C212.24,111.41 211.24,111 210.6,110.62 C209.96,110.24 209.64,109.71 209.64,109.03 C209.64,108.41 209.83,107.935 210.21,107.605 C210.59,107.275 211.09,107.11 211.71,107.11 C212.43,107.11 213.02,107.305 213.48,107.695 C213.94,108.085 214.19,108.62 214.23,109.3 L214.23,109.3 L219.78,109.3 C219.68,107.32 218.92,105.775 217.5,104.665 C216.08,103.555 214.21,103 211.89,103 C209.61,103 207.76,103.555 206.34,104.665 C204.92,105.775 204.21,107.31 204.21,109.27 C204.21,110.59 204.52,111.66 205.14,112.48 C205.76,113.3 206.5,113.92 207.36,114.34 C208.22,114.76 209.33,115.18 210.69,115.6 C211.63,115.88 212.355,116.13 212.865,116.35 C213.375,116.57 213.805,116.85 214.155,117.19 C214.505,117.53 214.68,117.96 214.68,118.48 C214.68,119.1 214.46,119.585 214.02,119.935 C213.58,120.285 212.98,120.46 212.22,120.46 C211.48,120.46 210.88,120.255 210.42,119.845 C209.96,119.435 209.69,118.84 209.61,118.06 L209.61,118.06 L204.15,118.06 C204.19,119.44 204.575,120.62 205.305,121.6 C206.035,122.58 207.01,123.32 208.23,123.82 C209.45,124.32 210.83,124.57 212.37,124.57 Z M8.49,154.36 C10.69,154.36 12.625,153.92 14.295,153.04 C15.965,152.16 17.255,150.92 18.165,149.32 C19.075,147.72 19.53,145.89 19.53,143.83 C19.53,141.75 19.075,139.915 18.165,138.325 C17.255,136.735 15.97,135.5 14.31,134.62 C12.65,133.74 10.71,133.3 8.49,133.3 L8.49,133.3 L0.6,133.3 L0.6,154.36 L8.49,154.36 Z M8.16,149.92 L5.73,149.92 L5.73,137.68 L8.16,137.68 C10.1,137.68 11.61,138.22 12.69,139.3 C13.77,140.38 14.31,141.89 14.31,143.83 C14.31,145.77 13.77,147.27 12.69,148.33 C11.61,149.39 10.1,149.92 8.16,149.92 L8.16,149.92 Z M32.37,154.57 C34.35,154.57 36.16,154.11 37.8,153.19 C39.44,152.27 40.74,150.985 41.7,149.335 C42.66,147.685 43.14,145.83 43.14,143.77 C43.14,141.71 42.665,139.86 41.715,138.22 C40.765,136.58 39.465,135.3 37.815,134.38 C36.165,133.46 34.35,133 32.37,133 C30.39,133 28.575,133.46 26.925,134.38 C25.275,135.3 23.965,136.58 22.995,138.22 C22.025,139.86 21.54,141.71 21.54,143.77 C21.54,145.83 22.025,147.685 22.995,149.335 C23.965,150.985 25.275,152.27 26.925,153.19 C28.575,154.11 30.39,154.57 32.37,154.57 Z M32.37,149.89 C30.67,149.89 29.315,149.335 28.305,148.225 C27.295,147.115 26.79,145.63 26.79,143.77 C26.79,141.89 27.295,140.4 28.305,139.3 C29.315,138.2 30.67,137.65 32.37,137.65 C34.05,137.65 35.395,138.205 36.405,139.315 C37.415,140.425 37.92,141.91 37.92,143.77 C37.92,145.61 37.415,147.09 36.405,148.21 C35.395,149.33 34.05,149.89 32.37,149.89 Z M51.12,154.36 L51.12,141.37 L59.7,154.36 L64.83,154.36 L64.83,133.3 L59.7,133.3 L59.7,146.35 L51.12,133.3 L45.99,133.3 L45.99,154.36 L51.12,154.36 Z M72.54,154.36 L73.8,150.64 L81.66,150.64 L82.92,154.36 L88.35,154.36 L80.73,133.3 L74.79,133.3 L67.17,154.36 L72.54,154.36 Z M80.34,146.68 L75.15,146.68 L77.73,138.97 L80.34,146.68 Z M100.23,154.36 L100.23,137.41 L105.81,137.41 L105.81,133.3 L89.52,133.3 L89.52,137.41 L95.1,137.41 L95.1,154.36 L100.23,154.36 Z M121.29,154.36 L121.29,150.25 L113.52,150.25 L113.52,145.63 L120.39,145.63 L120.39,141.67 L113.52,141.67 L113.52,137.41 L121.29,137.41 L121.29,133.3 L108.39,133.3 L108.39,154.36 L121.29,154.36 Z M132.51,154.36 C134.71,154.36 136.645,153.92 138.315,153.04 C139.985,152.16 141.275,150.92 142.185,149.32 C143.095,147.72 143.55,145.89 143.55,143.83 C143.55,141.75 143.095,139.915 142.185,138.325 C141.275,136.735 139.99,135.5 138.33,134.62 C136.67,133.74 134.73,133.3 132.51,133.3 L132.51,133.3 L124.62,133.3 L124.62,154.36 L132.51,154.36 Z M132.18,149.92 L129.75,149.92 L129.75,137.68 L132.18,137.68 C134.12,137.68 135.63,138.22 136.71,139.3 C137.79,140.38 138.33,141.89 138.33,143.83 C138.33,145.77 137.79,147.27 136.71,148.33 C135.63,149.39 134.12,149.92 132.18,149.92 L132.18,149.92 Z" id="STUDIOHOURSDONATED"></path>
            <path d="M10.83,21.57 C12.81,21.57 14.62,21.11 16.26,20.19 C17.9,19.27 19.2,17.985 20.16,16.335 C21.12,14.685 21.6,12.83 21.6,10.77 C21.6,8.71 21.125,6.86 20.175,5.22 C19.225,3.58 17.925,2.3 16.275,1.38 C14.625,0.46 12.81,0 10.83,0 C8.85,0 7.035,0.46 5.385,1.38 C3.735,2.3 2.425,3.58 1.455,5.22 C0.485,6.86 0,8.71 0,10.77 C0,12.83 0.485,14.685 1.455,16.335 C2.425,17.985 3.735,19.27 5.385,20.19 C7.035,21.11 8.85,21.57 10.83,21.57 Z M10.83,16.89 C9.13,16.89 7.775,16.335 6.765,15.225 C5.755,14.115 5.25,12.63 5.25,10.77 C5.25,8.89 5.755,7.4 6.765,6.3 C7.775,5.2 9.13,4.65 10.83,4.65 C12.51,4.65 13.855,5.205 14.865,6.315 C15.875,7.425 16.38,8.91 16.38,10.77 C16.38,12.61 15.875,14.09 14.865,15.21 C13.855,16.33 12.51,16.89 10.83,16.89 Z M36.75,21.36 L44.22,0.3 L38.79,0.3 L33.54,16.2 L28.32,0.3 L22.86,0.3 L30.33,21.36 L36.75,21.36 Z M59.25,21.36 L59.25,17.25 L51.48,17.25 L51.48,12.63 L58.35,12.63 L58.35,8.67 L51.48,8.67 L51.48,4.41 L59.25,4.41 L59.25,0.3 L46.35,0.3 L46.35,21.36 L59.25,21.36 Z M67.71,21.36 L67.71,13.41 L68.94,13.41 L73.32,21.36 L79.11,21.36 L74.25,13.02 C75.79,12.56 76.955,11.78 77.745,10.68 C78.535,9.58 78.93,8.33 78.93,6.93 C78.93,5.69 78.64,4.565 78.06,3.555 C77.48,2.545 76.605,1.75 75.435,1.17 C74.265,0.59 72.85,0.3 71.19,0.3 L71.19,0.3 L62.58,0.3 L62.58,21.36 L67.71,21.36 Z M70.89,9.78 L67.71,9.78 L67.71,4.56 L70.89,4.56 C71.83,4.56 72.535,4.79 73.005,5.25 C73.475,5.71 73.71,6.34 73.71,7.14 C73.71,7.98 73.475,8.63 73.005,9.09 C72.535,9.55 71.83,9.78 70.89,9.78 L70.89,9.78 Z" id="OVER"></path>
        </g>
    </g>
</svg>