<?xml version="1.0" encoding="UTF-8"?>
<svg width="245px" height="150px" viewBox="0 0 245 150" version="1.1" xmlns="http://www.w3.org/2000/svg" xmlns:xlink="http://www.w3.org/1999/xlink">
    <title>Group</title>
    <g id="Page-1" stroke="none" stroke-width="1" fill="none" fill-rule="evenodd">
        <g id="Group" transform="translate(0.780000, 0.000000)" fill="#FFFFFF" fill-rule="nonzero">
            <g id="Group-2" transform="translate(-0.000000, 0.000000)">
                <path d="M10.4582606,20.1463263 C12.3089749,20.1463263 14.0007896,19.7166874 15.5337045,18.8574097 C17.0666195,17.998132 18.281735,16.7979452 19.1790511,15.2568493 C20.0763671,13.7157534 20.5250251,11.983188 20.5250251,10.0591532 C20.5250251,8.13511831 20.0810406,6.40722291 19.1930716,4.875467 C18.3051026,3.34371108 17.0899871,2.14819427 15.5477251,1.28891656 C14.0054631,0.429638854 12.3089749,0 10.4582606,0 C8.60754618,0 6.911058,0.429638854 5.36879601,1.28891656 C3.82653403,2.14819427 2.60207148,3.34371108 1.69540838,4.875467 C0.788745271,6.40722291 0.335413718,8.13511831 0.335413718,10.0591532 C0.335413718,11.983188 0.788745271,13.7157534 1.69540838,15.2568493 C2.60207148,16.7979452 3.82653403,17.998132 5.36879601,18.8574097 C6.911058,19.7166874 8.60754618,20.1463263 10.4582606,20.1463263 Z M10.4582606,15.7752179 C8.86926336,15.7752179 7.60273913,15.2568493 6.65868785,14.2201121 C5.71463658,13.1833748 5.24261094,11.7963885 5.24261094,10.0591532 C5.24261094,8.30323786 5.71463658,6.91158157 6.65868785,5.88418431 C7.60273913,4.85678705 8.86926336,4.34308842 10.4582606,4.34308842 C12.0285637,4.34308842 13.2857409,4.86145704 14.2297921,5.89819427 C15.1738434,6.93493151 15.6458691,8.32191781 15.6458691,10.0591532 C15.6458691,11.7777086 15.1738434,13.1600249 14.2297921,14.2061021 C13.2857409,15.2521793 12.0285637,15.7752179 10.4582606,15.7752179 Z M35.4647145,19.9501868 L42.4469551,0.280199253 L37.3715111,0.280199253 L32.4643139,15.1307597 L27.5851578,0.280199253 L22.4816727,0.280199253 L29.4639133,19.9501868 L35.4647145,19.9501868 Z M57.2744799,19.9501868 L57.2744799,16.111457 L50.011828,16.111457 L50.011828,11.7963885 L56.4332461,11.7963885 L56.4332461,8.09775841 L50.011828,8.09775841 L50.011828,4.11892902 L57.2744799,4.11892902 L57.2744799,0.280199253 L45.2167953,0.280199253 L45.2167953,19.9501868 L57.2744799,19.9501868 Z M65.9609979,19.9501868 L65.9609979,12.5249066 L67.1106841,12.5249066 L71.2046887,19.9501868 L76.6166262,19.9501868 L72.0739636,12.1606476 C73.5134081,11.7310087 74.6023385,11.0024907 75.3407549,9.9750934 C76.0791712,8.94769614 76.4483794,7.78019925 76.4483794,6.47260274 C76.4483794,5.31444583 76.1773152,4.26369863 75.6351867,3.32036115 C75.0930583,2.37702366 74.2751921,1.63449564 73.1815881,1.09277709 C72.0879842,0.551058531 70.7653777,0.280199253 69.2137686,0.280199253 L69.2137686,0.280199253 L61.1659652,0.280199253 L61.1659652,19.9501868 L65.9609979,19.9501868 Z M68.9333574,9.13449564 L65.9609979,9.13449564 L65.9609979,4.25902864 L68.9333574,4.25902864 C69.8119793,4.25902864 70.4709458,4.47384807 70.9102568,4.90348692 C71.3495678,5.33312578 71.5692233,5.92154421 71.5692233,6.66874222 C71.5692233,7.45330012 71.3495678,8.06039851 70.9102568,8.49003736 C70.4709458,8.91967621 69.8119793,9.13449564 68.9333574,9.13449564 L68.9333574,9.13449564 Z" id="OVER"></path>
                <path d="M18.9,86.98 C22.4,86.98 25.585,86.35 28.455,85.09 C31.325,83.83 33.6,81.9983333 35.28,79.595 C36.96,77.1916667 37.8,74.3333333 37.8,71.02 C37.8,68.1733333 37.1233333,65.6883333 35.77,63.565 C34.4166667,61.4416667 32.48,59.7733333 29.96,58.56 C31.9666667,57.4866667 33.565,56.0166667 34.755,54.15 C35.945,52.2833333 36.54,50.09 36.54,47.57 C36.54,45.05 35.8866667,42.7516667 34.58,40.675 C33.2733333,38.5983333 31.3016667,36.9416667 28.665,35.705 C26.0283333,34.4683333 22.7733333,33.85 18.9,33.85 C15.0266667,33.85 11.76,34.4683333 9.1,35.705 C6.44,36.9416667 4.45666667,38.5983333 3.15,40.675 C1.84333333,42.7516667 1.19,45.05 1.19,47.57 C1.19,52.5633333 3.38333333,56.2266667 7.77,58.56 C5.29666667,59.7266667 3.38333333,61.3716667 2.03,63.495 C0.676666667,65.6183333 0,68.1266667 0,71.02 C0,74.3333333 0.84,77.1916667 2.52,79.595 C4.2,81.9983333 6.475,83.83 9.345,85.09 C12.215,86.35 15.4,86.98 18.9,86.98 Z M18.9,55.34 C17.1266667,55.34 15.68,54.815 14.56,53.765 C13.44,52.715 12.88,51.28 12.88,49.46 C12.88,47.5466667 13.4283333,46.0533333 14.525,44.98 C15.6216667,43.9066667 17.08,43.37 18.9,43.37 C20.72,43.37 22.1783333,43.895 23.275,44.945 C24.3716667,45.995 24.92,47.4766667 24.92,49.39 C24.92,51.21 24.36,52.6566667 23.24,53.73 C22.12,54.8033333 20.6733333,55.34 18.9,55.34 Z M18.9,77.18 C16.66,77.18 14.875,76.55 13.545,75.29 C12.215,74.03 11.55,72.42 11.55,70.46 C11.55,68.36 12.2266667,66.715 13.58,65.525 C14.9333333,64.335 16.7066667,63.74 18.9,63.74 C21.0466667,63.74 22.785,64.3466667 24.115,65.56 C25.445,66.7733333 26.11,68.4066667 26.11,70.46 C26.11,72.42 25.4683333,74.03 24.185,75.29 C22.9016667,76.55 21.14,77.18 18.9,77.18 Z M64.4,85.79 C71.3066667,85.79 76.3116667,83.48 79.415,78.86 C82.5183333,74.24 84.07,67.87 84.07,59.75 C84.07,51.7233333 82.5183333,45.4 79.415,40.78 C76.3116667,36.16 71.3066667,33.85 64.4,33.85 C57.4933333,33.85 52.4883333,36.16 49.385,40.78 C46.2816667,45.4 44.73,51.7233333 44.73,59.75 C44.73,67.87 46.2816667,74.24 49.385,78.86 C52.4883333,83.48 57.4933333,85.79 64.4,85.79 Z M64.4,74.59 C62.16,74.59 60.4683333,73.9483333 59.325,72.665 C58.1816667,71.3816667 57.4233333,69.7016667 57.05,67.625 C56.6766667,65.5483333 56.49,62.9233333 56.49,59.75 C56.49,55.0366667 57.0033333,51.4083333 58.03,48.865 C59.0566667,46.3216667 61.18,45.05 64.4,45.05 C67.62,45.05 69.7433333,46.3216667 70.77,48.865 C71.7966667,51.4083333 72.31,55.0366667 72.31,59.75 C72.31,62.9233333 72.1233333,65.5483333 71.75,67.625 C71.3766667,69.7016667 70.6183333,71.3816667 69.475,72.665 C68.3316667,73.9483333 66.64,74.59 64.4,74.59 Z M96.67,95.03 L104.44,74.94 L93.1,74.94 L89.04,95.03 L96.67,95.03 Z M130.13,85.79 C137.036667,85.79 142.041667,83.48 145.145,78.86 C148.248333,74.24 149.8,67.87 149.8,59.75 C149.8,51.7233333 148.248333,45.4 145.145,40.78 C142.041667,36.16 137.036667,33.85 130.13,33.85 C123.223333,33.85 118.218333,36.16 115.115,40.78 C112.011667,45.4 110.46,51.7233333 110.46,59.75 C110.46,67.87 112.011667,74.24 115.115,78.86 C118.218333,83.48 123.223333,85.79 130.13,85.79 Z M130.13,74.59 C127.89,74.59 126.198333,73.9483333 125.055,72.665 C123.911667,71.3816667 123.153333,69.7016667 122.78,67.625 C122.406667,65.5483333 122.22,62.9233333 122.22,59.75 C122.22,55.0366667 122.733333,51.4083333 123.76,48.865 C124.786667,46.3216667 126.91,45.05 130.13,45.05 C133.35,45.05 135.473333,46.3216667 136.5,48.865 C137.526667,51.4083333 138.04,55.0366667 138.04,59.75 C138.04,62.9233333 137.853333,65.5483333 137.48,67.625 C137.106667,69.7016667 136.348333,71.3816667 135.205,72.665 C134.061667,73.9483333 132.37,74.59 130.13,74.59 Z M175.77,85.79 C182.676667,85.79 187.681667,83.48 190.785,78.86 C193.888333,74.24 195.44,67.87 195.44,59.75 C195.44,51.7233333 193.888333,45.4 190.785,40.78 C187.681667,36.16 182.676667,33.85 175.77,33.85 C168.863333,33.85 163.858333,36.16 160.755,40.78 C157.651667,45.4 156.1,51.7233333 156.1,59.75 C156.1,67.87 157.651667,74.24 160.755,78.86 C163.858333,83.48 168.863333,85.79 175.77,85.79 Z M175.77,74.59 C173.53,74.59 171.838333,73.9483333 170.695,72.665 C169.551667,71.3816667 168.793333,69.7016667 168.42,67.625 C168.046667,65.5483333 167.86,62.9233333 167.86,59.75 C167.86,55.0366667 168.373333,51.4083333 169.4,48.865 C170.426667,46.3216667 172.55,45.05 175.77,45.05 C178.99,45.05 181.113333,46.3216667 182.14,48.865 C183.166667,51.4083333 183.68,55.0366667 183.68,59.75 C183.68,62.9233333 183.493333,65.5483333 183.12,67.625 C182.746667,69.7016667 181.988333,71.3816667 180.845,72.665 C179.701667,73.9483333 178.01,74.59 175.77,74.59 Z M221.41,85.79 C228.316667,85.79 233.321667,83.48 236.425,78.86 C239.528333,74.24 241.08,67.87 241.08,59.75 C241.08,51.7233333 239.528333,45.4 236.425,40.78 C233.321667,36.16 228.316667,33.85 221.41,33.85 C214.503333,33.85 209.498333,36.16 206.395,40.78 C203.291667,45.4 201.74,51.7233333 201.74,59.75 C201.74,67.87 203.291667,74.24 206.395,78.86 C209.498333,83.48 214.503333,85.79 221.41,85.79 Z M221.41,74.59 C219.17,74.59 217.478333,73.9483333 216.335,72.665 C215.191667,71.3816667 214.433333,69.7016667 214.06,67.625 C213.686667,65.5483333 213.5,62.9233333 213.5,59.75 C213.5,55.0366667 214.013333,51.4083333 215.04,48.865 C216.066667,46.3216667 218.19,45.05 221.41,45.05 C224.63,45.05 226.753333,46.3216667 227.78,48.865 C228.806667,51.4083333 229.32,55.0366667 229.32,59.75 C229.32,62.9233333 229.133333,65.5483333 228.76,67.625 C228.386667,69.7016667 227.628333,71.3816667 226.485,72.665 C225.341667,73.9483333 223.65,74.59 221.41,74.59 Z" id="80,000"></path>
                <path d="M5.75825611,121.755915 L5.75825611,109.931507 L10.1887542,121.755915 L14.0584297,121.755915 L18.4608866,109.959527 L18.4608866,121.755915 L23.2559193,121.755915 L23.2559193,102.085928 L17.6196528,102.085928 L12.1516331,115.703611 L6.62753105,102.085928 L0.963223394,102.085928 L0.963223394,121.755915 L5.75825611,121.755915 Z M34.7527814,121.952055 C36.3043904,121.952055 37.7111203,121.643836 38.972971,121.027397 C40.2348217,120.410959 41.2396288,119.495641 41.9873922,118.281445 C42.7351556,117.067248 43.1090373,115.582192 43.1090373,113.826276 L43.1090373,113.826276 L43.1090373,102.085928 L38.3140045,102.085928 L38.3140045,113.854296 C38.3140045,115.031133 38.0148992,115.937111 37.4166885,116.572229 C36.8184778,117.207347 35.9585499,117.524907 34.8369048,117.524907 C33.7152597,117.524907 32.8646789,117.207347 32.2851622,116.572229 C31.7056456,115.937111 31.4158873,115.031133 31.4158873,113.854296 L31.4158873,113.854296 L31.4158873,102.085928 L26.6208546,102.085928 L26.6208546,113.826276 C26.6208546,115.582192 26.9760422,117.071918 27.6864174,118.295455 C28.3967926,119.518991 29.3642115,120.434309 30.5886741,121.041407 C31.8131366,121.648506 33.2011724,121.952055 34.7527814,121.952055 Z M53.5964187,121.952055 C55.0732514,121.952055 56.3537962,121.681196 57.4380531,121.139477 C58.5223101,120.597758 59.3495233,119.86924 59.9196929,118.953923 C60.4898625,118.038605 60.7749473,117.020548 60.7749473,115.899751 C60.7749473,114.722914 60.4851889,113.760897 59.9056723,113.013699 C59.3261557,112.266501 58.6391481,111.696762 57.8446495,111.304483 C57.0501509,110.912204 56.0173027,110.501245 54.746105,110.071606 C53.4749072,109.660648 52.540203,109.277709 51.9419923,108.92279 C51.3437815,108.56787 51.0446762,108.072852 51.0446762,107.437733 C51.0446762,106.858655 51.22227,106.415006 51.5774576,106.106787 C51.9326452,105.798568 52.3999973,105.644458 52.979514,105.644458 C53.652501,105.644458 54.2039765,105.826588 54.6339404,106.190847 C55.0639044,106.555106 55.2975805,107.054795 55.3349686,107.689913 L55.3349686,107.689913 L60.5225771,107.689913 C60.4291067,105.840598 59.7187315,104.397572 58.3914515,103.360834 C57.0641715,102.324097 55.3162745,101.805729 53.1477607,101.805729 C51.0166351,101.805729 49.2874322,102.324097 47.9601522,103.360834 C46.6328722,104.397572 45.9692322,105.831258 45.9692322,107.661893 C45.9692322,108.89477 46.2589905,109.894147 46.8385071,110.660025 C47.4180238,111.425903 48.1097049,112.004981 48.9135505,112.39726 C49.7173962,112.789539 50.7549179,113.181818 52.0261156,113.574097 C52.9047376,113.835616 53.5823982,114.069116 54.0590973,114.274595 C54.5357965,114.480075 54.9377193,114.741594 55.2648658,115.059153 C55.5920123,115.376712 55.7555855,115.778331 55.7555855,116.26401 C55.7555855,116.843088 55.5499506,117.296077 55.1386807,117.622976 C54.7274109,117.949875 54.1665883,118.113325 53.4562131,118.113325 C52.764532,118.113325 52.2037094,117.921856 51.7737455,117.538917 C51.3437815,117.155978 51.0914114,116.600249 51.0166351,115.871731 L51.0166351,115.871731 L45.91315,115.871731 C45.9505381,117.160648 46.3103993,118.262765 46.9927333,119.178082 C47.6750674,120.0934 48.5864041,120.784558 49.7267432,121.251557 C50.8670824,121.718555 52.1569742,121.952055 53.5964187,121.952055 Z M68.5142983,121.755915 L68.5142983,102.085928 L63.7192656,102.085928 L63.7192656,121.755915 L68.5142983,121.755915 Z M81.0767232,121.896015 C83.4134838,121.896015 85.4137508,121.284247 87.0775244,120.06071 C88.7412979,118.837173 89.8535959,117.160648 90.4144185,115.031133 L90.4144185,115.031133 L85.1426866,115.031133 C84.7501108,115.853051 84.1939618,116.478829 83.4742396,116.908468 C82.7545173,117.338107 81.9366511,117.552927 81.0206409,117.552927 C79.5438083,117.552927 78.3473868,117.039228 77.4313767,116.011831 C76.5153665,114.984433 76.0573615,113.611457 76.0573615,111.892902 C76.0573615,110.174346 76.5153665,108.80137 77.4313767,107.773973 C78.3473868,106.746575 79.5438083,106.232877 81.0206409,106.232877 C81.9366511,106.232877 82.7545173,106.447696 83.4742396,106.877335 C84.1939618,107.306974 84.7501108,107.932752 85.1426866,108.75467 L85.1426866,108.75467 L90.4144185,108.75467 C89.8535959,106.625156 88.7412979,104.94396 87.0775244,103.711083 C85.4137508,102.478207 83.4134838,101.861768 81.0767232,101.861768 C79.1699266,101.861768 77.4640913,102.286737 75.9592175,103.136675 C74.4543437,103.986613 73.2812899,105.17279 72.4400561,106.695205 C71.5988223,108.217621 71.1782054,109.950187 71.1782054,111.892902 C71.1782054,113.835616 71.5988223,115.563512 72.4400561,117.076588 C73.2812899,118.589664 74.4543437,119.771171 75.9592175,120.621108 C77.4640913,121.471046 79.1699266,121.896015 81.0767232,121.896015 Z M98.1537695,121.755915 L98.1537695,102.085928 L93.3587368,102.085928 L93.3587368,121.755915 L98.1537695,121.755915 Z M105.360339,121.755915 L106.538066,118.281445 L113.884842,118.281445 L115.062569,121.755915 L120.138013,121.755915 L113.015567,102.085928 L107.463424,102.085928 L100.340977,121.755915 L105.360339,121.755915 Z M112.651032,114.582814 L107.799917,114.582814 L110.211454,107.381694 L112.651032,114.582814 Z M127.092213,121.755915 L127.092213,109.623288 L135.111975,121.755915 L139.907008,121.755915 L139.907008,102.085928 L135.111975,102.085928 L135.111975,114.274595 L127.092213,102.085928 L122.29718,102.085928 L122.29718,121.755915 L127.092213,121.755915 Z M154.123859,121.755915 L154.123859,113.658157 L161.582799,113.658157 L161.582799,121.755915 L166.377831,121.755915 L166.377831,102.085928 L161.582799,102.085928 L161.582799,109.791407 L154.123859,109.791407 L154.123859,102.085928 L149.328826,102.085928 L149.328826,121.755915 L154.123859,121.755915 Z M179.136544,121.952055 C180.987259,121.952055 182.679073,121.522416 184.211988,120.663138 C185.744903,119.803861 186.960019,118.603674 187.857335,117.062578 C188.754651,115.521482 189.203309,113.788917 189.203309,111.864882 C189.203309,109.940847 188.759324,108.212951 187.871355,106.681196 C186.983386,105.14944 185.768271,103.953923 184.226009,103.094645 C182.683747,102.235367 180.987259,101.805729 179.136544,101.805729 C177.28583,101.805729 175.589342,102.235367 174.04708,103.094645 C172.504818,103.953923 171.280355,105.14944 170.373692,106.681196 C169.467029,108.212951 169.013697,109.940847 169.013697,111.864882 C169.013697,113.788917 169.467029,115.521482 170.373692,117.062578 C171.280355,118.603674 172.504818,119.803861 174.04708,120.663138 C175.589342,121.522416 177.28583,121.952055 179.136544,121.952055 Z M179.136544,117.580946 C177.547547,117.580946 176.281023,117.062578 175.336972,116.025841 C174.39292,114.989103 173.920895,113.602117 173.920895,111.864882 C173.920895,110.108966 174.39292,108.71731 175.336972,107.689913 C176.281023,106.662516 177.547547,106.148817 179.136544,106.148817 C180.706847,106.148817 181.964025,106.667186 182.908076,107.703923 C183.852127,108.74066 184.324153,110.127646 184.324153,111.864882 C184.324153,113.583437 183.852127,114.965753 182.908076,116.011831 C181.964025,117.057908 180.706847,117.580946 179.136544,117.580946 Z M199.915019,121.952055 C201.466628,121.952055 202.873358,121.643836 204.135209,121.027397 C205.39706,120.410959 206.401867,119.495641 207.14963,118.281445 C207.897394,117.067248 208.271275,115.582192 208.271275,113.826276 L208.271275,113.826276 L208.271275,102.085928 L203.476242,102.085928 L203.476242,113.854296 C203.476242,115.031133 203.177137,115.937111 202.578926,116.572229 C201.980716,117.207347 201.120788,117.524907 199.999143,117.524907 C198.877498,117.524907 198.026917,117.207347 197.4474,116.572229 C196.867884,115.937111 196.578125,115.031133 196.578125,113.854296 L196.578125,113.854296 L196.578125,102.085928 L191.783093,102.085928 L191.783093,113.826276 C191.783093,115.582192 192.13828,117.071918 192.848655,118.295455 C193.559031,119.518991 194.526449,120.434309 195.750912,121.041407 C196.975375,121.648506 198.36341,121.952055 199.915019,121.952055 Z M216.431243,121.755915 L216.431243,114.330635 L217.580929,114.330635 L221.674934,121.755915 L227.086871,121.755915 L222.544209,113.966376 C223.983653,113.536737 225.072584,112.808219 225.811,111.780822 C226.549416,110.753425 226.918625,109.585928 226.918625,108.278331 C226.918625,107.120174 226.64756,106.069427 226.105432,105.12609 C225.563304,104.182752 224.745437,103.440224 223.651833,102.898506 C222.558229,102.356787 221.235623,102.085928 219.684014,102.085928 L219.684014,102.085928 L211.63621,102.085928 L211.63621,121.755915 L216.431243,121.755915 Z M219.403603,110.940224 L216.431243,110.940224 L216.431243,106.064757 L219.403603,106.064757 C220.282225,106.064757 220.941191,106.279577 221.380502,106.709215 C221.819813,107.138854 222.039469,107.727273 222.039469,108.474471 C222.039469,109.259029 221.819813,109.866127 221.380502,110.295766 C220.941191,110.725405 220.282225,110.940224 219.403603,110.940224 L219.403603,110.940224 Z M237.041471,121.952055 C238.518304,121.952055 239.798849,121.681196 240.883106,121.139477 C241.967363,120.597758 242.794576,119.86924 243.364746,118.953923 C243.934915,118.038605 244.22,117.020548 244.22,115.899751 C244.22,114.722914 243.930242,113.760897 243.350725,113.013699 C242.771208,112.266501 242.084201,111.696762 241.289702,111.304483 C240.495204,110.912204 239.462355,110.501245 238.191158,110.071606 C236.91996,109.660648 235.985256,109.277709 235.387045,108.92279 C234.788834,108.56787 234.489729,108.072852 234.489729,107.437733 C234.489729,106.858655 234.667323,106.415006 235.02251,106.106787 C235.377698,105.798568 235.84505,105.644458 236.424567,105.644458 C237.097554,105.644458 237.649029,105.826588 238.078993,106.190847 C238.508957,106.555106 238.742633,107.054795 238.780021,107.689913 L238.780021,107.689913 L243.96763,107.689913 C243.874159,105.840598 243.163784,104.397572 241.836504,103.360834 C240.509224,102.324097 238.761327,101.805729 236.592813,101.805729 C234.461688,101.805729 232.732485,102.324097 231.405205,103.360834 C230.077925,104.397572 229.414285,105.831258 229.414285,107.661893 C229.414285,108.89477 229.704043,109.894147 230.28356,110.660025 C230.863077,111.425903 231.554758,112.004981 232.358603,112.39726 C233.162449,112.789539 234.199971,113.181818 235.471168,113.574097 C236.34979,113.835616 237.027451,114.069116 237.50415,114.274595 C237.980849,114.480075 238.382772,114.741594 238.709919,115.059153 C239.037065,115.376712 239.200638,115.778331 239.200638,116.26401 C239.200638,116.843088 238.995003,117.296077 238.583733,117.622976 C238.172464,117.949875 237.611641,118.113325 236.901266,118.113325 C236.209585,118.113325 235.648762,117.921856 235.218798,117.538917 C234.788834,117.155978 234.536464,116.600249 234.461688,115.871731 L234.461688,115.871731 L229.358203,115.871731 C229.395591,117.160648 229.755452,118.262765 230.437786,119.178082 C231.12012,120.0934 232.031457,120.784558 233.171796,121.251557 C234.312135,121.718555 235.602027,121.952055 237.041471,121.952055 Z M8.33803979,149.775841 C10.3943891,149.775841 12.2030418,149.364882 13.7639979,148.542964 C15.3249539,147.721046 16.5307224,146.562889 17.3813032,145.068493 C18.2318841,143.574097 18.6571745,141.864882 18.6571745,139.940847 C18.6571745,137.998132 18.2318841,136.284247 17.3813032,134.799191 C16.5307224,133.314134 15.3296275,132.160648 13.7780184,131.33873 C12.2264094,130.516812 10.4130832,130.105853 8.33803979,130.105853 L8.33803979,130.105853 L0.963223394,130.105853 L0.963223394,149.775841 L8.33803979,149.775841 Z M8.02958739,145.628892 L5.75825611,145.628892 L5.75825611,134.196762 L8.02958739,134.196762 C9.84291361,134.196762 11.254317,134.701121 12.2637976,135.709838 C13.2732781,136.718555 13.7780184,138.128892 13.7780184,139.940847 C13.7780184,141.752802 13.2732781,143.153798 12.2637976,144.143836 C11.254317,145.133873 9.84291361,145.628892 8.02958739,145.628892 L8.02958739,145.628892 Z M30.6587769,149.97198 C32.5094913,149.97198 34.2013059,149.542341 35.7342209,148.683064 C37.2671358,147.823786 38.4822513,146.623599 39.3795674,145.082503 C40.2768834,143.541407 40.7255415,141.808842 40.7255415,139.884807 C40.7255415,137.960772 40.281557,136.232877 39.3935879,134.701121 C38.5056189,133.169365 37.2905034,131.973848 35.7482414,131.11457 C34.2059794,130.255293 32.5094913,129.825654 30.6587769,129.825654 C28.8080625,129.825654 27.1115743,130.255293 25.5693123,131.11457 C24.0270503,131.973848 22.8025878,133.169365 21.8959247,134.701121 C20.9892616,136.232877 20.53593,137.960772 20.53593,139.884807 C20.53593,141.808842 20.9892616,143.541407 21.8959247,145.082503 C22.8025878,146.623599 24.0270503,147.823786 25.5693123,148.683064 C27.1115743,149.542341 28.8080625,149.97198 30.6587769,149.97198 Z M30.6587769,145.600872 C29.0697797,145.600872 27.8032554,145.082503 26.8592042,144.045766 C25.9151529,143.009029 25.4431273,141.622042 25.4431273,139.884807 C25.4431273,138.128892 25.9151529,136.737235 26.8592042,135.709838 C27.8032554,134.682441 29.0697797,134.168742 30.6587769,134.168742 C32.22908,134.168742 33.4862572,134.687111 34.4303085,135.723848 C35.3743597,136.760585 35.8463854,138.147572 35.8463854,139.884807 C35.8463854,141.603362 35.3743597,142.985679 34.4303085,144.031756 C33.4862572,145.077833 32.22908,145.600872 30.6587769,145.600872 Z M48.1844812,149.775841 L48.1844812,137.643213 L56.2042436,149.775841 L60.9992763,149.775841 L60.9992763,130.105853 L56.2042436,130.105853 L56.2042436,142.294521 L48.1844812,130.105853 L43.3894485,130.105853 L43.3894485,149.775841 L48.1844812,149.775841 Z M68.2058459,149.775841 L69.3835732,146.30137 L76.7303485,146.30137 L77.9080758,149.775841 L82.9835198,149.775841 L75.8610736,130.105853 L70.3089304,130.105853 L63.1864842,149.775841 L68.2058459,149.775841 Z M75.4965389,142.60274 L70.645424,142.60274 L73.0569609,135.401619 L75.4965389,142.60274 Z M94.0878061,149.775841 L94.0878061,133.944583 L99.3034557,133.944583 L99.3034557,130.105853 L84.0771238,130.105853 L84.0771238,133.944583 L89.2927734,133.944583 L89.2927734,149.775841 L94.0878061,149.775841 Z M113.772677,149.775841 L113.772677,145.937111 L106.510025,145.937111 L106.510025,141.622042 L112.931443,141.622042 L112.931443,137.923412 L106.510025,137.923412 L106.510025,133.944583 L113.772677,133.944583 L113.772677,130.105853 L101.714993,130.105853 L101.714993,149.775841 L113.772677,149.775841 Z M124.260059,149.775841 C126.316408,149.775841 128.125061,149.364882 129.686017,148.542964 C131.246973,147.721046 132.452741,146.562889 133.303322,145.068493 C134.153903,143.574097 134.579193,141.864882 134.579193,139.940847 C134.579193,137.998132 134.153903,136.284247 133.303322,134.799191 C132.452741,133.314134 131.251646,132.160648 129.700037,131.33873 C128.148428,130.516812 126.335102,130.105853 124.260059,130.105853 L124.260059,130.105853 L116.885242,130.105853 L116.885242,149.775841 L124.260059,149.775841 Z M123.951606,145.628892 L121.680275,145.628892 L121.680275,134.196762 L123.951606,134.196762 C125.764933,134.196762 127.176336,134.701121 128.185817,135.709838 C129.195297,136.718555 129.700037,138.128892 129.700037,139.940847 C129.700037,141.752802 129.195297,143.153798 128.185817,144.143836 C127.176336,145.133873 125.764933,145.628892 123.951606,145.628892 L123.951606,145.628892 Z M143.019573,142.826899 L143.580395,129.405355 L138.392787,129.405355 L138.953609,142.826899 L143.019573,142.826899 Z M141.056694,150 C141.879234,150 142.556894,149.752491 143.089676,149.257472 C143.622457,148.762453 143.888848,148.150685 143.888848,147.422167 C143.888848,146.674969 143.622457,146.049191 143.089676,145.544832 C142.556894,145.040473 141.879234,144.788294 141.056694,144.788294 C140.21546,144.788294 139.528452,145.040473 138.995671,145.544832 C138.46289,146.049191 138.196499,146.674969 138.196499,147.422167 C138.196499,148.150685 138.46289,148.762453 138.995671,149.257472 C139.528452,149.752491 140.21546,150 141.056694,150 Z" id="MUSICIANHOURSDONATED!"></path>
            </g>
        </g>
    </g>
</svg>