<?xml version="1.0" encoding="UTF-8"?>
<svg width="245px" height="150px" viewBox="0 0 245 150" version="1.1" xmlns="http://www.w3.org/2000/svg" xmlns:xlink="http://www.w3.org/1999/xlink">
    <title>Group</title>
    <g id="Page-1" stroke="none" stroke-width="1" fill="none" fill-rule="evenodd">
        <g id="Group" fill="#FFFFFF" fill-rule="nonzero">
            <g id="Group-2">
                <path d="M22.7133129,93.0448319 C26.9194819,93.0448319 30.7470957,92.2882939 34.1961544,90.7752179 C37.645213,89.262142 40.3792229,87.0625778 42.398184,84.1765255 C44.4171451,81.2904732 45.4266257,77.8580324 45.4266257,73.879203 C45.4266257,70.4607721 44.613433,67.4766501 42.9870477,64.9268369 C41.3606623,62.3770237 39.0332488,60.373599 36.0048071,58.9165629 C38.416344,57.6276463 40.3371612,55.862391 41.7672586,53.620797 C43.1973561,51.379203 43.9124049,48.74533 43.9124049,45.7191781 C43.9124049,42.6930262 43.1272533,39.9330635 41.5569502,37.4392902 C39.9866471,34.9455168 37.6171719,32.9561021 34.4485245,31.4710461 C31.2798772,29.98599 27.3681399,29.243462 22.7133129,29.243462 C18.0584858,29.243462 14.132728,29.98599 10.9360395,31.4710461 C7.73935105,32.9561021 5.35585525,34.9455168 3.78555214,37.4392902 C2.21524903,39.9330635 1.43009748,42.6930262 1.43009748,45.7191781 C1.43009748,51.7154421 4.06596341,56.1145704 9.33769529,58.9165629 C6.36533583,60.3175592 4.06596341,62.2929639 2.43957805,64.8427771 C0.813192683,67.3925903 0,70.4047323 0,73.879203 C0,77.8580324 1.00948057,81.2904732 3.02844171,84.1765255 C5.04740286,87.0625778 7.78141274,89.262142 11.2304714,90.7752179 C14.67953,92.2882939 18.5071438,93.0448319 22.7133129,93.0448319 Z M22.7133129,55.0498132 C20.5821872,55.0498132 18.8436373,54.4193649 17.4976632,53.1584682 C16.1516891,51.8975716 15.4787021,50.1743462 15.4787021,47.988792 C15.4787021,45.6911582 16.1376686,43.8978829 17.4556015,42.6089664 C18.7735345,41.3200498 20.526105,40.6755915 22.7133129,40.6755915 C24.9005208,40.6755915 26.6530912,41.3060399 27.9710242,42.5669365 C29.2889571,43.8278331 29.9479236,45.6070984 29.9479236,47.9047323 C29.9479236,50.0902864 29.2749366,51.8275218 27.9289625,53.1164384 C26.5829884,54.4053549 24.8444385,55.0498132 22.7133129,55.0498132 Z M22.7133129,81.2764633 C20.0213647,81.2764633 17.8762185,80.5199253 16.2778742,79.0068493 C14.67953,77.4937733 13.8803579,75.5603985 13.8803579,73.2067248 C13.8803579,70.6849315 14.6935505,68.7095268 16.3199359,67.2805106 C17.9463213,65.8514944 20.0774469,65.1369863 22.7133129,65.1369863 C25.2930965,65.1369863 27.3821605,65.8655044 28.9805047,67.3225405 C30.578849,68.7795766 31.3780211,70.7409714 31.3780211,73.2067248 C31.3780211,75.5603985 30.6068901,77.4937733 29.0646281,79.0068493 C27.5223661,80.5199253 25.405261,81.2764633 22.7133129,81.2764633 Z M77.3935105,91.6158157 C85.6936841,91.6158157 91.7085058,88.8418431 95.4379757,83.2938979 C99.1674456,77.7459527 101.032181,70.0965131 101.032181,60.3455791 C101.032181,50.7067248 99.1674456,43.113325 95.4379757,37.5653798 C91.7085058,32.0174346 85.6936841,29.243462 77.3935105,29.243462 C69.0933369,29.243462 63.0785152,32.0174346 59.3490453,37.5653798 C55.6195754,43.113325 53.7548404,50.7067248 53.7548404,60.3455791 C53.7548404,70.0965131 55.6195754,77.7459527 59.3490453,83.2938979 C63.0785152,88.8418431 69.0933369,91.6158157 77.3935105,91.6158157 Z M77.3935105,78.1662516 C74.7015623,78.1662516 72.6685806,77.3957036 71.2945654,75.8546077 C69.9205501,74.3135118 69.0092135,72.2960772 68.5605555,69.8023039 C68.1118974,67.3085305 67.8875684,64.1562889 67.8875684,60.3455791 C67.8875684,54.6855542 68.5044732,50.3284558 69.7382828,47.2742839 C70.9720924,44.2201121 73.523835,42.6930262 77.3935105,42.6930262 C81.263186,42.6930262 83.8149286,44.2201121 85.0487381,47.2742839 C86.2825477,50.3284558 86.8994525,54.6855542 86.8994525,60.3455791 C86.8994525,64.1562889 86.6751235,67.3085305 86.2264655,69.8023039 C85.7778075,72.2960772 84.8664708,74.3135118 83.4924556,75.8546077 C82.1184404,77.3957036 80.0854587,78.1662516 77.3935105,78.1662516 Z M124.41848,91.867995 L124.41848,65.8094645 L144.271598,91.867995 L161.853385,91.867995 L138.130592,61.7745953 L161.012151,32.8580324 L144.103352,32.8580324 L124.41848,58.7484433 L124.41848,32.8580324 L110.033382,32.8580324 L110.033382,91.867995 L124.41848,91.867995 Z" id="80K"></path>
                <path d="M11.2382606,20.1463263 C13.0889749,20.1463263 14.7807896,19.7166874 16.3137045,18.8574097 C17.8466195,17.998132 19.061735,16.7979452 19.9590511,15.2568493 C20.8563671,13.7157534 21.3050251,11.983188 21.3050251,10.0591532 C21.3050251,8.13511831 20.8610406,6.40722291 19.9730716,4.875467 C19.0851026,3.34371108 17.8699871,2.14819427 16.3277251,1.28891656 C14.7854631,0.429638854 13.0889749,0 11.2382606,0 C9.38754618,0 7.691058,0.429638854 6.14879601,1.28891656 C4.60653403,2.14819427 3.38207148,3.34371108 2.47540838,4.875467 C1.56874527,6.40722291 1.11541372,8.13511831 1.11541372,10.0591532 C1.11541372,11.983188 1.56874527,13.7157534 2.47540838,15.2568493 C3.38207148,16.7979452 4.60653403,17.998132 6.14879601,18.8574097 C7.691058,19.7166874 9.38754618,20.1463263 11.2382606,20.1463263 Z M11.2382606,15.7752179 C9.64926336,15.7752179 8.38273913,15.2568493 7.43868785,14.2201121 C6.49463658,13.1833748 6.02261094,11.7963885 6.02261094,10.0591532 C6.02261094,8.30323786 6.49463658,6.91158157 7.43868785,5.88418431 C8.38273913,4.85678705 9.64926336,4.34308842 11.2382606,4.34308842 C12.8085637,4.34308842 14.0657409,4.86145704 15.0097921,5.89819427 C15.9538434,6.93493151 16.4258691,8.32191781 16.4258691,10.0591532 C16.4258691,11.7777086 15.9538434,13.1600249 15.0097921,14.2061021 C14.0657409,15.2521793 12.8085637,15.7752179 11.2382606,15.7752179 Z M36.2447145,19.9501868 L43.2269551,0.280199253 L38.1515111,0.280199253 L33.2443139,15.1307597 L28.3651578,0.280199253 L23.2616727,0.280199253 L30.2439133,19.9501868 L36.2447145,19.9501868 Z M58.0544799,19.9501868 L58.0544799,16.111457 L50.791828,16.111457 L50.791828,11.7963885 L57.2132461,11.7963885 L57.2132461,8.09775841 L50.791828,8.09775841 L50.791828,4.11892902 L58.0544799,4.11892902 L58.0544799,0.280199253 L45.9967953,0.280199253 L45.9967953,19.9501868 L58.0544799,19.9501868 Z M66.7409979,19.9501868 L66.7409979,12.5249066 L67.8906841,12.5249066 L71.9846887,19.9501868 L77.3966262,19.9501868 L72.8539636,12.1606476 C74.2934081,11.7310087 75.3823385,11.0024907 76.1207549,9.9750934 C76.8591712,8.94769614 77.2283794,7.78019925 77.2283794,6.47260274 C77.2283794,5.31444583 76.9573152,4.26369863 76.4151867,3.32036115 C75.8730583,2.37702366 75.0551921,1.63449564 73.9615881,1.09277709 C72.8679842,0.551058531 71.5453777,0.280199253 69.9937686,0.280199253 L69.9937686,0.280199253 L61.9459652,0.280199253 L61.9459652,19.9501868 L66.7409979,19.9501868 Z M69.7133574,9.13449564 L66.7409979,9.13449564 L66.7409979,4.25902864 L69.7133574,4.25902864 C70.5919793,4.25902864 71.2509458,4.47384807 71.6902568,4.90348692 C72.1295678,5.33312578 72.3492233,5.92154421 72.3492233,6.66874222 C72.3492233,7.45330012 72.1295678,8.06039851 71.6902568,8.49003736 C71.2509458,8.91967621 70.5919793,9.13449564 69.7133574,9.13449564 L69.7133574,9.13449564 Z" id="OVER"></path>
                <path d="M6.53825611,121.755915 L6.53825611,109.931507 L10.9687542,121.755915 L14.8384297,121.755915 L19.2408866,109.959527 L19.2408866,121.755915 L24.0359193,121.755915 L24.0359193,102.085928 L18.3996528,102.085928 L12.9316331,115.703611 L7.40753105,102.085928 L1.74322339,102.085928 L1.74322339,121.755915 L6.53825611,121.755915 Z M35.5327814,121.952055 C37.0843904,121.952055 38.4911203,121.643836 39.752971,121.027397 C41.0148217,120.410959 42.0196288,119.495641 42.7673922,118.281445 C43.5151556,117.067248 43.8890373,115.582192 43.8890373,113.826276 L43.8890373,113.826276 L43.8890373,102.085928 L39.0940045,102.085928 L39.0940045,113.854296 C39.0940045,115.031133 38.7948992,115.937111 38.1966885,116.572229 C37.5984778,117.207347 36.7385499,117.524907 35.6169048,117.524907 C34.4952597,117.524907 33.6446789,117.207347 33.0651622,116.572229 C32.4856456,115.937111 32.1958873,115.031133 32.1958873,113.854296 L32.1958873,113.854296 L32.1958873,102.085928 L27.4008546,102.085928 L27.4008546,113.826276 C27.4008546,115.582192 27.7560422,117.071918 28.4664174,118.295455 C29.1767926,119.518991 30.1442115,120.434309 31.3686741,121.041407 C32.5931366,121.648506 33.9811724,121.952055 35.5327814,121.952055 Z M54.3764187,121.952055 C55.8532514,121.952055 57.1337962,121.681196 58.2180531,121.139477 C59.3023101,120.597758 60.1295233,119.86924 60.6996929,118.953923 C61.2698625,118.038605 61.5549473,117.020548 61.5549473,115.899751 C61.5549473,114.722914 61.2651889,113.760897 60.6856723,113.013699 C60.1061557,112.266501 59.4191481,111.696762 58.6246495,111.304483 C57.8301509,110.912204 56.7973027,110.501245 55.526105,110.071606 C54.2549072,109.660648 53.320203,109.277709 52.7219923,108.92279 C52.1237815,108.56787 51.8246762,108.072852 51.8246762,107.437733 C51.8246762,106.858655 52.00227,106.415006 52.3574576,106.106787 C52.7126452,105.798568 53.1799973,105.644458 53.759514,105.644458 C54.432501,105.644458 54.9839765,105.826588 55.4139404,106.190847 C55.8439044,106.555106 56.0775805,107.054795 56.1149686,107.689913 L56.1149686,107.689913 L61.3025771,107.689913 C61.2091067,105.840598 60.4987315,104.397572 59.1714515,103.360834 C57.8441715,102.324097 56.0962745,101.805729 53.9277607,101.805729 C51.7966351,101.805729 50.0674322,102.324097 48.7401522,103.360834 C47.4128722,104.397572 46.7492322,105.831258 46.7492322,107.661893 C46.7492322,108.89477 47.0389905,109.894147 47.6185071,110.660025 C48.1980238,111.425903 48.8897049,112.004981 49.6935505,112.39726 C50.4973962,112.789539 51.5349179,113.181818 52.8061156,113.574097 C53.6847376,113.835616 54.3623982,114.069116 54.8390973,114.274595 C55.3157965,114.480075 55.7177193,114.741594 56.0448658,115.059153 C56.3720123,115.376712 56.5355855,115.778331 56.5355855,116.26401 C56.5355855,116.843088 56.3299506,117.296077 55.9186807,117.622976 C55.5074109,117.949875 54.9465883,118.113325 54.2362131,118.113325 C53.544532,118.113325 52.9837094,117.921856 52.5537455,117.538917 C52.1237815,117.155978 51.8714114,116.600249 51.7966351,115.871731 L51.7966351,115.871731 L46.69315,115.871731 C46.7305381,117.160648 47.0903993,118.262765 47.7727333,119.178082 C48.4550674,120.0934 49.3664041,120.784558 50.5067432,121.251557 C51.6470824,121.718555 52.9369742,121.952055 54.3764187,121.952055 Z M69.2942983,121.755915 L69.2942983,102.085928 L64.4992656,102.085928 L64.4992656,121.755915 L69.2942983,121.755915 Z M81.8567232,121.896015 C84.1934838,121.896015 86.1937508,121.284247 87.8575244,120.06071 C89.5212979,118.837173 90.6335959,117.160648 91.1944185,115.031133 L91.1944185,115.031133 L85.9226866,115.031133 C85.5301108,115.853051 84.9739618,116.478829 84.2542396,116.908468 C83.5345173,117.338107 82.7166511,117.552927 81.8006409,117.552927 C80.3238083,117.552927 79.1273868,117.039228 78.2113767,116.011831 C77.2953665,114.984433 76.8373615,113.611457 76.8373615,111.892902 C76.8373615,110.174346 77.2953665,108.80137 78.2113767,107.773973 C79.1273868,106.746575 80.3238083,106.232877 81.8006409,106.232877 C82.7166511,106.232877 83.5345173,106.447696 84.2542396,106.877335 C84.9739618,107.306974 85.5301108,107.932752 85.9226866,108.75467 L85.9226866,108.75467 L91.1944185,108.75467 C90.6335959,106.625156 89.5212979,104.94396 87.8575244,103.711083 C86.1937508,102.478207 84.1934838,101.861768 81.8567232,101.861768 C79.9499266,101.861768 78.2440913,102.286737 76.7392175,103.136675 C75.2343437,103.986613 74.0612899,105.17279 73.2200561,106.695205 C72.3788223,108.217621 71.9582054,109.950187 71.9582054,111.892902 C71.9582054,113.835616 72.3788223,115.563512 73.2200561,117.076588 C74.0612899,118.589664 75.2343437,119.771171 76.7392175,120.621108 C78.2440913,121.471046 79.9499266,121.896015 81.8567232,121.896015 Z M98.9337695,121.755915 L98.9337695,102.085928 L94.1387368,102.085928 L94.1387368,121.755915 L98.9337695,121.755915 Z M106.140339,121.755915 L107.318066,118.281445 L114.664842,118.281445 L115.842569,121.755915 L120.918013,121.755915 L113.795567,102.085928 L108.243424,102.085928 L101.120977,121.755915 L106.140339,121.755915 Z M113.431032,114.582814 L108.579917,114.582814 L110.991454,107.381694 L113.431032,114.582814 Z M127.872213,121.755915 L127.872213,109.623288 L135.891975,121.755915 L140.687008,121.755915 L140.687008,102.085928 L135.891975,102.085928 L135.891975,114.274595 L127.872213,102.085928 L123.07718,102.085928 L123.07718,121.755915 L127.872213,121.755915 Z M154.903859,121.755915 L154.903859,113.658157 L162.362799,113.658157 L162.362799,121.755915 L167.157831,121.755915 L167.157831,102.085928 L162.362799,102.085928 L162.362799,109.791407 L154.903859,109.791407 L154.903859,102.085928 L150.108826,102.085928 L150.108826,121.755915 L154.903859,121.755915 Z M179.916544,121.952055 C181.767259,121.952055 183.459073,121.522416 184.991988,120.663138 C186.524903,119.803861 187.740019,118.603674 188.637335,117.062578 C189.534651,115.521482 189.983309,113.788917 189.983309,111.864882 C189.983309,109.940847 189.539324,108.212951 188.651355,106.681196 C187.763386,105.14944 186.548271,103.953923 185.006009,103.094645 C183.463747,102.235367 181.767259,101.805729 179.916544,101.805729 C178.06583,101.805729 176.369342,102.235367 174.82708,103.094645 C173.284818,103.953923 172.060355,105.14944 171.153692,106.681196 C170.247029,108.212951 169.793697,109.940847 169.793697,111.864882 C169.793697,113.788917 170.247029,115.521482 171.153692,117.062578 C172.060355,118.603674 173.284818,119.803861 174.82708,120.663138 C176.369342,121.522416 178.06583,121.952055 179.916544,121.952055 Z M179.916544,117.580946 C178.327547,117.580946 177.061023,117.062578 176.116972,116.025841 C175.17292,114.989103 174.700895,113.602117 174.700895,111.864882 C174.700895,110.108966 175.17292,108.71731 176.116972,107.689913 C177.061023,106.662516 178.327547,106.148817 179.916544,106.148817 C181.486847,106.148817 182.744025,106.667186 183.688076,107.703923 C184.632127,108.74066 185.104153,110.127646 185.104153,111.864882 C185.104153,113.583437 184.632127,114.965753 183.688076,116.011831 C182.744025,117.057908 181.486847,117.580946 179.916544,117.580946 Z M200.695019,121.952055 C202.246628,121.952055 203.653358,121.643836 204.915209,121.027397 C206.17706,120.410959 207.181867,119.495641 207.92963,118.281445 C208.677394,117.067248 209.051275,115.582192 209.051275,113.826276 L209.051275,113.826276 L209.051275,102.085928 L204.256242,102.085928 L204.256242,113.854296 C204.256242,115.031133 203.957137,115.937111 203.358926,116.572229 C202.760716,117.207347 201.900788,117.524907 200.779143,117.524907 C199.657498,117.524907 198.806917,117.207347 198.2274,116.572229 C197.647884,115.937111 197.358125,115.031133 197.358125,113.854296 L197.358125,113.854296 L197.358125,102.085928 L192.563093,102.085928 L192.563093,113.826276 C192.563093,115.582192 192.91828,117.071918 193.628655,118.295455 C194.339031,119.518991 195.306449,120.434309 196.530912,121.041407 C197.755375,121.648506 199.14341,121.952055 200.695019,121.952055 Z M217.211243,121.755915 L217.211243,114.330635 L218.360929,114.330635 L222.454934,121.755915 L227.866871,121.755915 L223.324209,113.966376 C224.763653,113.536737 225.852584,112.808219 226.591,111.780822 C227.329416,110.753425 227.698625,109.585928 227.698625,108.278331 C227.698625,107.120174 227.42756,106.069427 226.885432,105.12609 C226.343304,104.182752 225.525437,103.440224 224.431833,102.898506 C223.338229,102.356787 222.015623,102.085928 220.464014,102.085928 L220.464014,102.085928 L212.41621,102.085928 L212.41621,121.755915 L217.211243,121.755915 Z M220.183603,110.940224 L217.211243,110.940224 L217.211243,106.064757 L220.183603,106.064757 C221.062225,106.064757 221.721191,106.279577 222.160502,106.709215 C222.599813,107.138854 222.819469,107.727273 222.819469,108.474471 C222.819469,109.259029 222.599813,109.866127 222.160502,110.295766 C221.721191,110.725405 221.062225,110.940224 220.183603,110.940224 L220.183603,110.940224 Z M237.821471,121.952055 C239.298304,121.952055 240.578849,121.681196 241.663106,121.139477 C242.747363,120.597758 243.574576,119.86924 244.144746,118.953923 C244.714915,118.038605 245,117.020548 245,115.899751 C245,114.722914 244.710242,113.760897 244.130725,113.013699 C243.551208,112.266501 242.864201,111.696762 242.069702,111.304483 C241.275204,110.912204 240.242355,110.501245 238.971158,110.071606 C237.69996,109.660648 236.765256,109.277709 236.167045,108.92279 C235.568834,108.56787 235.269729,108.072852 235.269729,107.437733 C235.269729,106.858655 235.447323,106.415006 235.80251,106.106787 C236.157698,105.798568 236.62505,105.644458 237.204567,105.644458 C237.877554,105.644458 238.429029,105.826588 238.858993,106.190847 C239.288957,106.555106 239.522633,107.054795 239.560021,107.689913 L239.560021,107.689913 L244.74763,107.689913 C244.654159,105.840598 243.943784,104.397572 242.616504,103.360834 C241.289224,102.324097 239.541327,101.805729 237.372813,101.805729 C235.241688,101.805729 233.512485,102.324097 232.185205,103.360834 C230.857925,104.397572 230.194285,105.831258 230.194285,107.661893 C230.194285,108.89477 230.484043,109.894147 231.06356,110.660025 C231.643077,111.425903 232.334758,112.004981 233.138603,112.39726 C233.942449,112.789539 234.979971,113.181818 236.251168,113.574097 C237.12979,113.835616 237.807451,114.069116 238.28415,114.274595 C238.760849,114.480075 239.162772,114.741594 239.489919,115.059153 C239.817065,115.376712 239.980638,115.778331 239.980638,116.26401 C239.980638,116.843088 239.775003,117.296077 239.363733,117.622976 C238.952464,117.949875 238.391641,118.113325 237.681266,118.113325 C236.989585,118.113325 236.428762,117.921856 235.998798,117.538917 C235.568834,117.155978 235.316464,116.600249 235.241688,115.871731 L235.241688,115.871731 L230.138203,115.871731 C230.175591,117.160648 230.535452,118.262765 231.217786,119.178082 C231.90012,120.0934 232.811457,120.784558 233.951796,121.251557 C235.092135,121.718555 236.382027,121.952055 237.821471,121.952055 Z M9.11803979,149.775841 C11.1743891,149.775841 12.9830418,149.364882 14.5439979,148.542964 C16.1049539,147.721046 17.3107224,146.562889 18.1613032,145.068493 C19.0118841,143.574097 19.4371745,141.864882 19.4371745,139.940847 C19.4371745,137.998132 19.0118841,136.284247 18.1613032,134.799191 C17.3107224,133.314134 16.1096275,132.160648 14.5580184,131.33873 C13.0064094,130.516812 11.1930832,130.105853 9.11803979,130.105853 L9.11803979,130.105853 L1.74322339,130.105853 L1.74322339,149.775841 L9.11803979,149.775841 Z M8.80958739,145.628892 L6.53825611,145.628892 L6.53825611,134.196762 L8.80958739,134.196762 C10.6229136,134.196762 12.034317,134.701121 13.0437976,135.709838 C14.0532781,136.718555 14.5580184,138.128892 14.5580184,139.940847 C14.5580184,141.752802 14.0532781,143.153798 13.0437976,144.143836 C12.034317,145.133873 10.6229136,145.628892 8.80958739,145.628892 L8.80958739,145.628892 Z M31.4387769,149.97198 C33.2894913,149.97198 34.9813059,149.542341 36.5142209,148.683064 C38.0471358,147.823786 39.2622513,146.623599 40.1595674,145.082503 C41.0568834,143.541407 41.5055415,141.808842 41.5055415,139.884807 C41.5055415,137.960772 41.061557,136.232877 40.1735879,134.701121 C39.2856189,133.169365 38.0705034,131.973848 36.5282414,131.11457 C34.9859794,130.255293 33.2894913,129.825654 31.4387769,129.825654 C29.5880625,129.825654 27.8915743,130.255293 26.3493123,131.11457 C24.8070503,131.973848 23.5825878,133.169365 22.6759247,134.701121 C21.7692616,136.232877 21.31593,137.960772 21.31593,139.884807 C21.31593,141.808842 21.7692616,143.541407 22.6759247,145.082503 C23.5825878,146.623599 24.8070503,147.823786 26.3493123,148.683064 C27.8915743,149.542341 29.5880625,149.97198 31.4387769,149.97198 Z M31.4387769,145.600872 C29.8497797,145.600872 28.5832554,145.082503 27.6392042,144.045766 C26.6951529,143.009029 26.2231273,141.622042 26.2231273,139.884807 C26.2231273,138.128892 26.6951529,136.737235 27.6392042,135.709838 C28.5832554,134.682441 29.8497797,134.168742 31.4387769,134.168742 C33.00908,134.168742 34.2662572,134.687111 35.2103085,135.723848 C36.1543597,136.760585 36.6263854,138.147572 36.6263854,139.884807 C36.6263854,141.603362 36.1543597,142.985679 35.2103085,144.031756 C34.2662572,145.077833 33.00908,145.600872 31.4387769,145.600872 Z M48.9644812,149.775841 L48.9644812,137.643213 L56.9842436,149.775841 L61.7792763,149.775841 L61.7792763,130.105853 L56.9842436,130.105853 L56.9842436,142.294521 L48.9644812,130.105853 L44.1694485,130.105853 L44.1694485,149.775841 L48.9644812,149.775841 Z M68.9858459,149.775841 L70.1635732,146.30137 L77.5103485,146.30137 L78.6880758,149.775841 L83.7635198,149.775841 L76.6410736,130.105853 L71.0889304,130.105853 L63.9664842,149.775841 L68.9858459,149.775841 Z M76.2765389,142.60274 L71.425424,142.60274 L73.8369609,135.401619 L76.2765389,142.60274 Z M94.8678061,149.775841 L94.8678061,133.944583 L100.083456,133.944583 L100.083456,130.105853 L84.8571238,130.105853 L84.8571238,133.944583 L90.0727734,133.944583 L90.0727734,149.775841 L94.8678061,149.775841 Z M114.552677,149.775841 L114.552677,145.937111 L107.290025,145.937111 L107.290025,141.622042 L113.711443,141.622042 L113.711443,137.923412 L107.290025,137.923412 L107.290025,133.944583 L114.552677,133.944583 L114.552677,130.105853 L102.494993,130.105853 L102.494993,149.775841 L114.552677,149.775841 Z M125.040059,149.775841 C127.096408,149.775841 128.905061,149.364882 130.466017,148.542964 C132.026973,147.721046 133.232741,146.562889 134.083322,145.068493 C134.933903,143.574097 135.359193,141.864882 135.359193,139.940847 C135.359193,137.998132 134.933903,136.284247 134.083322,134.799191 C133.232741,133.314134 132.031646,132.160648 130.480037,131.33873 C128.928428,130.516812 127.115102,130.105853 125.040059,130.105853 L125.040059,130.105853 L117.665242,130.105853 L117.665242,149.775841 L125.040059,149.775841 Z M124.731606,145.628892 L122.460275,145.628892 L122.460275,134.196762 L124.731606,134.196762 C126.544933,134.196762 127.956336,134.701121 128.965817,135.709838 C129.975297,136.718555 130.480037,138.128892 130.480037,139.940847 C130.480037,141.752802 129.975297,143.153798 128.965817,144.143836 C127.956336,145.133873 126.544933,145.628892 124.731606,145.628892 L124.731606,145.628892 Z M143.799573,142.826899 L144.360395,129.405355 L139.172787,129.405355 L139.733609,142.826899 L143.799573,142.826899 Z M141.836694,150 C142.659234,150 143.336894,149.752491 143.869676,149.257472 C144.402457,148.762453 144.668848,148.150685 144.668848,147.422167 C144.668848,146.674969 144.402457,146.049191 143.869676,145.544832 C143.336894,145.040473 142.659234,144.788294 141.836694,144.788294 C140.99546,144.788294 140.308452,145.040473 139.775671,145.544832 C139.24289,146.049191 138.976499,146.674969 138.976499,147.422167 C138.976499,148.150685 139.24289,148.762453 139.775671,149.257472 C140.308452,149.752491 140.99546,150 141.836694,150 Z" id="MUSICIANHOURSDONATED!"></path>
            </g>
        </g>
    </g>
</svg>