<?xml version="1.0" encoding="UTF-8"?>
<svg width="750px" height="515px" viewBox="0 0 750 515" version="1.1" xmlns="http://www.w3.org/2000/svg" xmlns:xlink="http://www.w3.org/1999/xlink">
    <title>Artboard Copy 2</title>
    <defs>
        <linearGradient x1="34.7813123%" y1="44.6014801%" x2="79.9409329%" y2="58.2057219%" id="linearGradient-1">
            <stop stop-color="#746F6F" offset="0%"></stop>
            <stop stop-color="#585151" offset="100%"></stop>
        </linearGradient>
        <linearGradient x1="50%" y1="0%" x2="50%" y2="100%" id="linearGradient-2">
            <stop stop-color="#434242" offset="0%"></stop>
            <stop stop-color="#000000" stop-opacity="0.98083673" offset="100%"></stop>
        </linearGradient>
        <linearGradient x1="50%" y1="0%" x2="50%" y2="100%" id="linearGradient-3">
            <stop stop-color="#7C7979" offset="0%"></stop>
            <stop stop-color="#111111" stop-opacity="0.98083673" offset="100%"></stop>
        </linearGradient>
        <linearGradient x1="50%" y1="0%" x2="50%" y2="100%" id="linearGradient-4">
            <stop stop-color="#434242" offset="0%"></stop>
            <stop stop-color="#000000" stop-opacity="0.98083673" offset="100%"></stop>
        </linearGradient>
    </defs>
    <g id="Artboard-Copy-2" stroke="none" stroke-width="1" fill="none" fill-rule="evenodd">
        <g id="Computer-&amp;-Modem" transform="translate(20.000000, 47.000000)">
            <g id="cord" transform="translate(203.000000, 175.000000)" fill-rule="nonzero">
                <path d="M179.015193,19.8205018 C139.435515,19.2734158 71.66255,23.4241555 1.87752366,30.7894484 L1.46111845,26.7597166 C71.38943,19.379301 139.308212,15.2196308 179.070019,15.7692343 C200.072152,16.0595342 211.844691,17.5208278 214.555166,20.8516122 C215.810037,22.3936687 215.547806,24.2686659 214.136489,25.7737635 C213.132264,26.8447178 211.463142,27.8759932 209.073529,28.9577095 C204.464542,31.0440794 196.942884,33.4012245 186.426025,36.0408985 C166.726602,40.9853463 154.84552,46.4284385 150.775918,51.6897363 C147.752755,55.5981672 149.595095,59.3815814 156.635836,63.2000382 C172.181262,71.6309034 205.560746,75.3943117 233.887493,71.1469744 C240.562889,70.1460597 248.067833,68.8785667 257.672628,67.1542834 C263.30069,66.143916 284.02164,62.337549 284.139658,62.3160248 C292.65354,60.7632629 299.482094,59.5497547 306.070877,58.4306524 C336.088237,53.3322156 358.305597,50.7569615 376.336008,50.8389708 C398.860504,50.9414209 413.453661,55.3544174 419.40771,65.3686093 C427.096178,78.2999426 468.718061,75.1776517 490.815476,60.6885098 C501.865519,53.4430629 505.015845,45.2179043 498.935725,36.6373489 C491.195776,25.7143633 469.47405,14.6322686 432.741043,4.31551065 L433.814479,0.411802649 C471.367062,10.958745 493.77,22.3883834 502.195152,34.2783607 C509.834896,45.0599316 505.749711,55.7259039 492.997492,64.0874575 C482.202365,71.1657573 465.713251,76.1734044 450.184488,77.338304 C433.568539,78.5847595 420.658777,75.3392674 415.971349,67.4554202 C410.971045,59.0453455 397.551175,54.987153 376.317965,54.8905762 C358.573173,54.809866 336.543346,57.3633828 306.735324,62.4262637 C300.164839,63.5422581 293.351014,64.7531487 284.851629,66.3032668 C284.740685,66.3235007 264.011193,70.1314368 258.37379,71.1434812 C248.734694,72.8739223 241.195442,74.1472096 234.475844,75.154752 C205.362143,79.5200857 171.133748,75.660966 154.740178,66.7701203 C145.805324,61.9244148 142.701341,55.5501021 147.617441,49.1944267 C152.409254,42.9994349 164.938389,37.2594493 185.459727,32.1087056 C195.764519,29.5222589 203.091408,27.2261509 207.434728,25.2600413 C209.253486,24.4367367 210.486307,23.6954607 211.101728,23.1119754 C208.571685,21.3947472 196.986302,20.0689056 179.015193,19.8205018 Z" id="Path-16" fill="#4A4A4A"></path>
                <path d="M0.829258674,28.2793594 L0.745977632,27.473413 C70.6169751,20.0990465 138.477431,15.9429485 178.166386,16.491545 C198.387477,16.771049 210.200765,18.2374007 212.434916,20.9828512 C213.808318,22.6705659 212.063865,24.5309362 207.536306,26.5804459 C203.033585,28.6187117 195.589835,30.951442 185.157803,33.5698251 C146.898016,43.1728228 138.089394,54.5608611 154.99587,63.7298747 C170.880554,72.3447322 204.599602,76.146425 233.241131,71.8518892 C239.934207,70.8483234 247.452874,69.5785126 257.07139,67.8517662 C262.703188,66.840728 283.427555,63.0337334 283.542744,63.0127253 C292.050827,61.4610209 298.873489,60.2485598 305.454953,59.1307006 C335.388577,54.0464862 357.530924,51.479927 375.447088,51.5614166 C397.45507,51.6615174 411.578912,55.9325924 417.151463,65.3051373 C425.45223,79.266305 468.050753,76.0707508 490.806579,61.1498925 C502.537493,53.458003 506.061763,44.2565189 499.357793,34.7955573 C491.343763,23.485775 469.349552,12.2646628 432.288715,1.85583114 L432.503402,1.07508954 C469.728154,11.5299581 491.858608,22.8205791 500.009679,34.3237597 C507.025573,44.2249244 503.314331,53.9145712 491.242982,61.8296821 C480.690856,68.7486476 464.459565,73.6779957 449.184082,74.8238953 C433.117284,76.0291559 420.742439,72.9181406 416.46419,65.7224995 C411.082389,56.670778 397.193204,52.4706638 375.443479,52.3717377 C357.58444,52.2905079 335.479599,54.8527196 305.587842,59.9298228 C299.010038,61.0470604 292.190321,62.2589981 283.685138,63.8101737 C283.571364,63.8309237 262.845289,67.6382322 257.211623,68.6496057 C247.586246,70.3775837 240.060718,71.6485533 233.358801,72.6534447 C204.559882,76.9715798 170.671051,73.1507447 154.616739,64.4438912 C146.43953,60.0090851 143.840204,54.6711318 147.999129,49.2943542 C152.502057,43.47284 164.771972,37.8516118 184.964543,32.7833865 C195.354162,30.1756489 202.758958,27.855126 207.208546,25.8409123 C211.286653,23.9948578 212.657861,22.5325348 211.815642,21.4975688 C209.819654,19.0447853 197.985991,17.5759046 178.155421,17.3017985 C138.502891,16.7537055 70.6715991,20.9080174 0.829258674,28.2793594 Z" id="Path-16" fill="#9A9A9A"></path>
            </g>
            <g id="computer">
                <g id="Group-28" transform="translate(10.219015, 233.564395)">
                    <path d="M125.656272,186.400091 C128.578313,186.855023 129.118577,188.47677 127.277063,191.265331 L495.340087,92.5808958 L276.05186,13.6618094 L1.31845221,50.370016 L119.227076,187.991695 C120.591165,186.475693 122.73423,185.945158 125.656272,186.400091 Z" id="Path-13" fill="#130808"></path>
                    <ellipse id="Oval" fill="#130808" cx="9.70269409" cy="46.0453576" rx="9.70269409" ry="9.61386586"></ellipse>
                    <path d="M490.767014,93.3626153 C496.376384,92.0897269 502.816588,92.0897269 502.816588,85.5128069 C502.816588,80.7672884 501.393766,79.7816169 493.872914,76.6480478 C490.999809,75.4509661 487.517362,74.3463729 485.190559,74.3463729 C479.831909,74.3463729 459.545444,79.1912295 459.545444,84.500821 C459.545444,89.8104125 485.157644,94.6355038 490.767014,93.3626153 Z" id="Oval" fill="#130808"></path>
                    <ellipse id="Oval" fill="#130808" cx="126.135023" cy="181.651466" rx="9.70269409" ry="9.61386586"></ellipse>
                    <polygon id="Path-13" fill="url(#linearGradient-1)" points="127.667027 179.342873 133.266806 177.833135 500.149652 78.9190864 280.861425 1.79021469e-13 6.12801732 36.7082066 123.943223 174.972723"></polygon>
                    <path d="M139.223163,168.550871 L30.3487988,40.5742035 L274.606025,7.8857115 L471.443215,78.8385312 L139.223163,168.550871 Z M463.490571,78.5119397 L274.340447,10.3300344 L35.0167192,42.3582854 L140.073201,165.847213 L463.490571,78.5119397 Z" id="Path-13" fill="#130808" fill-rule="nonzero"></path>
                    <polygon id="Shape" fill="#130808" fill-rule="nonzero" points="56.1171977 37.9226985 56.7111679 37.3874572 132.177671 119.678735 131.583701 120.213976"></polygon>
                    <polygon id="Line-11" fill="#130808" fill-rule="nonzero" points="83.692829 36.416697 84.2751631 35.8690356 158.650638 113.578585 158.068304 114.126247"></polygon>
                    <polygon id="Line-11" fill="#130808" fill-rule="nonzero" points="111.268888 31.8635063 111.850489 31.31508 183.733695 106.221481 183.152094 106.769907"></polygon>
                    <path d="M139.866174,26.8102443 L140.441177,26.2550236 L195.133578,81.9115562 L194.558575,82.4667769 L139.866174,26.8102443 Z M210.647353,98.8391714 L211.222356,98.2839507 L250.642383,138.398883 L250.06738,138.954104 L210.647353,98.8391714 Z" id="Shape" fill="#130808" fill-rule="nonzero"></path>
                    <polygon id="Line-11" fill="#130808" fill-rule="nonzero" points="166.42114 22.7871514 166.970849 22.2073029 223.680658 75.0349068 223.130949 75.6147553"></polygon>
                    <polygon id="Line-11" fill="#130808" fill-rule="nonzero" points="189.9147 19.7924547 190.419958 19.1741476 250.639331 67.5278174 250.134073 68.1461245"></polygon>
                    <polygon id="Line-11" fill="#130808" fill-rule="nonzero" points="214.19153 17.0985497 214.664578 16.4556915 346.302294 111.637731 345.829246 112.280589"></polygon>
                    <path d="M256.880566,11.7834536 L257.242349,11.0731439 L360.857342,59.9972832 L360.495559,60.707593 L256.880566,11.7834536 Z M237.877241,14.3721191 L238.239023,13.6618094 L330.060166,67.4358147 L329.698383,68.1461245 L237.877241,14.3721191 Z" id="Shape" fill="#130808" fill-rule="nonzero"></path>
                    <path d="M213.084707,99.7232392 C213.084707,100.118745 225.039644,112.385775 248.949519,136.524329 L343.904454,110.97697 L297.864981,77.3783481 C241.344798,91.8794359 213.084707,99.3277329 213.084707,99.7232392 Z" id="Path-10" fill="#494545"></path>
                    <polygon id="Line-12" fill="#130808" fill-rule="nonzero" points="106.044571 127.219761 105.638826 125.680008 393.796783 51.0663613 394.202529 52.6061138"></polygon>
                    <path d="M89.2160215,108.784235 C88.7859511,108.8909 88.3500799,108.631771 88.2424759,108.205455 C88.1348719,107.779139 88.3962825,107.347072 88.826353,107.240407 L332.751375,46.742894 C333.181446,46.6362293 333.617317,46.8953581 333.724921,47.3216743 C333.832525,47.7479905 333.571114,48.1800569 333.141044,48.2867216 L89.2160215,108.784235 Z" id="Line-12" fill="#130808" fill-rule="nonzero"></path>
                    <polygon id="Line-12" fill="#130808" fill-rule="nonzero" points="70.7311024 85.8448529 70.3826326 84.2913776 327.048351 27.7178486 327.396821 29.2713239"></polygon>
                    <polygon id="Line-12" fill="#130808" fill-rule="nonzero" points="51.5418391 65.0325056 51.2465464 63.4682409 299.621373 17.3965101 299.916665 18.9607747"></polygon>
                </g>
                <g id="Group-29">
                    <polygon id="Path-13" fill="#130808" transform="translate(145.211061, 136.914853) scale(1, -1) translate(-145.211061, -136.914853) " points="290.366795 249.027959 290.366795 39.9473823 11.1057894 1.47323399 0.0553256302 272.356471"></polygon>
                    <path d="M4.22079821,8.0998207 C7.12209969,8.0998207 8.26422501,9.42642136 8.26422501,6.6305417 C8.26422501,3.83466205 8.34912637,0 4.22079821,0 C0.0924700463,0 0.0924700463,1.47323399 0.0924700463,6.6305417 C0.910487827,7.61006104 2.28659721,8.0998207 4.22079821,8.0998207 Z" id="Oval" fill="#130808"></path>
                    <polygon id="Path-13" fill="#746F6F" transform="translate(151.377034, 135.441619) scale(1, -1) translate(-151.377034, -135.441619) " points="296.532768 247.554725 290.366795 37.4495586 17.2717625 0 6.2212987 270.883237"></polygon>
                    <polygon id="Path-13" stroke="#270909" fill="#231C1C" transform="translate(153.930712, 133.109168) scale(1, -1) translate(-153.930712, -133.109168) " points="278.146283 225.759808 272.74545 50.5131506 39.1714659 22.2745069 29.7151418 243.94383"></polygon>
                </g>
            </g>
            <g id="modem" transform="translate(494.000000, 76.000000)">
                <polygon id="Rectangle" fill="#130808" points="0.607360617 222.818904 128.273065 178.908127 199.750765 192.476857 73.4224872 252.980314"></polygon>
                <polygon id="Rectangle" fill="#000000" points="0.607360617 219.204505 5.53696683 220.03428 5.53696683 224.779484 0.607360617 222.818904"></polygon>
                <polygon id="Rectangle" fill="#000000" points="196.562322 190.680147 199.750765 190.986941 199.750765 192.540441 196.562322 192.540441"></polygon>
                <polygon id="Rectangle" fill="#4A4A4A" points="0.607360617 219.098316 128.273065 175.187539 199.750765 190.99716 73.4224872 249.259726"></polygon>
                <g id="Group-31" transform="translate(24.916351, 0.000000)">
                    <path d="M114.356714,0.559095664 L138.498104,0.559095664 C144.573237,0.559095664 149.498104,5.48396342 149.498104,11.5590957 L149.498104,185.339634 C149.498104,191.414766 144.573237,196.339634 138.498104,196.339634 C138.056625,196.339634 137.615546,196.313056 137.177261,196.260045 L113.035871,193.340101 C107.511854,192.671961 103.356714,187.983967 103.356714,182.41969 L103.356714,11.5590957 C103.356714,5.48396342 108.281582,0.559095664 114.356714,0.559095664 Z" id="Rectangle" fill="url(#linearGradient-2)"></path>
                    <path d="M45.2871931,18.9226792 L149.278212,9.48586498 L149.278212,182.705766 C149.350308,189.266455 148.100329,193.231182 145.528275,194.599948 C142.956222,195.968713 140.879281,196.832456 139.297454,197.191176 L52.7485248,233.970939 L36.9514132,239.047794 C42.5085998,236.625839 45.2871931,232.212334 45.2871931,225.807278 C45.2871931,219.402222 45.2871931,150.440689 45.2871931,18.9226792 Z" id="Path-14" fill="url(#linearGradient-3)"></path>
                    <path d="M45.2871931,18.9226792 L149.278212,9.48586498 L149.278212,182.705766 C149.350308,189.266455 148.100329,193.231182 145.528275,194.599948 C142.956222,195.968713 140.879281,196.832456 139.297454,197.191176 L52.7485248,233.970939 L36.9514132,239.047794 C42.5085998,236.625839 45.2871931,232.212334 45.2871931,225.807278 C45.2871931,219.402222 45.2871931,150.440689 45.2871931,18.9226792 Z" id="Path-14" fill="url(#linearGradient-3)"></path>
                    <path d="M5.42882295,9.50814906 L112.760614,0.559095664 L140.54592,0.559095664 C146.204446,1.62155307 149.188883,4.53567804 149.499232,9.30147059 C149.728251,9.58245251 115.053532,13.1849557 45.4750745,20.1089801 C43.6277999,14.2819555 39.4174652,11.3684432 32.8440702,11.3684432 C26.2706753,11.3684432 17.1322595,10.7483451 5.42882295,9.50814906 Z" id="Path-15" fill="#7A7777"></path>
                    <path d="M11.983289,9.02624957 L36.1246792,11.19292 C41.7959732,11.7019141 46.1413902,16.4547947 46.1413902,22.1488838 L46.1413902,227.836553 C46.1413902,233.911685 41.2165225,238.836553 35.1413902,238.836553 C34.0358153,238.836553 32.9365576,238.669882 31.8806728,238.342157 L7.73928257,230.84918 C3.13678811,229.420663 4.43006652e-12,225.162665 4.44231698e-12,220.343576 L4.44231698e-12,19.9822134 C4.44512571e-12,13.9070811 4.92486775,8.98221337 11,8.98221337 C11.3282559,8.98221337 11.6563472,8.99690681 11.983289,9.02624957 Z" id="Rectangle" fill="url(#linearGradient-4)"></path>
                </g>
                <polygon id="Rectangle" fill="#7ED321" points="39.6815956 41.8566176 48.9098737 43.7169118 48.9098737 47.4375 39.6815956 45.5772059"></polygon>
                <polygon id="Rectangle" fill="#7ED321" points="39.6815956 50.2279412 48.9098737 52.0882353 48.9098737 55.8088235 39.6815956 53.9485294"></polygon>
                <polygon id="Rectangle" fill="#7ED321" points="39.6815956 58.5992647 48.9098737 60.4595588 48.9098737 64.1801471 39.6815956 62.3198529"></polygon>
                <polygon id="Rectangle" fill="#7ED321" points="39.6815956 66.9705882 48.9098737 68.8308824 48.9098737 72.5514706 39.6815956 70.6911765"></polygon>
            </g>
        </g>
    </g>
</svg>