<?xml version="1.0" encoding="UTF-8"?>
<svg width="750px" height="515px" viewBox="0 0 750 515" version="1.1" xmlns="http://www.w3.org/2000/svg" xmlns:xlink="http://www.w3.org/1999/xlink">
    <title>Artboard Copy 4</title>
    <defs>
        <linearGradient x1="50%" y1="0%" x2="50%" y2="100%" id="linearGradient-1">
            <stop stop-color="#A8CD68" offset="0%"></stop>
            <stop stop-color="#538141" offset="100%"></stop>
        </linearGradient>
    </defs>
    <g id="Artboard-Copy-4" stroke="none" stroke-width="1" fill="none" fill-rule="evenodd">
        <g id="Internet" transform="translate(384.577717, 258.000000) rotate(-4.000000) translate(-384.577717, -258.000000) translate(35.077717, 34.000000)">
            <g id="united-states-map-black" transform="translate(0.953515, 0.068113)" fill="url(#linearGradient-1)">
                <path d="M63.1104571,23.7796504 C64.3953835,17.5714357 65.2473785,16.5171632 66.8970845,14.3874986 C67.9409353,13.0405455 68.1592937,12.0394607 68.1592937,10.8654417 C68.1592937,9.69142275 69.1993502,9.57648629 70.683712,7.3433848 C71.3476352,6.34464686 70.7796348,5.44452534 71.9459211,4.99534686 C73.5956272,4.35996427 73.2081303,2.64730891 74.4703394,2.64730891 C75.7325485,2.64730891 76.6072607,2.10866783 78.2569668,1.47328994 C79.4232531,1.02399053 80.7813851,0.299270968 82.0435943,0.299270968 C83.3058034,0.299270968 83.3058034,1.47328994 83.3058034,2.64730891 C83.3058034,3.82132789 84.5680125,4.99534686 84.5680125,7.3433848 C84.5680125,8.51740378 83.9040893,9.86670378 84.5680125,10.8654417 C86.0523541,13.0985432 87.4622568,12.3833309 88.35464,13.2134797 C89.2470231,14.0436285 89.9866751,14.7313688 90.8790583,15.5615176 C91.7714414,16.3916664 93.4034765,15.5615176 94.6656857,15.5615176 C95.9278948,15.5615176 97.190104,15.5615176 98.4523131,15.5615176 C99.7145222,15.5615176 100.976731,15.5615176 103.50115,15.5615176 C104.763359,15.5615176 107.287777,16.7355366 108.549986,16.7355366 C109.812195,16.7355366 110.686897,17.2741777 112.336614,17.9095556 C113.5029,18.358734 116.123241,17.9095556 117.38545,17.9095556 C118.647659,17.9095556 120.005791,17.4602608 121.172078,17.9095556 C122.821794,18.5449335 123.696496,19.0835745 124.958705,19.0835745 C126.220914,19.0835745 127.483123,19.0835745 128.745333,19.0835745 C130.007542,19.0835745 131.303822,19.9877981 132.53196,20.2575935 C135.278521,20.8606812 136.318587,21.4316125 137.580797,21.4316125 C138.843006,21.4316125 140.844868,19.7711986 142.629633,21.4316125 C143.522016,22.2617613 145.154051,22.6056314 146.416261,22.6056314 C147.67847,22.6056314 148.940679,22.6056314 151.465097,22.6056314 C152.727306,22.6056314 155.251725,23.7796504 156.513934,23.7796504 C157.776143,23.7796504 161.596841,24.683874 161.56277,24.9536694 C161.528699,25.2233392 164.087189,26.1276884 166.611607,24.9536694 C169.136025,23.7796504 170.590081,24.0550706 172.922653,24.9536694 C174.572369,25.5890473 175.447071,26.1276884 176.70928,26.1276884 C177.971489,26.1276884 180.1084,26.6663294 181.758117,27.3017073 C182.924393,27.7508858 184.378468,26.8524126 185.544744,27.3017073 C187.19446,27.9370852 189.331371,28.4757263 190.59358,28.4757263 C191.85579,28.4757263 193.117999,28.4757263 194.380208,28.4757263 C196.904626,28.4757263 199.429044,29.6497453 200.691254,29.6497453 C201.953463,29.6497453 203.215672,29.6497453 205.74009,29.6497453 C207.002299,29.6497453 209.004162,27.9893314 210.788927,29.6497453 C211.68131,30.4798941 213.362572,30.2595331 217.099972,30.8237643 C221.03933,31.4187547 222.148809,31.9975508 224.673227,31.9975508 C227.197646,31.9975508 228.459855,33.1715697 229.722064,33.1715697 C232.246482,33.1715697 236.03311,33.1715697 237.295319,33.1715697 C238.557528,33.1715697 239.43223,33.7104445 241.081946,34.3455887 C243.414499,35.2448861 244.902663,34.0755608 246.130783,34.3455887 C248.877344,34.9490345 249.91741,35.5196077 251.179619,35.5196077 C252.441828,35.5196077 253.704038,35.5196077 258.752874,35.5196077 C260.015083,35.5196077 261.277292,36.6936267 263.801711,36.6936267 C266.326129,36.6936267 270.112756,36.6936267 271.374966,36.6936267 C272.637175,36.6936267 273.677241,37.2641999 276.423802,37.8676456 C277.651922,38.1376653 278.94822,37.8676456 280.21043,37.8676456 C281.472639,37.8676456 282.734848,39.0416646 285.259266,39.0416646 C287.783684,39.0416646 289.045894,39.0416646 290.308103,39.0416646 C291.570312,39.0416646 294.09473,39.0416646 295.356939,39.0416646 C296.619148,39.0416646 297.493851,39.5805393 299.143567,40.2156836 C300.309862,40.6653282 301.667985,40.2156836 302.930194,40.2156836 C304.192403,40.2156836 305.454612,40.2156836 306.716822,40.2156836 C309.24124,40.2156836 309.24124,41.3897026 313.027867,41.3897026 C314.290076,41.3897026 316.814495,42.5637215 319.338913,42.5637215 C320.601122,42.5637215 321.863331,42.5637215 324.38775,42.5637215 C325.649959,42.5637215 328.174377,42.5637215 329.436586,42.5637215 C330.698795,42.5637215 330.698795,43.7377405 331.961004,43.7377405 C333.223214,43.7377405 335.360125,44.2766152 337.009841,44.9117595 C338.176136,45.361404 339.534259,44.9117595 340.796468,44.9117595 C343.320887,44.9117595 344.583096,44.9117595 345.845305,44.9117595 C347.107514,44.9117595 348.369723,44.9117595 349.631932,44.9117595 C350.894142,44.9117595 352.156351,46.0857784 354.680769,46.0857784 C355.942978,46.0857784 356.81768,46.6246532 358.467396,47.2597974 C359.633692,47.709442 362.254024,47.2597974 363.516233,47.2597974 C362.62385,46.4297648 363.516233,44.9117595 364.778442,43.7377405 C366.040651,42.5637215 366.915353,42.0248468 368.56507,41.3897026 C370.897622,40.4915698 371.185402,40.6653282 372.351697,40.2156836 C374.001413,39.5805393 375.245941,38.211632 376.138324,39.0416646 C377.030708,39.8716878 377.77036,41.7336889 378.662743,42.5637215 C379.555126,43.3937447 380.70374,42.6529423 381.187161,43.7377405 C381.869997,45.2721821 383.130974,46.1491672 383.711579,48.4338164 C384.360365,50.9884758 385.343614,51.1258407 386.235998,51.9558733 C387.128381,52.7858965 388.372909,53.668767 390.022625,54.3039113 C391.18892,54.7535558 392.547043,55.4779302 393.809252,55.4779302 C395.071462,55.4779302 395.441288,55.8219166 396.333671,56.6519492 C397.226054,57.4819724 397.965706,58.1699546 398.858089,58.9999871 C399.750472,59.8300103 401.752333,59.3439735 402.644716,60.1740061 C403.5371,61.0040293 404.00284,60.8983723 405.169135,61.3480251 C406.818851,61.9831694 407.693553,62.5220441 408.955762,62.5220441 C410.217971,62.5220441 411.48018,62.5220441 412.74239,62.5220441 C414.004599,62.5220441 415.636634,62.1780483 416.529017,61.3480251 C417.4214,60.5179925 419.423261,62.1780483 420.315644,61.3480251 C421.208028,60.5179925 421.577854,60.1740061 422.840063,60.1740061 C424.102272,60.1740061 425.734307,61.0040293 426.62669,60.1740061 C427.519073,59.3439735 427.501392,58.4611124 429.151108,57.8259682 C430.317404,57.3763154 431.675527,56.6519492 432.937736,56.6519492 C434.199945,56.6519492 435.074647,56.1130745 436.724363,55.4779302 C437.890658,55.0282774 440.510991,54.3039113 441.7732,54.3039113 C444.297618,54.3039113 445.559827,54.3039113 446.822036,54.3039113 C448.084246,54.3039113 449.346455,54.3039113 450.608664,54.3039113 C453.133082,54.3039113 454.395291,54.3039113 456.91971,54.3039113 C458.181919,54.3039113 459.540042,53.8542585 460.706337,54.3039113 C462.356053,54.9390555 463.230755,55.4779302 464.492964,56.6519492 C465.755174,57.8259682 467.113297,58.5503344 468.279592,58.9999871 C469.929308,59.6351314 469.911627,60.5179925 470.80401,61.3480251 C471.696393,62.1780483 472.254272,61.9045089 473.328428,62.5220441 C475.72916,63.9027021 476.43222,65.6848512 477.115056,67.2181199 C477.598477,68.3029182 478.377265,68.3921389 479.639474,69.5661579 C480.901683,70.7401769 482.259806,71.4645431 483.426102,71.9141958 C485.075818,72.5493401 487.212729,74.2622338 488.474938,75.4362528 C489.737147,76.6102717 490.106973,76.9542405 490.999356,77.7842907 C491.89174,78.6143139 493.557864,78.6882818 494.785984,78.9583097 C497.532545,79.5617554 498.185104,80.6712034 499.83482,81.3063476 C501.001116,81.7560004 502.393328,82.2103387 503.621448,82.4803666 C506.368009,83.0838123 507.777901,83.9983637 508.670284,84.8283951 C509.562668,85.6584277 510.028408,85.5527695 511.194703,86.0024141 C512.844419,86.6375584 513.719121,87.1764331 513.719121,88.3504521 C513.719121,89.524471 514.98133,91.872509 514.98133,93.046528 C514.98133,95.3945659 515.560703,96.2093351 516.243539,97.7426038 C516.72696,98.8274103 516.822912,99.731392 517.505748,101.264661 C517.989169,102.349467 516.613365,103.956685 517.505748,104.786718 C518.398131,105.61675 517.875574,106.304723 518.767958,107.134756 C519.660341,107.964788 520.399993,107.478742 521.292376,108.308775 C522.184759,109.138807 521.662202,109.82678 522.554585,110.656813 C523.446968,111.486845 522.924411,112.174818 523.816794,113.00485 C524.709177,113.834883 525.079003,115.352888 525.079003,116.526907 C525.079003,117.700926 526.341212,118.874945 526.341212,120.048964 C526.341212,121.222983 526.920585,122.037752 527.603422,123.571021 C528.086843,124.655828 527.603422,125.919059 527.603422,127.093078 C527.603422,128.267097 527.603422,129.441116 527.603422,130.615135 C527.603422,131.789154 527.603422,132.963173 527.603422,135.311211 C527.603422,136.48523 527.603422,138.833268 527.603422,140.007287 C527.603422,141.181306 527.603422,142.355325 527.603422,143.529344 C527.603422,145.877382 529.388186,147.739375 527.603422,149.399439 C526.711038,150.229471 525.971386,150.917444 525.079003,151.747477 C524.18662,152.577509 524.709177,153.265482 523.816794,154.095515 C522.924411,154.925547 522.554585,155.269534 522.554585,156.443552 C522.554585,157.617571 522.554585,158.79159 522.554585,159.965609 C522.554585,161.139628 523.816794,161.139628 525.079003,161.139628 C527.603422,161.139628 528.865631,161.139628 531.390049,161.139628 C532.652258,161.139628 533.52696,160.600754 535.176676,159.965609 C536.342971,159.515965 536.438886,158.79159 537.701095,158.79159 C538.963304,158.79159 540.804886,159.152022 541.487722,157.617571 C541.971143,156.532783 542.749931,156.443552 544.01214,155.269534 C545.27435,154.095515 545.370264,153.371158 546.536559,152.921496 C548.186275,152.286351 547.276212,151.059503 549.060977,149.399439 C549.95336,148.569406 551.585395,148.22542 552.847604,147.051401 C554.109813,145.877382 554.47964,145.533395 555.372023,144.703363 C556.264406,143.87333 557.508934,142.990469 559.15865,142.355325 C560.324945,141.90568 562.052894,142.011338 562.945277,141.181306 C563.837661,140.351273 563.315104,139.6633 564.207487,138.833268 C565.099831,138.003235 565.839561,138.489281 566.731905,137.659249 C567.624249,136.829216 567.994114,135.311211 567.994114,134.137192 C567.994114,132.963173 569.256323,132.963173 569.256323,131.789154 C569.256323,130.615135 571.041088,128.753142 569.256323,127.093078 C568.363979,126.263046 567.624249,126.749092 566.731905,125.919059 C564.94714,124.258995 566.248484,122.30779 566.731905,121.222983 C567.41478,119.689715 567.994114,118.874945 569.256323,118.874945 C570.518532,118.874945 570.888397,118.530959 571.780741,117.700926 C572.673085,116.870894 574.30516,117.700926 575.567369,117.700926 C576.829578,117.700926 578.091787,117.700926 579.353996,117.700926 C580.616205,117.700926 581.490908,117.162052 583.140624,116.526907 C584.306919,116.077263 584.772698,116.182921 585.665042,115.352888 C586.557386,114.522856 588.18946,115.352888 589.451669,114.178869 C590.713879,113.00485 591.588581,112.465976 593.238297,111.830832 C594.404592,111.381187 594.870371,111.486845 595.762715,110.656813 C596.655059,109.82678 596.541503,109.393581 597.024924,108.308775 C597.7078,106.775506 598.287133,105.960737 598.287133,104.786718 C598.287133,102.43868 598.866467,100.451074 599.549343,98.9166228 C600.032764,97.831834 600.328131,97.6533913 600.811552,96.5685849 C601.494427,95.0353161 602.443626,95.0505795 603.33597,94.2205469 C604.228314,93.3905143 604.968044,93.8765605 605.860388,93.046528 C606.752732,92.2164954 607.9973,91.3336343 609.647016,90.69849 C610.813311,90.2488454 612.541299,89.1804847 613.433643,88.3504521 C614.325987,87.5204195 615.065717,86.8324467 615.958061,86.0024141 C616.850405,85.1723815 617.220271,84.8283951 619.744689,84.8283951 C621.006898,84.8283951 622.269107,83.6543762 623.531316,83.6543762 C624.793525,83.6543762 626.151649,82.9300194 627.317944,82.4803666 C628.96766,81.8452223 629.842362,81.3063476 631.104571,81.3063476 C632.36678,81.3063476 632.36678,80.1323286 634.891199,80.1323286 C636.153408,80.1323286 637.785482,80.9623518 638.677826,80.1323286 C639.57017,79.3022784 639.940035,78.9583097 641.202244,78.9583097 C642.464453,78.9583097 642.464453,77.7842907 643.726663,77.7842907 C644.988872,77.7842907 645.358737,77.4402949 646.251081,76.6102717 C647.143425,75.7802215 647.51329,75.4362528 648.775499,75.4362528 C650.037708,75.4362528 650.407573,75.092257 651.299917,74.2622338 C652.192261,73.4321836 652.078706,71.8249751 652.562127,70.7401769 C653.245002,69.2069081 654.194201,69.2221621 655.086545,68.3921389 C655.978889,67.5620887 655.086545,66.044101 655.086545,64.870082 C655.086545,63.696063 655.086545,61.3480251 655.086545,60.1740061 C655.086545,58.9999871 655.086545,57.8259682 655.086545,56.6519492 C655.086545,54.3039113 655.086545,53.1298923 655.086545,51.9558733 C655.086545,50.7818543 654.120936,49.4293845 655.086545,47.2597974 C655.76942,45.7265286 656.718619,44.5677637 657.610963,43.7377405 C658.503307,42.9077079 658.873172,40.2156836 658.873172,39.0416646 C658.873172,37.8676456 660.135381,37.8676456 660.135381,36.6936267 C660.135381,35.5196077 661.397591,33.1715697 661.397591,31.9975508 C661.397591,29.6497453 663.534502,29.1111042 665.184218,28.4757263 C666.350513,28.0264316 667.742688,27.5713771 668.970845,27.3017073 C671.717444,26.698494 672.949301,25.2290895 675.281891,26.1276884 C676.931607,26.7630663 678.385643,28.1157697 679.068519,29.6497453 C679.55194,30.7344179 680.330728,31.9975508 681.592937,34.3455887 C682.855146,36.6936267 684.117355,36.6936267 684.117355,37.8676456 C684.117355,39.0416646 685.379564,40.2156836 685.379564,41.3897026 C685.379564,42.5637215 685.993027,44.7051286 686.641773,47.2597974 C686.932056,48.4021179 687.221107,49.2485856 687.903983,50.7818543 C688.387404,51.8666432 688.483316,52.7706425 689.166192,54.3039113 C689.649613,55.3887001 690.798266,55.8219166 691.69061,56.6519492 C692.582954,57.4819724 692.469398,57.9151889 692.952819,58.9999871 C693.635695,60.5344288 693.322684,61.6920115 694.215028,62.5220441 C695.107372,63.3520673 695.847103,62.8660304 696.739447,63.696063 C697.631791,64.5260862 696.256026,66.1333217 696.739447,67.2181199 C697.422322,68.7525616 698.001656,69.5661579 698.001656,70.7401769 C698.001656,71.9141958 698.001656,74.2622338 698.001656,75.4362528 C698.001656,77.7842907 697.631791,78.1282595 696.739447,78.9583097 C695.847103,79.7883329 695.999793,79.6462648 694.215028,81.3063476 C693.322684,82.1363708 692.952819,82.4803666 690.428401,82.4803666 C689.166192,82.4803666 689.688748,83.1683311 687.903983,84.8283951 C687.011639,85.6584277 685.379564,84.8283951 684.117355,84.8283951 C682.855146,84.8283951 681.013603,85.1888272 680.330728,83.6543762 C679.847307,82.5695873 679.068519,82.4803666 679.068519,84.8283951 C679.068519,86.0024141 679.068519,87.1764331 679.068519,88.3504521 C679.068519,89.524471 677.806309,89.524471 676.5441,90.69849 C675.281891,91.872509 673.923768,92.5968834 672.757473,93.046528 C671.107757,93.6816722 669.653721,93.8612971 668.970845,95.3945659 C668.487424,96.4793723 668.970845,98.9166228 668.970845,101.264661 C668.970845,102.43868 668.970845,103.612699 668.970845,104.786718 C668.970845,105.960737 668.970845,107.134756 668.970845,109.482794 C668.970845,110.656813 669.454267,111.920062 668.970845,113.00485 C668.28797,114.539302 668.28797,116.167658 668.970845,117.700926 C669.454267,118.785733 669.454267,120.138194 668.970845,121.222983 C668.28797,122.757434 668.28797,123.211771 668.970845,124.74504 C669.454267,125.829847 671.495264,125.919059 672.757473,127.093078 C674.019682,128.267097 674.143406,129.235659 676.5441,130.615135 C677.618257,131.23267 677.806309,131.789154 677.806309,130.615135 C677.806309,129.441116 677.806309,128.267097 677.806309,127.093078 C677.806309,125.919059 677.580354,127.444123 681.592937,129.441116 C682.706229,129.995253 682.855146,130.615135 684.117355,131.789154 C685.379564,132.963173 685.958898,133.777942 686.641773,135.311211 C687.125195,136.396017 686.641773,137.659249 686.641773,138.833268 C686.641773,140.007287 685.379564,140.007287 684.117355,140.007287 C682.855146,140.007287 680.718235,140.546162 679.068519,141.181306 C677.902223,141.630968 676.174235,142.011338 675.281891,141.181306 C673.497126,139.521242 674.407189,138.294393 672.757473,137.659249 C671.591178,137.209604 671.495264,136.48523 670.233055,136.48523 C667.708636,136.48523 667.338771,136.829216 666.446427,137.659249 C665.554083,138.489281 664.814353,139.177254 663.922009,140.007287 C663.029665,140.837319 661.785098,140.546162 660.135381,141.181306 C658.969086,141.630968 655.978889,141.525292 655.086545,142.355325 C654.194201,143.185357 652.192261,142.699311 651.299917,143.529344 C650.407573,144.359376 650.037708,147.051401 648.775499,147.051401 C647.51329,147.051401 647.143425,148.569406 646.251081,149.399439 C645.358737,150.229471 644.409538,150.214208 643.726663,151.747477 C643.243242,152.832283 642.560367,154.545177 643.726663,154.095515 C645.376379,153.46037 646.439134,153.539031 647.51329,152.921496 C649.913984,151.54202 650.037708,150.573458 651.299917,150.573458 C652.562127,150.573458 654.699038,148.860564 656.348754,148.22542 C658.681344,147.327296 658.873172,149.399439 658.873172,150.573458 C658.873172,151.747477 659.765516,153.265482 658.873172,154.095515 C657.088407,155.755579 655.978889,154.439501 655.086545,155.269534 C653.30178,156.929598 653.824336,157.617571 652.562127,157.617571 C651.299917,157.617571 649.941794,157.167927 648.775499,157.617571 C647.125783,158.252716 645.881216,157.961558 644.988872,158.79159 C644.096528,159.621623 643.726663,159.965609 642.464453,159.965609 C641.202244,159.965609 640.327542,160.504484 638.677826,161.139628 C637.511531,161.589291 635.783543,160.309596 634.891199,161.139628 C633.998855,161.969661 634.407778,163.576896 634.891199,164.661685 C635.574074,166.196136 636.732742,166.650473 637.415617,168.183742 C637.899038,169.268549 637.994951,170.17253 638.677826,171.705799 C639.161247,172.790606 638.677826,175.227856 638.677826,177.575894 C638.677826,178.749913 638.677826,179.923932 638.677826,181.097951 C638.677826,182.27197 636.153408,182.27197 636.153408,183.445989 C636.153408,185.794027 636.057494,187.69242 634.891199,188.142065 C633.241482,188.777209 634.767474,191.458665 632.36678,192.838141 C631.292624,193.455676 629.842362,192.838141 628.580153,192.838141 C627.317944,192.838141 627.317944,190.490103 626.055735,190.490103 C624.793525,190.490103 625.276947,189.226871 624.793525,188.142065 C624.11065,186.608796 622.951983,186.154459 622.269107,184.620008 C621.785686,183.535219 621.006898,181.097951 621.006898,182.27197 C621.006898,183.445989 622.848441,183.086739 623.531316,184.620008 C624.014737,185.704814 624.11065,186.608796 624.793525,188.142065 C625.276947,189.226871 626.669197,190.283481 627.317944,192.838141 C627.608227,193.980469 628.580153,194.01216 628.580153,195.186179 C628.580153,196.360198 628.580153,197.534217 628.580153,198.708235 C628.580153,201.056273 629.842362,201.056273 629.842362,202.230292 C629.842362,204.57833 629.842362,205.752349 629.842362,206.926368 C629.842362,208.100387 629.842362,209.274406 629.842362,211.622444 C629.842362,212.796463 629.842362,213.970482 629.842362,215.144501 C629.842362,216.31852 629.842362,217.492539 629.842362,218.666558 C629.842362,219.840577 628.96766,220.379469 627.317944,221.014596 C626.151649,221.464241 625.685869,219.496591 624.793525,218.666558 C623.901181,217.836525 623.161451,215.974534 622.269107,215.144501 C620.484342,213.484437 621.490319,211.533232 621.006898,210.448425 C620.324023,208.915156 619.374824,207.756401 618.48248,206.926368 C616.697715,205.266304 617.903146,203.764743 617.220271,202.230292 C616.73685,201.145504 616.640937,200.242687 615.958061,198.708235 C615.958061,201.056273 616.248344,202.262 615.958061,203.404311 C615.309315,205.958988 614.325987,206.096336 613.433643,206.926368 C612.541299,207.756401 612.69399,207.614342 610.909225,209.274406 C610.016881,210.104439 608.384807,210.448425 608.384807,211.622444 C608.384807,212.796463 608.384807,213.970482 608.384807,215.144501 C608.384807,216.31852 610.016881,216.662506 610.909225,217.492539 C611.801569,218.322572 611.783927,219.20545 613.433643,219.840577 C614.599938,220.290222 614.695852,221.014596 615.958061,221.014596 C617.220271,221.014596 618.48248,222.188615 619.744689,223.362634 C621.006898,224.536653 621.006898,225.710672 621.006898,226.884691 C621.006898,228.05871 620.114554,230.750734 621.006898,231.580767 C621.899242,232.410799 623.62723,231.131122 624.793525,231.580767 C626.443242,232.21593 627.897278,233.569555 628.580153,235.102824 C629.545762,237.272401 630.421696,238.265631 631.104571,239.7989 C631.587992,240.883706 631.104571,242.146937 631.104571,244.494975 C631.104571,245.668994 631.104571,246.843013 631.104571,248.017032 C631.104571,249.191051 629.472497,249.535038 628.580153,250.36507 C627.687809,251.195103 627.705451,253.252001 626.055735,253.887127 C624.889439,254.336772 624.310104,256.324413 624.793525,257.409184 C626.159198,260.476904 626.834523,261.020489 627.317944,262.10526 C628.000819,263.639711 629.063574,264.542546 628.580153,265.627317 C627.897278,267.161768 626.651478,266.939883 626.055735,267.975355 C623.908731,271.70758 623.042811,272.57516 619.744689,273.84545 C618.578394,274.295094 618.386566,274.569824 617.220271,275.019469 C615.570554,275.654632 614.695852,276.193488 613.433643,277.367507 C612.171434,278.541526 611.296732,279.080418 609.647016,279.715545 C608.480721,280.165189 606.752732,280.059531 605.860388,280.889564 C604.075623,282.549628 605.0816,284.500868 604.598179,285.585639 C603.915304,287.12009 602.966105,287.103645 602.073761,287.933677 C601.181417,288.76371 601.703896,289.451683 600.811552,290.281715 C599.919208,291.111748 597.315207,290.313423 597.024924,291.455734 C596.376178,294.010394 595.762715,294.977791 594.500506,294.977791 C593.238297,294.977791 594.130641,296.495797 593.238297,297.325829 C592.345953,298.155862 592.459509,298.589096 591.976088,299.673867 C591.293212,301.208318 590.344013,301.191872 589.451669,302.021905 C587.666904,303.681969 588.18946,305.543962 588.18946,306.717981 C588.18946,307.892 587.819595,309.410005 586.927251,310.240038 C586.034907,311.07007 585.085708,313.402845 584.402833,314.936114 C583.919412,316.02092 584.79034,317.502525 583.140624,319.63219 C582.096744,320.978793 581.264952,321.773606 580.616205,324.328266 C580.036872,326.61407 579.353996,327.850322 579.353996,329.024341 C579.353996,330.19836 580.24634,331.716366 579.353996,332.546398 C578.461652,333.376431 579.876552,335.58241 578.091787,337.242474 C577.199443,338.072507 576.250244,338.057243 575.567369,339.590512 C575.083948,340.675319 574.30516,341.93855 574.30516,343.112569 C574.30516,344.286588 573.042951,345.460607 573.042951,346.634626 C573.042951,348.982664 573.042951,350.156683 573.042951,351.330702 C573.042951,352.504721 573.622284,353.31949 574.30516,354.852759 C574.788581,355.937565 575.083948,357.290045 575.567369,358.374816 C576.250244,359.909267 577.408912,360.363604 578.091787,361.896873 C578.575208,362.981679 579.353996,364.244911 579.353996,365.41893 C579.353996,366.592949 580.616205,366.592949 580.616205,367.766968 C580.616205,368.940987 581.878415,370.115005 581.878415,371.289024 C581.878415,372.463043 582.657203,372.552291 583.140624,373.637062 C583.823499,375.171513 584.621162,375.812516 585.665042,377.159119 C587.314758,379.288784 586.347917,380.744592 586.927251,383.029214 C587.575998,385.583874 589.161387,386.582979 589.451669,387.72529 C590.100416,390.279949 591.010479,391.425807 591.976088,393.595385 C592.658963,395.129836 593.456626,395.770839 594.500506,397.117442 C596.150222,399.247106 595.279294,400.728747 595.762715,401.813518 C596.445591,403.347969 598.287133,405.335575 598.287133,407.683613 C598.287133,408.857632 599.549343,410.031651 599.549343,411.20567 C599.549343,412.379688 601.390886,415.542496 602.073761,417.075764 C603.03937,419.245342 603.33597,419.423802 603.33597,420.597821 C603.33597,422.945859 603.705835,424.463865 604.598179,425.293897 C605.490523,426.12393 604.598179,428.815954 604.598179,429.989973 C604.598179,431.163992 604.598179,433.51203 604.598179,434.686049 C604.598179,435.860068 605.0816,437.123335 604.598179,438.208106 C603.915304,439.742557 601.703896,438.552092 600.811552,439.382125 C599.919208,440.212157 599.549343,440.556144 598.287133,440.556144 C597.024924,440.556144 595.762715,440.556144 594.500506,440.556144 C593.238297,440.556144 591.976088,440.556144 590.713879,440.556144 C589.451669,440.556144 589.451669,439.382125 588.18946,438.208106 C586.927251,437.034087 587.314758,435.321212 585.665042,434.686049 C584.498747,434.236404 585.295177,433.168044 584.402833,432.338011 C583.510489,431.507978 583.04471,431.613637 581.878415,431.163992 C580.228698,430.528865 579.258082,429.265599 578.091787,428.815954 C576.442071,428.180827 574.988035,426.828348 574.30516,425.293897 C573.821739,424.209126 572.264163,424.030666 571.780741,422.945859 C571.097866,421.41259 569.478504,421.656796 567.994114,419.423802 C567.330191,418.425879 567.806061,417.6933 566.731905,417.075764 C564.331211,415.696306 564.690908,414.638514 564.207487,413.553707 C563.52465,412.020439 561.905211,412.264644 560.420859,410.031651 C559.756936,409.033727 559.841486,408.044045 559.15865,406.509594 C558.675229,405.424822 557.896441,405.335575 557.896441,404.161556 C557.896441,402.987537 556.634232,401.813518 556.634232,400.639499 C556.634232,399.46548 555.372023,398.291461 555.372023,397.117442 C555.372023,394.769404 555.372023,393.595385 555.372023,391.247347 C555.372023,390.073328 555.372023,388.899309 555.372023,387.72529 C555.372023,386.551271 555.372023,385.377252 555.372023,384.203233 C555.372023,383.029214 556.264406,381.511209 555.372023,380.681176 C554.47964,379.851144 554.400135,379.475449 554.109813,378.333138 C553.461028,375.778479 551.585395,375.9851 551.585395,374.811081 C551.585395,373.637062 551.215569,373.293076 550.323186,372.463043 C548.538421,370.802979 546.536559,372.463043 544.01214,372.463043 C542.749931,372.463043 541.875229,371.924188 540.225513,371.289024 C539.059218,370.83938 536.661028,372.347999 535.176676,370.115005 C534.512753,369.117082 532.282432,369.771019 531.390049,368.940987 C530.497666,368.110954 530.515347,367.228112 528.865631,366.592949 C527.699336,366.143304 526.341212,366.592949 523.816794,366.592949 C521.292376,366.592949 520.030167,367.766968 518.767958,367.766968 C517.505748,367.766968 516.243539,367.766968 514.98133,367.766968 C513.719121,367.766968 512.087086,368.597 511.194703,367.766968 C510.30232,366.936935 509.057791,366.054093 507.408075,365.41893 C505.075523,364.520824 503.605039,364.432758 502.359239,364.244911 C498.419881,363.650879 497.310402,361.896873 496.048193,361.896873 C493.523775,361.896873 490.999356,361.896873 489.737147,361.896873 C487.212729,361.896873 484.688311,361.896873 482.163892,361.896873 C480.901683,361.896873 478.377265,361.896873 477.115056,361.896873 C474.590638,361.896873 473.232514,361.447228 472.066219,361.896873 C470.416503,362.532036 469.541801,363.070892 467.017383,363.070892 C465.755174,363.070892 464.492964,363.070892 463.230755,363.070892 C461.968546,363.070892 459.348214,362.621247 458.181919,363.070892 C456.532202,363.706055 455.6575,364.244911 454.395291,364.244911 C453.133082,364.244911 452.898305,365.058498 450.608664,366.592949 C449.160906,367.563858 446.822036,368.940987 446.822036,370.115005 C446.822036,371.289024 448.454072,370.458992 449.346455,371.289024 C450.238838,372.119057 449.716281,372.80703 450.608664,373.637062 C451.501047,374.467095 452.745575,374.175955 454.395291,374.811081 C455.561586,375.260726 457.289536,376.329087 458.181919,377.159119 C459.074302,377.989152 458.551745,381.025163 459.444128,381.855195 C460.336511,382.685228 460.706337,383.029214 460.706337,384.203233 C460.706337,385.377252 460.706337,386.551271 459.444128,387.72529 C458.181919,388.899309 455.6575,388.899309 454.395291,388.899309 C451.870873,388.899309 450.238838,388.555323 449.346455,387.72529 C448.454072,386.895257 448.567667,386.462059 448.084246,385.377252 C447.401409,383.843983 445.559827,384.203233 444.297618,383.029214 C443.035409,381.855195 442.160707,382.394088 440.510991,383.029214 C439.344696,383.478859 438.374079,383.568106 436.724363,384.203233 C435.558068,384.652878 434.422087,385.947816 431.675527,386.551271 C430.447407,386.821308 429.151108,386.551271 427.888899,386.551271 C426.62669,386.551271 425.751988,383.98486 424.102272,381.855195 C423.05843,380.508592 421.208028,381.511209 420.315644,380.681176 C419.423261,379.851144 419.053435,379.507157 417.791226,379.507157 C416.529017,379.507157 415.170894,379.956802 414.004599,379.507157 C412.354883,378.872031 410.217971,378.333138 408.955762,378.333138 C405.169135,378.333138 404.294433,378.872031 402.644716,379.507157 C401.478421,379.956802 400.120298,380.681176 397.59588,380.681176 C395.071462,380.681176 393.809252,380.681176 392.547043,380.681176 C391.284834,380.681176 390.022625,380.681176 388.760416,380.681176 C387.498207,380.681176 386.235998,380.681176 384.973788,380.681176 C383.711579,380.681176 383.615665,381.405551 382.44937,381.855195 C380.799654,382.490358 379.555126,383.373201 378.662743,384.203233 C376.877978,385.863297 377.400534,386.551271 376.138324,386.551271 C374.876115,386.551271 373.613906,387.72529 372.351697,387.72529 C371.089488,387.72529 369.731365,388.449664 368.56507,388.899309 C366.915353,389.534472 366.933034,390.417314 366.040651,391.247347 C365.148268,392.07738 364.560075,392.248782 363.516233,393.595385 C361.866517,395.725049 362.065971,396.499907 360.991815,397.117442 C358.591083,398.498082 358.854903,400.004372 357.205187,400.639499 C356.038892,401.089143 353.322646,401.363873 352.156351,401.813518 C350.506635,402.448681 349.631932,402.987537 348.369723,402.987537 C347.107514,402.987537 346.232812,403.526429 344.583096,404.161556 C342.250543,405.060844 341.688852,404.505542 340.796468,405.335575 C339.011703,406.995639 340.01768,407.77286 339.534259,408.857632 C338.851423,410.392083 338.27205,411.20567 338.27205,412.379688 C338.27205,413.553707 340.056815,415.4157 338.27205,417.075764 C337.379667,417.905797 336.396417,418.043162 335.747632,420.597821 C335.45731,421.740132 336.640015,424.463865 335.747632,425.293897 C334.855249,426.12393 334.485423,428.815954 334.485423,431.163992 C334.485423,432.338011 334.485423,433.51203 334.485423,434.686049 C334.485423,435.860068 334.485423,437.034087 334.485423,438.208106 C334.485423,439.382125 334.485423,441.730163 334.485423,442.904182 C334.485423,445.25222 334.485423,446.426239 331.961004,446.426239 C330.698795,446.426239 327.986324,447.043774 326.912168,446.426239 C324.511436,445.04678 323.091451,444.348238 321.863331,444.078201 C319.116771,443.474746 316.074841,444.564246 314.290076,442.904182 C313.397693,442.074149 311.669744,441.005788 310.503449,440.556144 C307.205288,439.285854 306.137449,438.568538 305.454612,437.034087 C304.971191,435.949316 305.454612,434.686049 305.454612,433.51203 C305.454612,432.338011 305.454612,431.163992 305.454612,429.989973 C305.454612,427.641935 304.192403,424.119878 304.192403,422.945859 C304.192403,421.77184 301.054561,417.282386 300.405776,414.727726 C300.115454,413.585415 299.143567,412.379688 297.881358,410.031651 C296.619148,407.683613 295.356939,406.509594 294.09473,405.335575 C292.832521,404.161556 292.832521,401.813518 291.570312,400.639499 C290.308103,399.46548 289.72873,398.651893 289.045894,397.117442 C288.080285,394.947864 287.204312,395.129836 286.521475,393.595385 C286.038054,392.510614 286.151649,389.729342 285.259266,388.899309 C284.366883,388.069276 284.66098,387.550377 283.997057,386.551271 C282.512705,384.318278 281.95606,384.114021 281.472639,383.029214 C280.789803,381.495945 279.840604,380.33719 278.94822,379.507157 C278.055837,378.677125 276.046388,380.742228 273.899384,379.507157 C271.498652,378.127699 271.279052,377.608764 270.112756,377.159119 C268.46304,376.523993 267.588338,375.9851 266.326129,375.9851 C265.06392,375.9851 263.705797,375.535456 262.539502,375.9851 C260.889785,376.620263 260.015083,378.333138 258.752874,379.507157 C256.228456,381.855195 255.63017,383.20531 254.966247,384.203233 C253.481895,386.436227 250.809793,385.721239 249.91741,386.551271 C249.025027,387.381304 248.655201,388.899309 247.392992,388.899309 C246.130783,388.899309 245.642317,387.822743 242.344155,386.551271 C241.17786,386.101627 240.48366,385.202339 239.819737,384.203233 C238.335385,381.97024 237.199386,382.30484 236.03311,381.855195 C234.383393,381.220069 233.138865,380.33719 232.246482,379.507157 C231.354099,378.677125 230.37085,378.53976 229.722064,375.9851 C229.431761,374.842789 228.459855,373.637062 228.459855,372.463043 C228.459855,371.289024 227.197646,368.940987 227.197646,367.766968 C227.197646,365.41893 225.935436,364.244911 225.935436,363.070892 C225.935436,361.896873 224.77673,361.442536 223.411018,358.374816 C222.445429,356.205238 222.148809,356.026778 222.148809,354.852759 C222.148809,353.67874 220.307246,354.039172 219.624391,352.504721 C219.14097,351.41995 217.782828,350.517115 217.099972,348.982664 C216.616551,347.897893 216.22527,347.590272 214.575554,345.460607 C213.531712,344.114004 211.68131,343.942602 210.788927,343.112569 C209.004162,341.452505 209.914225,340.225675 208.264508,339.590512 C207.098232,339.140868 205.74009,339.590512 204.477881,339.590512 C203.215672,339.590512 202.476019,340.076557 200.691254,338.416493 C199.798871,337.586461 199.429044,337.242474 198.166835,337.242474 C196.904626,337.242474 195.642417,337.242474 194.380208,337.242474 C193.117999,337.242474 191.759857,337.692119 190.59358,337.242474 C188.943864,336.607348 188.069162,336.068455 186.806953,336.068455 C185.544744,336.068455 184.282535,336.068455 183.020326,336.068455 C181.758117,336.068455 180.126081,335.238423 179.233698,336.068455 C178.341315,336.898488 177.971489,338.416493 177.971489,339.590512 C177.971489,340.764531 176.70928,341.93855 175.447071,341.93855 C174.184862,341.93855 172.922653,341.93855 170.398234,341.93855 C167.873816,341.93855 166.833749,341.367986 164.087189,340.764531 C162.85905,340.49453 161.56277,340.764531 159.038352,340.764531 C156.513934,340.764531 152.727306,339.590512 151.465097,339.590512 C150.202888,339.590512 148.8397,339.225386 145.154051,338.416493 C142.407491,337.813038 141.367424,337.242474 140.105215,337.242474 C136.318587,337.242474 133.794169,334.894436 132.53196,334.894436 C131.269751,334.894436 130.395049,334.35558 128.745333,333.720417 C127.579056,333.270773 124.958705,332.546398 123.696496,331.372379 C122.434287,330.19836 119.993158,328.855304 117.38545,327.850322 C113.697279,326.42977 110.683122,325.106633 107.287777,323.154247 C105.769336,322.281973 104.66238,320.364769 99.7145222,318.458171 C97.3819509,317.560065 96.3154019,317.919315 94.6656857,317.284152 C93.4993994,316.834507 92.0453445,316.559777 90.8790583,316.110133 C89.2293421,315.475006 89.6168491,313.762095 89.6168491,312.588076 C89.6168491,311.414057 89.6168491,310.240038 89.6168491,305.543962 C89.6168491,303.195924 89.6168491,302.021905 88.35464,302.021905 C85.8302217,302.021905 84.9555196,301.483049 83.3058034,300.847886 C82.1395171,300.398242 80.7813851,300.847886 79.519176,300.847886 C75.7325485,300.847886 74.4703394,300.847886 71.9459211,300.847886 C70.683712,300.847886 68.1592937,299.673867 65.6348754,299.673867 C63.1104571,299.673867 61.6601763,300.291402 60.5860388,299.673867 C58.185317,298.294409 58.0616205,296.15181 55.5372023,293.803772 C54.2749931,292.629753 53.4962139,292.540541 53.012784,291.455734 C52.3299288,289.922466 52.642958,288.76371 51.7505748,287.933677 C50.8581917,287.103645 50.7786776,286.727951 50.4883657,285.585639 C49.8395902,283.03098 48.6468026,282.424015 47.9639474,280.889564 C47.4805175,279.804792 47.745589,278.71411 46.7017383,277.367507 C45.0520322,275.237842 45.8270261,273.306594 44.17732,272.671431 C43.0111637,272.221786 41.6529017,270.323393 41.6529017,269.149374 C41.6529017,267.975355 41.2832006,267.631368 40.3906926,266.801336 C39.4981845,265.971303 39.1284834,265.627317 37.8662743,263.279279 C36.6040651,260.931241 35.7287218,260.392385 34.0796468,259.757222 C32.9134906,259.307577 31.5552286,259.757222 30.2930194,259.757222 C29.0308103,259.757222 28.90724,258.789825 26.506392,257.409184 C25.4327556,256.791649 23.9819737,257.409184 22.7197646,257.409184 C21.4575554,257.409184 20.1953463,256.235165 20.1953463,255.061146 C20.1953463,252.713108 20.1953463,251.539089 20.1953463,250.36507 C20.1953463,248.017032 18.9331371,246.843013 18.9331371,244.494975 C18.9331371,243.320956 17.670928,242.146937 17.670928,240.972918 C17.670928,238.624881 17.0918252,236.637275 16.4087189,235.102824 C15.9256739,234.018052 15.250517,231.12643 13.8843006,228.05871 C13.4012557,226.973939 12.0082779,224.743274 11.3598823,222.188615 C11.0698254,221.046304 10.5807231,219.751364 10.0976731,218.666558 C9.41456681,217.133289 8.835464,216.31852 8.835464,215.144501 C8.835464,212.796463 10.7114867,213.003102 11.3598823,210.448425 C11.6499392,209.306114 11.3598823,208.100387 11.3598823,206.926368 C11.3598823,205.752349 11.3598823,204.57833 11.3598823,202.230292 C11.3598823,199.882254 10.8768374,198.619023 11.3598823,197.534217 C12.0429886,196.000948 12.6220914,195.186179 12.6220914,194.01216 C12.6220914,192.838141 13.5881863,190.31166 12.6220914,188.142065 C11.9389851,186.608796 11.2293686,183.556357 10.0976731,182.27197 C7.21238926,178.998812 7.96125794,177.357539 6.31104571,175.227856 C5.26732497,173.881253 2.52441828,171.705799 1.26220914,169.357761 C0,167.009723 0,165.835704 0,163.487666 C0,162.313647 0.369701058,161.969661 1.26220914,161.139628 C3.04722531,159.479564 1.6319102,157.273585 2.52441828,156.443552 C3.41692637,155.61352 2.52441828,154.095515 2.52441828,150.573458 C2.52441828,149.399439 2.52441828,147.051401 2.52441828,145.877382 C2.52441828,143.529344 2.13641519,142.13697 3.78662743,140.007287 C5.87407017,137.314098 10.0976731,134.137192 11.3598823,132.963173 C12.6220914,131.789154 13.235905,129.647755 13.8843006,127.093078 C14.4642844,124.808438 13.3043167,122.334786 13.8843006,120.048964 C14.5326961,117.494305 14.5665259,115.290672 15.1465097,113.00485 C15.7949053,110.450191 16.1186619,109.451103 16.4087189,108.308775 C17.0571144,105.754115 17.670928,104.786718 17.670928,103.612699 C17.670928,101.264661 18.2938282,99.0598637 18.9331371,95.3945659 C19.1353405,94.2358092 19.9052894,90.6667997 20.1953463,89.524471 C20.8437419,86.9698116 21.4575554,84.8283951 22.7197646,82.4803666 C23.9819737,80.1323286 24.5610765,79.3187323 25.2441828,77.7842907 C25.7272328,76.6994925 26.876093,75.092257 27.7686011,74.2622338 C28.6611092,73.4321836 28.1383022,71.5702001 29.0308103,70.7401769 C29.9233184,69.9101267 29.3269245,69.387707 30.2930194,67.2181199 C30.9761257,65.6848512 30.5896398,63.5176121 32.8174377,62.5220441 C35.0452356,61.526476 35.9209588,59.3604098 36.6040651,57.8259682 C37.57016,55.6563811 37.3832294,54.2146811 37.8662743,53.1298923 C38.5493806,51.5966235 40.1006356,50.7501558 40.3906926,49.6078354 C41.0390881,47.0531666 42.9151108,46.0857784 42.9151108,42.5637215 C42.9151108,40.2156836 42.9151108,39.0416646 42.9151108,37.8676456 C42.9151108,36.6936267 41.949016,35.3411568 42.9151108,33.1715697 C43.5982172,31.638301 44.17732,29.6497453 44.17732,28.4757263 C44.17732,26.1276884 44.17732,24.9536694 44.17732,23.7796504 C44.17732,21.4316125 44.17732,20.2575935 44.17732,17.9095556 C44.17732,15.5615176 44.17732,14.3874986 44.17732,13.2134797 C44.17732,12.0394607 43.2848119,10.5215716 44.17732,9.69142275 C45.0697031,8.86127393 55.5372023,9.69142275 61.848248,21.4316125 C68.1592937,33.1718022 62.8718958,24.9324138 63.1104571,23.7796504 Z" id="svg_7"></path>
            </g>
            <g id="Group" transform="translate(18.741810, 25.130562)" fill="#FFFFFF" fill-rule="nonzero">
                <path d="M181.3295,170.279674 L180.365531,170.214111 L180.805684,170.772701 L181.3295,170.279674 Z M180.805684,170.772701 L100.996351,245.890959 L27.6508815,232.472523 L0.230056745,169.941972 L0.254860234,169.784677 L18.0173717,57.214867 L39.588876,0.0721188315 L28.7863393,231.044337 L180.463961,169.397439 L255.32356,72.9645178 L255.188645,74.80777 L255.738364,75.5229295 L255.134825,75.5430727 L242.661246,245.960953 L330.810573,173.996932 L331.38035,173.929822 L331.600247,174.215899 L331.669043,174.330822 L376.774182,274.882299 L377.152559,275.061912 L376.981232,275.343869 L377.019407,275.428972 L303.960701,347.887577 L303.532597,347.201814 L241.413062,247.688273 L180.805684,170.772701 Z M376.830372,275.592143 L376.567396,274.784139 L376.774182,274.882299 L376.981232,275.343869 L376.830372,275.592143 Z M444.72125,160.580198 L394.567522,70.889463 L255.738364,75.5229295 L331.38035,173.929822 L444.72125,160.580198 Z M255.134825,75.5430727 L254.564163,75.5621188 L255.057696,74.6374106 L255.188645,74.80777 L255.134825,75.5430727 Z M377.152559,275.061912 L484.8709,326.195047 L457.961966,227.053822 L545.858114,161.059633 L474.814449,108.701401 L446.799557,160.335409 L446.869284,160.327196 L446.25975,161.330323 L445.708669,162.346016 L445.676997,162.289376 L377.152559,275.061912 Z M546.327581,160.707147 L546.349979,160.646145 L624.69277,122.438453 L581.403728,192.126721 L576.339172,402.725663 L575.080119,402.804435 L554.18441,281.038658 L485.442329,328.300375 L484.8709,326.195047 L485.461958,326.475618 L546.125739,161.256868 L545.858114,161.059633 L546.327581,160.707147 Z M546.327581,160.707147 L546.469391,160.600674 L546.473874,161.513439 L546.125739,161.256868 L546.327581,160.707147 Z M486.115152,326.785685 L485.225919,327.118475 L485.461958,326.475618 L486.115152,326.785685 Z M241.505786,246.904257 L242.557168,247.382898 L242.661246,245.960953 L241.505786,246.904257 Z M180.362897,169.527628 L180.622629,169.332951 L180.463961,169.397439 L180.362897,169.527628 Z M28.7863393,231.044337 L27.854501,231.423067 L28.7423629,231.984609 L28.7863393,231.044337 Z M19.2423917,57.4924086 L1.533444,169.7964 L27.602322,229.243966 L37.9516579,7.96176863 L19.2423917,57.4924086 Z M100.571599,244.619027 L178.118136,171.63056 L30.2081795,231.746152 L100.571599,244.619027 Z M241.410349,245.700858 L253.75906,76.9889705 L181.65936,169.866634 L241.410349,245.700858 Z M253.893975,75.1457184 L253.344256,74.4305589 L395.324249,69.6919324 L445.691639,159.764763 L474.382482,106.884914 L547.87938,161.051146 L547.409913,161.403631 L547.387514,161.464633 L547.219588,161.546531 L459.387409,227.49269 L486.20929,326.313181 L487.079281,325.715043 L486.189661,328.137938 L375.403548,275.548553 L375.574875,275.266596 L375.536699,275.181493 L375.762912,274.957138 L444.531024,161.783582 L331.35715,175.113533 L330.838421,175.537017 L330.526066,174.840693 L254.538767,75.9845644 L253.75906,76.9889705 L253.893975,75.1457184 Z M253.893975,75.1457184 L253.909238,74.9371932 L255.055978,75.3183019 L254.538767,75.9845644 L253.893975,75.1457184 Z M304.201847,345.930403 L375.536699,275.181493 L330.838421,175.537017 L242.732762,247.465389 L304.201847,345.930403 Z M331.163916,175.136293 L331.503172,174.994323 L331.35715,175.113533 L331.163916,175.136293 Z M375.81467,274.905805 L375.692872,275.529643 L375.574875,275.266596 L375.762912,274.957138 L375.81467,274.905805 Z M555.107824,278.9439 L575.228864,396.195438 L580.144183,191.802169 L621.416251,125.3609 L547.387514,161.464633 L487.079281,325.715043 L555.107824,278.9439 Z M547.219588,161.546531 L547.16431,161.573489 L547.468638,161.243692 L547.409913,161.403631 L547.219588,161.546531 Z M486.440274,327.1642 L485.44779,326.83673 L486.20929,326.313181 L486.440274,327.1642 Z" id="Path"></path>
                <polygon id="Path-2" points="304.183948 346.555348 303.580467 347.585442 100.523956 245.885911 37.8240566 1.57384075 181.087089 169.506422 180.092279 170.23195 40.3809312 6.46264486 101.625881 245.105459"></polygon>
                <polygon id="Path-3" points="254.913633 75.5758358 38.8902907 4.5701609 39.3146971 3.46632471 255.051004 74.3776526 663.171755 24.9129399 623.451593 124.715623 400.923657 72.1245599 475.277498 107.771523 474.694262 108.811539 390.520831 68.4568355 622.657428 123.318759 661.259164 26.3262819"></polygon>
                <polygon id="Path-4" points="332.186742 174.839876 331.079364 174.270589 393.777861 70.006054 394.885239 70.5753413"></polygon>
                <path d="M458.736739,226.776524 L458.443893,227.200339 L458.481378,226.92408 L458.736739,226.776524 Z M474.633251,107.887677 L475.890431,108.03351 L459.663589,227.622431 L376.283719,275.801964 L375.612232,274.808501 L458.481378,226.92408 L474.633251,107.887677 Z" id="Path-5"></path>
                <polygon id="Path-6" points="546.338382 161.281631 547.231713 160.450851 581.483023 191.936956 555.186082 280.146933 553.9646 279.835625 580.064887 192.285299"></polygon>
            </g>
            <g id="Group-2" transform="translate(12.569855, 24.054715)" fill="#9013FE">
                <ellipse id="Oval" cx="5.0846133" cy="172.507205" rx="5.0846133" ry="4.72622478"></ellipse>
                <ellipse id="Oval" cx="33.0499865" cy="235.129683" rx="5.0846133" ry="4.72622478"></ellipse>
                <ellipse id="Oval" cx="22.8807599" cy="59.0778098" rx="5.0846133" ry="4.72622478"></ellipse>
                <ellipse id="Oval" cx="43.2192131" cy="4.72622478" rx="5.0846133" ry="4.72622478"></ellipse>
                <ellipse id="Oval" cx="185.588386" cy="172.507205" rx="5.0846133" ry="4.72622478"></ellipse>
                <ellipse id="Oval" cx="308.890258" cy="350.92219" rx="5.0846133" ry="4.72622478"></ellipse>
                <ellipse id="Oval" cx="336.855631" cy="177.233429" rx="5.0846133" ry="4.72622478"></ellipse>
                <ellipse id="Oval" cx="480.495957" cy="109.884726" rx="5.0846133" ry="4.72622478"></ellipse>
                <ellipse id="Oval" cx="629.220896" cy="126.426513" rx="5.0846133" ry="4.72622478"></ellipse>
                <ellipse id="Oval" cx="582.188223" cy="405.273775" rx="5.0846133" ry="4.72622478"></ellipse>
                <ellipse id="Oval" cx="490.665184" cy="330.835735" rx="5.0846133" ry="4.72622478"></ellipse>
                <ellipse id="Oval" cx="587.272837" cy="194.956772" rx="5.0846133" ry="4.72622478"></ellipse>
                <ellipse id="Oval" cx="668.626649" cy="27.1757925" rx="5.0846133" ry="4.72622478"></ellipse>
                <ellipse id="Oval" cx="560.578617" cy="283.573487" rx="5.0846133" ry="4.72622478"></ellipse>
                <ellipse id="Oval" cx="463.970964" cy="230.403458" rx="5.0846133" ry="4.72622478"></ellipse>
                <ellipse id="Oval" cx="246.603745" cy="250.489914" rx="5.0846133" ry="4.72622478"></ellipse>
                <ellipse id="Oval" cx="381.345998" cy="278.847262" rx="5.0846133" ry="4.72622478"></ellipse>
                <ellipse id="Oval" cx="259.315278" cy="76.8011527" rx="5.0846133" ry="4.72622478"></ellipse>
                <ellipse id="Oval" cx="400.413298" cy="72.074928" rx="5.0846133" ry="4.72622478"></ellipse>
                <ellipse id="Oval" cx="552.951697" cy="163.054755" rx="5.0846133" ry="4.72622478"></ellipse>
                <ellipse id="Oval" cx="451.259431" cy="163.054755" rx="5.0846133" ry="4.72622478"></ellipse>
                <ellipse id="Oval" cx="105.505726" cy="248.126801" rx="5.0846133" ry="4.72622478"></ellipse>
            </g>
        </g>
    </g>
</svg>