<?xml version="1.0" encoding="UTF-8"?>
<svg width="750px" height="515px" viewBox="0 0 750 515" version="1.1" xmlns="http://www.w3.org/2000/svg" xmlns:xlink="http://www.w3.org/1999/xlink">
    <title>Artboard</title>
    <defs>
        <linearGradient x1="45.3592228%" y1="123.685178%" x2="62.9388078%" y2="25.3954883%" id="linearGradient-1">
            <stop stop-color="#E2D6BD" offset="0%"></stop>
            <stop stop-color="#9C8969" offset="100%"></stop>
        </linearGradient>
        <linearGradient x1="50%" y1="0%" x2="50%" y2="100%" id="linearGradient-2">
            <stop stop-color="#FBF6EB" offset="0%"></stop>
            <stop stop-color="#C1AC88" offset="100%"></stop>
        </linearGradient>
        <radialGradient cx="62.0471745%" cy="50%" fx="62.0471745%" fy="50%" r="46.410068%" gradientTransform="translate(0.620472,0.500000),scale(0.655091,1.000000),rotate(96.681324),scale(1.000000,2.014795),translate(-0.620472,-0.500000)" id="radialGradient-3">
            <stop stop-color="#D76262" offset="0%"></stop>
            <stop stop-color="#7A4545" offset="100%"></stop>
        </radialGradient>
        <linearGradient x1="141.629557%" y1="50%" x2="1.42108547e-12%" y2="44.6203397%" id="linearGradient-4">
            <stop stop-color="#C04549" offset="0.076486014%"></stop>
            <stop stop-color="#5C1819" offset="100%"></stop>
        </linearGradient>
        <linearGradient x1="50%" y1="0%" x2="50%" y2="100%" id="linearGradient-5">
            <stop stop-color="#053B5A" offset="0%"></stop>
            <stop stop-color="#001E34" offset="100%"></stop>
        </linearGradient>
        <linearGradient x1="50%" y1="0%" x2="50%" y2="100%" id="linearGradient-6">
            <stop stop-color="#053B5A" offset="0%"></stop>
            <stop stop-color="#001E34" offset="100%"></stop>
        </linearGradient>
        <linearGradient x1="50%" y1="1.8921604%" x2="50%" y2="100%" id="linearGradient-7">
            <stop stop-color="#7C7575" offset="0%"></stop>
            <stop stop-color="#323232" offset="100%"></stop>
        </linearGradient>
        <linearGradient x1="48.0106105%" y1="39.5118225%" x2="45.8587036%" y2="58.5827431%" id="linearGradient-8">
            <stop stop-color="#4C4C4C" offset="0%"></stop>
            <stop stop-color="#5D5959" offset="48.0378432%"></stop>
            <stop stop-color="#1B1B1B" offset="100%"></stop>
        </linearGradient>
        <linearGradient x1="50%" y1="0%" x2="50%" y2="56.5638548%" id="linearGradient-9">
            <stop stop-color="#818181" offset="0%"></stop>
            <stop stop-color="#323232" offset="100%"></stop>
        </linearGradient>
        <radialGradient cx="77.4305556%" cy="70.1605903%" fx="77.4305556%" fy="70.1605903%" r="100%" gradientTransform="translate(0.774306,0.701606),scale(1.000000,0.661972),rotate(180.000000),translate(-0.774306,-0.701606)" id="radialGradient-10">
            <stop stop-color="#7C7979" offset="0%"></stop>
            <stop stop-color="#000000" stop-opacity="0.98083673" offset="100%"></stop>
        </radialGradient>
    </defs>
    <g id="Artboard" stroke="none" stroke-width="1" fill="none" fill-rule="evenodd">
        <g id="Audio-Hardware" transform="translate(22.000000, -58.000000)">
            <g id="Group-43">
                <g id="Group-18" transform="translate(302.263611, 297.738736) rotate(-17.000000) translate(-302.263611, -297.738736) translate(58.763611, 61.238736)">
                    <path d="M160.615194,337.724373 L208.178945,365.648955 C188.775068,383.506033 181.729629,401.39745 187.04263,419.323207 C200.951499,466.25093 178.066533,466.986617 167.01931,464.465557 C165.462039,464.110176 167.433394,469.222145 161.75974,467.046341 C156.086086,464.870536 160.889467,462.405373 158.917589,461.522406 C150.04997,457.551666 131.81951,448.19828 127.40855,437.763316 C120.83654,422.215982 136.616003,400.152351 142.652829,392.116945 C153.624423,377.513045 159.611878,359.382188 160.615194,337.724373 Z" id="Rectangle" fill="url(#linearGradient-1)" transform="translate(167.007761, 402.655922) rotate(-4.000000) translate(-167.007761, -402.655922) "></path>
                    <path d="M148.603035,387.06087 C144.593893,391.096143 143.022055,395.186959 143.887521,399.333317 C145.185719,405.552854 149.485011,407.201601 156.962795,414.363921 C164.948994,422.013207 157.960704,466.218608 163.338019,467.582764 C166.922895,468.492202 175.190922,452.077671 188.1421,418.339171 C187.59389,417.989518 187.102408,416.180879 186.667654,412.913254 C186.015524,408.011817 186.61466,405.917996 186.978258,406.057433 C194.239992,408.842255 188.205591,412.857112 197.266672,427.667737 C206.327753,442.478362 203.670755,455.000085 200.161559,464.133005 C200.12647,464.224326 200.575395,452.968848 196.426063,448.195701 C193.903336,445.293706 199.15272,461.595159 199.15272,461.595159 C190.94428,470.763078 181.380833,471.443126 163.338019,467.582764 C145.295205,463.722402 127.17495,443.188274 127.10848,443.188268 C127.10848,443.188268 128.180559,442.349419 130.324715,440.671722 C125.10673,441.769893 122.43729,442.312799 122.316397,442.300439 C122.316397,442.300439 113.096732,433.195331 118.504858,402.931836 C118.590348,402.453439 125.082147,404.493327 130.874657,389.417925 C134.73633,379.367657 140.64579,378.581972 148.603035,387.06087 Z" id="Rectangle" fill="#4E6366" transform="translate(160.116318, 425.522128) rotate(-4.000000) translate(-160.116318, -425.522128) "></path>
                    <g id="Group-21" transform="translate(243.655046, 218.734482) rotate(4.000000) translate(-243.655046, -218.734482) translate(14.155046, 15.734482)">
                        <path d="M238.125065,384.047557 C273.543391,384.041315 382.690832,300.997576 382.704433,222.919618 C382.712057,179.134653 360.744266,100.892112 327.170564,74.9664204 C300.875173,54.6610581 267.688454,81.5672457 230.845913,81.5737396 C146.963171,81.5885248 78.951748,144.895202 78.9381492,222.97316 C78.9245503,301.051118 202.706739,384.0538 238.125065,384.047557 Z" id="Oval" fill="url(#linearGradient-2)" transform="translate(230.821291, 225.715902) rotate(9.000000) translate(-230.821291, -225.715902) "></path>
                        <g id="Group-15" transform="translate(183.376823, 254.548724)">
                            <path d="M76.8373036,99.0679814 C112.757042,98.9344068 102.084567,81.3551882 124.790679,59.6993423 C107.469022,32.3613869 110.1689,29.3692143 102.251318,26.7183461 C94.3337356,24.0674779 100.859344,28.5306308 89.4832072,27.7380348 C78.1070703,26.9454388 86.867463,19.8011916 72.174312,21.1528007 C45.1073119,26.6594206 29.8589982,32.8022332 5.59366675,53.8506134 C37.3764479,77.9989863 29.0268826,94.9934636 76.8373036,99.0679814 Z" id="Oval" fill="url(#radialGradient-3)" transform="translate(65.192173, 60.025565) rotate(9.000000) translate(-65.192173, -60.025565) "></path>
                            <path d="M68.3487583,28.2205561 C84.0998023,18.2074424 97.4416685,15.4080747 108.374357,19.822453 C106.574622,21.1079242 106.031174,23.4587376 106.744012,26.8748933 C111.449315,49.4242536 103.596014,55.9350252 92.3846083,65.6859474 C65.9925561,88.6399695 51.5057406,80.8866827 27.2486246,94.582813 C24.0923483,96.3649197 24.3526427,85.7788255 30.4934667,72.4882566 C36.6342908,59.1976877 49.5449655,41.6873946 68.3487583,28.2205561 Z" id="Rectangle" fill="#001E34" transform="translate(66.816478, 56.287813) rotate(54.000000) translate(-66.816478, -56.287813) "></path>
                            <path d="M70.6583087,36.3868941 C95.3717495,18.8914878 106.055555,27.2688985 106.055555,27.2688985 C106.055555,27.2688985 100.06618,25.5741092 76.5713194,43.1925258 C60.9080792,54.9381369 47.5775759,68.4881138 36.5798096,83.8424565 C42.8231818,63.8690191 54.1826815,48.0504983 70.6583087,36.3868941 Z" id="Rectangle" fill="#E0E0E0" transform="translate(71.317682, 54.553297) rotate(54.000000) translate(-71.317682, -54.553297) "></path>
                            <path d="M73.3094377,58.639565 C74.4509992,57.5275961 50.0080424,66.0021146 75.5243058,48.2778059 C79.7037202,45.3746679 85.70615,43.6837048 93.531595,43.2049164 C95.3474585,49.794234 90.9831814,57.6743036 80.4387635,66.8451252 C69.8943456,76.0159468 57.2084166,81.8957183 42.3809766,84.4844397 C43.296765,76.2450998 47.5704382,70.0678786 55.2019963,65.9527763 C59.3101348,63.7375785 72.1678761,59.751534 73.3094377,58.639565 Z" id="Rectangle" fill="url(#linearGradient-4)" opacity="0.644275484" transform="translate(68.156364, 63.844678) rotate(54.000000) translate(-68.156364, -63.844678) "></path>
                        </g>
                        <path d="M178.19187,222.342305 C180.906042,217.200078 192.086437,197.907693 219.981879,195.523872 C238.57884,193.934658 255.58402,195.655397 270.997418,200.686088 C259.422198,200.492466 244.210076,202.407263 225.361055,206.43048 C197.087522,212.465305 185.842876,219.555744 182.550284,222.341538 C179.257692,225.127332 175.477698,227.484533 178.19187,222.342305 Z" id="Rectangle" fill="#001E34" transform="translate(224.130381, 210.164812) rotate(9.000000) translate(-224.130381, -210.164812) "></path>
                        <path d="M314.573791,221.823072 C307.026538,220.031039 337.851391,214.207625 349.795144,218.369549 C357.757646,221.144166 363.697242,227.876442 367.613933,238.566378 C353.781061,230.007909 343.7159,225.315485 337.418451,224.489107 C318.412019,221.995002 318.436391,222.740214 314.573791,221.823072 Z" id="Path-8" fill="#001E34" transform="translate(340.506442, 227.733743) rotate(9.000000) translate(-340.506442, -227.733743) "></path>
                        <path d="M133.269414,308.430188 C162.620366,308.425013 96.247309,317.281679 152.147081,223.816878 C208.046852,130.352077 123.687918,152.174401 94.336966,152.179576 C72.0852783,152.1835 14.9083437,148.730789 12.6383468,175.572095 C2.77942964,292.147673 103.918462,308.435364 133.269414,308.430188 Z" id="Oval" fill="#001E34" transform="translate(91.411231, 229.308873) rotate(9.000000) translate(-91.411231, -229.308873) "></path>
                        <path d="M361.505667,317.541426 C339.405299,343.262796 444.782852,250.024166 441.065115,195.107166 C437.347377,140.190166 344.992716,95.9576948 329.829004,90.8314706 C314.665291,85.7052464 331.168017,92.2076531 333.569356,115.003257 C335.970696,137.798861 333.564982,140.104938 333.564982,140.104938 C333.564982,140.104938 366.326885,169.21299 376.635119,207.957487 C385.719807,242.103167 384.098069,291.247404 361.505667,317.541426 Z" id="Oval" fill="url(#linearGradient-5)" transform="translate(382.326919, 205.559874) rotate(9.000000) translate(-382.326919, -205.559874) "></path>
                        <path d="M180.783608,186.45729 C212.695672,184.22112 311.607092,130.881371 305.347815,140.863526 C302.655328,145.157442 286.329803,156.719319 266.20121,165.3167 C239.536457,176.705824 207.913541,184.987651 209.298069,184.828891 C283.019914,176.375454 340.979429,136.248244 340.986849,93.6615654 C340.995204,45.7124174 277.482081,3.68583694 184.142761,34.8526921 C90.8034402,66.0195473 24.0811321,121.385677 27.7961619,208.617126 C31.5111916,295.848574 94.6295731,192.494349 180.783608,186.45729 Z" id="Oval" fill="url(#linearGradient-6)" transform="translate(184.317621, 133.790727) rotate(9.000000) translate(-184.317621, -133.790727) "></path>
                    </g>
                </g>
                <g id="Group-19" transform="translate(393.287824, 113.710523)">
                    <path d="M104.521129,0.694110838 C111.519733,0.694110838 117.193222,6.36760017 117.193222,13.3662039 L117.193222,278.854459 C117.193222,285.853063 111.519733,291.526552 104.521129,291.526552 C97.5225255,291.526552 91.8490362,285.853063 91.8490362,278.854459 L91.8490362,13.3662039 C91.8490362,6.36760017 97.5225255,0.694110838 104.521129,0.694110838 Z" id="Rectangle" fill="#9B9B9B"></path>
                    <path d="M110.555459,0 C117.554063,-1.28562266e-15 123.227552,5.67348933 123.227552,12.6720931 L123.227552,278.252131 C123.227552,285.250735 117.554063,290.924224 110.555459,290.924224 C103.556856,290.924224 97.8833662,285.250735 97.8833662,278.252131 L97.8833662,12.6720931 C97.8833662,5.67348933 103.556856,1.28562266e-15 110.555459,0 Z" id="Rectangle" fill="#D8D8D8"></path>
                    <path d="M17.8179485,241.217089 L239.249627,242.86548 C260.609229,243.024485 277.887031,260.297824 278.051557,281.657384 C278.212899,302.603562 261.36346,319.714587 240.417282,319.875929 C240.225796,319.877404 240.034301,319.877429 239.842814,319.876003 L18.4111355,318.227613 C-2.94846695,318.068607 -20.2262694,300.795269 -20.3907952,279.435708 C-20.5521368,258.489531 -3.7026979,241.378505 17.2434799,241.217164 C17.4349665,241.215689 17.6264615,241.215664 17.8179485,241.217089 Z" id="Rectangle" fill="url(#linearGradient-7)" transform="translate(128.830381, 280.546546) rotate(-49.000000) translate(-128.830381, -280.546546) "></path>
                    <path d="M83.9120518,193.375599 L216.917359,194.376175 C238.68973,194.539965 256.472997,212.157573 256.638546,233.726204 C256.801799,255.294836 239.285079,272.646888 217.512709,272.483099 L85.4346329,271.489498 C91.246357,256.663636 94.0312634,243.045244 93.7893521,230.634321 C93.5474407,218.223398 90.2550073,205.803824 83.9120518,193.375599 Z" id="Path" fill="url(#linearGradient-8)" transform="translate(170.275299, 232.929924) rotate(-49.000000) translate(-170.275299, -232.929924) "></path>
                    <path d="M103.748083,255.768104 L116.488108,255.653389 C116.488108,255.653389 129.428652,266.693081 128.775248,294.123355 C128.339645,312.410203 124.254162,326.154507 116.518799,335.356266 L103.336305,334.743623 C112.793206,324.514053 117.374843,311.211167 117.081215,294.834968 C116.787588,278.458768 112.343211,265.43648 103.748083,255.768104 Z" id="Line-7" fill="#979797" fill-rule="nonzero" transform="translate(116.067745, 295.504828) rotate(-49.000000) translate(-116.067745, -295.504828) "></path>
                    <path d="M152.79577,1.47810486 C159.794373,1.47810486 165.467863,7.15159419 165.467863,14.150198 L165.467863,278.854459 C165.467863,285.853063 159.794373,291.526552 152.79577,291.526552 C145.797166,291.526552 140.123677,285.853063 140.123677,278.854459 L140.123677,14.150198 C140.123677,7.15159419 145.797166,1.47810486 152.79577,1.47810486 Z" id="Rectangle" fill="#9B9B9B"></path>
                    <path d="M158.8301,0.602327586 C165.828703,0.602327586 171.502193,6.27581692 171.502193,13.2744207 L171.502193,278.252131 C171.502193,285.250735 165.828703,290.924224 158.8301,290.924224 C151.831496,290.924224 146.158007,285.250735 146.158007,278.252131 L146.158007,13.2744207 C146.158007,6.27581692 151.831496,0.602327586 158.8301,0.602327586 Z" id="Rectangle" fill="#D8D8D8"></path>
                    <ellipse id="Oval" fill="#B9B9B9" cx="159.131816" cy="275.564871" rx="8.14634556" ry="8.13142242"></ellipse>
                    <ellipse id="Oval" fill="#D8D8D8" cx="162.148981" cy="275.564871" rx="8.14634556" ry="8.13142242"></ellipse>
                </g>
            </g>
            <ellipse id="Oval" fill="url(#linearGradient-9)" cx="175.5" cy="308" rx="49.5" ry="78"></ellipse>
            <ellipse id="Oval" fill="url(#radialGradient-10)" cx="147" cy="309" rx="47" ry="71"></ellipse>
            <ellipse id="Oval" fill="#9B9B9B" cx="124" cy="314" rx="33" ry="49"></ellipse>
            <path d="M184.043402,277 C175.241634,257.50513 168.059158,245.881311 162.495973,242.128544 C156.932787,238.375777 151.100797,237.11179 145,238.336584 C164.537444,159.267533 212.193583,112.022509 271.729763,98.8224544 C283.199494,96.2794448 295.110148,95 307.345615,95 C398.5136,95 446.65007,162.855666 450,171.366418 C410.125235,152.713066 390.187853,143.38639 390.187853,143.38639 C390.187853,143.38639 377.88694,113.674724 323.180778,113.674724 C244.194607,113.674724 204.980503,192.266467 184.043402,277 Z" id="Path" fill="#282828" fill-rule="nonzero"></path>
            <path d="M181.377115,268 C179.284022,257.978697 173.455433,249.640988 163.891347,242.986873 C154.327261,236.332758 145.696812,234.584769 138,237.742908 C147.040559,167.00957 220.624024,88.0981099 322.046634,93.2384839 C420.607955,99.9369287 453,169.089797 453,169.089797 C453,169.089797 438.916457,161.348439 438.916457,161.348439 C438.916457,161.348439 406.97853,102.416123 330.992437,102.416123 C238.402977,102.416123 197.049691,194.430497 181.377115,268 Z" id="Path" fill="#494949" fill-rule="nonzero"></path>
            <ellipse id="Oval" fill="#D8D8D8" cx="121" cy="314" rx="33" ry="49"></ellipse>
        </g>
    </g>
</svg>