<?xml version="1.0" encoding="UTF-8"?>
<svg width="750px" height="515px" viewBox="0 0 750 515" version="1.1" xmlns="http://www.w3.org/2000/svg" xmlns:xlink="http://www.w3.org/1999/xlink">
    <title>Artboard Copy</title>
    <defs>
        <linearGradient x1="50%" y1="0%" x2="50%" y2="98.7287753%" id="linearGradient-1">
            <stop stop-color="#718487" offset="0%"></stop>
            <stop stop-color="#506467" offset="100%"></stop>
        </linearGradient>
        <linearGradient x1="50%" y1="5.87518064%" x2="50%" y2="100%" id="linearGradient-2">
            <stop stop-color="#DFC288" offset="0%"></stop>
            <stop stop-color="#4B3E23" offset="21.5129352%"></stop>
            <stop stop-color="#CBB893" offset="43.4610176%"></stop>
            <stop stop-color="#DFCBA3" offset="48.2645607%"></stop>
            <stop stop-color="#EAD2A5" offset="68.0459958%"></stop>
            <stop stop-color="#6A604D" offset="71.8221332%"></stop>
            <stop stop-color="#786951" offset="78.3005161%"></stop>
            <stop stop-color="#D8BA8A" offset="100%"></stop>
        </linearGradient>
        <radialGradient cx="50%" cy="52.724083%" fx="50%" fy="52.724083%" r="97.0643284%" gradientTransform="translate(0.500000,0.527241),scale(0.984044,1.000000),rotate(90.000000),translate(-0.500000,-0.527241)" id="radialGradient-3">
            <stop stop-color="#E5CEA4" offset="0%"></stop>
            <stop stop-color="#5D4F33" offset="100%"></stop>
        </radialGradient>
        <linearGradient x1="50%" y1="0%" x2="50%" y2="100%" id="linearGradient-4">
            <stop stop-color="#5F5F5F" offset="0%"></stop>
            <stop stop-color="#343434" offset="100%"></stop>
        </linearGradient>
    </defs>
    <g id="Artboard-Copy" stroke="none" stroke-width="1" fill="none" fill-rule="evenodd">
        <g id="DAC" transform="translate(92.000000, 43.000000)">
            <rect id="Rectangle" fill="url(#linearGradient-1)" x="4" y="2" width="560" height="433" rx="10"></rect>
            <g id="Group-30" transform="translate(0.000000, 0.746540)">
                <g id="Group-26" transform="translate(0.257924, 241.345796)" fill="#979797" fill-rule="nonzero">
                    <polygon id="Path-11" points="154.060006 122.1163 157.080247 122.1163 157.080247 131.128156 137.6043 149.863211 2.76998605 149.863211 2.76998605 147.19719 136.276629 147.19719 154.060006 130.090318"></polygon>
                    <polygon id="Path-11" points="169.51495 124.638746 172.515374 124.638746 172.515374 133.039675 145.157482 159.952997 1.5757645 159.952997 1.5757645 157.459083 143.764574 157.459083 169.51495 132.127154"></polygon>
                    <polygon id="Path-11" points="187.479039 124.638746 190.523022 124.638746 190.523022 133.227907 155.449566 170.042782 0.242531093 170.042782 0.242531093 167.508047 153.978882 167.508047 187.479039 132.344587"></polygon>
                    <polygon id="Line-8" points="200.813107 160.746995 193.317831 171.462229 193.317831 190.222354 190.523022 190.222354 190.523022 170.733551 198.018298 160.018316 198.018298 122.1163 200.813107 122.1163"></polygon>
                    <polygon id="Line-8" points="218.820755 160.746995 211.32548 171.462229 211.32548 190.222354 208.530671 190.222354 208.530671 170.733551 216.025947 160.018316 216.025947 122.1163 218.820755 122.1163"></polygon>
                    <polygon id="Line-8" points="234.255883 167.503399 226.760607 178.218634 226.760607 190.222354 223.965798 190.222354 223.965798 177.489955 231.461074 166.77472 231.461074 122.1163 234.255883 122.1163"></polygon>
                    <polygon id="Line-8" points="249.69101 167.503399 242.195734 178.218634 242.195734 190.222354 239.400925 190.222354 239.400925 177.489955 246.896201 166.77472 246.896201 122.1163 249.69101 122.1163"></polygon>
                    <polygon id="Line-8" points="324.294125 160.746995 324.294125 122.1163 327.088933 122.1163 327.088933 160.018316 334.584209 170.733551 334.584209 190.222354 331.7894 190.222354 331.7894 171.462229"></polygon>
                    <polygon id="Line-8" points="339.729252 160.746995 339.729252 122.1163 342.524061 122.1163 342.524061 160.018316 350.019336 170.733551 350.019336 190.222354 347.224528 190.222354 347.224528 171.462229"></polygon>
                    <polygon id="Line-8" points="355.164379 167.503399 355.164379 122.1163 357.959188 122.1163 357.959188 166.77472 365.454464 177.489955 365.454464 190.222354 362.659655 190.222354 362.659655 178.218634"></polygon>
                    <polygon id="Line-8" points="370.599506 167.503399 370.599506 122.1163 373.394315 122.1163 373.394315 166.77472 380.889591 177.489955 380.889591 190.222354 378.094782 190.222354 378.094782 178.218634"></polygon>
                    <polygon id="Line-9" points="262.553616 122.1163 265.564689 122.1163 265.564689 190.222354 262.553616 190.222354"></polygon>
                    <polygon id="Line-9" points="277.988743 122.1163 280.999817 122.1163 280.999817 190.222354 277.988743 190.222354"></polygon>
                    <polygon id="Line-9" points="293.42387 122.1163 296.434944 122.1163 296.434944 190.222354 293.42387 190.222354"></polygon>
                    <polygon id="Line-9" points="308.858997 122.1163 311.870071 122.1163 311.870071 190.222354 308.858997 190.222354"></polygon>
                    <polygon id="Path-12" points="465.708779 36.9100102 465.708779 149.863211 386.034633 149.863211 386.034633 122.995199 389.090904 122.995199 389.090904 147.288741 462.652508 147.288741 462.652508 35.7591671 488.631149 16.1735489 562.988977 16.1735489 562.988977 18.7480185 489.799102 18.7480185"></polygon>
                    <polygon id="Path-12" points="447.615318 27.4365069 447.615318 134.437481 401.46976 134.437481 401.46976 121.370689 404.477623 121.370689 404.477623 131.863011 444.607456 131.863011 444.607456 26.34676 475.454183 0.747818652 563.632485 0.747818652 563.632485 3.32228828 476.672954 3.32228828"></polygon>
                </g>
                <g id="Group-26-Copy" transform="translate(282.991832, 96.484969) scale(-1, -1) translate(-282.991832, -96.484969) translate(1.491832, 0.484969)" fill="#979797" fill-rule="nonzero">
                    <polygon id="Path-11" points="159.743906 115.708614 162.764147 115.708614 162.764147 124.72047 143.2882 143.455525 1.24493011 143.455525 1.24493011 140.789504 141.960529 140.789504 159.743906 123.682632"></polygon>
                    <polygon id="Path-11" points="175.19885 121.33561 178.199274 121.33561 178.199274 129.736538 150.841383 156.64986 0.601421956 156.64986 0.601421956 154.155946 149.448474 154.155946 175.19885 128.824018"></polygon>
                    <polygon id="Path-11" points="191.705824 121.626662 194.750778 121.626662 194.750778 130.674645 159.666129 169.456127 2.87952772 169.456127 2.87952772 166.785989 158.194976 166.785989 191.705824 129.744139"></polygon>
                    <polygon id="Line-8" points="206.497007 158.974917 199.001731 170.661972 199.001731 191.123548 196.206923 191.123548 196.206923 169.867206 203.702198 158.180151 203.702198 116.840607 206.497007 116.840607"></polygon>
                    <polygon id="Line-8" points="224.504656 158.974917 217.00938 170.661972 217.00938 191.123548 214.214571 191.123548 214.214571 169.867206 221.709847 158.180151 221.709847 116.840607 224.504656 116.840607"></polygon>
                    <polygon id="Line-8" points="239.939783 166.344094 232.444507 178.031149 232.444507 191.123548 229.649698 191.123548 229.649698 177.236383 237.144974 165.549328 237.144974 116.840607 239.939783 116.840607"></polygon>
                    <polygon id="Line-8" points="255.37491 166.344094 247.879634 178.031149 247.879634 191.123548 245.084825 191.123548 245.084825 177.236383 252.580101 165.549328 252.580101 116.840607 255.37491 116.840607"></polygon>
                    <polygon id="Line-8" points="329.978025 158.974917 329.978025 116.840607 332.772834 116.840607 332.772834 158.180151 340.26811 169.867206 340.26811 191.123548 337.473301 191.123548 337.473301 170.661972"></polygon>
                    <polygon id="Line-8" points="345.413152 158.974917 345.413152 116.840607 348.207961 116.840607 348.207961 158.180151 355.703237 169.867206 355.703237 191.123548 352.908428 191.123548 352.908428 170.661972"></polygon>
                    <polygon id="Line-8" points="360.848279 166.344094 360.848279 116.840607 363.643088 116.840607 363.643088 165.549328 371.138364 177.236383 371.138364 191.123548 368.343555 191.123548 368.343555 178.031149"></polygon>
                    <polygon id="Line-8" points="376.283406 166.344094 376.283406 116.840607 379.078215 116.840607 379.078215 165.549328 386.573491 177.236383 386.573491 191.123548 383.778682 191.123548 383.778682 178.031149"></polygon>
                    <polygon id="Line-9" points="265.664995 119.52359 268.676068 119.52359 268.676068 191.153568 265.664995 191.153568"></polygon>
                    <polygon id="Line-9" points="281.100122 119.52359 284.111196 119.52359 284.111196 191.153568 281.100122 191.153568"></polygon>
                    <polygon id="Line-9" points="296.535249 119.52359 299.546323 119.52359 299.546323 191.153568 296.535249 191.153568"></polygon>
                    <polygon id="Line-9" points="314.542898 119.52359 317.553971 119.52359 317.553971 191.153568 314.542898 191.153568"></polygon>
                    <polygon id="Path-12" points="471.392679 146.560075 391.718533 146.560075 391.718533 119.692063 394.774804 119.692063 394.774804 143.985605 468.336408 143.985605 468.336408 32.4560308 494.315049 12.8704125 562.10743 12.8704125 562.10743 15.4448822 495.483002 15.4448822 471.392679 33.6068739"></polygon>
                    <polygon id="Path-12" points="453.299218 133.947842 407.153661 133.947842 407.153661 120.88105 410.161523 120.88105 410.161523 131.373373 450.291356 131.373373 450.291356 25.8571216 481.138083 0.258180266 561.463921 0.258180266 561.463921 2.8326499 482.356854 2.8326499 453.299218 26.9468685"></polygon>
                </g>
                <g id="Group-25" transform="translate(145.021190, 84.923944)">
                    <rect id="Rectangle" stroke="#141414" stroke-width="10" fill="#001E34" x="0" y="0" width="273.280512" height="265.718561" rx="9"></rect>
                    <g id="Bottom" transform="translate(5.727500, 196.944858)">
                        <g id="Group-24">
                            <path d="M2,0.0597715045 L10.2000534,0.0597715045 C11.3046229,0.0597715045 12.2000534,0.955202005 12.2000534,2.0597715 L12.2000534,8.07041249 L12.2000534,8.07041249 C11.4981611,8.67296985 11.1472149,9.27284689 11.1472149,9.87004359 C11.1472149,10.4672403 11.4981611,11.0622975 12.2000534,11.6552151 C10.5479466,15.1287268 9.72189321,18.267497 9.72189321,21.0715259 C9.72189321,23.8755549 10.5479466,27.6919052 12.2000534,32.5205771 C12.2000534,39.7564895 12.2000534,43.3744458 12.2000534,43.3744459 C12.2000534,43.3744459 10.5733884,45.0349525 10.5733884,45.0349525 C10.5733884,49.9192001 10.5733884,54.8034477 10.5733884,59.6876953 C10.5733884,60.7922648 9.6779579,61.6876953 8.5733884,61.6876953 L3.21086815,61.6876953 C2.10629865,61.6876953 1.21086815,60.7922648 1.21086815,59.6876953 L1.21086815,45.0349525 L1.21086815,45.0349525 C0.403622718,43.9279481 -1.09542217e-11,43.3744459 -1.09542217e-11,43.3744459 C-1.09542217e-11,43.3744459 -1.09542217e-11,39.7564896 -1.09542217e-11,32.5205771 C2.16889295,27.6919052 3.25333943,23.8755549 3.25333943,21.0715259 C3.25333943,18.267497 2.16889295,15.1287268 -1.09542217e-11,11.6552151 C0.807245436,11.062778 1.21086815,10.4677209 1.21086815,9.87004359 C1.21086815,9.27236633 0.807245436,8.67248929 -1.09542217e-11,8.07041249 L-1.09542217e-11,2.0597715 C-1.09543569e-11,0.955202005 0.8954305,0.0597715045 2,0.0597715045 Z" id="Rectangle" fill="url(#linearGradient-2)"></path>
                            <ellipse id="Oval" fill="url(#radialGradient-3)" cx="5.693344" cy="56.8855526" rx="2.44000457" ry="2.40107133"></ellipse>
                        </g>
                        <g id="Group-24" transform="translate(15.453362, 0.000000)">
                            <path d="M2,0.0597715045 L10.2000534,0.0597715045 C11.3046229,0.0597715045 12.2000534,0.955202005 12.2000534,2.0597715 L12.2000534,8.07041249 L12.2000534,8.07041249 C11.4981611,8.67296985 11.1472149,9.27284689 11.1472149,9.87004359 C11.1472149,10.4672403 11.4981611,11.0622975 12.2000534,11.6552151 C10.5479466,15.1287268 9.72189321,18.267497 9.72189321,21.0715259 C9.72189321,23.8755549 10.5479466,27.6919052 12.2000534,32.5205771 C12.2000534,39.7564895 12.2000534,43.3744458 12.2000534,43.3744459 C12.2000534,43.3744459 10.5733884,45.0349525 10.5733884,45.0349525 C10.5733884,49.9192001 10.5733884,54.8034477 10.5733884,59.6876953 C10.5733884,60.7922648 9.6779579,61.6876953 8.5733884,61.6876953 L3.21086815,61.6876953 C2.10629865,61.6876953 1.21086815,60.7922648 1.21086815,59.6876953 L1.21086815,45.0349525 L1.21086815,45.0349525 C0.403622718,43.9279481 -1.09542217e-11,43.3744459 -1.09542217e-11,43.3744459 C-1.09542217e-11,43.3744459 -1.09542217e-11,39.7564896 -1.09542217e-11,32.5205771 C2.16889295,27.6919052 3.25333943,23.8755549 3.25333943,21.0715259 C3.25333943,18.267497 2.16889295,15.1287268 -1.09542217e-11,11.6552151 C0.807245436,11.062778 1.21086815,10.4677209 1.21086815,9.87004359 C1.21086815,9.27236633 0.807245436,8.67248929 -1.09542217e-11,8.07041249 L-1.09542217e-11,2.0597715 C-1.09543569e-11,0.955202005 0.8954305,0.0597715045 2,0.0597715045 Z" id="Rectangle" fill="url(#linearGradient-2)"></path>
                            <ellipse id="Oval" fill="url(#radialGradient-3)" cx="5.693344" cy="56.8855526" rx="2.44000457" ry="2.40107133"></ellipse>
                        </g>
                        <g id="Group-24" transform="translate(30.906725, 0.000000)">
                            <path d="M2,0.0597715045 L10.2000534,0.0597715045 C11.3046229,0.0597715045 12.2000534,0.955202005 12.2000534,2.0597715 L12.2000534,8.07041249 L12.2000534,8.07041249 C11.4981611,8.67296985 11.1472149,9.27284689 11.1472149,9.87004359 C11.1472149,10.4672403 11.4981611,11.0622975 12.2000534,11.6552151 C10.5479466,15.1287268 9.72189321,18.267497 9.72189321,21.0715259 C9.72189321,23.8755549 10.5479466,27.6919052 12.2000534,32.5205771 C12.2000534,39.7564895 12.2000534,43.3744458 12.2000534,43.3744459 C12.2000534,43.3744459 10.5733884,45.0349525 10.5733884,45.0349525 C10.5733884,49.9192001 10.5733884,54.8034477 10.5733884,59.6876953 C10.5733884,60.7922648 9.6779579,61.6876953 8.5733884,61.6876953 L3.21086815,61.6876953 C2.10629865,61.6876953 1.21086815,60.7922648 1.21086815,59.6876953 L1.21086815,45.0349525 L1.21086815,45.0349525 C0.403622718,43.9279481 -1.09542217e-11,43.3744459 -1.09542217e-11,43.3744459 C-1.09542217e-11,43.3744459 -1.09542217e-11,39.7564896 -1.09542217e-11,32.5205771 C2.16889295,27.6919052 3.25333943,23.8755549 3.25333943,21.0715259 C3.25333943,18.267497 2.16889295,15.1287268 -1.09542217e-11,11.6552151 C0.807245436,11.062778 1.21086815,10.4677209 1.21086815,9.87004359 C1.21086815,9.27236633 0.807245436,8.67248929 -1.09542217e-11,8.07041249 L-1.09542217e-11,2.0597715 C-1.0954579e-11,0.955202005 0.8954305,0.0597715045 2,0.0597715045 Z" id="Rectangle" fill="url(#linearGradient-2)"></path>
                            <ellipse id="Oval" fill="url(#radialGradient-3)" cx="5.693344" cy="56.8855526" rx="2.44000457" ry="2.40107133"></ellipse>
                        </g>
                        <g id="Group-24" transform="translate(46.360087, 0.000000)">
                            <path d="M2,0.0597715045 L10.2000534,0.0597715045 C11.3046229,0.0597715045 12.2000534,0.955202005 12.2000534,2.0597715 L12.2000534,8.07041249 L12.2000534,8.07041249 C11.4981611,8.67296985 11.1472149,9.27284689 11.1472149,9.87004359 C11.1472149,10.4672403 11.4981611,11.0622975 12.2000534,11.6552151 C10.5479466,15.1287268 9.72189321,18.267497 9.72189321,21.0715259 C9.72189321,23.8755549 10.5479466,27.6919052 12.2000534,32.5205771 C12.2000534,39.7564895 12.2000534,43.3744458 12.2000534,43.3744459 C12.2000534,43.3744459 10.5733884,45.0349525 10.5733884,45.0349525 C10.5733884,49.9192001 10.5733884,54.8034477 10.5733884,59.6876953 C10.5733884,60.7922648 9.6779579,61.6876953 8.5733884,61.6876953 L3.21086815,61.6876953 C2.10629865,61.6876953 1.21086815,60.7922648 1.21086815,59.6876953 L1.21086815,45.0349525 L1.21086815,45.0349525 C0.403622718,43.9279481 -1.09542217e-11,43.3744459 -1.09542217e-11,43.3744459 C-1.09542217e-11,43.3744459 -1.09542217e-11,39.7564896 -1.09542217e-11,32.5205771 C2.16889295,27.6919052 3.25333943,23.8755549 3.25333943,21.0715259 C3.25333943,18.267497 2.16889295,15.1287268 -1.09542217e-11,11.6552151 C0.807245436,11.062778 1.21086815,10.4677209 1.21086815,9.87004359 C1.21086815,9.27236633 0.807245436,8.67248929 -1.09542217e-11,8.07041249 L-1.09542217e-11,2.0597715 C-1.09543569e-11,0.955202005 0.8954305,0.0597715045 2,0.0597715045 Z" id="Rectangle" fill="url(#linearGradient-2)"></path>
                            <ellipse id="Oval" fill="url(#radialGradient-3)" cx="5.693344" cy="56.8855526" rx="2.44000457" ry="2.40107133"></ellipse>
                        </g>
                        <g id="Group-24" transform="translate(61.813449, 0.000000)">
                            <path d="M2,0.0597715045 L10.2000534,0.0597715045 C11.3046229,0.0597715045 12.2000534,0.955202005 12.2000534,2.0597715 L12.2000534,8.07041249 L12.2000534,8.07041249 C11.4981611,8.67296985 11.1472149,9.27284689 11.1472149,9.87004359 C11.1472149,10.4672403 11.4981611,11.0622975 12.2000534,11.6552151 C10.5479466,15.1287268 9.72189321,18.267497 9.72189321,21.0715259 C9.72189321,23.8755549 10.5479466,27.6919052 12.2000534,32.5205771 C12.2000534,39.7564895 12.2000534,43.3744458 12.2000534,43.3744459 C12.2000534,43.3744459 10.5733884,45.0349525 10.5733884,45.0349525 C10.5733884,49.9192001 10.5733884,54.8034477 10.5733884,59.6876953 C10.5733884,60.7922648 9.6779579,61.6876953 8.5733884,61.6876953 L3.21086815,61.6876953 C2.10629865,61.6876953 1.21086815,60.7922648 1.21086815,59.6876953 L1.21086815,45.0349525 L1.21086815,45.0349525 C0.403622718,43.9279481 -1.09542217e-11,43.3744459 -1.09542217e-11,43.3744459 C-1.09542217e-11,43.3744459 -1.09542217e-11,39.7564896 -1.09542217e-11,32.5205771 C2.16889295,27.6919052 3.25333943,23.8755549 3.25333943,21.0715259 C3.25333943,18.267497 2.16889295,15.1287268 -1.09542217e-11,11.6552151 C0.807245436,11.062778 1.21086815,10.4677209 1.21086815,9.87004359 C1.21086815,9.27236633 0.807245436,8.67248929 -1.09542217e-11,8.07041249 L-1.09542217e-11,2.0597715 C-1.0954801e-11,0.955202005 0.8954305,0.0597715045 2,0.0597715045 Z" id="Rectangle" fill="url(#linearGradient-2)"></path>
                            <ellipse id="Oval" fill="url(#radialGradient-3)" cx="5.693344" cy="56.8855526" rx="2.44000457" ry="2.40107133"></ellipse>
                        </g>
                        <g id="Group-24" transform="translate(77.266811, 0.000000)">
                            <path d="M2,0.0597715045 L10.2000534,0.0597715045 C11.3046229,0.0597715045 12.2000534,0.955202005 12.2000534,2.0597715 L12.2000534,8.07041249 L12.2000534,8.07041249 C11.4981611,8.67296985 11.1472149,9.27284689 11.1472149,9.87004359 C11.1472149,10.4672403 11.4981611,11.0622975 12.2000534,11.6552151 C10.5479466,15.1287268 9.72189321,18.267497 9.72189321,21.0715259 C9.72189321,23.8755549 10.5479466,27.6919052 12.2000534,32.5205771 C12.2000534,39.7564895 12.2000534,43.3744458 12.2000534,43.3744459 C12.2000534,43.3744459 10.5733884,45.0349525 10.5733884,45.0349525 C10.5733884,49.9192001 10.5733884,54.8034477 10.5733884,59.6876953 C10.5733884,60.7922648 9.6779579,61.6876953 8.5733884,61.6876953 L3.21086815,61.6876953 C2.10629865,61.6876953 1.21086815,60.7922648 1.21086815,59.6876953 L1.21086815,45.0349525 L1.21086815,45.0349525 C0.403622718,43.9279481 -1.09542217e-11,43.3744459 -1.09542217e-11,43.3744459 C-1.09542217e-11,43.3744459 -1.09542217e-11,39.7564896 -1.09542217e-11,32.5205771 C2.16889295,27.6919052 3.25333943,23.8755549 3.25333943,21.0715259 C3.25333943,18.267497 2.16889295,15.1287268 -1.09542217e-11,11.6552151 C0.807245436,11.062778 1.21086815,10.4677209 1.21086815,9.87004359 C1.21086815,9.27236633 0.807245436,8.67248929 -1.09542217e-11,8.07041249 L-1.09542217e-11,2.0597715 C-1.0954579e-11,0.955202005 0.8954305,0.0597715045 2,0.0597715045 Z" id="Rectangle" fill="url(#linearGradient-2)"></path>
                            <ellipse id="Oval" fill="url(#radialGradient-3)" cx="5.693344" cy="56.8855526" rx="2.44000457" ry="2.40107133"></ellipse>
                        </g>
                        <g id="Group-24" transform="translate(92.720174, 0.000000)">
                            <path d="M2,0.0597715045 L10.2000534,0.0597715045 C11.3046229,0.0597715045 12.2000534,0.955202005 12.2000534,2.0597715 L12.2000534,8.07041249 L12.2000534,8.07041249 C11.4981611,8.67296985 11.1472149,9.27284689 11.1472149,9.87004359 C11.1472149,10.4672403 11.4981611,11.0622975 12.2000534,11.6552151 C10.5479466,15.1287268 9.72189321,18.267497 9.72189321,21.0715259 C9.72189321,23.8755549 10.5479466,27.6919052 12.2000534,32.5205771 C12.2000534,39.7564895 12.2000534,43.3744458 12.2000534,43.3744459 C12.2000534,43.3744459 10.5733884,45.0349525 10.5733884,45.0349525 C10.5733884,49.9192001 10.5733884,54.8034477 10.5733884,59.6876953 C10.5733884,60.7922648 9.6779579,61.6876953 8.5733884,61.6876953 L3.21086815,61.6876953 C2.10629865,61.6876953 1.21086815,60.7922648 1.21086815,59.6876953 L1.21086815,45.0349525 L1.21086815,45.0349525 C0.403622718,43.9279481 -1.09542217e-11,43.3744459 -1.09542217e-11,43.3744459 C-1.09542217e-11,43.3744459 -1.09542217e-11,39.7564896 -1.09542217e-11,32.5205771 C2.16889295,27.6919052 3.25333943,23.8755549 3.25333943,21.0715259 C3.25333943,18.267497 2.16889295,15.1287268 -1.09542217e-11,11.6552151 C0.807245436,11.062778 1.21086815,10.4677209 1.21086815,9.87004359 C1.21086815,9.27236633 0.807245436,8.67248929 -1.09542217e-11,8.07041249 L-1.09542217e-11,2.0597715 C-1.09543569e-11,0.955202005 0.8954305,0.0597715045 2,0.0597715045 Z" id="Rectangle" fill="url(#linearGradient-2)"></path>
                            <ellipse id="Oval" fill="url(#radialGradient-3)" cx="5.693344" cy="56.8855526" rx="2.44000457" ry="2.40107133"></ellipse>
                        </g>
                        <g id="Group-24" transform="translate(108.173536, 0.000000)">
                            <path d="M2,0.0597715045 L10.2000534,0.0597715045 C11.3046229,0.0597715045 12.2000534,0.955202005 12.2000534,2.0597715 L12.2000534,8.07041249 L12.2000534,8.07041249 C11.4981611,8.67296985 11.1472149,9.27284689 11.1472149,9.87004359 C11.1472149,10.4672403 11.4981611,11.0622975 12.2000534,11.6552151 C10.5479466,15.1287268 9.72189321,18.267497 9.72189321,21.0715259 C9.72189321,23.8755549 10.5479466,27.6919052 12.2000534,32.5205771 C12.2000534,39.7564895 12.2000534,43.3744458 12.2000534,43.3744459 C12.2000534,43.3744459 10.5733884,45.0349525 10.5733884,45.0349525 C10.5733884,49.9192001 10.5733884,54.8034477 10.5733884,59.6876953 C10.5733884,60.7922648 9.6779579,61.6876953 8.5733884,61.6876953 L3.21086815,61.6876953 C2.10629865,61.6876953 1.21086815,60.7922648 1.21086815,59.6876953 L1.21086815,45.0349525 L1.21086815,45.0349525 C0.403622718,43.9279481 -1.09542217e-11,43.3744459 -1.09542217e-11,43.3744459 C-1.09542217e-11,43.3744459 -1.09542217e-11,39.7564896 -1.09542217e-11,32.5205771 C2.16889295,27.6919052 3.25333943,23.8755549 3.25333943,21.0715259 C3.25333943,18.267497 2.16889295,15.1287268 -1.09542217e-11,11.6552151 C0.807245436,11.062778 1.21086815,10.4677209 1.21086815,9.87004359 C1.21086815,9.27236633 0.807245436,8.67248929 -1.09542217e-11,8.07041249 L-1.09542217e-11,2.0597715 C-1.0954801e-11,0.955202005 0.8954305,0.0597715045 2,0.0597715045 Z" id="Rectangle" fill="url(#linearGradient-2)"></path>
                            <ellipse id="Oval" fill="url(#radialGradient-3)" cx="5.693344" cy="56.8855526" rx="2.44000457" ry="2.40107133"></ellipse>
                        </g>
                        <g id="Group-24" transform="translate(123.626898, 0.000000)">
                            <path d="M2,0.0597715045 L10.2000534,0.0597715045 C11.3046229,0.0597715045 12.2000534,0.955202005 12.2000534,2.0597715 L12.2000534,8.07041249 L12.2000534,8.07041249 C11.4981611,8.67296985 11.1472149,9.27284689 11.1472149,9.87004359 C11.1472149,10.4672403 11.4981611,11.0622975 12.2000534,11.6552151 C10.5479466,15.1287268 9.72189321,18.267497 9.72189321,21.0715259 C9.72189321,23.8755549 10.5479466,27.6919052 12.2000534,32.5205771 C12.2000534,39.7564895 12.2000534,43.3744458 12.2000534,43.3744459 C12.2000534,43.3744459 10.5733884,45.0349525 10.5733884,45.0349525 C10.5733884,49.9192001 10.5733884,54.8034477 10.5733884,59.6876953 C10.5733884,60.7922648 9.6779579,61.6876953 8.5733884,61.6876953 L3.21086815,61.6876953 C2.10629865,61.6876953 1.21086815,60.7922648 1.21086815,59.6876953 L1.21086815,45.0349525 L1.21086815,45.0349525 C0.403622718,43.9279481 -1.09542217e-11,43.3744459 -1.09542217e-11,43.3744459 C-1.09542217e-11,43.3744459 -1.09542217e-11,39.7564896 -1.09542217e-11,32.5205771 C2.16889295,27.6919052 3.25333943,23.8755549 3.25333943,21.0715259 C3.25333943,18.267497 2.16889295,15.1287268 -1.09542217e-11,11.6552151 C0.807245436,11.062778 1.21086815,10.4677209 1.21086815,9.87004359 C1.21086815,9.27236633 0.807245436,8.67248929 -1.09542217e-11,8.07041249 L-1.09542217e-11,2.0597715 C-1.09543569e-11,0.955202005 0.8954305,0.0597715045 2,0.0597715045 Z" id="Rectangle" fill="url(#linearGradient-2)"></path>
                            <ellipse id="Oval" fill="url(#radialGradient-3)" cx="5.693344" cy="56.8855526" rx="2.44000457" ry="2.40107133"></ellipse>
                        </g>
                        <g id="Group-24" transform="translate(139.080261, 0.000000)">
                            <path d="M2,0.0597715045 L10.2000534,0.0597715045 C11.3046229,0.0597715045 12.2000534,0.955202005 12.2000534,2.0597715 L12.2000534,8.07041249 L12.2000534,8.07041249 C11.4981611,8.67296985 11.1472149,9.27284689 11.1472149,9.87004359 C11.1472149,10.4672403 11.4981611,11.0622975 12.2000534,11.6552151 C10.5479466,15.1287268 9.72189321,18.267497 9.72189321,21.0715259 C9.72189321,23.8755549 10.5479466,27.6919052 12.2000534,32.5205771 C12.2000534,39.7564895 12.2000534,43.3744458 12.2000534,43.3744459 C12.2000534,43.3744459 10.5733884,45.0349525 10.5733884,45.0349525 C10.5733884,49.9192001 10.5733884,54.8034477 10.5733884,59.6876953 C10.5733884,60.7922648 9.6779579,61.6876953 8.5733884,61.6876953 L3.21086815,61.6876953 C2.10629865,61.6876953 1.21086815,60.7922648 1.21086815,59.6876953 L1.21086815,45.0349525 L1.21086815,45.0349525 C0.403622718,43.9279481 -1.09542217e-11,43.3744459 -1.09542217e-11,43.3744459 C-1.09542217e-11,43.3744459 -1.09542217e-11,39.7564896 -1.09542217e-11,32.5205771 C2.16889295,27.6919052 3.25333943,23.8755549 3.25333943,21.0715259 C3.25333943,18.267497 2.16889295,15.1287268 -1.09542217e-11,11.6552151 C0.807245436,11.062778 1.21086815,10.4677209 1.21086815,9.87004359 C1.21086815,9.27236633 0.807245436,8.67248929 -1.09542217e-11,8.07041249 L-1.09542217e-11,2.0597715 C-1.09543569e-11,0.955202005 0.8954305,0.0597715045 2,0.0597715045 Z" id="Rectangle" fill="url(#linearGradient-2)"></path>
                            <ellipse id="Oval" fill="url(#radialGradient-3)" cx="5.693344" cy="56.8855526" rx="2.44000457" ry="2.40107133"></ellipse>
                        </g>
                        <g id="Group-24" transform="translate(154.533623, 0.000000)">
                            <path d="M2,0.0597715045 L10.2000534,0.0597715045 C11.3046229,0.0597715045 12.2000534,0.955202005 12.2000534,2.0597715 L12.2000534,8.07041249 L12.2000534,8.07041249 C11.4981611,8.67296985 11.1472149,9.27284689 11.1472149,9.87004359 C11.1472149,10.4672403 11.4981611,11.0622975 12.2000534,11.6552151 C10.5479466,15.1287268 9.72189321,18.267497 9.72189321,21.0715259 C9.72189321,23.8755549 10.5479466,27.6919052 12.2000534,32.5205771 C12.2000534,39.7564895 12.2000534,43.3744458 12.2000534,43.3744459 C12.2000534,43.3744459 10.5733884,45.0349525 10.5733884,45.0349525 C10.5733884,49.9192001 10.5733884,54.8034477 10.5733884,59.6876953 C10.5733884,60.7922648 9.6779579,61.6876953 8.5733884,61.6876953 L3.21086815,61.6876953 C2.10629865,61.6876953 1.21086815,60.7922648 1.21086815,59.6876953 L1.21086815,45.0349525 L1.21086815,45.0349525 C0.403622718,43.9279481 -1.09542217e-11,43.3744459 -1.09542217e-11,43.3744459 C-1.09542217e-11,43.3744459 -1.09542217e-11,39.7564896 -1.09542217e-11,32.5205771 C2.16889295,27.6919052 3.25333943,23.8755549 3.25333943,21.0715259 C3.25333943,18.267497 2.16889295,15.1287268 -1.09542217e-11,11.6552151 C0.807245436,11.062778 1.21086815,10.4677209 1.21086815,9.87004359 C1.21086815,9.27236633 0.807245436,8.67248929 -1.09542217e-11,8.07041249 L-1.09542217e-11,2.0597715 C-1.0954801e-11,0.955202005 0.8954305,0.0597715045 2,0.0597715045 Z" id="Rectangle" fill="url(#linearGradient-2)"></path>
                            <ellipse id="Oval" fill="url(#radialGradient-3)" cx="5.693344" cy="56.8855526" rx="2.44000457" ry="2.40107133"></ellipse>
                        </g>
                        <g id="Group-24" transform="translate(169.986985, 0.000000)">
                            <path d="M2,0.0597715045 L10.2000534,0.0597715045 C11.3046229,0.0597715045 12.2000534,0.955202005 12.2000534,2.0597715 L12.2000534,8.07041249 L12.2000534,8.07041249 C11.4981611,8.67296985 11.1472149,9.27284689 11.1472149,9.87004359 C11.1472149,10.4672403 11.4981611,11.0622975 12.2000534,11.6552151 C10.5479466,15.1287268 9.72189321,18.267497 9.72189321,21.0715259 C9.72189321,23.8755549 10.5479466,27.6919052 12.2000534,32.5205771 C12.2000534,39.7564895 12.2000534,43.3744458 12.2000534,43.3744459 C12.2000534,43.3744459 10.5733884,45.0349525 10.5733884,45.0349525 C10.5733884,49.9192001 10.5733884,54.8034477 10.5733884,59.6876953 C10.5733884,60.7922648 9.6779579,61.6876953 8.5733884,61.6876953 L3.21086815,61.6876953 C2.10629865,61.6876953 1.21086815,60.7922648 1.21086815,59.6876953 L1.21086815,45.0349525 L1.21086815,45.0349525 C0.403622718,43.9279481 -1.09542217e-11,43.3744459 -1.09542217e-11,43.3744459 C-1.09542217e-11,43.3744459 -1.09542217e-11,39.7564896 -1.09542217e-11,32.5205771 C2.16889295,27.6919052 3.25333943,23.8755549 3.25333943,21.0715259 C3.25333943,18.267497 2.16889295,15.1287268 -1.09542217e-11,11.6552151 C0.807245436,11.062778 1.21086815,10.4677209 1.21086815,9.87004359 C1.21086815,9.27236633 0.807245436,8.67248929 -1.09542217e-11,8.07041249 L-1.09542217e-11,2.0597715 C-1.09543569e-11,0.955202005 0.8954305,0.0597715045 2,0.0597715045 Z" id="Rectangle" fill="url(#linearGradient-2)"></path>
                            <ellipse id="Oval" fill="url(#radialGradient-3)" cx="5.693344" cy="56.8855526" rx="2.44000457" ry="2.40107133"></ellipse>
                        </g>
                        <g id="Group-24" transform="translate(185.440347, 0.000000)">
                            <path d="M2,0.0597715045 L10.2000534,0.0597715045 C11.3046229,0.0597715045 12.2000534,0.955202005 12.2000534,2.0597715 L12.2000534,8.07041249 L12.2000534,8.07041249 C11.4981611,8.67296985 11.1472149,9.27284689 11.1472149,9.87004359 C11.1472149,10.4672403 11.4981611,11.0622975 12.2000534,11.6552151 C10.5479466,15.1287268 9.72189321,18.267497 9.72189321,21.0715259 C9.72189321,23.8755549 10.5479466,27.6919052 12.2000534,32.5205771 C12.2000534,39.7564895 12.2000534,43.3744458 12.2000534,43.3744459 C12.2000534,43.3744459 10.5733884,45.0349525 10.5733884,45.0349525 C10.5733884,49.9192001 10.5733884,54.8034477 10.5733884,59.6876953 C10.5733884,60.7922648 9.6779579,61.6876953 8.5733884,61.6876953 L3.21086815,61.6876953 C2.10629865,61.6876953 1.21086815,60.7922648 1.21086815,59.6876953 L1.21086815,45.0349525 L1.21086815,45.0349525 C0.403622718,43.9279481 -1.09542217e-11,43.3744459 -1.09542217e-11,43.3744459 C-1.09542217e-11,43.3744459 -1.09542217e-11,39.7564896 -1.09542217e-11,32.5205771 C2.16889295,27.6919052 3.25333943,23.8755549 3.25333943,21.0715259 C3.25333943,18.267497 2.16889295,15.1287268 -1.09542217e-11,11.6552151 C0.807245436,11.062778 1.21086815,10.4677209 1.21086815,9.87004359 C1.21086815,9.27236633 0.807245436,8.67248929 -1.09542217e-11,8.07041249 L-1.09542217e-11,2.0597715 C-1.09543569e-11,0.955202005 0.8954305,0.0597715045 2,0.0597715045 Z" id="Rectangle" fill="url(#linearGradient-2)"></path>
                            <ellipse id="Oval" fill="url(#radialGradient-3)" cx="5.693344" cy="56.8855526" rx="2.44000457" ry="2.40107133"></ellipse>
                        </g>
                        <g id="Group-24" transform="translate(200.893710, 0.000000)">
                            <path d="M2,0.0597715045 L10.2000534,0.0597715045 C11.3046229,0.0597715045 12.2000534,0.955202005 12.2000534,2.0597715 L12.2000534,8.07041249 L12.2000534,8.07041249 C11.4981611,8.67296985 11.1472149,9.27284689 11.1472149,9.87004359 C11.1472149,10.4672403 11.4981611,11.0622975 12.2000534,11.6552151 C10.5479466,15.1287268 9.72189321,18.267497 9.72189321,21.0715259 C9.72189321,23.8755549 10.5479466,27.6919052 12.2000534,32.5205771 C12.2000534,39.7564895 12.2000534,43.3744458 12.2000534,43.3744459 C12.2000534,43.3744459 10.5733884,45.0349525 10.5733884,45.0349525 C10.5733884,49.9192001 10.5733884,54.8034477 10.5733884,59.6876953 C10.5733884,60.7922648 9.6779579,61.6876953 8.5733884,61.6876953 L3.21086815,61.6876953 C2.10629865,61.6876953 1.21086815,60.7922648 1.21086815,59.6876953 L1.21086815,45.0349525 L1.21086815,45.0349525 C0.403622718,43.9279481 -1.09542217e-11,43.3744459 -1.09542217e-11,43.3744459 C-1.09542217e-11,43.3744459 -1.09542217e-11,39.7564896 -1.09542217e-11,32.5205771 C2.16889295,27.6919052 3.25333943,23.8755549 3.25333943,21.0715259 C3.25333943,18.267497 2.16889295,15.1287268 -1.09542217e-11,11.6552151 C0.807245436,11.062778 1.21086815,10.4677209 1.21086815,9.87004359 C1.21086815,9.27236633 0.807245436,8.67248929 -1.09542217e-11,8.07041249 L-1.09542217e-11,2.0597715 C-1.09543569e-11,0.955202005 0.8954305,0.0597715045 2,0.0597715045 Z" id="Rectangle" fill="url(#linearGradient-2)"></path>
                            <ellipse id="Oval" fill="url(#radialGradient-3)" cx="5.693344" cy="56.8855526" rx="2.44000457" ry="2.40107133"></ellipse>
                        </g>
                        <g id="Group-24" transform="translate(216.347072, 0.000000)">
                            <path d="M2,0.0597715045 L10.2000534,0.0597715045 C11.3046229,0.0597715045 12.2000534,0.955202005 12.2000534,2.0597715 L12.2000534,8.07041249 L12.2000534,8.07041249 C11.4981611,8.67296985 11.1472149,9.27284689 11.1472149,9.87004359 C11.1472149,10.4672403 11.4981611,11.0622975 12.2000534,11.6552151 C10.5479466,15.1287268 9.72189321,18.267497 9.72189321,21.0715259 C9.72189321,23.8755549 10.5479466,27.6919052 12.2000534,32.5205771 C12.2000534,39.7564895 12.2000534,43.3744458 12.2000534,43.3744459 C12.2000534,43.3744459 10.5733884,45.0349525 10.5733884,45.0349525 C10.5733884,49.9192001 10.5733884,54.8034477 10.5733884,59.6876953 C10.5733884,60.7922648 9.6779579,61.6876953 8.5733884,61.6876953 L3.21086815,61.6876953 C2.10629865,61.6876953 1.21086815,60.7922648 1.21086815,59.6876953 L1.21086815,45.0349525 L1.21086815,45.0349525 C0.403622718,43.9279481 -1.09542217e-11,43.3744459 -1.09542217e-11,43.3744459 C-1.09542217e-11,43.3744459 -1.09542217e-11,39.7564896 -1.09542217e-11,32.5205771 C2.16889295,27.6919052 3.25333943,23.8755549 3.25333943,21.0715259 C3.25333943,18.267497 2.16889295,15.1287268 -1.09542217e-11,11.6552151 C0.807245436,11.062778 1.21086815,10.4677209 1.21086815,9.87004359 C1.21086815,9.27236633 0.807245436,8.67248929 -1.09542217e-11,8.07041249 L-1.09542217e-11,2.0597715 C-1.09543569e-11,0.955202005 0.8954305,0.0597715045 2,0.0597715045 Z" id="Rectangle" fill="url(#linearGradient-2)"></path>
                            <ellipse id="Oval" fill="url(#radialGradient-3)" cx="5.693344" cy="56.8855526" rx="2.44000457" ry="2.40107133"></ellipse>
                        </g>
                        <g id="Group-24" transform="translate(231.800434, 0.000000)">
                            <path d="M2,0.0597715045 L10.2000534,0.0597715045 C11.3046229,0.0597715045 12.2000534,0.955202005 12.2000534,2.0597715 L12.2000534,8.07041249 L12.2000534,8.07041249 C11.4981611,8.67296985 11.1472149,9.27284689 11.1472149,9.87004359 C11.1472149,10.4672403 11.4981611,11.0622975 12.2000534,11.6552151 C10.5479466,15.1287268 9.72189321,18.267497 9.72189321,21.0715259 C9.72189321,23.8755549 10.5479466,27.6919052 12.2000534,32.5205771 C12.2000534,39.7564895 12.2000534,43.3744458 12.2000534,43.3744459 C12.2000534,43.3744459 10.5733884,45.0349525 10.5733884,45.0349525 C10.5733884,49.9192001 10.5733884,54.8034477 10.5733884,59.6876953 C10.5733884,60.7922648 9.6779579,61.6876953 8.5733884,61.6876953 L3.21086815,61.6876953 C2.10629865,61.6876953 1.21086815,60.7922648 1.21086815,59.6876953 L1.21086815,45.0349525 L1.21086815,45.0349525 C0.403622718,43.9279481 -1.09542217e-11,43.3744459 -1.09542217e-11,43.3744459 C-1.09542217e-11,43.3744459 -1.09542217e-11,39.7564896 -1.09542217e-11,32.5205771 C2.16889295,27.6919052 3.25333943,23.8755549 3.25333943,21.0715259 C3.25333943,18.267497 2.16889295,15.1287268 -1.09542217e-11,11.6552151 C0.807245436,11.062778 1.21086815,10.4677209 1.21086815,9.87004359 C1.21086815,9.27236633 0.807245436,8.67248929 -1.09542217e-11,8.07041249 L-1.09542217e-11,2.0597715 C-1.09543569e-11,0.955202005 0.8954305,0.0597715045 2,0.0597715045 Z" id="Rectangle" fill="url(#linearGradient-2)"></path>
                            <ellipse id="Oval" fill="url(#radialGradient-3)" cx="5.693344" cy="56.8855526" rx="2.44000457" ry="2.40107133"></ellipse>
                        </g>
                        <g id="Group-24" transform="translate(247.253796, 0.000000)">
                            <path d="M2,0.0597715045 L10.2000534,0.0597715045 C11.3046229,0.0597715045 12.2000534,0.955202005 12.2000534,2.0597715 L12.2000534,8.07041249 L12.2000534,8.07041249 C11.4981611,8.67296985 11.1472149,9.27284689 11.1472149,9.87004359 C11.1472149,10.4672403 11.4981611,11.0622975 12.2000534,11.6552151 C10.5479466,15.1287268 9.72189321,18.267497 9.72189321,21.0715259 C9.72189321,23.8755549 10.5479466,27.6919052 12.2000534,32.5205771 C12.2000534,39.7564895 12.2000534,43.3744458 12.2000534,43.3744459 C12.2000534,43.3744459 10.5733884,45.0349525 10.5733884,45.0349525 C10.5733884,49.9192001 10.5733884,54.8034477 10.5733884,59.6876953 C10.5733884,60.7922648 9.6779579,61.6876953 8.5733884,61.6876953 L3.21086815,61.6876953 C2.10629865,61.6876953 1.21086815,60.7922648 1.21086815,59.6876953 L1.21086815,45.0349525 L1.21086815,45.0349525 C0.403622718,43.9279481 -1.09542217e-11,43.3744459 -1.09542217e-11,43.3744459 C-1.09542217e-11,43.3744459 -1.09542217e-11,39.7564896 -1.09542217e-11,32.5205771 C2.16889295,27.6919052 3.25333943,23.8755549 3.25333943,21.0715259 C3.25333943,18.267497 2.16889295,15.1287268 -1.09542217e-11,11.6552151 C0.807245436,11.062778 1.21086815,10.4677209 1.21086815,9.87004359 C1.21086815,9.27236633 0.807245436,8.67248929 -1.09542217e-11,8.07041249 L-1.09542217e-11,2.0597715 C-1.0954801e-11,0.955202005 0.8954305,0.0597715045 2,0.0597715045 Z" id="Rectangle" fill="url(#linearGradient-2)"></path>
                            <ellipse id="Oval" fill="url(#radialGradient-3)" cx="5.693344" cy="56.8855526" rx="2.44000457" ry="2.40107133"></ellipse>
                        </g>
                    </g>
                    <g id="Top" transform="translate(136.227500, 39.337449) scale(1, -1) translate(-136.227500, -39.337449) translate(5.727500, 8.337449)">
                        <g id="Group-24">
                            <path d="M2,0.0597715045 L10.2000534,0.0597715045 C11.3046229,0.0597715045 12.2000534,0.955202005 12.2000534,2.0597715 L12.2000534,8.07041249 L12.2000534,8.07041249 C11.4981611,8.67296985 11.1472149,9.27284689 11.1472149,9.87004359 C11.1472149,10.4672403 11.4981611,11.0622975 12.2000534,11.6552151 C10.5479466,15.1287268 9.72189321,18.267497 9.72189321,21.0715259 C9.72189321,23.8755549 10.5479466,27.6919052 12.2000534,32.5205771 C12.2000534,39.7564895 12.2000534,43.3744458 12.2000534,43.3744459 C12.2000534,43.3744459 10.5733884,45.0349525 10.5733884,45.0349525 C10.5733884,49.9192001 10.5733884,54.8034477 10.5733884,59.6876953 C10.5733884,60.7922648 9.6779579,61.6876953 8.5733884,61.6876953 L3.21086815,61.6876953 C2.10629865,61.6876953 1.21086815,60.7922648 1.21086815,59.6876953 L1.21086815,45.0349525 L1.21086815,45.0349525 C0.403622718,43.9279481 -1.09542217e-11,43.3744459 -1.09542217e-11,43.3744459 C-1.09542217e-11,43.3744459 -1.09542217e-11,39.7564896 -1.09542217e-11,32.5205771 C2.16889295,27.6919052 3.25333943,23.8755549 3.25333943,21.0715259 C3.25333943,18.267497 2.16889295,15.1287268 -1.09542217e-11,11.6552151 C0.807245436,11.062778 1.21086815,10.4677209 1.21086815,9.87004359 C1.21086815,9.27236633 0.807245436,8.67248929 -1.09542217e-11,8.07041249 L-1.09542217e-11,2.0597715 C-1.09543569e-11,0.955202005 0.8954305,0.0597715045 2,0.0597715045 Z" id="Rectangle" fill="url(#linearGradient-2)"></path>
                            <ellipse id="Oval" fill="url(#radialGradient-3)" cx="5.693344" cy="56.8855526" rx="2.44000457" ry="2.40107133"></ellipse>
                        </g>
                        <g id="Group-24" transform="translate(15.453362, 0.000000)">
                            <path d="M2,0.0597715045 L10.2000534,0.0597715045 C11.3046229,0.0597715045 12.2000534,0.955202005 12.2000534,2.0597715 L12.2000534,8.07041249 L12.2000534,8.07041249 C11.4981611,8.67296985 11.1472149,9.27284689 11.1472149,9.87004359 C11.1472149,10.4672403 11.4981611,11.0622975 12.2000534,11.6552151 C10.5479466,15.1287268 9.72189321,18.267497 9.72189321,21.0715259 C9.72189321,23.8755549 10.5479466,27.6919052 12.2000534,32.5205771 C12.2000534,39.7564895 12.2000534,43.3744458 12.2000534,43.3744459 C12.2000534,43.3744459 10.5733884,45.0349525 10.5733884,45.0349525 C10.5733884,49.9192001 10.5733884,54.8034477 10.5733884,59.6876953 C10.5733884,60.7922648 9.6779579,61.6876953 8.5733884,61.6876953 L3.21086815,61.6876953 C2.10629865,61.6876953 1.21086815,60.7922648 1.21086815,59.6876953 L1.21086815,45.0349525 L1.21086815,45.0349525 C0.403622718,43.9279481 -1.09542217e-11,43.3744459 -1.09542217e-11,43.3744459 C-1.09542217e-11,43.3744459 -1.09542217e-11,39.7564896 -1.09542217e-11,32.5205771 C2.16889295,27.6919052 3.25333943,23.8755549 3.25333943,21.0715259 C3.25333943,18.267497 2.16889295,15.1287268 -1.09542217e-11,11.6552151 C0.807245436,11.062778 1.21086815,10.4677209 1.21086815,9.87004359 C1.21086815,9.27236633 0.807245436,8.67248929 -1.09542217e-11,8.07041249 L-1.09542217e-11,2.0597715 C-1.09543569e-11,0.955202005 0.8954305,0.0597715045 2,0.0597715045 Z" id="Rectangle" fill="url(#linearGradient-2)"></path>
                            <ellipse id="Oval" fill="url(#radialGradient-3)" cx="5.693344" cy="56.8855526" rx="2.44000457" ry="2.40107133"></ellipse>
                        </g>
                        <g id="Group-24" transform="translate(30.906725, 0.000000)">
                            <path d="M2,0.0597715045 L10.2000534,0.0597715045 C11.3046229,0.0597715045 12.2000534,0.955202005 12.2000534,2.0597715 L12.2000534,8.07041249 L12.2000534,8.07041249 C11.4981611,8.67296985 11.1472149,9.27284689 11.1472149,9.87004359 C11.1472149,10.4672403 11.4981611,11.0622975 12.2000534,11.6552151 C10.5479466,15.1287268 9.72189321,18.267497 9.72189321,21.0715259 C9.72189321,23.8755549 10.5479466,27.6919052 12.2000534,32.5205771 C12.2000534,39.7564895 12.2000534,43.3744458 12.2000534,43.3744459 C12.2000534,43.3744459 10.5733884,45.0349525 10.5733884,45.0349525 C10.5733884,49.9192001 10.5733884,54.8034477 10.5733884,59.6876953 C10.5733884,60.7922648 9.6779579,61.6876953 8.5733884,61.6876953 L3.21086815,61.6876953 C2.10629865,61.6876953 1.21086815,60.7922648 1.21086815,59.6876953 L1.21086815,45.0349525 L1.21086815,45.0349525 C0.403622718,43.9279481 -1.09542217e-11,43.3744459 -1.09542217e-11,43.3744459 C-1.09542217e-11,43.3744459 -1.09542217e-11,39.7564896 -1.09542217e-11,32.5205771 C2.16889295,27.6919052 3.25333943,23.8755549 3.25333943,21.0715259 C3.25333943,18.267497 2.16889295,15.1287268 -1.09542217e-11,11.6552151 C0.807245436,11.062778 1.21086815,10.4677209 1.21086815,9.87004359 C1.21086815,9.27236633 0.807245436,8.67248929 -1.09542217e-11,8.07041249 L-1.09542217e-11,2.0597715 C-1.09543569e-11,0.955202005 0.8954305,0.0597715045 2,0.0597715045 Z" id="Rectangle" fill="url(#linearGradient-2)"></path>
                            <ellipse id="Oval" fill="url(#radialGradient-3)" cx="5.693344" cy="56.8855526" rx="2.44000457" ry="2.40107133"></ellipse>
                        </g>
                        <g id="Group-24" transform="translate(46.360087, 0.000000)">
                            <path d="M2,0.0597715045 L10.2000534,0.0597715045 C11.3046229,0.0597715045 12.2000534,0.955202005 12.2000534,2.0597715 L12.2000534,8.07041249 L12.2000534,8.07041249 C11.4981611,8.67296985 11.1472149,9.27284689 11.1472149,9.87004359 C11.1472149,10.4672403 11.4981611,11.0622975 12.2000534,11.6552151 C10.5479466,15.1287268 9.72189321,18.267497 9.72189321,21.0715259 C9.72189321,23.8755549 10.5479466,27.6919052 12.2000534,32.5205771 C12.2000534,39.7564895 12.2000534,43.3744458 12.2000534,43.3744459 C12.2000534,43.3744459 10.5733884,45.0349525 10.5733884,45.0349525 C10.5733884,49.9192001 10.5733884,54.8034477 10.5733884,59.6876953 C10.5733884,60.7922648 9.6779579,61.6876953 8.5733884,61.6876953 L3.21086815,61.6876953 C2.10629865,61.6876953 1.21086815,60.7922648 1.21086815,59.6876953 L1.21086815,45.0349525 L1.21086815,45.0349525 C0.403622718,43.9279481 -1.09542217e-11,43.3744459 -1.09542217e-11,43.3744459 C-1.09542217e-11,43.3744459 -1.09542217e-11,39.7564896 -1.09542217e-11,32.5205771 C2.16889295,27.6919052 3.25333943,23.8755549 3.25333943,21.0715259 C3.25333943,18.267497 2.16889295,15.1287268 -1.09542217e-11,11.6552151 C0.807245436,11.062778 1.21086815,10.4677209 1.21086815,9.87004359 C1.21086815,9.27236633 0.807245436,8.67248929 -1.09542217e-11,8.07041249 L-1.09542217e-11,2.0597715 C-1.0954579e-11,0.955202005 0.8954305,0.0597715045 2,0.0597715045 Z" id="Rectangle" fill="url(#linearGradient-2)"></path>
                            <ellipse id="Oval" fill="url(#radialGradient-3)" cx="5.693344" cy="56.8855526" rx="2.44000457" ry="2.40107133"></ellipse>
                        </g>
                        <g id="Group-24" transform="translate(61.813449, 0.000000)">
                            <path d="M2,0.0597715045 L10.2000534,0.0597715045 C11.3046229,0.0597715045 12.2000534,0.955202005 12.2000534,2.0597715 L12.2000534,8.07041249 L12.2000534,8.07041249 C11.4981611,8.67296985 11.1472149,9.27284689 11.1472149,9.87004359 C11.1472149,10.4672403 11.4981611,11.0622975 12.2000534,11.6552151 C10.5479466,15.1287268 9.72189321,18.267497 9.72189321,21.0715259 C9.72189321,23.8755549 10.5479466,27.6919052 12.2000534,32.5205771 C12.2000534,39.7564895 12.2000534,43.3744458 12.2000534,43.3744459 C12.2000534,43.3744459 10.5733884,45.0349525 10.5733884,45.0349525 C10.5733884,49.9192001 10.5733884,54.8034477 10.5733884,59.6876953 C10.5733884,60.7922648 9.6779579,61.6876953 8.5733884,61.6876953 L3.21086815,61.6876953 C2.10629865,61.6876953 1.21086815,60.7922648 1.21086815,59.6876953 L1.21086815,45.0349525 L1.21086815,45.0349525 C0.403622718,43.9279481 -1.09542217e-11,43.3744459 -1.09542217e-11,43.3744459 C-1.09542217e-11,43.3744459 -1.09542217e-11,39.7564896 -1.09542217e-11,32.5205771 C2.16889295,27.6919052 3.25333943,23.8755549 3.25333943,21.0715259 C3.25333943,18.267497 2.16889295,15.1287268 -1.09542217e-11,11.6552151 C0.807245436,11.062778 1.21086815,10.4677209 1.21086815,9.87004359 C1.21086815,9.27236633 0.807245436,8.67248929 -1.09542217e-11,8.07041249 L-1.09542217e-11,2.0597715 C-1.0954579e-11,0.955202005 0.8954305,0.0597715045 2,0.0597715045 Z" id="Rectangle" fill="url(#linearGradient-2)"></path>
                            <ellipse id="Oval" fill="url(#radialGradient-3)" cx="5.693344" cy="56.8855526" rx="2.44000457" ry="2.40107133"></ellipse>
                        </g>
                        <g id="Group-24" transform="translate(77.266811, 0.000000)">
                            <path d="M2,0.0597715045 L10.2000534,0.0597715045 C11.3046229,0.0597715045 12.2000534,0.955202005 12.2000534,2.0597715 L12.2000534,8.07041249 L12.2000534,8.07041249 C11.4981611,8.67296985 11.1472149,9.27284689 11.1472149,9.87004359 C11.1472149,10.4672403 11.4981611,11.0622975 12.2000534,11.6552151 C10.5479466,15.1287268 9.72189321,18.267497 9.72189321,21.0715259 C9.72189321,23.8755549 10.5479466,27.6919052 12.2000534,32.5205771 C12.2000534,39.7564895 12.2000534,43.3744458 12.2000534,43.3744459 C12.2000534,43.3744459 10.5733884,45.0349525 10.5733884,45.0349525 C10.5733884,49.9192001 10.5733884,54.8034477 10.5733884,59.6876953 C10.5733884,60.7922648 9.6779579,61.6876953 8.5733884,61.6876953 L3.21086815,61.6876953 C2.10629865,61.6876953 1.21086815,60.7922648 1.21086815,59.6876953 L1.21086815,45.0349525 L1.21086815,45.0349525 C0.403622718,43.9279481 -1.09542217e-11,43.3744459 -1.09542217e-11,43.3744459 C-1.09542217e-11,43.3744459 -1.09542217e-11,39.7564896 -1.09542217e-11,32.5205771 C2.16889295,27.6919052 3.25333943,23.8755549 3.25333943,21.0715259 C3.25333943,18.267497 2.16889295,15.1287268 -1.09542217e-11,11.6552151 C0.807245436,11.062778 1.21086815,10.4677209 1.21086815,9.87004359 C1.21086815,9.27236633 0.807245436,8.67248929 -1.09542217e-11,8.07041249 L-1.09542217e-11,2.0597715 C-1.09543569e-11,0.955202005 0.8954305,0.0597715045 2,0.0597715045 Z" id="Rectangle" fill="url(#linearGradient-2)"></path>
                            <ellipse id="Oval" fill="url(#radialGradient-3)" cx="5.693344" cy="56.8855526" rx="2.44000457" ry="2.40107133"></ellipse>
                        </g>
                        <g id="Group-24" transform="translate(92.720174, 0.000000)">
                            <path d="M2,0.0597715045 L10.2000534,0.0597715045 C11.3046229,0.0597715045 12.2000534,0.955202005 12.2000534,2.0597715 L12.2000534,8.07041249 L12.2000534,8.07041249 C11.4981611,8.67296985 11.1472149,9.27284689 11.1472149,9.87004359 C11.1472149,10.4672403 11.4981611,11.0622975 12.2000534,11.6552151 C10.5479466,15.1287268 9.72189321,18.267497 9.72189321,21.0715259 C9.72189321,23.8755549 10.5479466,27.6919052 12.2000534,32.5205771 C12.2000534,39.7564895 12.2000534,43.3744458 12.2000534,43.3744459 C12.2000534,43.3744459 10.5733884,45.0349525 10.5733884,45.0349525 C10.5733884,49.9192001 10.5733884,54.8034477 10.5733884,59.6876953 C10.5733884,60.7922648 9.6779579,61.6876953 8.5733884,61.6876953 L3.21086815,61.6876953 C2.10629865,61.6876953 1.21086815,60.7922648 1.21086815,59.6876953 L1.21086815,45.0349525 L1.21086815,45.0349525 C0.403622718,43.9279481 -1.09542217e-11,43.3744459 -1.09542217e-11,43.3744459 C-1.09542217e-11,43.3744459 -1.09542217e-11,39.7564896 -1.09542217e-11,32.5205771 C2.16889295,27.6919052 3.25333943,23.8755549 3.25333943,21.0715259 C3.25333943,18.267497 2.16889295,15.1287268 -1.09542217e-11,11.6552151 C0.807245436,11.062778 1.21086815,10.4677209 1.21086815,9.87004359 C1.21086815,9.27236633 0.807245436,8.67248929 -1.09542217e-11,8.07041249 L-1.09542217e-11,2.0597715 C-1.09543569e-11,0.955202005 0.8954305,0.0597715045 2,0.0597715045 Z" id="Rectangle" fill="url(#linearGradient-2)"></path>
                            <ellipse id="Oval" fill="url(#radialGradient-3)" cx="5.693344" cy="56.8855526" rx="2.44000457" ry="2.40107133"></ellipse>
                        </g>
                        <g id="Group-24" transform="translate(108.173536, 0.000000)">
                            <path d="M2,0.0597715045 L10.2000534,0.0597715045 C11.3046229,0.0597715045 12.2000534,0.955202005 12.2000534,2.0597715 L12.2000534,8.07041249 L12.2000534,8.07041249 C11.4981611,8.67296985 11.1472149,9.27284689 11.1472149,9.87004359 C11.1472149,10.4672403 11.4981611,11.0622975 12.2000534,11.6552151 C10.5479466,15.1287268 9.72189321,18.267497 9.72189321,21.0715259 C9.72189321,23.8755549 10.5479466,27.6919052 12.2000534,32.5205771 C12.2000534,39.7564895 12.2000534,43.3744458 12.2000534,43.3744459 C12.2000534,43.3744459 10.5733884,45.0349525 10.5733884,45.0349525 C10.5733884,49.9192001 10.5733884,54.8034477 10.5733884,59.6876953 C10.5733884,60.7922648 9.6779579,61.6876953 8.5733884,61.6876953 L3.21086815,61.6876953 C2.10629865,61.6876953 1.21086815,60.7922648 1.21086815,59.6876953 L1.21086815,45.0349525 L1.21086815,45.0349525 C0.403622718,43.9279481 -1.09542217e-11,43.3744459 -1.09542217e-11,43.3744459 C-1.09542217e-11,43.3744459 -1.09542217e-11,39.7564896 -1.09542217e-11,32.5205771 C2.16889295,27.6919052 3.25333943,23.8755549 3.25333943,21.0715259 C3.25333943,18.267497 2.16889295,15.1287268 -1.09542217e-11,11.6552151 C0.807245436,11.062778 1.21086815,10.4677209 1.21086815,9.87004359 C1.21086815,9.27236633 0.807245436,8.67248929 -1.09542217e-11,8.07041249 L-1.09542217e-11,2.0597715 C-1.0954579e-11,0.955202005 0.8954305,0.0597715045 2,0.0597715045 Z" id="Rectangle" fill="url(#linearGradient-2)"></path>
                            <ellipse id="Oval" fill="url(#radialGradient-3)" cx="5.693344" cy="56.8855526" rx="2.44000457" ry="2.40107133"></ellipse>
                        </g>
                        <g id="Group-24" transform="translate(123.626898, 0.000000)">
                            <path d="M2,0.0597715045 L10.2000534,0.0597715045 C11.3046229,0.0597715045 12.2000534,0.955202005 12.2000534,2.0597715 L12.2000534,8.07041249 L12.2000534,8.07041249 C11.4981611,8.67296985 11.1472149,9.27284689 11.1472149,9.87004359 C11.1472149,10.4672403 11.4981611,11.0622975 12.2000534,11.6552151 C10.5479466,15.1287268 9.72189321,18.267497 9.72189321,21.0715259 C9.72189321,23.8755549 10.5479466,27.6919052 12.2000534,32.5205771 C12.2000534,39.7564895 12.2000534,43.3744458 12.2000534,43.3744459 C12.2000534,43.3744459 10.5733884,45.0349525 10.5733884,45.0349525 C10.5733884,49.9192001 10.5733884,54.8034477 10.5733884,59.6876953 C10.5733884,60.7922648 9.6779579,61.6876953 8.5733884,61.6876953 L3.21086815,61.6876953 C2.10629865,61.6876953 1.21086815,60.7922648 1.21086815,59.6876953 L1.21086815,45.0349525 L1.21086815,45.0349525 C0.403622718,43.9279481 -1.09542217e-11,43.3744459 -1.09542217e-11,43.3744459 C-1.09542217e-11,43.3744459 -1.09542217e-11,39.7564896 -1.09542217e-11,32.5205771 C2.16889295,27.6919052 3.25333943,23.8755549 3.25333943,21.0715259 C3.25333943,18.267497 2.16889295,15.1287268 -1.09542217e-11,11.6552151 C0.807245436,11.062778 1.21086815,10.4677209 1.21086815,9.87004359 C1.21086815,9.27236633 0.807245436,8.67248929 -1.09542217e-11,8.07041249 L-1.09542217e-11,2.0597715 C-1.0954579e-11,0.955202005 0.8954305,0.0597715045 2,0.0597715045 Z" id="Rectangle" fill="url(#linearGradient-2)"></path>
                            <ellipse id="Oval" fill="url(#radialGradient-3)" cx="5.693344" cy="56.8855526" rx="2.44000457" ry="2.40107133"></ellipse>
                        </g>
                        <g id="Group-24" transform="translate(139.080261, 0.000000)">
                            <path d="M2,0.0597715045 L10.2000534,0.0597715045 C11.3046229,0.0597715045 12.2000534,0.955202005 12.2000534,2.0597715 L12.2000534,8.07041249 L12.2000534,8.07041249 C11.4981611,8.67296985 11.1472149,9.27284689 11.1472149,9.87004359 C11.1472149,10.4672403 11.4981611,11.0622975 12.2000534,11.6552151 C10.5479466,15.1287268 9.72189321,18.267497 9.72189321,21.0715259 C9.72189321,23.8755549 10.5479466,27.6919052 12.2000534,32.5205771 C12.2000534,39.7564895 12.2000534,43.3744458 12.2000534,43.3744459 C12.2000534,43.3744459 10.5733884,45.0349525 10.5733884,45.0349525 C10.5733884,49.9192001 10.5733884,54.8034477 10.5733884,59.6876953 C10.5733884,60.7922648 9.6779579,61.6876953 8.5733884,61.6876953 L3.21086815,61.6876953 C2.10629865,61.6876953 1.21086815,60.7922648 1.21086815,59.6876953 L1.21086815,45.0349525 L1.21086815,45.0349525 C0.403622718,43.9279481 -1.09542217e-11,43.3744459 -1.09542217e-11,43.3744459 C-1.09542217e-11,43.3744459 -1.09542217e-11,39.7564896 -1.09542217e-11,32.5205771 C2.16889295,27.6919052 3.25333943,23.8755549 3.25333943,21.0715259 C3.25333943,18.267497 2.16889295,15.1287268 -1.09542217e-11,11.6552151 C0.807245436,11.062778 1.21086815,10.4677209 1.21086815,9.87004359 C1.21086815,9.27236633 0.807245436,8.67248929 -1.09542217e-11,8.07041249 L-1.09542217e-11,2.0597715 C-1.09543569e-11,0.955202005 0.8954305,0.0597715045 2,0.0597715045 Z" id="Rectangle" fill="url(#linearGradient-2)"></path>
                            <ellipse id="Oval" fill="url(#radialGradient-3)" cx="5.693344" cy="56.8855526" rx="2.44000457" ry="2.40107133"></ellipse>
                        </g>
                        <g id="Group-24" transform="translate(154.533623, 0.000000)">
                            <path d="M2,0.0597715045 L10.2000534,0.0597715045 C11.3046229,0.0597715045 12.2000534,0.955202005 12.2000534,2.0597715 L12.2000534,8.07041249 L12.2000534,8.07041249 C11.4981611,8.67296985 11.1472149,9.27284689 11.1472149,9.87004359 C11.1472149,10.4672403 11.4981611,11.0622975 12.2000534,11.6552151 C10.5479466,15.1287268 9.72189321,18.267497 9.72189321,21.0715259 C9.72189321,23.8755549 10.5479466,27.6919052 12.2000534,32.5205771 C12.2000534,39.7564895 12.2000534,43.3744458 12.2000534,43.3744459 C12.2000534,43.3744459 10.5733884,45.0349525 10.5733884,45.0349525 C10.5733884,49.9192001 10.5733884,54.8034477 10.5733884,59.6876953 C10.5733884,60.7922648 9.6779579,61.6876953 8.5733884,61.6876953 L3.21086815,61.6876953 C2.10629865,61.6876953 1.21086815,60.7922648 1.21086815,59.6876953 L1.21086815,45.0349525 L1.21086815,45.0349525 C0.403622718,43.9279481 -1.09542217e-11,43.3744459 -1.09542217e-11,43.3744459 C-1.09542217e-11,43.3744459 -1.09542217e-11,39.7564896 -1.09542217e-11,32.5205771 C2.16889295,27.6919052 3.25333943,23.8755549 3.25333943,21.0715259 C3.25333943,18.267497 2.16889295,15.1287268 -1.09542217e-11,11.6552151 C0.807245436,11.062778 1.21086815,10.4677209 1.21086815,9.87004359 C1.21086815,9.27236633 0.807245436,8.67248929 -1.09542217e-11,8.07041249 L-1.09542217e-11,2.0597715 C-1.0954579e-11,0.955202005 0.8954305,0.0597715045 2,0.0597715045 Z" id="Rectangle" fill="url(#linearGradient-2)"></path>
                            <ellipse id="Oval" fill="url(#radialGradient-3)" cx="5.693344" cy="56.8855526" rx="2.44000457" ry="2.40107133"></ellipse>
                        </g>
                        <g id="Group-24" transform="translate(169.986985, 0.000000)">
                            <path d="M2,0.0597715045 L10.2000534,0.0597715045 C11.3046229,0.0597715045 12.2000534,0.955202005 12.2000534,2.0597715 L12.2000534,8.07041249 L12.2000534,8.07041249 C11.4981611,8.67296985 11.1472149,9.27284689 11.1472149,9.87004359 C11.1472149,10.4672403 11.4981611,11.0622975 12.2000534,11.6552151 C10.5479466,15.1287268 9.72189321,18.267497 9.72189321,21.0715259 C9.72189321,23.8755549 10.5479466,27.6919052 12.2000534,32.5205771 C12.2000534,39.7564895 12.2000534,43.3744458 12.2000534,43.3744459 C12.2000534,43.3744459 10.5733884,45.0349525 10.5733884,45.0349525 C10.5733884,49.9192001 10.5733884,54.8034477 10.5733884,59.6876953 C10.5733884,60.7922648 9.6779579,61.6876953 8.5733884,61.6876953 L3.21086815,61.6876953 C2.10629865,61.6876953 1.21086815,60.7922648 1.21086815,59.6876953 L1.21086815,45.0349525 L1.21086815,45.0349525 C0.403622718,43.9279481 -1.09542217e-11,43.3744459 -1.09542217e-11,43.3744459 C-1.09542217e-11,43.3744459 -1.09542217e-11,39.7564896 -1.09542217e-11,32.5205771 C2.16889295,27.6919052 3.25333943,23.8755549 3.25333943,21.0715259 C3.25333943,18.267497 2.16889295,15.1287268 -1.09542217e-11,11.6552151 C0.807245436,11.062778 1.21086815,10.4677209 1.21086815,9.87004359 C1.21086815,9.27236633 0.807245436,8.67248929 -1.09542217e-11,8.07041249 L-1.09542217e-11,2.0597715 C-1.09543569e-11,0.955202005 0.8954305,0.0597715045 2,0.0597715045 Z" id="Rectangle" fill="url(#linearGradient-2)"></path>
                            <ellipse id="Oval" fill="url(#radialGradient-3)" cx="5.693344" cy="56.8855526" rx="2.44000457" ry="2.40107133"></ellipse>
                        </g>
                        <g id="Group-24" transform="translate(185.440347, 0.000000)">
                            <path d="M2,0.0597715045 L10.2000534,0.0597715045 C11.3046229,0.0597715045 12.2000534,0.955202005 12.2000534,2.0597715 L12.2000534,8.07041249 L12.2000534,8.07041249 C11.4981611,8.67296985 11.1472149,9.27284689 11.1472149,9.87004359 C11.1472149,10.4672403 11.4981611,11.0622975 12.2000534,11.6552151 C10.5479466,15.1287268 9.72189321,18.267497 9.72189321,21.0715259 C9.72189321,23.8755549 10.5479466,27.6919052 12.2000534,32.5205771 C12.2000534,39.7564895 12.2000534,43.3744458 12.2000534,43.3744459 C12.2000534,43.3744459 10.5733884,45.0349525 10.5733884,45.0349525 C10.5733884,49.9192001 10.5733884,54.8034477 10.5733884,59.6876953 C10.5733884,60.7922648 9.6779579,61.6876953 8.5733884,61.6876953 L3.21086815,61.6876953 C2.10629865,61.6876953 1.21086815,60.7922648 1.21086815,59.6876953 L1.21086815,45.0349525 L1.21086815,45.0349525 C0.403622718,43.9279481 -1.09542217e-11,43.3744459 -1.09542217e-11,43.3744459 C-1.09542217e-11,43.3744459 -1.09542217e-11,39.7564896 -1.09542217e-11,32.5205771 C2.16889295,27.6919052 3.25333943,23.8755549 3.25333943,21.0715259 C3.25333943,18.267497 2.16889295,15.1287268 -1.09542217e-11,11.6552151 C0.807245436,11.062778 1.21086815,10.4677209 1.21086815,9.87004359 C1.21086815,9.27236633 0.807245436,8.67248929 -1.09542217e-11,8.07041249 L-1.09542217e-11,2.0597715 C-1.09543569e-11,0.955202005 0.8954305,0.0597715045 2,0.0597715045 Z" id="Rectangle" fill="url(#linearGradient-2)"></path>
                            <ellipse id="Oval" fill="url(#radialGradient-3)" cx="5.693344" cy="56.8855526" rx="2.44000457" ry="2.40107133"></ellipse>
                        </g>
                        <g id="Group-24" transform="translate(200.893710, 0.000000)">
                            <path d="M2,0.0597715045 L10.2000534,0.0597715045 C11.3046229,0.0597715045 12.2000534,0.955202005 12.2000534,2.0597715 L12.2000534,8.07041249 L12.2000534,8.07041249 C11.4981611,8.67296985 11.1472149,9.27284689 11.1472149,9.87004359 C11.1472149,10.4672403 11.4981611,11.0622975 12.2000534,11.6552151 C10.5479466,15.1287268 9.72189321,18.267497 9.72189321,21.0715259 C9.72189321,23.8755549 10.5479466,27.6919052 12.2000534,32.5205771 C12.2000534,39.7564895 12.2000534,43.3744458 12.2000534,43.3744459 C12.2000534,43.3744459 10.5733884,45.0349525 10.5733884,45.0349525 C10.5733884,49.9192001 10.5733884,54.8034477 10.5733884,59.6876953 C10.5733884,60.7922648 9.6779579,61.6876953 8.5733884,61.6876953 L3.21086815,61.6876953 C2.10629865,61.6876953 1.21086815,60.7922648 1.21086815,59.6876953 L1.21086815,45.0349525 L1.21086815,45.0349525 C0.403622718,43.9279481 -1.09542217e-11,43.3744459 -1.09542217e-11,43.3744459 C-1.09542217e-11,43.3744459 -1.09542217e-11,39.7564896 -1.09542217e-11,32.5205771 C2.16889295,27.6919052 3.25333943,23.8755549 3.25333943,21.0715259 C3.25333943,18.267497 2.16889295,15.1287268 -1.09542217e-11,11.6552151 C0.807245436,11.062778 1.21086815,10.4677209 1.21086815,9.87004359 C1.21086815,9.27236633 0.807245436,8.67248929 -1.09542217e-11,8.07041249 L-1.09542217e-11,2.0597715 C-1.0954579e-11,0.955202005 0.8954305,0.0597715045 2,0.0597715045 Z" id="Rectangle" fill="url(#linearGradient-2)"></path>
                            <ellipse id="Oval" fill="url(#radialGradient-3)" cx="5.693344" cy="56.8855526" rx="2.44000457" ry="2.40107133"></ellipse>
                        </g>
                        <g id="Group-24" transform="translate(216.347072, 0.000000)">
                            <path d="M2,0.0597715045 L10.2000534,0.0597715045 C11.3046229,0.0597715045 12.2000534,0.955202005 12.2000534,2.0597715 L12.2000534,8.07041249 L12.2000534,8.07041249 C11.4981611,8.67296985 11.1472149,9.27284689 11.1472149,9.87004359 C11.1472149,10.4672403 11.4981611,11.0622975 12.2000534,11.6552151 C10.5479466,15.1287268 9.72189321,18.267497 9.72189321,21.0715259 C9.72189321,23.8755549 10.5479466,27.6919052 12.2000534,32.5205771 C12.2000534,39.7564895 12.2000534,43.3744458 12.2000534,43.3744459 C12.2000534,43.3744459 10.5733884,45.0349525 10.5733884,45.0349525 C10.5733884,49.9192001 10.5733884,54.8034477 10.5733884,59.6876953 C10.5733884,60.7922648 9.6779579,61.6876953 8.5733884,61.6876953 L3.21086815,61.6876953 C2.10629865,61.6876953 1.21086815,60.7922648 1.21086815,59.6876953 L1.21086815,45.0349525 L1.21086815,45.0349525 C0.403622718,43.9279481 -1.09542217e-11,43.3744459 -1.09542217e-11,43.3744459 C-1.09542217e-11,43.3744459 -1.09542217e-11,39.7564896 -1.09542217e-11,32.5205771 C2.16889295,27.6919052 3.25333943,23.8755549 3.25333943,21.0715259 C3.25333943,18.267497 2.16889295,15.1287268 -1.09542217e-11,11.6552151 C0.807245436,11.062778 1.21086815,10.4677209 1.21086815,9.87004359 C1.21086815,9.27236633 0.807245436,8.67248929 -1.09542217e-11,8.07041249 L-1.09542217e-11,2.0597715 C-1.09543569e-11,0.955202005 0.8954305,0.0597715045 2,0.0597715045 Z" id="Rectangle" fill="url(#linearGradient-2)"></path>
                            <ellipse id="Oval" fill="url(#radialGradient-3)" cx="5.693344" cy="56.8855526" rx="2.44000457" ry="2.40107133"></ellipse>
                        </g>
                        <g id="Group-24" transform="translate(231.800434, 0.000000)">
                            <path d="M2,0.0597715045 L10.2000534,0.0597715045 C11.3046229,0.0597715045 12.2000534,0.955202005 12.2000534,2.0597715 L12.2000534,8.07041249 L12.2000534,8.07041249 C11.4981611,8.67296985 11.1472149,9.27284689 11.1472149,9.87004359 C11.1472149,10.4672403 11.4981611,11.0622975 12.2000534,11.6552151 C10.5479466,15.1287268 9.72189321,18.267497 9.72189321,21.0715259 C9.72189321,23.8755549 10.5479466,27.6919052 12.2000534,32.5205771 C12.2000534,39.7564895 12.2000534,43.3744458 12.2000534,43.3744459 C12.2000534,43.3744459 10.5733884,45.0349525 10.5733884,45.0349525 C10.5733884,49.9192001 10.5733884,54.8034477 10.5733884,59.6876953 C10.5733884,60.7922648 9.6779579,61.6876953 8.5733884,61.6876953 L3.21086815,61.6876953 C2.10629865,61.6876953 1.21086815,60.7922648 1.21086815,59.6876953 L1.21086815,45.0349525 L1.21086815,45.0349525 C0.403622718,43.9279481 -1.09542217e-11,43.3744459 -1.09542217e-11,43.3744459 C-1.09542217e-11,43.3744459 -1.09542217e-11,39.7564896 -1.09542217e-11,32.5205771 C2.16889295,27.6919052 3.25333943,23.8755549 3.25333943,21.0715259 C3.25333943,18.267497 2.16889295,15.1287268 -1.09542217e-11,11.6552151 C0.807245436,11.062778 1.21086815,10.4677209 1.21086815,9.87004359 C1.21086815,9.27236633 0.807245436,8.67248929 -1.09542217e-11,8.07041249 L-1.09542217e-11,2.0597715 C-1.09543569e-11,0.955202005 0.8954305,0.0597715045 2,0.0597715045 Z" id="Rectangle" fill="url(#linearGradient-2)"></path>
                            <ellipse id="Oval" fill="url(#radialGradient-3)" cx="5.693344" cy="56.8855526" rx="2.44000457" ry="2.40107133"></ellipse>
                        </g>
                        <g id="Group-24" transform="translate(247.253796, 0.000000)">
                            <path d="M2,0.0597715045 L10.2000534,0.0597715045 C11.3046229,0.0597715045 12.2000534,0.955202005 12.2000534,2.0597715 L12.2000534,8.07041249 L12.2000534,8.07041249 C11.4981611,8.67296985 11.1472149,9.27284689 11.1472149,9.87004359 C11.1472149,10.4672403 11.4981611,11.0622975 12.2000534,11.6552151 C10.5479466,15.1287268 9.72189321,18.267497 9.72189321,21.0715259 C9.72189321,23.8755549 10.5479466,27.6919052 12.2000534,32.5205771 C12.2000534,39.7564895 12.2000534,43.3744458 12.2000534,43.3744459 C12.2000534,43.3744459 10.5733884,45.0349525 10.5733884,45.0349525 C10.5733884,49.9192001 10.5733884,54.8034477 10.5733884,59.6876953 C10.5733884,60.7922648 9.6779579,61.6876953 8.5733884,61.6876953 L3.21086815,61.6876953 C2.10629865,61.6876953 1.21086815,60.7922648 1.21086815,59.6876953 L1.21086815,45.0349525 L1.21086815,45.0349525 C0.403622718,43.9279481 -1.09542217e-11,43.3744459 -1.09542217e-11,43.3744459 C-1.09542217e-11,43.3744459 -1.09542217e-11,39.7564896 -1.09542217e-11,32.5205771 C2.16889295,27.6919052 3.25333943,23.8755549 3.25333943,21.0715259 C3.25333943,18.267497 2.16889295,15.1287268 -1.09542217e-11,11.6552151 C0.807245436,11.062778 1.21086815,10.4677209 1.21086815,9.87004359 C1.21086815,9.27236633 0.807245436,8.67248929 -1.09542217e-11,8.07041249 L-1.09542217e-11,2.0597715 C-1.0954579e-11,0.955202005 0.8954305,0.0597715045 2,0.0597715045 Z" id="Rectangle" fill="url(#linearGradient-2)"></path>
                            <ellipse id="Oval" fill="url(#radialGradient-3)" cx="5.693344" cy="56.8855526" rx="2.44000457" ry="2.40107133"></ellipse>
                        </g>
                    </g>
                    <rect id="Rectangle" fill="#4A4A4A" x="5.72750002" y="191.317862" width="264.333828" height="9.60428533"></rect>
                    <rect id="Rectangle" stroke="#000000" stroke-width="2" fill="url(#linearGradient-4)" x="1" y="65.7104532" width="276.160521" height="130.85928" rx="4"></rect>
                    <path d="M69.3660443,141.67049 L77.1740589,141.67049 L73.2700516,101.332492 L73.0260511,101.332492 L69.3660443,141.67049 Z M45.8200002,171.923989 L56.8000207,86.2057425 L89.1300813,86.2057425 L101.086104,171.923989 L78.6380617,171.923989 L77.5400596,156.79724 L69.3660443,156.79724 L68.2680422,171.923989 L45.8200002,171.923989 Z M110.480121,171.923989 L110.480121,86.2057425 L138.784174,86.2057425 C154.034203,86.2057425 163.916221,88.9669745 163.916221,108.175545 L163.916221,155.47665 C163.916221,168.322382 153.912203,171.923989 144.030184,171.923989 L110.480121,171.923989 Z M132.928163,100.61217 L132.928163,157.517561 L136.22217,157.517561 C139.516176,157.517561 141.59018,154.516222 141.468179,150.434401 L141.468179,107.695331 C141.59018,103.61351 139.516176,100.61217 136.22217,100.61217 L132.928163,100.61217 Z M175.384243,147.192954 L175.384243,110.936777 C175.384243,97.3707242 180.874253,84.404939 202.590294,84.404939 C219.060325,84.404939 227.722341,93.4089565 227.722341,108.535706 L227.722341,120.661116 L205.274299,120.661116 L205.274299,104.693992 C205.274299,101.812706 205.274299,98.811367 201.248291,98.811367 C198.686287,98.811367 197.832285,101.452545 197.832285,104.453885 L197.832285,153.675847 C197.832285,156.677186 198.686287,159.318365 201.248291,159.318365 C205.274299,159.318365 205.274299,156.076918 205.274299,152.355258 L205.274299,134.947491 L227.722341,134.947491 L227.722341,149.113811 C227.722341,164.240561 218.084323,173.724793 202.102293,173.724793 C179.532251,173.724793 175.384243,160.759007 175.384243,147.192954 Z" id="ADC" fill="#999999" opacity="0.540225074"></path>
                </g>
            </g>
        </g>
    </g>
</svg>