<?xml version="1.0" encoding="UTF-8"?>
<svg width="601px" height="540px" viewBox="0 0 601 540" version="1.1" xmlns="http://www.w3.org/2000/svg" xmlns:xlink="http://www.w3.org/1999/xlink">
    <title>Group 3</title>
    <g id="Page-1" stroke="none" stroke-width="1" fill="none" fill-rule="evenodd">
        <g id="Group-3">
            <path d="M426,14 L558,14 C581.748244,14 601,33.2517558 601,57 L601,497 C601,520.748244 581.748244,540 558,540 L43,540 C19.2517558,540 0,520.748244 0,497 L0,57 C0,33.2517558 19.2517558,14 43,14 L158.851562,14 L175.860352,14" id="Path" stroke="#979797" stroke-width="4" opacity="0" stroke-linecap="round"></path>
            <path d="M191.2,22.2 L191.2,13.29 L200.17,13.29 L200.17,22.2 L204.37,22.2 L204.37,1.26 L200.17,1.26 L200.17,9.87 L191.2,9.87 L191.2,1.26 L187,1.26 L187,22.2 L191.2,22.2 Z M215.02,22.41 C216.04,22.41 216.985,22.205 217.855,21.795 C218.725,21.385 219.43,20.82 219.97,20.1 L219.97,20.1 L219.97,22.2 L224.2,22.2 L224.2,5.58 L219.97,5.58 L219.97,14.73 C219.97,16.05 219.64,17.065 218.98,17.775 C218.32,18.485 217.41,18.84 216.25,18.84 C215.11,18.84 214.21,18.485 213.55,17.775 C212.89,17.065 212.56,16.05 212.56,14.73 L212.56,14.73 L212.56,5.58 L208.36,5.58 L208.36,15.33 C208.36,16.81 208.645,18.085 209.215,19.155 C209.785,20.225 210.57,21.035 211.57,21.585 C212.57,22.135 213.72,22.41 215.02,22.41 Z M238.03,22.47 C239.45,22.47 240.735,22.11 241.885,21.39 C243.035,20.67 243.945,19.655 244.615,18.345 C245.285,17.035 245.62,15.53 245.62,13.83 C245.62,12.13 245.285,10.635 244.615,9.345 C243.945,8.055 243.035,7.06 241.885,6.36 C240.735,5.66 239.45,5.31 238.03,5.31 C236.81,5.31 235.725,5.56 234.775,6.06 C233.825,6.56 233.08,7.21 232.54,8.01 L232.54,8.01 L232.54,-5.5067062e-14 L228.34,-5.5067062e-14 L228.34,22.2 L232.54,22.2 L232.54,19.83 C233.1,20.61 233.845,21.245 234.775,21.735 C235.705,22.225 236.79,22.47 238.03,22.47 Z M236.92,18.78 C236.16,18.78 235.445,18.585 234.775,18.195 C234.105,17.805 233.565,17.24 233.155,16.5 C232.745,15.76 232.54,14.89 232.54,13.89 C232.54,12.89 232.745,12.02 233.155,11.28 C233.565,10.54 234.105,9.975 234.775,9.585 C235.445,9.195 236.16,9 236.92,9 C237.7,9 238.425,9.19 239.095,9.57 C239.765,9.95 240.305,10.505 240.715,11.235 C241.125,11.965 241.33,12.83 241.33,13.83 C241.33,14.85 241.125,15.73 240.715,16.47 C240.305,17.21 239.765,17.78 239.095,18.18 C238.425,18.58 237.7,18.78 236.92,18.78 Z M262.3,22.47 C263.54,22.47 264.635,22.215 265.585,21.705 C266.535,21.195 267.28,20.55 267.82,19.77 L267.82,19.77 L267.82,22.2 L272.05,22.2 L272.05,5.58 L267.82,5.58 L267.82,7.95 C267.26,7.19 266.515,6.56 265.585,6.06 C264.655,5.56 263.57,5.31 262.33,5.31 C260.91,5.31 259.625,5.66 258.475,6.36 C257.325,7.06 256.415,8.06 255.745,9.36 C255.075,10.66 254.74,12.15 254.74,13.83 C254.74,15.53 255.075,17.035 255.745,18.345 C256.415,19.655 257.325,20.67 258.475,21.39 C259.625,22.11 260.9,22.47 262.3,22.47 Z M263.41,18.78 C262.65,18.78 261.935,18.58 261.265,18.18 C260.595,17.78 260.055,17.205 259.645,16.455 C259.235,15.705 259.03,14.83 259.03,13.83 C259.03,12.83 259.235,11.965 259.645,11.235 C260.055,10.505 260.59,9.95 261.25,9.57 C261.91,9.19 262.63,9 263.41,9 C264.19,9 264.92,9.195 265.6,9.585 C266.28,9.975 266.82,10.535 267.22,11.265 C267.62,11.995 267.82,12.87 267.82,13.89 C267.82,14.91 267.62,15.785 267.22,16.515 C266.82,17.245 266.28,17.805 265.6,18.195 C264.92,18.585 264.19,18.78 263.41,18.78 Z M280.36,22.2 L280.36,13.02 C280.36,11.7 280.695,10.685 281.365,9.975 C282.035,9.265 282.95,8.91 284.11,8.91 C285.25,8.91 286.15,9.265 286.81,9.975 C287.47,10.685 287.8,11.7 287.8,13.02 L287.8,13.02 L287.8,22.2 L292,22.2 L292,12.45 C292,10.21 291.39,8.465 290.17,7.215 C288.95,5.965 287.35,5.34 285.37,5.34 C284.33,5.34 283.375,5.545 282.505,5.955 C281.635,6.365 280.92,6.93 280.36,7.65 L280.36,7.65 L280.36,5.58 L276.16,5.58 L276.16,22.2 L280.36,22.2 Z M302.5,22.47 C303.74,22.47 304.83,22.22 305.77,21.72 C306.71,21.22 307.44,20.56 307.96,19.74 L307.96,19.74 L307.96,22.2 L312.22,22.2 L312.22,-5.5067062e-14 L307.96,-5.5067062e-14 L307.96,7.89 C307.38,7.11 306.6,6.485 305.62,6.015 C304.64,5.545 303.61,5.31 302.53,5.31 C301.11,5.31 299.82,5.66 298.66,6.36 C297.5,7.06 296.585,8.06 295.915,9.36 C295.245,10.66 294.91,12.15 294.91,13.83 C294.91,15.53 295.245,17.035 295.915,18.345 C296.585,19.655 297.5,20.67 298.66,21.39 C299.82,22.11 301.1,22.47 302.5,22.47 Z M303.58,18.78 C302.82,18.78 302.105,18.58 301.435,18.18 C300.765,17.78 300.225,17.205 299.815,16.455 C299.405,15.705 299.2,14.83 299.2,13.83 C299.2,12.83 299.405,11.965 299.815,11.235 C300.225,10.505 300.76,9.95 301.42,9.57 C302.08,9.19 302.8,9 303.58,9 C304.36,9 305.09,9.195 305.77,9.585 C306.45,9.975 306.99,10.535 307.39,11.265 C307.79,11.995 307.99,12.87 307.99,13.89 C307.99,14.91 307.79,15.785 307.39,16.515 C306.99,17.245 306.45,17.805 305.77,18.195 C305.09,18.585 304.36,18.78 303.58,18.78 Z M330.7,22.41 C332.24,22.41 333.57,22.125 334.69,21.555 C335.81,20.985 336.66,20.22 337.24,19.26 C337.82,18.3 338.11,17.26 338.11,16.14 C338.11,14.84 337.8,13.79 337.18,12.99 C336.56,12.19 335.82,11.59 334.96,11.19 C334.1,10.79 332.99,10.39 331.63,9.99 C330.63,9.69 329.855,9.425 329.305,9.195 C328.755,8.965 328.295,8.665 327.925,8.295 C327.555,7.925 327.37,7.46 327.37,6.9 C327.37,6.1 327.615,5.49 328.105,5.07 C328.595,4.65 329.25,4.44 330.07,4.44 C331.01,4.44 331.765,4.675 332.335,5.145 C332.905,5.615 333.21,6.21 333.25,6.93 L333.25,6.93 L337.87,6.93 C337.73,5.05 336.985,3.585 335.635,2.535 C334.285,1.485 332.53,0.96 330.37,0.96 C328.93,0.96 327.65,1.205 326.53,1.695 C325.41,2.185 324.54,2.89 323.92,3.81 C323.3,4.73 322.99,5.81 322.99,7.05 C322.99,8.37 323.295,9.425 323.905,10.215 C324.515,11.005 325.245,11.595 326.095,11.985 C326.945,12.375 328.05,12.77 329.41,13.17 C330.41,13.45 331.195,13.705 331.765,13.935 C332.335,14.165 332.81,14.48 333.19,14.88 C333.57,15.28 333.76,15.79 333.76,16.41 C333.76,17.17 333.48,17.785 332.92,18.255 C332.36,18.725 331.59,18.96 330.61,18.96 C329.65,18.96 328.895,18.71 328.345,18.21 C327.795,17.71 327.49,17.03 327.43,16.17 L327.43,16.17 L322.93,16.17 C322.95,17.45 323.3,18.56 323.98,19.5 C324.66,20.44 325.585,21.16 326.755,21.66 C327.925,22.16 329.24,22.41 330.7,22.41 Z M345.94,30.12 L345.94,19.83 C346.52,20.59 347.275,21.22 348.205,21.72 C349.135,22.22 350.21,22.47 351.43,22.47 C352.85,22.47 354.135,22.11 355.285,21.39 C356.435,20.67 357.345,19.655 358.015,18.345 C358.685,17.035 359.02,15.53 359.02,13.83 C359.02,12.13 358.685,10.635 358.015,9.345 C357.345,8.055 356.435,7.06 355.285,6.36 C354.135,5.66 352.85,5.31 351.43,5.31 C350.21,5.31 349.125,5.565 348.175,6.075 C347.225,6.585 346.48,7.22 345.94,7.98 L345.94,7.98 L345.94,5.58 L341.74,5.58 L341.74,30.12 L345.94,30.12 Z M350.32,18.78 C349.56,18.78 348.845,18.585 348.175,18.195 C347.505,17.805 346.965,17.24 346.555,16.5 C346.145,15.76 345.94,14.89 345.94,13.89 C345.94,12.89 346.145,12.02 346.555,11.28 C346.965,10.54 347.505,9.975 348.175,9.585 C348.845,9.195 349.56,9 350.32,9 C351.1,9 351.825,9.19 352.495,9.57 C353.165,9.95 353.705,10.505 354.115,11.235 C354.525,11.965 354.73,12.83 354.73,13.83 C354.73,14.85 354.525,15.73 354.115,16.47 C353.705,17.21 353.165,17.78 352.495,18.18 C351.825,18.58 351.1,18.78 350.32,18.78 Z M369.46,22.47 C371.08,22.47 372.545,22.115 373.855,21.405 C375.165,20.695 376.205,19.69 376.975,18.39 C377.745,17.09 378.13,15.59 378.13,13.89 C378.13,12.19 377.755,10.69 377.005,9.39 C376.255,8.09 375.23,7.085 373.93,6.375 C372.63,5.665 371.18,5.31 369.58,5.31 C367.98,5.31 366.53,5.665 365.23,6.375 C363.93,7.085 362.905,8.09 362.155,9.39 C361.405,10.69 361.03,12.19 361.03,13.89 C361.03,15.59 361.395,17.09 362.125,18.39 C362.855,19.69 363.86,20.695 365.14,21.405 C366.42,22.115 367.86,22.47 369.46,22.47 Z M369.46,18.81 C368.26,18.81 367.265,18.385 366.475,17.535 C365.685,16.685 365.29,15.47 365.29,13.89 C365.29,12.31 365.695,11.095 366.505,10.245 C367.315,9.395 368.32,8.97 369.52,8.97 C370.72,8.97 371.735,9.395 372.565,10.245 C373.395,11.095 373.81,12.31 373.81,13.89 C373.81,14.95 373.61,15.85 373.21,16.59 C372.81,17.33 372.275,17.885 371.605,18.255 C370.935,18.625 370.22,18.81 369.46,18.81 Z M385.42,22.2 L385.42,15.12 L391.06,22.2 L396.52,22.2 L389.14,13.92 L396.46,5.58 L391,5.58 L385.42,12.63 L385.42,-5.5067062e-14 L381.22,-5.5067062e-14 L381.22,22.2 L385.42,22.2 Z M406,22.47 C407.98,22.47 409.65,21.955 411.01,20.925 C412.37,19.895 413.29,18.58 413.77,16.98 L413.77,16.98 L409.24,16.98 C408.58,18.32 407.47,18.99 405.91,18.99 C404.83,18.99 403.92,18.65 403.18,17.97 C402.44,17.29 402.02,16.35 401.92,15.15 L401.92,15.15 L414.07,15.15 C414.15,14.67 414.19,14.13 414.19,13.53 C414.19,11.91 413.845,10.475 413.155,9.225 C412.465,7.975 411.495,7.01 410.245,6.33 C408.995,5.65 407.58,5.31 406,5.31 C404.36,5.31 402.91,5.66 401.65,6.36 C400.39,7.06 399.41,8.06 398.71,9.36 C398.01,10.66 397.66,12.17 397.66,13.89 C397.66,15.59 398.015,17.09 398.725,18.39 C399.435,19.69 400.425,20.695 401.695,21.405 C402.965,22.115 404.4,22.47 406,22.47 Z M409.84,12.33 L401.95,12.33 C402.11,11.21 402.545,10.335 403.255,9.705 C403.965,9.075 404.84,8.76 405.88,8.76 C406.98,8.76 407.91,9.085 408.67,9.735 C409.43,10.385 409.82,11.25 409.84,12.33 L409.84,12.33 Z" id="HubandSpoke" fill="#3C526A" fill-rule="nonzero"></path>
            <g id="Group-4" transform="translate(58.000000, 76.000000)">
                <line x1="99" y1="54" x2="386.264833" y2="376.084812" id="Line" stroke="#979797" stroke-width="4" stroke-linecap="square" transform="translate(242.632416, 215.042406) rotate(131.729512) translate(-242.632416, -215.042406) "></line>
                <line x1="99" y1="54" x2="386.264833" y2="376.084812" id="Line" stroke="#979797" stroke-width="4" stroke-linecap="square" transform="translate(242.632416, 215.042406) rotate(11.729512) translate(-242.632416, -215.042406) "></line>
                <line x1="99" y1="54" x2="386.264833" y2="376.084812" id="Line" stroke="#979797" stroke-width="4" stroke-linecap="square" transform="translate(242.632416, 215.042406) rotate(71.729512) translate(-242.632416, -215.042406) "></line>
                <g id="A" transform="translate(108.000000, 1.000000)">
                    <circle id="Oval" stroke="#35536C" stroke-width="3" fill="#3C526A" cx="27" cy="27" r="25.5"></circle>
                    <path d="M22.528,35.776 L23.632,32.584 L30.304,32.584 L31.408,35.776 L34.96,35.776 L28.936,19 L25.024,19 L19,35.776 L22.528,35.776 Z M29.392,29.896 L24.544,29.896 L26.968,22.888 L29.392,29.896 Z" fill="#FFFFFF" fill-rule="nonzero"></path>
                </g>
                <g id="B" transform="translate(324.000000, 1.000000)">
                    <circle id="Oval" stroke="#3C526A" stroke-width="3" fill="#3C526A" cx="27" cy="27" r="25.5"></circle>
                    <path d="M28.224,35.752 C29.36,35.752 30.344,35.56 31.176,35.176 C32.008,34.792 32.644,34.26 33.084,33.58 C33.524,32.9 33.744,32.112 33.744,31.216 C33.744,30.224 33.44,29.344 32.832,28.576 C32.224,27.808 31.448,27.336 30.504,27.16 C31.368,26.888 32.06,26.424 32.58,25.768 C33.1,25.112 33.36,24.296 33.36,23.32 C33.36,22.488 33.148,21.744 32.724,21.088 C32.3,20.432 31.676,19.92 30.852,19.552 C30.028,19.184 29.048,19 27.912,19 L27.912,19 L21,19 L21,35.752 L28.224,35.752 Z M27.432,25.912 L24.36,25.912 L24.36,21.712 L27.432,21.712 C28.232,21.712 28.848,21.896 29.28,22.264 C29.712,22.632 29.928,23.152 29.928,23.824 C29.928,24.496 29.712,25.012 29.28,25.372 C28.848,25.732 28.232,25.912 27.432,25.912 L27.432,25.912 Z M27.744,33.016 L24.36,33.016 L24.36,28.504 L27.672,28.504 C28.488,28.504 29.136,28.708 29.616,29.116 C30.096,29.524 30.336,30.088 30.336,30.808 C30.336,31.512 30.108,32.056 29.652,32.44 C29.196,32.824 28.56,33.016 27.744,33.016 L27.744,33.016 Z" fill="#FFFFFF" fill-rule="nonzero"></path>
                </g>
                <g id="C" transform="translate(431.000000, 188.000000)">
                    <circle id="Oval" stroke="#3C526A" stroke-width="3" fill="#3C526A" cx="27" cy="27" r="25.5"></circle>
                    <path d="M27.496,35.112 C29.384,35.112 31.028,34.636 32.428,33.684 C33.828,32.732 34.808,31.4 35.368,29.688 L35.368,29.688 L31.504,29.688 C31.12,30.488 30.58,31.092 29.884,31.5 C29.188,31.908 28.384,32.112 27.472,32.112 C26.496,32.112 25.628,31.884 24.868,31.428 C24.108,30.972 23.516,30.324 23.092,29.484 C22.668,28.644 22.456,27.672 22.456,26.568 C22.456,25.448 22.668,24.472 23.092,23.64 C23.516,22.808 24.108,22.164 24.868,21.708 C25.628,21.252 26.496,21.024 27.472,21.024 C28.384,21.024 29.188,21.224 29.884,21.624 C30.58,22.024 31.12,22.624 31.504,23.424 L31.504,23.424 L35.368,23.424 C34.808,21.728 33.824,20.4 32.416,19.44 C31.008,18.48 29.368,18 27.496,18 C25.896,18 24.452,18.364 23.164,19.092 C21.876,19.82 20.86,20.836 20.116,22.14 C19.372,23.444 19,24.92 19,26.568 C19,28.216 19.372,29.688 20.116,30.984 C20.86,32.28 21.876,33.292 23.164,34.02 C24.452,34.748 25.896,35.112 27.496,35.112 Z" fill="#FFFFFF" fill-rule="nonzero"></path>
                </g>
                <g id="D" transform="translate(324.000000, 381.000000)">
                    <circle id="Oval" stroke="#3C526A" stroke-width="3" fill="#3C526A" cx="27" cy="27" r="25.5"></circle>
                    <path d="M25.856,35.752 C27.616,35.752 29.164,35.408 30.5,34.72 C31.836,34.032 32.868,33.06 33.596,31.804 C34.324,30.548 34.688,29.08 34.688,27.4 C34.688,25.72 34.324,24.244 33.596,22.972 C32.868,21.7 31.836,20.72 30.5,20.032 C29.164,19.344 27.616,19 25.856,19 L25.856,19 L20,19 L20,35.752 L25.856,35.752 Z M25.736,32.896 L23.36,32.896 L23.36,21.832 L25.736,21.832 C27.496,21.832 28.856,22.324 29.816,23.308 C30.776,24.292 31.256,25.656 31.256,27.4 C31.256,29.144 30.776,30.496 29.816,31.456 C28.856,32.416 27.496,32.896 25.736,32.896 L25.736,32.896 Z" fill="#FFFFFF" fill-rule="nonzero"></path>
                </g>
                <g id="E" transform="translate(108.000000, 375.000000)">
                    <circle id="Oval" stroke="#3C526A" stroke-width="3" fill="#3C526A" cx="27" cy="27" r="25.5"></circle>
                    <polygon fill="#FFFFFF" fill-rule="nonzero" points="31.72 35.776 31.72 33.04 25.36 33.04 25.36 28.6 31 28.6 31 25.936 25.36 25.936 25.36 21.736 31.72 21.736 31.72 19 22 19 22 35.776"></polygon>
                </g>
                <g id="F" transform="translate(0.000000, 188.000000)">
                    <circle id="Oval" stroke="#3C526A" stroke-width="3" fill="#3C526A" cx="27" cy="27" r="25.5"></circle>
                    <polygon fill="#FFFFFF" fill-rule="nonzero" points="25.36 35.752 25.36 28.672 30.712 28.672 30.712 26.008 25.36 26.008 25.36 21.712 32.344 21.712 32.344 19 22 19 22 35.752"></polygon>
                </g>
                <circle id="Oval" stroke="#3C526A" stroke-width="4" fill="#3C526A" cx="243" cy="218" r="48"></circle>
                <path d="M223.36,223.76 L223.36,216.632 L230.536,216.632 L230.536,223.76 L233.896,223.76 L233.896,207.008 L230.536,207.008 L230.536,213.896 L223.36,213.896 L223.36,207.008 L220,207.008 L220,223.76 L223.36,223.76 Z M242.416,223.928 C243.232,223.928 243.988,223.764 244.684,223.436 C245.38,223.108 245.944,222.656 246.376,222.08 L246.376,222.08 L246.376,223.76 L249.76,223.76 L249.76,210.464 L246.376,210.464 L246.376,217.784 C246.376,218.84 246.112,219.652 245.584,220.22 C245.056,220.788 244.328,221.072 243.4,221.072 C242.488,221.072 241.768,220.788 241.24,220.22 C240.712,219.652 240.448,218.84 240.448,217.784 L240.448,217.784 L240.448,210.464 L237.088,210.464 L237.088,218.264 C237.088,219.448 237.316,220.468 237.772,221.324 C238.228,222.18 238.856,222.828 239.656,223.268 C240.456,223.708 241.376,223.928 242.416,223.928 Z M260.824,223.976 C261.96,223.976 262.988,223.688 263.908,223.112 C264.828,222.536 265.556,221.724 266.092,220.676 C266.628,219.628 266.896,218.424 266.896,217.064 C266.896,215.704 266.628,214.508 266.092,213.476 C265.556,212.444 264.828,211.648 263.908,211.088 C262.988,210.528 261.96,210.248 260.824,210.248 C259.848,210.248 258.98,210.448 258.22,210.848 C257.46,211.248 256.864,211.768 256.432,212.408 L256.432,212.408 L256.432,206 L253.072,206 L253.072,223.76 L256.432,223.76 L256.432,221.864 C256.88,222.488 257.476,222.996 258.22,223.388 C258.964,223.78 259.832,223.976 260.824,223.976 Z M259.936,221.024 C259.328,221.024 258.756,220.868 258.22,220.556 C257.684,220.244 257.252,219.792 256.924,219.2 C256.596,218.608 256.432,217.912 256.432,217.112 C256.432,216.312 256.596,215.616 256.924,215.024 C257.252,214.432 257.684,213.98 258.22,213.668 C258.756,213.356 259.328,213.2 259.936,213.2 C260.56,213.2 261.14,213.352 261.676,213.656 C262.212,213.96 262.644,214.404 262.972,214.988 C263.3,215.572 263.464,216.264 263.464,217.064 C263.464,217.88 263.3,218.584 262.972,219.176 C262.644,219.768 262.212,220.224 261.676,220.544 C261.14,220.864 260.56,221.024 259.936,221.024 Z" id="Hub" fill="#FFFFFF" fill-rule="nonzero"></path>
            </g>
        </g>
    </g>
</svg>