<?xml version="1.0" encoding="UTF-8"?>
<svg width="601px" height="540px" viewBox="0 0 601 540" version="1.1" xmlns="http://www.w3.org/2000/svg" xmlns:xlink="http://www.w3.org/1999/xlink">
    <title>Group 3</title>
    <g id="Page-1" stroke="none" stroke-width="1" fill="none" fill-rule="evenodd">
        <g id="Group-3">
            <path d="M426,7 L558,7 C581.748244,7 601,26.2517558 601,50 L601,490 C601,513.748244 581.748244,533 558,533 L43,533 C19.2517558,533 0,513.748244 0,490 L0,50 C0,26.2517558 19.2517558,7 43,7 L158.851562,7 L175.860352,7" id="Path" stroke="#979797" stroke-width="4" opacity="0" stroke-linecap="round"></path>
            <g id="Group-6" transform="translate(58.000000, 0.000000)">
                <path d="M133.2,22.2 L133.2,13.29 L142.17,13.29 L142.17,22.2 L146.37,22.2 L146.37,1.26 L142.17,1.26 L142.17,9.87 L133.2,9.87 L133.2,1.26 L129,1.26 L129,22.2 L133.2,22.2 Z M157.02,22.41 C158.04,22.41 158.985,22.205 159.855,21.795 C160.725,21.385 161.43,20.82 161.97,20.1 L161.97,20.1 L161.97,22.2 L166.2,22.2 L166.2,5.58 L161.97,5.58 L161.97,14.73 C161.97,16.05 161.64,17.065 160.98,17.775 C160.32,18.485 159.41,18.84 158.25,18.84 C157.11,18.84 156.21,18.485 155.55,17.775 C154.89,17.065 154.56,16.05 154.56,14.73 L154.56,14.73 L154.56,5.58 L150.36,5.58 L150.36,15.33 C150.36,16.81 150.645,18.085 151.215,19.155 C151.785,20.225 152.57,21.035 153.57,21.585 C154.57,22.135 155.72,22.41 157.02,22.41 Z M180.03,22.47 C181.45,22.47 182.735,22.11 183.885,21.39 C185.035,20.67 185.945,19.655 186.615,18.345 C187.285,17.035 187.62,15.53 187.62,13.83 C187.62,12.13 187.285,10.635 186.615,9.345 C185.945,8.055 185.035,7.06 183.885,6.36 C182.735,5.66 181.45,5.31 180.03,5.31 C178.81,5.31 177.725,5.56 176.775,6.06 C175.825,6.56 175.08,7.21 174.54,8.01 L174.54,8.01 L174.54,-5.5067062e-14 L170.34,-5.5067062e-14 L170.34,22.2 L174.54,22.2 L174.54,19.83 C175.1,20.61 175.845,21.245 176.775,21.735 C177.705,22.225 178.79,22.47 180.03,22.47 Z M178.92,18.78 C178.16,18.78 177.445,18.585 176.775,18.195 C176.105,17.805 175.565,17.24 175.155,16.5 C174.745,15.76 174.54,14.89 174.54,13.89 C174.54,12.89 174.745,12.02 175.155,11.28 C175.565,10.54 176.105,9.975 176.775,9.585 C177.445,9.195 178.16,9 178.92,9 C179.7,9 180.425,9.19 181.095,9.57 C181.765,9.95 182.305,10.505 182.715,11.235 C183.125,11.965 183.33,12.83 183.33,13.83 C183.33,14.85 183.125,15.73 182.715,16.47 C182.305,17.21 181.765,17.78 181.095,18.18 C180.425,18.58 179.7,18.78 178.92,18.78 Z M204.3,22.47 C205.54,22.47 206.635,22.215 207.585,21.705 C208.535,21.195 209.28,20.55 209.82,19.77 L209.82,19.77 L209.82,22.2 L214.05,22.2 L214.05,5.58 L209.82,5.58 L209.82,7.95 C209.26,7.19 208.515,6.56 207.585,6.06 C206.655,5.56 205.57,5.31 204.33,5.31 C202.91,5.31 201.625,5.66 200.475,6.36 C199.325,7.06 198.415,8.06 197.745,9.36 C197.075,10.66 196.74,12.15 196.74,13.83 C196.74,15.53 197.075,17.035 197.745,18.345 C198.415,19.655 199.325,20.67 200.475,21.39 C201.625,22.11 202.9,22.47 204.3,22.47 Z M205.41,18.78 C204.65,18.78 203.935,18.58 203.265,18.18 C202.595,17.78 202.055,17.205 201.645,16.455 C201.235,15.705 201.03,14.83 201.03,13.83 C201.03,12.83 201.235,11.965 201.645,11.235 C202.055,10.505 202.59,9.95 203.25,9.57 C203.91,9.19 204.63,9 205.41,9 C206.19,9 206.92,9.195 207.6,9.585 C208.28,9.975 208.82,10.535 209.22,11.265 C209.62,11.995 209.82,12.87 209.82,13.89 C209.82,14.91 209.62,15.785 209.22,16.515 C208.82,17.245 208.28,17.805 207.6,18.195 C206.92,18.585 206.19,18.78 205.41,18.78 Z M222.36,22.2 L222.36,13.02 C222.36,11.7 222.695,10.685 223.365,9.975 C224.035,9.265 224.95,8.91 226.11,8.91 C227.25,8.91 228.15,9.265 228.81,9.975 C229.47,10.685 229.8,11.7 229.8,13.02 L229.8,13.02 L229.8,22.2 L234,22.2 L234,12.45 C234,10.21 233.39,8.465 232.17,7.215 C230.95,5.965 229.35,5.34 227.37,5.34 C226.33,5.34 225.375,5.545 224.505,5.955 C223.635,6.365 222.92,6.93 222.36,7.65 L222.36,7.65 L222.36,5.58 L218.16,5.58 L218.16,22.2 L222.36,22.2 Z M244.5,22.47 C245.74,22.47 246.83,22.22 247.77,21.72 C248.71,21.22 249.44,20.56 249.96,19.74 L249.96,19.74 L249.96,22.2 L254.22,22.2 L254.22,-5.5067062e-14 L249.96,-5.5067062e-14 L249.96,7.89 C249.38,7.11 248.6,6.485 247.62,6.015 C246.64,5.545 245.61,5.31 244.53,5.31 C243.11,5.31 241.82,5.66 240.66,6.36 C239.5,7.06 238.585,8.06 237.915,9.36 C237.245,10.66 236.91,12.15 236.91,13.83 C236.91,15.53 237.245,17.035 237.915,18.345 C238.585,19.655 239.5,20.67 240.66,21.39 C241.82,22.11 243.1,22.47 244.5,22.47 Z M245.58,18.78 C244.82,18.78 244.105,18.58 243.435,18.18 C242.765,17.78 242.225,17.205 241.815,16.455 C241.405,15.705 241.2,14.83 241.2,13.83 C241.2,12.83 241.405,11.965 241.815,11.235 C242.225,10.505 242.76,9.95 243.42,9.57 C244.08,9.19 244.8,9 245.58,9 C246.36,9 247.09,9.195 247.77,9.585 C248.45,9.975 248.99,10.535 249.39,11.265 C249.79,11.995 249.99,12.87 249.99,13.89 C249.99,14.91 249.79,15.785 249.39,16.515 C248.99,17.245 248.45,17.805 247.77,18.195 C247.09,18.585 246.36,18.78 245.58,18.78 Z M272.7,22.41 C274.24,22.41 275.57,22.125 276.69,21.555 C277.81,20.985 278.66,20.22 279.24,19.26 C279.82,18.3 280.11,17.26 280.11,16.14 C280.11,14.84 279.8,13.79 279.18,12.99 C278.56,12.19 277.82,11.59 276.96,11.19 C276.1,10.79 274.99,10.39 273.63,9.99 C272.63,9.69 271.855,9.425 271.305,9.195 C270.755,8.965 270.295,8.665 269.925,8.295 C269.555,7.925 269.37,7.46 269.37,6.9 C269.37,6.1 269.615,5.49 270.105,5.07 C270.595,4.65 271.25,4.44 272.07,4.44 C273.01,4.44 273.765,4.675 274.335,5.145 C274.905,5.615 275.21,6.21 275.25,6.93 L275.25,6.93 L279.87,6.93 C279.73,5.05 278.985,3.585 277.635,2.535 C276.285,1.485 274.53,0.96 272.37,0.96 C270.93,0.96 269.65,1.205 268.53,1.695 C267.41,2.185 266.54,2.89 265.92,3.81 C265.3,4.73 264.99,5.81 264.99,7.05 C264.99,8.37 265.295,9.425 265.905,10.215 C266.515,11.005 267.245,11.595 268.095,11.985 C268.945,12.375 270.05,12.77 271.41,13.17 C272.41,13.45 273.195,13.705 273.765,13.935 C274.335,14.165 274.81,14.48 275.19,14.88 C275.57,15.28 275.76,15.79 275.76,16.41 C275.76,17.17 275.48,17.785 274.92,18.255 C274.36,18.725 273.59,18.96 272.61,18.96 C271.65,18.96 270.895,18.71 270.345,18.21 C269.795,17.71 269.49,17.03 269.43,16.17 L269.43,16.17 L264.93,16.17 C264.95,17.45 265.3,18.56 265.98,19.5 C266.66,20.44 267.585,21.16 268.755,21.66 C269.925,22.16 271.24,22.41 272.7,22.41 Z M287.94,30.12 L287.94,19.83 C288.52,20.59 289.275,21.22 290.205,21.72 C291.135,22.22 292.21,22.47 293.43,22.47 C294.85,22.47 296.135,22.11 297.285,21.39 C298.435,20.67 299.345,19.655 300.015,18.345 C300.685,17.035 301.02,15.53 301.02,13.83 C301.02,12.13 300.685,10.635 300.015,9.345 C299.345,8.055 298.435,7.06 297.285,6.36 C296.135,5.66 294.85,5.31 293.43,5.31 C292.21,5.31 291.125,5.565 290.175,6.075 C289.225,6.585 288.48,7.22 287.94,7.98 L287.94,7.98 L287.94,5.58 L283.74,5.58 L283.74,30.12 L287.94,30.12 Z M292.32,18.78 C291.56,18.78 290.845,18.585 290.175,18.195 C289.505,17.805 288.965,17.24 288.555,16.5 C288.145,15.76 287.94,14.89 287.94,13.89 C287.94,12.89 288.145,12.02 288.555,11.28 C288.965,10.54 289.505,9.975 290.175,9.585 C290.845,9.195 291.56,9 292.32,9 C293.1,9 293.825,9.19 294.495,9.57 C295.165,9.95 295.705,10.505 296.115,11.235 C296.525,11.965 296.73,12.83 296.73,13.83 C296.73,14.85 296.525,15.73 296.115,16.47 C295.705,17.21 295.165,17.78 294.495,18.18 C293.825,18.58 293.1,18.78 292.32,18.78 Z M311.46,22.47 C313.08,22.47 314.545,22.115 315.855,21.405 C317.165,20.695 318.205,19.69 318.975,18.39 C319.745,17.09 320.13,15.59 320.13,13.89 C320.13,12.19 319.755,10.69 319.005,9.39 C318.255,8.09 317.23,7.085 315.93,6.375 C314.63,5.665 313.18,5.31 311.58,5.31 C309.98,5.31 308.53,5.665 307.23,6.375 C305.93,7.085 304.905,8.09 304.155,9.39 C303.405,10.69 303.03,12.19 303.03,13.89 C303.03,15.59 303.395,17.09 304.125,18.39 C304.855,19.69 305.86,20.695 307.14,21.405 C308.42,22.115 309.86,22.47 311.46,22.47 Z M311.46,18.81 C310.26,18.81 309.265,18.385 308.475,17.535 C307.685,16.685 307.29,15.47 307.29,13.89 C307.29,12.31 307.695,11.095 308.505,10.245 C309.315,9.395 310.32,8.97 311.52,8.97 C312.72,8.97 313.735,9.395 314.565,10.245 C315.395,11.095 315.81,12.31 315.81,13.89 C315.81,14.95 315.61,15.85 315.21,16.59 C314.81,17.33 314.275,17.885 313.605,18.255 C312.935,18.625 312.22,18.81 311.46,18.81 Z M327.42,22.2 L327.42,15.12 L333.06,22.2 L338.52,22.2 L331.14,13.92 L338.46,5.58 L333,5.58 L327.42,12.63 L327.42,-5.5067062e-14 L323.22,-5.5067062e-14 L323.22,22.2 L327.42,22.2 Z M348,22.47 C349.98,22.47 351.65,21.955 353.01,20.925 C354.37,19.895 355.29,18.58 355.77,16.98 L355.77,16.98 L351.24,16.98 C350.58,18.32 349.47,18.99 347.91,18.99 C346.83,18.99 345.92,18.65 345.18,17.97 C344.44,17.29 344.02,16.35 343.92,15.15 L343.92,15.15 L356.07,15.15 C356.15,14.67 356.19,14.13 356.19,13.53 C356.19,11.91 355.845,10.475 355.155,9.225 C354.465,7.975 353.495,7.01 352.245,6.33 C350.995,5.65 349.58,5.31 348,5.31 C346.36,5.31 344.91,5.66 343.65,6.36 C342.39,7.06 341.41,8.06 340.71,9.36 C340.01,10.66 339.66,12.17 339.66,13.89 C339.66,15.59 340.015,17.09 340.725,18.39 C341.435,19.69 342.425,20.695 343.695,21.405 C344.965,22.115 346.4,22.47 348,22.47 Z M351.84,12.33 L343.95,12.33 C344.11,11.21 344.545,10.335 345.255,9.705 C345.965,9.075 346.84,8.76 347.88,8.76 C348.98,8.76 349.91,9.085 350.67,9.735 C351.43,10.385 351.82,11.25 351.84,12.33 L351.84,12.33 Z" id="HubandSpoke" fill="#0D2233" fill-rule="nonzero"></path>
                <g id="Group-4" transform="translate(0.000000, 104.000000)">
                    <line x1="99" y1="54" x2="386.264833" y2="376.084812" id="Line" stroke="#979797" stroke-width="4" stroke-linecap="square" transform="translate(242.632416, 215.042406) rotate(131.729512) translate(-242.632416, -215.042406) "></line>
                    <line x1="99" y1="54" x2="386.264833" y2="376.084812" id="Line" stroke="#979797" stroke-width="4" stroke-linecap="square" transform="translate(242.632416, 215.042406) rotate(11.729512) translate(-242.632416, -215.042406) "></line>
                    <line x1="99" y1="54" x2="386.264833" y2="376.084812" id="Line" stroke="#979797" stroke-width="4" stroke-linecap="square" transform="translate(242.632416, 215.042406) rotate(71.729512) translate(-242.632416, -215.042406) "></line>
                    <g id="A" transform="translate(108.000000, 1.000000)">
                        <circle id="Oval" stroke="#0D2233" stroke-width="3" fill="#0D2233" cx="27" cy="27" r="25.5"></circle>
                        <path d="M22.528,35.776 L23.632,32.584 L30.304,32.584 L31.408,35.776 L34.96,35.776 L28.936,19 L25.024,19 L19,35.776 L22.528,35.776 Z M29.392,29.896 L24.544,29.896 L26.968,22.888 L29.392,29.896 Z" fill="#FFFFFF" fill-rule="nonzero"></path>
                    </g>
                    <g id="B" transform="translate(324.000000, 1.000000)">
                        <circle id="Oval" stroke="#0D2233" stroke-width="3" fill="#0D2233" cx="27" cy="27" r="25.5"></circle>
                        <path d="M28.224,35.752 C29.36,35.752 30.344,35.56 31.176,35.176 C32.008,34.792 32.644,34.26 33.084,33.58 C33.524,32.9 33.744,32.112 33.744,31.216 C33.744,30.224 33.44,29.344 32.832,28.576 C32.224,27.808 31.448,27.336 30.504,27.16 C31.368,26.888 32.06,26.424 32.58,25.768 C33.1,25.112 33.36,24.296 33.36,23.32 C33.36,22.488 33.148,21.744 32.724,21.088 C32.3,20.432 31.676,19.92 30.852,19.552 C30.028,19.184 29.048,19 27.912,19 L27.912,19 L21,19 L21,35.752 L28.224,35.752 Z M27.432,25.912 L24.36,25.912 L24.36,21.712 L27.432,21.712 C28.232,21.712 28.848,21.896 29.28,22.264 C29.712,22.632 29.928,23.152 29.928,23.824 C29.928,24.496 29.712,25.012 29.28,25.372 C28.848,25.732 28.232,25.912 27.432,25.912 L27.432,25.912 Z M27.744,33.016 L24.36,33.016 L24.36,28.504 L27.672,28.504 C28.488,28.504 29.136,28.708 29.616,29.116 C30.096,29.524 30.336,30.088 30.336,30.808 C30.336,31.512 30.108,32.056 29.652,32.44 C29.196,32.824 28.56,33.016 27.744,33.016 L27.744,33.016 Z" fill="#FFFFFF" fill-rule="nonzero"></path>
                    </g>
                    <g id="C" transform="translate(431.000000, 188.000000)">
                        <circle id="Oval" stroke="#0D2233" stroke-width="3" fill="#0D2233" cx="27" cy="27" r="25.5"></circle>
                        <path d="M27.496,35.112 C29.384,35.112 31.028,34.636 32.428,33.684 C33.828,32.732 34.808,31.4 35.368,29.688 L35.368,29.688 L31.504,29.688 C31.12,30.488 30.58,31.092 29.884,31.5 C29.188,31.908 28.384,32.112 27.472,32.112 C26.496,32.112 25.628,31.884 24.868,31.428 C24.108,30.972 23.516,30.324 23.092,29.484 C22.668,28.644 22.456,27.672 22.456,26.568 C22.456,25.448 22.668,24.472 23.092,23.64 C23.516,22.808 24.108,22.164 24.868,21.708 C25.628,21.252 26.496,21.024 27.472,21.024 C28.384,21.024 29.188,21.224 29.884,21.624 C30.58,22.024 31.12,22.624 31.504,23.424 L31.504,23.424 L35.368,23.424 C34.808,21.728 33.824,20.4 32.416,19.44 C31.008,18.48 29.368,18 27.496,18 C25.896,18 24.452,18.364 23.164,19.092 C21.876,19.82 20.86,20.836 20.116,22.14 C19.372,23.444 19,24.92 19,26.568 C19,28.216 19.372,29.688 20.116,30.984 C20.86,32.28 21.876,33.292 23.164,34.02 C24.452,34.748 25.896,35.112 27.496,35.112 Z" fill="#FFFFFF" fill-rule="nonzero"></path>
                    </g>
                    <g id="D" transform="translate(324.000000, 381.000000)">
                        <circle id="Oval" stroke="#0D2233" stroke-width="3" fill="#0D2233" cx="27" cy="27" r="25.5"></circle>
                        <path d="M25.856,35.752 C27.616,35.752 29.164,35.408 30.5,34.72 C31.836,34.032 32.868,33.06 33.596,31.804 C34.324,30.548 34.688,29.08 34.688,27.4 C34.688,25.72 34.324,24.244 33.596,22.972 C32.868,21.7 31.836,20.72 30.5,20.032 C29.164,19.344 27.616,19 25.856,19 L25.856,19 L20,19 L20,35.752 L25.856,35.752 Z M25.736,32.896 L23.36,32.896 L23.36,21.832 L25.736,21.832 C27.496,21.832 28.856,22.324 29.816,23.308 C30.776,24.292 31.256,25.656 31.256,27.4 C31.256,29.144 30.776,30.496 29.816,31.456 C28.856,32.416 27.496,32.896 25.736,32.896 L25.736,32.896 Z" fill="#FFFFFF" fill-rule="nonzero"></path>
                    </g>
                    <g id="E" transform="translate(108.000000, 375.000000)">
                        <circle id="Oval" stroke="#0D2233" stroke-width="3" fill="#0D2233" cx="27" cy="27" r="25.5"></circle>
                        <polygon fill="#FFFFFF" fill-rule="nonzero" points="31.72 35.776 31.72 33.04 25.36 33.04 25.36 28.6 31 28.6 31 25.936 25.36 25.936 25.36 21.736 31.72 21.736 31.72 19 22 19 22 35.776"></polygon>
                    </g>
                    <g id="F" transform="translate(0.000000, 188.000000)">
                        <circle id="Oval" stroke="#0D2233" stroke-width="3" fill="#0D2233" cx="27" cy="27" r="25.5"></circle>
                        <polygon fill="#FFFFFF" fill-rule="nonzero" points="25.36 35.752 25.36 28.672 30.712 28.672 30.712 26.008 25.36 26.008 25.36 21.712 32.344 21.712 32.344 19 22 19 22 35.752"></polygon>
                    </g>
                    <circle id="Oval" stroke="#0D2233" stroke-width="4" fill="#0D2233" cx="243" cy="218" r="48"></circle>
                    <path d="M223.36,223.76 L223.36,216.632 L230.536,216.632 L230.536,223.76 L233.896,223.76 L233.896,207.008 L230.536,207.008 L230.536,213.896 L223.36,213.896 L223.36,207.008 L220,207.008 L220,223.76 L223.36,223.76 Z M242.416,223.928 C243.232,223.928 243.988,223.764 244.684,223.436 C245.38,223.108 245.944,222.656 246.376,222.08 L246.376,222.08 L246.376,223.76 L249.76,223.76 L249.76,210.464 L246.376,210.464 L246.376,217.784 C246.376,218.84 246.112,219.652 245.584,220.22 C245.056,220.788 244.328,221.072 243.4,221.072 C242.488,221.072 241.768,220.788 241.24,220.22 C240.712,219.652 240.448,218.84 240.448,217.784 L240.448,217.784 L240.448,210.464 L237.088,210.464 L237.088,218.264 C237.088,219.448 237.316,220.468 237.772,221.324 C238.228,222.18 238.856,222.828 239.656,223.268 C240.456,223.708 241.376,223.928 242.416,223.928 Z M260.824,223.976 C261.96,223.976 262.988,223.688 263.908,223.112 C264.828,222.536 265.556,221.724 266.092,220.676 C266.628,219.628 266.896,218.424 266.896,217.064 C266.896,215.704 266.628,214.508 266.092,213.476 C265.556,212.444 264.828,211.648 263.908,211.088 C262.988,210.528 261.96,210.248 260.824,210.248 C259.848,210.248 258.98,210.448 258.22,210.848 C257.46,211.248 256.864,211.768 256.432,212.408 L256.432,212.408 L256.432,206 L253.072,206 L253.072,223.76 L256.432,223.76 L256.432,221.864 C256.88,222.488 257.476,222.996 258.22,223.388 C258.964,223.78 259.832,223.976 260.824,223.976 Z M259.936,221.024 C259.328,221.024 258.756,220.868 258.22,220.556 C257.684,220.244 257.252,219.792 256.924,219.2 C256.596,218.608 256.432,217.912 256.432,217.112 C256.432,216.312 256.596,215.616 256.924,215.024 C257.252,214.432 257.684,213.98 258.22,213.668 C258.756,213.356 259.328,213.2 259.936,213.2 C260.56,213.2 261.14,213.352 261.676,213.656 C262.212,213.96 262.644,214.404 262.972,214.988 C263.3,215.572 263.464,216.264 263.464,217.064 C263.464,217.88 263.3,218.584 262.972,219.176 C262.644,219.768 262.212,220.224 261.676,220.544 C261.14,220.864 260.56,221.024 259.936,221.024 Z" id="Hub" fill="#FFFFFF" fill-rule="nonzero"></path>
                </g>
            </g>
        </g>
    </g>
</svg>