<?xml version="1.0" encoding="UTF-8"?>
<svg width="605px" height="541px" viewBox="0 0 605 541" version="1.1" xmlns="http://www.w3.org/2000/svg" xmlns:xlink="http://www.w3.org/1999/xlink">
    <title>Group 3</title>
    <g id="Page-1" stroke="none" stroke-width="1" fill="none" fill-rule="evenodd">
        <g id="Group-3" transform="translate(2.000000, 0.000000)">
            <path d="M426,13 L558,13 C581.748244,13 601,32.2517558 601,56 L601,496 C601,519.748244 581.748244,539 558,539 L43,539 C19.2517558,539 0,519.748244 0,496 L0,56 C0,32.2517558 19.2517558,13 43,13 L158.851562,13 L175.860352,13" id="Path" stroke="#979797" stroke-width="4" stroke-linecap="round"></path>
            <path d="M191.2,22.2 L191.2,13.29 L200.17,13.29 L200.17,22.2 L204.37,22.2 L204.37,1.26 L200.17,1.26 L200.17,9.87 L191.2,9.87 L191.2,1.26 L187,1.26 L187,22.2 L191.2,22.2 Z M215.02,22.41 C216.04,22.41 216.985,22.205 217.855,21.795 C218.725,21.385 219.43,20.82 219.97,20.1 L219.97,20.1 L219.97,22.2 L224.2,22.2 L224.2,5.58 L219.97,5.58 L219.97,14.73 C219.97,16.05 219.64,17.065 218.98,17.775 C218.32,18.485 217.41,18.84 216.25,18.84 C215.11,18.84 214.21,18.485 213.55,17.775 C212.89,17.065 212.56,16.05 212.56,14.73 L212.56,14.73 L212.56,5.58 L208.36,5.58 L208.36,15.33 C208.36,16.81 208.645,18.085 209.215,19.155 C209.785,20.225 210.57,21.035 211.57,21.585 C212.57,22.135 213.72,22.41 215.02,22.41 Z M238.03,22.47 C239.45,22.47 240.735,22.11 241.885,21.39 C243.035,20.67 243.945,19.655 244.615,18.345 C245.285,17.035 245.62,15.53 245.62,13.83 C245.62,12.13 245.285,10.635 244.615,9.345 C243.945,8.055 243.035,7.06 241.885,6.36 C240.735,5.66 239.45,5.31 238.03,5.31 C236.81,5.31 235.725,5.56 234.775,6.06 C233.825,6.56 233.08,7.21 232.54,8.01 L232.54,8.01 L232.54,-5.5067062e-14 L228.34,-5.5067062e-14 L228.34,22.2 L232.54,22.2 L232.54,19.83 C233.1,20.61 233.845,21.245 234.775,21.735 C235.705,22.225 236.79,22.47 238.03,22.47 Z M236.92,18.78 C236.16,18.78 235.445,18.585 234.775,18.195 C234.105,17.805 233.565,17.24 233.155,16.5 C232.745,15.76 232.54,14.89 232.54,13.89 C232.54,12.89 232.745,12.02 233.155,11.28 C233.565,10.54 234.105,9.975 234.775,9.585 C235.445,9.195 236.16,9 236.92,9 C237.7,9 238.425,9.19 239.095,9.57 C239.765,9.95 240.305,10.505 240.715,11.235 C241.125,11.965 241.33,12.83 241.33,13.83 C241.33,14.85 241.125,15.73 240.715,16.47 C240.305,17.21 239.765,17.78 239.095,18.18 C238.425,18.58 237.7,18.78 236.92,18.78 Z M262.3,22.47 C263.54,22.47 264.635,22.215 265.585,21.705 C266.535,21.195 267.28,20.55 267.82,19.77 L267.82,19.77 L267.82,22.2 L272.05,22.2 L272.05,5.58 L267.82,5.58 L267.82,7.95 C267.26,7.19 266.515,6.56 265.585,6.06 C264.655,5.56 263.57,5.31 262.33,5.31 C260.91,5.31 259.625,5.66 258.475,6.36 C257.325,7.06 256.415,8.06 255.745,9.36 C255.075,10.66 254.74,12.15 254.74,13.83 C254.74,15.53 255.075,17.035 255.745,18.345 C256.415,19.655 257.325,20.67 258.475,21.39 C259.625,22.11 260.9,22.47 262.3,22.47 Z M263.41,18.78 C262.65,18.78 261.935,18.58 261.265,18.18 C260.595,17.78 260.055,17.205 259.645,16.455 C259.235,15.705 259.03,14.83 259.03,13.83 C259.03,12.83 259.235,11.965 259.645,11.235 C260.055,10.505 260.59,9.95 261.25,9.57 C261.91,9.19 262.63,9 263.41,9 C264.19,9 264.92,9.195 265.6,9.585 C266.28,9.975 266.82,10.535 267.22,11.265 C267.62,11.995 267.82,12.87 267.82,13.89 C267.82,14.91 267.62,15.785 267.22,16.515 C266.82,17.245 266.28,17.805 265.6,18.195 C264.92,18.585 264.19,18.78 263.41,18.78 Z M280.36,22.2 L280.36,13.02 C280.36,11.7 280.695,10.685 281.365,9.975 C282.035,9.265 282.95,8.91 284.11,8.91 C285.25,8.91 286.15,9.265 286.81,9.975 C287.47,10.685 287.8,11.7 287.8,13.02 L287.8,13.02 L287.8,22.2 L292,22.2 L292,12.45 C292,10.21 291.39,8.465 290.17,7.215 C288.95,5.965 287.35,5.34 285.37,5.34 C284.33,5.34 283.375,5.545 282.505,5.955 C281.635,6.365 280.92,6.93 280.36,7.65 L280.36,7.65 L280.36,5.58 L276.16,5.58 L276.16,22.2 L280.36,22.2 Z M302.5,22.47 C303.74,22.47 304.83,22.22 305.77,21.72 C306.71,21.22 307.44,20.56 307.96,19.74 L307.96,19.74 L307.96,22.2 L312.22,22.2 L312.22,-5.5067062e-14 L307.96,-5.5067062e-14 L307.96,7.89 C307.38,7.11 306.6,6.485 305.62,6.015 C304.64,5.545 303.61,5.31 302.53,5.31 C301.11,5.31 299.82,5.66 298.66,6.36 C297.5,7.06 296.585,8.06 295.915,9.36 C295.245,10.66 294.91,12.15 294.91,13.83 C294.91,15.53 295.245,17.035 295.915,18.345 C296.585,19.655 297.5,20.67 298.66,21.39 C299.82,22.11 301.1,22.47 302.5,22.47 Z M303.58,18.78 C302.82,18.78 302.105,18.58 301.435,18.18 C300.765,17.78 300.225,17.205 299.815,16.455 C299.405,15.705 299.2,14.83 299.2,13.83 C299.2,12.83 299.405,11.965 299.815,11.235 C300.225,10.505 300.76,9.95 301.42,9.57 C302.08,9.19 302.8,9 303.58,9 C304.36,9 305.09,9.195 305.77,9.585 C306.45,9.975 306.99,10.535 307.39,11.265 C307.79,11.995 307.99,12.87 307.99,13.89 C307.99,14.91 307.79,15.785 307.39,16.515 C306.99,17.245 306.45,17.805 305.77,18.195 C305.09,18.585 304.36,18.78 303.58,18.78 Z M330.7,22.41 C332.24,22.41 333.57,22.125 334.69,21.555 C335.81,20.985 336.66,20.22 337.24,19.26 C337.82,18.3 338.11,17.26 338.11,16.14 C338.11,14.84 337.8,13.79 337.18,12.99 C336.56,12.19 335.82,11.59 334.96,11.19 C334.1,10.79 332.99,10.39 331.63,9.99 C330.63,9.69 329.855,9.425 329.305,9.195 C328.755,8.965 328.295,8.665 327.925,8.295 C327.555,7.925 327.37,7.46 327.37,6.9 C327.37,6.1 327.615,5.49 328.105,5.07 C328.595,4.65 329.25,4.44 330.07,4.44 C331.01,4.44 331.765,4.675 332.335,5.145 C332.905,5.615 333.21,6.21 333.25,6.93 L333.25,6.93 L337.87,6.93 C337.73,5.05 336.985,3.585 335.635,2.535 C334.285,1.485 332.53,0.96 330.37,0.96 C328.93,0.96 327.65,1.205 326.53,1.695 C325.41,2.185 324.54,2.89 323.92,3.81 C323.3,4.73 322.99,5.81 322.99,7.05 C322.99,8.37 323.295,9.425 323.905,10.215 C324.515,11.005 325.245,11.595 326.095,11.985 C326.945,12.375 328.05,12.77 329.41,13.17 C330.41,13.45 331.195,13.705 331.765,13.935 C332.335,14.165 332.81,14.48 333.19,14.88 C333.57,15.28 333.76,15.79 333.76,16.41 C333.76,17.17 333.48,17.785 332.92,18.255 C332.36,18.725 331.59,18.96 330.61,18.96 C329.65,18.96 328.895,18.71 328.345,18.21 C327.795,17.71 327.49,17.03 327.43,16.17 L327.43,16.17 L322.93,16.17 C322.95,17.45 323.3,18.56 323.98,19.5 C324.66,20.44 325.585,21.16 326.755,21.66 C327.925,22.16 329.24,22.41 330.7,22.41 Z M345.94,30.12 L345.94,19.83 C346.52,20.59 347.275,21.22 348.205,21.72 C349.135,22.22 350.21,22.47 351.43,22.47 C352.85,22.47 354.135,22.11 355.285,21.39 C356.435,20.67 357.345,19.655 358.015,18.345 C358.685,17.035 359.02,15.53 359.02,13.83 C359.02,12.13 358.685,10.635 358.015,9.345 C357.345,8.055 356.435,7.06 355.285,6.36 C354.135,5.66 352.85,5.31 351.43,5.31 C350.21,5.31 349.125,5.565 348.175,6.075 C347.225,6.585 346.48,7.22 345.94,7.98 L345.94,7.98 L345.94,5.58 L341.74,5.58 L341.74,30.12 L345.94,30.12 Z M350.32,18.78 C349.56,18.78 348.845,18.585 348.175,18.195 C347.505,17.805 346.965,17.24 346.555,16.5 C346.145,15.76 345.94,14.89 345.94,13.89 C345.94,12.89 346.145,12.02 346.555,11.28 C346.965,10.54 347.505,9.975 348.175,9.585 C348.845,9.195 349.56,9 350.32,9 C351.1,9 351.825,9.19 352.495,9.57 C353.165,9.95 353.705,10.505 354.115,11.235 C354.525,11.965 354.73,12.83 354.73,13.83 C354.73,14.85 354.525,15.73 354.115,16.47 C353.705,17.21 353.165,17.78 352.495,18.18 C351.825,18.58 351.1,18.78 350.32,18.78 Z M369.46,22.47 C371.08,22.47 372.545,22.115 373.855,21.405 C375.165,20.695 376.205,19.69 376.975,18.39 C377.745,17.09 378.13,15.59 378.13,13.89 C378.13,12.19 377.755,10.69 377.005,9.39 C376.255,8.09 375.23,7.085 373.93,6.375 C372.63,5.665 371.18,5.31 369.58,5.31 C367.98,5.31 366.53,5.665 365.23,6.375 C363.93,7.085 362.905,8.09 362.155,9.39 C361.405,10.69 361.03,12.19 361.03,13.89 C361.03,15.59 361.395,17.09 362.125,18.39 C362.855,19.69 363.86,20.695 365.14,21.405 C366.42,22.115 367.86,22.47 369.46,22.47 Z M369.46,18.81 C368.26,18.81 367.265,18.385 366.475,17.535 C365.685,16.685 365.29,15.47 365.29,13.89 C365.29,12.31 365.695,11.095 366.505,10.245 C367.315,9.395 368.32,8.97 369.52,8.97 C370.72,8.97 371.735,9.395 372.565,10.245 C373.395,11.095 373.81,12.31 373.81,13.89 C373.81,14.95 373.61,15.85 373.21,16.59 C372.81,17.33 372.275,17.885 371.605,18.255 C370.935,18.625 370.22,18.81 369.46,18.81 Z M385.42,22.2 L385.42,15.12 L391.06,22.2 L396.52,22.2 L389.14,13.92 L396.46,5.58 L391,5.58 L385.42,12.63 L385.42,-5.5067062e-14 L381.22,-5.5067062e-14 L381.22,22.2 L385.42,22.2 Z M406,22.47 C407.98,22.47 409.65,21.955 411.01,20.925 C412.37,19.895 413.29,18.58 413.77,16.98 L413.77,16.98 L409.24,16.98 C408.58,18.32 407.47,18.99 405.91,18.99 C404.83,18.99 403.92,18.65 403.18,17.97 C402.44,17.29 402.02,16.35 401.92,15.15 L401.92,15.15 L414.07,15.15 C414.15,14.67 414.19,14.13 414.19,13.53 C414.19,11.91 413.845,10.475 413.155,9.225 C412.465,7.975 411.495,7.01 410.245,6.33 C408.995,5.65 407.58,5.31 406,5.31 C404.36,5.31 402.91,5.66 401.65,6.36 C400.39,7.06 399.41,8.06 398.71,9.36 C398.01,10.66 397.66,12.17 397.66,13.89 C397.66,15.59 398.015,17.09 398.725,18.39 C399.435,19.69 400.425,20.695 401.695,21.405 C402.965,22.115 404.4,22.47 406,22.47 Z M409.84,12.33 L401.95,12.33 C402.11,11.21 402.545,10.335 403.255,9.705 C403.965,9.075 404.84,8.76 405.88,8.76 C406.98,8.76 407.91,9.085 408.67,9.735 C409.43,10.385 409.82,11.25 409.84,12.33 L409.84,12.33 Z" id="HubandSpoke" fill="#3C526A" fill-rule="nonzero"></path>
            <line x1="187" y1="147" x2="418" y2="406" id="Line" stroke="#979797" stroke-width="4" stroke-linecap="square"></line>
            <line x1="414.665222" y1="144.101121" x2="190.334778" y2="408.898879" id="Line" stroke="#979797" stroke-width="4" stroke-linecap="square"></line>
            <line x1="187" y1="145" x2="418" y2="404" id="Line" stroke="#979797" stroke-width="4" stroke-linecap="square" transform="translate(302.500000, 274.500000) rotate(-48.270488) translate(-302.500000, -274.500000) "></line>
            <line x1="183.34703" y1="138.392359" x2="421.65297" y2="405.583867" id="Line" stroke="#979797" stroke-width="4" stroke-linecap="square" transform="translate(302.500000, 271.988113) rotate(41.729512) translate(-302.500000, -271.988113) "></line>
            <g id="A" transform="translate(279.000000, 52.000000)">
                <circle id="Oval" stroke="#3C526A" stroke-width="3" fill="#FFFFFF" cx="22.5" cy="22.5" r="21"></circle>
                <text font-family="Poppins-SemiBold, Poppins" font-size="24" font-weight="500" fill="#3C526A">
                    <tspan x="14" y="31">A</tspan>
                </text>
            </g>
            <g id="B" transform="translate(401.000000, 107.000000)">
                <circle id="Oval" stroke="#3C526A" stroke-width="3" fill="#FFFFFF" cx="22.5" cy="22.5" r="21"></circle>
                <text font-family="Poppins-SemiBold, Poppins" font-size="24" font-weight="500" fill="#3C526A">
                    <tspan x="15" y="31">B</tspan>
                </text>
            </g>
            <g id="C" transform="translate(478.000000, 251.000000)">
                <circle id="Oval" stroke="#3C526A" stroke-width="3" fill="#FFFFFF" cx="22.5" cy="22.5" r="21"></circle>
                <text font-family="Poppins-SemiBold, Poppins" font-size="24" font-weight="500" fill="#3C526A">
                    <tspan x="14" y="31">C</tspan>
                </text>
            </g>
            <g id="D" transform="translate(405.000000, 397.000000)">
                <circle id="Oval" stroke="#3C526A" stroke-width="3" fill="#FFFFFF" cx="22.5" cy="22.5" r="21"></circle>
                <text font-family="Poppins-SemiBold, Poppins" font-size="24" font-weight="500" fill="#3C526A">
                    <tspan x="15" y="31">D</tspan>
                </text>
            </g>
            <g id="E" transform="translate(279.000000, 445.000000)">
                <circle id="Oval" stroke="#3C526A" stroke-width="3" fill="#FFFFFF" cx="22.5" cy="22.5" r="21"></circle>
                <text font-family="Poppins-SemiBold, Poppins" font-size="24" font-weight="500" fill="#3C526A">
                    <tspan x="16" y="31">E</tspan>
                </text>
            </g>
            <g id="F" transform="translate(152.000000, 397.000000)">
                <circle id="Oval" stroke="#3C526A" stroke-width="3" fill="#FFFFFF" cx="22.5" cy="22.5" r="21"></circle>
                <text font-family="Poppins-SemiBold, Poppins" font-size="24" font-weight="500" fill="#3C526A">
                    <tspan x="16" y="31">F</tspan>
                </text>
            </g>
            <g id="G" transform="translate(82.000000, 251.000000)">
                <circle id="Oval" stroke="#3C526A" stroke-width="3" fill="#FFFFFF" cx="22.5" cy="22.5" r="21"></circle>
                <text font-family="Poppins-SemiBold, Poppins" font-size="24" font-weight="500" fill="#3C526A">
                    <tspan x="13" y="31">G</tspan>
                </text>
            </g>
            <g id="G" transform="translate(152.000000, 107.000000)">
                <circle id="Oval" stroke="#3C526A" stroke-width="3" fill="#FFFFFF" cx="22.5" cy="22.5" r="21"></circle>
                <text id="H" font-family="Poppins-SemiBold, Poppins" font-size="24" font-weight="500" fill="#3C526A">
                    <tspan x="13" y="31">H</tspan>
                </text>
            </g>
            <circle id="Oval" stroke="#3C526A" stroke-width="4" fill="#FFFFFF" cx="301" cy="274" r="40"></circle>
            <text id="Hub" font-family="Poppins-SemiBold, Poppins" font-size="24" font-weight="500" fill="#3C526A">
                <tspan x="277" y="282">Hub</tspan>
            </text>
        </g>
    </g>
</svg>