<?xml version="1.0" encoding="UTF-8"?>
<svg width="100px" height="45px" viewBox="0 0 100 45" version="1.1" xmlns="http://www.w3.org/2000/svg" xmlns:xlink="http://www.w3.org/1999/xlink">
    <title>Group 6</title>
    <g id="Page-1" stroke="none" stroke-width="1" fill="none" fill-rule="evenodd">
        <g id="Artboard-Copy-8" transform="translate(-997.000000, -1405.000000)">
            <g id="Group-5" transform="translate(949.000000, 1162.000000)">
                <g id="Group-6" transform="translate(48.000000, 243.440000)">
                    <rect id="Rectangle" fill="#2F2A2B" x="0" y="0" width="100" height="44" rx="9"></rect>
                    <path d="M21.44,26.376 L21.44,25.044 L18.68,25.044 L18.68,18 L17,18 L17,26.376 L21.44,26.376 Z M25.412,26.484 C26.204,26.484 26.872,26.278 27.416,25.866 C27.96,25.454 28.328,24.928 28.52,24.288 L28.52,24.288 L26.708,24.288 C26.444,24.824 26,25.092 25.376,25.092 C24.944,25.092 24.58,24.956 24.284,24.684 C23.988,24.412 23.82,24.036 23.78,23.556 L23.78,23.556 L28.64,23.556 C28.672,23.364 28.688,23.148 28.688,22.908 C28.688,22.26 28.55,21.686 28.274,21.186 C27.998,20.686 27.61,20.3 27.11,20.028 C26.61,19.756 26.044,19.62 25.412,19.62 C24.756,19.62 24.176,19.76 23.672,20.04 C23.168,20.32 22.776,20.72 22.496,21.24 C22.216,21.76 22.076,22.364 22.076,23.052 C22.076,23.732 22.218,24.332 22.502,24.852 C22.786,25.372 23.182,25.774 23.69,26.058 C24.198,26.342 24.772,26.484 25.412,26.484 Z M26.948,22.428 L23.792,22.428 C23.856,21.98 24.03,21.63 24.314,21.378 C24.598,21.126 24.948,21 25.364,21 C25.804,21 26.176,21.13 26.48,21.39 C26.784,21.65 26.94,21.996 26.948,22.428 L26.948,22.428 Z M32.504,26.484 C33,26.484 33.438,26.382 33.818,26.178 C34.198,25.974 34.496,25.716 34.712,25.404 L34.712,25.404 L34.712,26.376 L36.404,26.376 L36.404,19.728 L34.712,19.728 L34.712,20.676 C34.488,20.372 34.19,20.12 33.818,19.92 C33.446,19.72 33.012,19.62 32.516,19.62 C31.948,19.62 31.434,19.76 30.974,20.04 C30.514,20.32 30.15,20.72 29.882,21.24 C29.614,21.76 29.48,22.356 29.48,23.028 C29.48,23.708 29.614,24.31 29.882,24.834 C30.15,25.358 30.514,25.764 30.974,26.052 C31.434,26.34 31.944,26.484 32.504,26.484 Z M32.948,25.008 C32.644,25.008 32.358,24.928 32.09,24.768 C31.822,24.608 31.606,24.378 31.442,24.078 C31.278,23.778 31.196,23.428 31.196,23.028 C31.196,22.628 31.278,22.282 31.442,21.99 C31.606,21.698 31.82,21.476 32.084,21.324 C32.348,21.172 32.636,21.096 32.948,21.096 C33.26,21.096 33.552,21.174 33.824,21.33 C34.096,21.486 34.312,21.71 34.472,22.002 C34.632,22.294 34.712,22.644 34.712,23.052 C34.712,23.46 34.632,23.81 34.472,24.102 C34.312,24.394 34.096,24.618 33.824,24.774 C33.552,24.93 33.26,25.008 32.948,25.008 Z M39.728,26.376 L39.728,23.064 C39.728,22.448 39.862,22.016 40.13,21.768 C40.398,21.52 40.796,21.396 41.324,21.396 L41.324,21.396 L41.768,21.396 L41.768,19.632 C41.32,19.632 40.922,19.732 40.574,19.932 C40.226,20.132 39.944,20.408 39.728,20.76 L39.728,20.76 L39.728,19.728 L38.048,19.728 L38.048,26.376 L39.728,26.376 Z M44.576,26.376 L44.576,22.704 C44.576,22.176 44.71,21.77 44.978,21.486 C45.246,21.202 45.612,21.06 46.076,21.06 C46.532,21.06 46.892,21.202 47.156,21.486 C47.42,21.77 47.552,22.176 47.552,22.704 L47.552,22.704 L47.552,26.376 L49.232,26.376 L49.232,22.476 C49.232,21.58 48.988,20.882 48.5,20.382 C48.012,19.882 47.372,19.632 46.58,19.632 C46.164,19.632 45.782,19.714 45.434,19.878 C45.086,20.042 44.8,20.268 44.576,20.556 L44.576,20.556 L44.576,19.728 L42.896,19.728 L42.896,26.376 L44.576,26.376 Z M55.364,26.376 L55.364,20.928 L57.62,26.376 L58.892,26.376 L61.136,20.928 L61.136,26.376 L62.816,26.376 L62.816,18 L60.92,18 L58.256,24.228 L55.592,18 L53.684,18 L53.684,26.376 L55.364,26.376 Z M67.424,26.484 C68.072,26.484 68.658,26.342 69.182,26.058 C69.706,25.774 70.122,25.372 70.43,24.852 C70.738,24.332 70.892,23.732 70.892,23.052 C70.892,22.372 70.742,21.772 70.442,21.252 C70.142,20.732 69.732,20.33 69.212,20.046 C68.692,19.762 68.112,19.62 67.472,19.62 C66.832,19.62 66.252,19.762 65.732,20.046 C65.212,20.33 64.802,20.732 64.502,21.252 C64.202,21.772 64.052,22.372 64.052,23.052 C64.052,23.732 64.198,24.332 64.49,24.852 C64.782,25.372 65.184,25.774 65.696,26.058 C66.208,26.342 66.784,26.484 67.424,26.484 Z M67.424,25.02 C66.944,25.02 66.546,24.85 66.23,24.51 C65.914,24.17 65.756,23.684 65.756,23.052 C65.756,22.42 65.918,21.934 66.242,21.594 C66.566,21.254 66.968,21.084 67.448,21.084 C67.928,21.084 68.334,21.254 68.666,21.594 C68.998,21.934 69.164,22.42 69.164,23.052 C69.164,23.476 69.084,23.836 68.924,24.132 C68.764,24.428 68.55,24.65 68.282,24.798 C68.014,24.946 67.728,25.02 67.424,25.02 Z M73.808,26.376 L73.808,23.064 C73.808,22.448 73.942,22.016 74.21,21.768 C74.478,21.52 74.876,21.396 75.404,21.396 L75.404,21.396 L75.848,21.396 L75.848,19.632 C75.4,19.632 75.002,19.732 74.654,19.932 C74.306,20.132 74.024,20.408 73.808,20.76 L73.808,20.76 L73.808,19.728 L72.128,19.728 L72.128,26.376 L73.808,26.376 Z M79.88,26.484 C80.672,26.484 81.34,26.278 81.884,25.866 C82.428,25.454 82.796,24.928 82.988,24.288 L82.988,24.288 L81.176,24.288 C80.912,24.824 80.468,25.092 79.844,25.092 C79.412,25.092 79.048,24.956 78.752,24.684 C78.456,24.412 78.288,24.036 78.248,23.556 L78.248,23.556 L83.108,23.556 C83.14,23.364 83.156,23.148 83.156,22.908 C83.156,22.26 83.018,21.686 82.742,21.186 C82.466,20.686 82.078,20.3 81.578,20.028 C81.078,19.756 80.512,19.62 79.88,19.62 C79.224,19.62 78.644,19.76 78.14,20.04 C77.636,20.32 77.244,20.72 76.964,21.24 C76.684,21.76 76.544,22.364 76.544,23.052 C76.544,23.732 76.686,24.332 76.97,24.852 C77.254,25.372 77.65,25.774 78.158,26.058 C78.666,26.342 79.24,26.484 79.88,26.484 Z M81.416,22.428 L78.26,22.428 C78.324,21.98 78.498,21.63 78.782,21.378 C79.066,21.126 79.416,21 79.832,21 C80.272,21 80.644,21.13 80.948,21.39 C81.252,21.65 81.408,21.996 81.416,22.428 L81.416,22.428 Z" id="LearnMore" fill="#FFFFFF" fill-rule="nonzero"></path>
                </g>
            </g>
        </g>
    </g>
</svg>