<?xml version="1.0" encoding="UTF-8"?>
<svg width="786px" height="211px" viewBox="0 0 786 211" version="1.1" xmlns="http://www.w3.org/2000/svg" xmlns:xlink="http://www.w3.org/1999/xlink">
    <title>Group 49</title>
    <g id="Page-1" stroke="none" stroke-width="1" fill="none" fill-rule="evenodd">
        <g id="Group-49" fill="#FFFFFF">
            <circle id="Oval" cx="71" cy="13" r="13"></circle>
            <circle id="Oval" cx="54" cy="68" r="13"></circle>
            <path d="M195.742,160.966 C204.85,160.966 212.118,158.367 217.546,153.169 C222.974,147.971 225.688,140.68 225.688,131.296 L225.688,131.296 L225.688,63.676 L206.23,63.676 L206.23,131.296 C206.23,135.16 205.31,138.196 203.47,140.404 C201.63,142.612 198.962,143.716 195.466,143.716 C191.878,143.716 189.141,142.566 187.255,140.266 C185.369,137.966 184.38,134.746 184.288,130.606 L184.288,130.606 L164.968,130.606 C164.968,140.174 167.797,147.626 173.455,152.962 C179.113,158.298 186.542,160.966 195.742,160.966 Z M275.985764,161.242 C281.689764,161.242 286.726764,160.069 291.096764,157.723 C295.466764,155.377 298.893764,152.41 301.377764,148.822 L301.377764,148.822 L301.377764,160 L320.835764,160 L320.835764,83.548 L301.377764,83.548 L301.377764,94.45 C298.801764,90.954 295.374764,88.056 291.096764,85.756 C286.818764,83.456 281.827764,82.306 276.123764,82.306 C269.591764,82.306 263.680764,83.916 258.390764,87.136 C253.100764,90.356 248.914764,94.956 245.832764,100.936 C242.750764,106.916 241.209764,113.77 241.209764,121.498 C241.209764,129.318 242.750764,136.241 245.832764,142.267 C248.914764,148.293 253.100764,152.962 258.390764,156.274 C263.680764,159.586 269.545764,161.242 275.985764,161.242 Z M281.091764,144.268 C277.595764,144.268 274.306764,143.348 271.224764,141.508 C268.142764,139.668 265.658764,137.023 263.772764,133.573 C261.886764,130.123 260.943764,126.098 260.943764,121.498 C260.943764,116.898 261.886764,112.919 263.772764,109.561 C265.658764,106.203 268.119764,103.65 271.155764,101.902 C274.191764,100.154 277.503764,99.28 281.091764,99.28 C284.679764,99.28 288.037764,100.177 291.165764,101.971 C294.293764,103.765 296.777764,106.341 298.617764,109.699 C300.457764,113.057 301.377764,117.082 301.377764,121.774 C301.377764,126.466 300.457764,130.491 298.617764,133.849 C296.777764,137.207 294.293764,139.783 291.165764,141.577 C288.037764,143.371 284.679764,144.268 281.091764,144.268 Z M370.581528,161.242 C379.965528,161.242 387.785528,158.804 394.041528,153.928 C400.297528,149.052 404.483528,142.474 406.599528,134.194 L406.599528,134.194 L385.761528,134.194 C383.369528,141.186 378.263528,144.682 370.443528,144.682 C364.923528,144.682 360.553528,142.681 357.333528,138.679 C354.113528,134.677 352.503528,129.042 352.503528,121.774 C352.503528,114.414 354.113528,108.733 357.333528,104.731 C360.553528,100.729 364.923528,98.728 370.443528,98.728 C374.307528,98.728 377.550528,99.671 380.172528,101.557 C382.794528,103.443 384.657528,106.042 385.761528,109.354 L385.761528,109.354 L406.599528,109.354 C404.483528,100.798 400.320528,94.151 394.110528,89.413 C387.900528,84.675 380.057528,82.306 370.581528,82.306 C363.221528,82.306 356.689528,83.939 350.985528,87.205 C345.281528,90.471 340.819528,95.071 337.599528,101.005 C334.379528,106.939 332.769528,113.862 332.769528,121.774 C332.769528,129.686 334.379528,136.609 337.599528,142.543 C340.819528,148.477 345.281528,153.077 350.985528,156.343 C356.689528,159.609 363.221528,161.242 370.581528,161.242 Z M438.129292,160 L438.129292,127.432 L464.073292,160 L489.189292,160 L455.241292,121.912 L488.913292,83.548 L463.797292,83.548 L438.129292,115.978 L438.129292,57.88 L418.809292,57.88 L418.809292,160 L438.129292,160 Z M531.483056,160 L531.483056,74.026 L557.703056,74.026 L557.703056,63.814 L492.567056,63.814 L492.567056,74.026 L518.925056,74.026 L518.925056,160 L531.483056,160 Z M583.71282,160 L583.71282,118.876 C583.71282,103.604 590.75082,95.968 604.82682,95.968 L604.82682,95.968 L608.13882,95.968 L608.13882,82.996 C602.25082,82.996 597.25982,84.192 593.16582,86.584 C589.07182,88.976 585.92082,92.334 583.71282,96.658 L583.71282,96.658 L583.71282,84.376 L571.15482,84.376 L571.15482,160 L583.71282,160 Z M627.110584,72.094 C629.410584,72.094 631.365584,71.266 632.975584,69.61 C634.585584,67.954 635.390584,65.93 635.390584,63.538 C635.390584,61.146 634.585584,59.122 632.975584,57.466 C631.365584,55.81 629.410584,54.982 627.110584,54.982 C624.718584,54.982 622.694584,55.81 621.038584,57.466 C619.382584,59.122 618.554584,61.146 618.554584,63.538 C618.554584,65.93 619.382584,67.954 621.038584,69.61 C622.694584,71.266 624.718584,72.094 627.110584,72.094 Z M633.182584,160 L633.182584,84.376 L620.624584,84.376 L620.624584,160 L633.182584,160 Z M665.126348,195.88 L665.126348,146.062 C667.702348,150.386 671.451348,153.997 676.373348,156.895 C681.295348,159.793 686.976348,161.242 693.416348,161.242 C700.132348,161.242 706.227348,159.586 711.701348,156.274 C717.175348,152.962 721.476348,148.316 724.604348,142.336 C727.732348,136.356 729.296348,129.548 729.296348,121.912 C729.296348,114.184 727.732348,107.399 724.604348,101.557 C721.476348,95.715 717.175348,91.184 711.701348,87.964 C706.227348,84.744 700.132348,83.134 693.416348,83.134 C686.884348,83.134 681.157348,84.583 676.235348,87.481 C671.313348,90.379 667.610348,93.99 665.126348,98.314 L665.126348,98.314 L665.126348,84.376 L652.568348,84.376 L652.568348,195.88 L665.126348,195.88 Z M690.794348,150.202 C686.194348,150.202 681.939348,149.075 678.029348,146.821 C674.119348,144.567 670.991348,141.301 668.645348,137.023 C666.299348,132.745 665.126348,127.754 665.126348,122.05 C665.126348,116.438 666.299348,111.493 668.645348,107.215 C670.991348,102.937 674.119348,99.671 678.029348,97.417 C681.939348,95.163 686.194348,94.036 690.794348,94.036 C695.486348,94.036 699.787348,95.14 703.697348,97.348 C707.607348,99.556 710.712348,102.776 713.012348,107.008 C715.312348,111.24 716.462348,116.208 716.462348,121.912 C716.462348,127.708 715.312348,132.745 713.012348,137.023 C710.712348,141.301 707.607348,144.567 703.697348,146.821 C699.787348,149.075 695.486348,150.202 690.794348,150.202 Z" id="JackTrip" fill-rule="nonzero"></path>
            <path d="M752.2,80.472 L752.136,60.888 L757.96,60.888 L757.96,57.944 L742.728,57.944 L742.728,60.888 L748.552,60.888 L748.488,80.472 L752.2,80.472 Z M764.808,80.472 L764.808,63.064 L772.296,80.472 L774.984,80.472 L782.536,63.256 L782.6,80.472 L785.992,80.472 L785.992,57.944 L781.64,57.944 L773.704,76.12 L766.024,57.944 L761.48,57.944 L761.48,80.472 L764.808,80.472 Z" id="™" fill-rule="nonzero"></path>
            <g id="Group-48" transform="translate(0.000000, 13.000000)" fill-rule="nonzero">
                <path d="M57.1709775,0.66774498 C60.1165943,-0.850150216 63.7349857,0.307246805 65.2528809,3.25286358 C66.7707761,6.19848036 65.613379,9.81687174 62.6677623,11.3347669 L60.4406524,12.4880598 C47.2791207,19.3380377 37.7393315,24.9306936 31.8997692,29.1960204 C23.896497,35.0417621 20.5663784,45.3547553 24.213623,54.300499 L24.3972163,54.7372512 C26.227112,58.9753796 31.8495095,69.0501694 42.0009747,86.4792846 L48.0163918,96.7666386 L61.4585072,119.702015 C70.6442492,135.414014 71.3685301,136.841875 72.6424419,139.72805 L72.695127,139.847521 C76.5246364,148.538377 74.1222697,156.511666 66.1410401,161.816525 C63.3813234,163.650817 59.6571434,162.900612 57.8228513,160.140895 C56.033298,157.448488 56.7037063,153.838092 59.300145,151.960254 L59.4984809,151.822706 C62.5754288,149.777561 63.1461912,148.082436 61.8171556,144.92576 L61.4934646,144.192912 C60.6236409,142.278033 59.4408583,140.08382 54.0685246,130.8521 L32.2155441,93.5225304 C20.8565316,74.0442939 15.0490731,63.6073705 13.1016793,58.8309191 C7.30317212,44.6086871 12.5037763,28.5030157 24.8217831,19.5057102 L25.5627462,18.9706254 C32.3685146,14.1098732 42.8770035,8.03352136 57.1709775,0.66774498 Z" id="Path-25"></path>
                <path d="M49.3275272,49.060835 C52.1423408,47.3122675 55.8416921,48.1766309 57.5902596,50.9914445 C74.3554776,77.9798023 89.6169053,103.791462 103.374676,128.42741 C106.687602,134.359843 109.072092,144.703377 108.331784,154.67653 C107.282745,168.808792 100.446715,181.370493 86.812678,190.601522 L86.0530518,191.108537 L85.8004802,191.243179 C67.5097088,200.993763 50.6499561,199.234327 36.3385245,188.852005 C27.1728026,182.202672 20.055837,172.789948 15.637141,164.05856 L15.3465658,163.477515 C13.9528203,160.656789 12.6529128,160.304002 8.57848428,162.241883 C5.5860058,163.665167 2.00632325,162.393083 0.583039535,159.400605 C-0.840244183,156.408126 0.431839514,152.828444 3.424318,151.40516 C12.9980538,146.851696 21.4257455,149.052753 25.9414655,157.83739 L26.1049244,158.161716 C29.7109359,165.459728 35.830063,173.657979 43.3850417,179.138788 C53.9839429,186.82783 65.794993,188.135204 79.675971,180.906516 L79.9004011,180.789256 L80.1580212,180.615293 C90.4425785,173.626329 95.4243695,164.629659 96.3249059,154.281978 L96.3647086,153.788213 C96.9281837,146.197285 95.0823451,138.190333 92.8976571,134.278227 L90.3967142,129.816417 C77.3896145,106.696345 63.056312,82.5317894 47.3969177,57.3235674 C45.6483502,54.5087538 46.5127135,50.8094025 49.3275272,49.060835 Z" id="Path-26"></path>
            </g>
        </g>
    </g>
</svg>