<?xml version="1.0" encoding="UTF-8"?>
<svg width="252px" height="118px" viewBox="0 0 252 118" version="1.1" xmlns="http://www.w3.org/2000/svg" xmlns:xlink="http://www.w3.org/1999/xlink">
    <title>NowNet_Arts_Logo_Horiz_WHITE</title>
    <g id="NowNet_Arts_Logo_Horiz_WHITE" stroke="none" stroke-width="1" fill="none" fill-rule="evenodd">
        <rect id="Rectangle" fill="#000000" x="0" y="0" width="252" height="118"></rect>
        <polyline id="Fill-1" fill="#FFFFFE" points="122.585 32.27 125.551 32.27 125.551 54.106 122.524 54.106 110.046 37.198 110.046 54.106 107.05 54.106 107.05 32.27 110.076 32.27 122.585 49.209 122.585 32.27"></polyline>
        <path d="M135.104,39.554 C134.106,40.127 133.311,40.907 132.719,41.893 C132.125,42.882 131.829,43.968 131.829,45.153 C131.829,46.339 132.125,47.436 132.719,48.445 C133.311,49.454 134.106,50.248 135.104,50.83 C136.104,51.414 137.184,51.704 138.35,51.704 C139.514,51.704 140.584,51.414 141.561,50.83 C142.54,50.248 143.315,49.454 143.885,48.445 C144.458,47.436 144.745,46.339 144.745,45.153 C144.745,43.968 144.458,42.882 143.885,41.893 C143.315,40.907 142.54,40.127 141.561,39.554 C140.584,38.983 139.514,38.696 138.35,38.696 C137.184,38.696 136.104,38.983 135.104,39.554 Z M143.09,37.278 C144.545,38.077 145.69,39.168 146.522,40.553 C147.354,41.937 147.77,43.469 147.77,45.153 C147.77,46.838 147.35,48.382 146.508,49.787 C145.665,51.19 144.522,52.297 143.075,53.11 C141.629,53.92 140.034,54.327 138.288,54.327 C136.54,54.327 134.944,53.92 133.499,53.11 C132.051,52.297 130.915,51.19 130.083,49.787 C129.25,48.382 128.834,46.838 128.834,45.153 C128.834,43.469 129.25,41.937 130.083,40.553 C130.915,39.168 132.051,38.077 133.499,37.278 C134.944,36.475 136.54,36.077 138.288,36.077 C140.034,36.077 141.633,36.475 143.09,37.278 L143.09,37.278 Z" id="Fill-2" fill="#FFFFFE"></path>
        <polyline id="Fill-3" fill="#FFFFFE" points="148.491 36.262 151.641 36.262 156.133 50.862 160.563 36.262 163.465 36.262 167.926 50.862 172.354 36.262 175.381 36.262 169.329 54.106 166.303 54.106 161.967 40.069 157.538 54.106 154.512 54.106 148.491 36.262"></polyline>
        <polyline id="Fill-4" fill="#FFFFFE" points="193.819 32.27 196.78 32.27 196.78 54.106 193.756 54.106 181.278 37.198 181.278 54.106 178.282 54.106 178.282 32.27 181.309 32.27 193.819 49.209 193.819 32.27"></polyline>
        <polyline id="Fill-5" fill="#FFFFFE" points="200.651 36.262 213.444 36.262 213.444 38.822 203.584 38.822 203.584 43.813 212.413 43.813 212.413 46.369 203.584 46.369 203.584 51.549 213.754 51.549 213.754 54.106 200.651 54.106 200.651 36.262"></polyline>
        <polyline id="Fill-6" fill="#FFFFFE" points="215.393 36.262 229.649 36.262 229.649 38.854 224.002 38.854 224.002 54.106 221.071 54.106 221.071 38.854 215.393 38.854 215.393 36.262"></polyline>
        <path d="M110.638,77.284 L119.81,77.284 L115.194,66.677 L110.638,77.284 Z M123.272,85.301 L120.964,79.998 L109.454,79.998 L107.176,85.301 L104.026,85.301 L113.728,63.465 L116.847,63.465 L126.517,85.301 L123.272,85.301 L123.272,85.301 Z" id="Fill-7" fill="#FFFFFE"></path>
        <path d="M136.227,77.346 C137.622,77.346 138.698,77.032 139.458,76.395 C140.215,75.762 140.596,74.831 140.596,73.603 C140.596,72.44 140.215,71.551 139.458,70.936 C138.698,70.325 137.622,70.017 136.227,70.017 L131.954,70.017 L131.954,77.346 L136.227,77.346 Z M140.344,85.301 L137.04,79.843 C136.874,79.864 136.602,79.875 136.227,79.875 L131.954,79.875 L131.954,85.301 L129.022,85.301 L129.022,67.457 L136.227,67.457 C138.514,67.457 140.284,67.989 141.532,69.05 C142.78,70.11 143.401,71.608 143.401,73.542 C143.401,74.975 143.084,76.183 142.45,77.161 C141.819,78.138 140.895,78.856 139.69,79.311 L143.715,85.301 L140.344,85.301 L140.344,85.301 Z" id="Fill-8" fill="#FFFFFE"></path>
        <polyline id="Fill-9" fill="#FFFFFE" points="145.014 67.457 159.268 67.457 159.268 70.047 153.622 70.047 153.622 85.301 150.69 85.301 150.69 70.047 145.014 70.047 145.014 67.457"></polyline>
        <path d="M170.083,70.297 C169.137,70.005 168.301,69.862 167.573,69.862 C166.616,69.862 165.856,70.043 165.295,70.407 C164.735,70.77 164.454,71.276 164.454,71.92 C164.454,72.73 164.786,73.339 165.45,73.745 C166.116,74.15 167.135,74.55 168.508,74.946 C169.758,75.34 170.754,75.71 171.504,76.052 C172.252,76.395 172.895,76.916 173.436,77.613 C173.977,78.309 174.249,79.219 174.249,80.342 C174.249,81.943 173.625,83.201 172.377,84.117 C171.127,85.032 169.504,85.489 167.51,85.489 C166.178,85.489 164.87,85.235 163.581,84.724 C162.29,84.215 161.167,83.535 160.211,82.682 L161.459,80.217 C162.29,81.028 163.266,81.667 164.391,82.137 C165.514,82.604 166.575,82.836 167.573,82.836 C168.676,82.836 169.538,82.63 170.163,82.214 C170.786,81.799 171.1,81.225 171.1,80.498 C171.1,79.915 170.917,79.433 170.551,79.047 C170.188,78.662 169.729,78.36 169.178,78.142 C168.627,77.924 167.883,77.681 166.948,77.41 C165.721,77.037 164.735,76.682 163.987,76.348 C163.239,76.018 162.596,75.512 162.065,74.834 C161.538,74.161 161.272,73.271 161.272,72.17 C161.272,70.651 161.864,69.446 163.051,68.549 C164.235,67.657 165.815,67.209 167.792,67.209 C168.915,67.209 170.016,67.37 171.1,67.692 C172.178,68.014 173.125,68.456 173.938,69.018 L172.782,71.512 C171.93,70.994 171.03,70.59 170.083,70.297" id="Fill-10" fill="#FFFFFE"></path>
        <path d="M91.606,90.351 C91.598,90.497 91.371,93.94 87.964,93.94 C85.335,93.94 82.915,90.805 80.78,88.039 L80.302,87.421 C80.276,87.389 80.241,87.343 80.204,87.295 C84.419,80.653 88.982,70.386 91.609,57.828 C91.61,74.018 91.61,89.986 91.606,90.351 Z M73.216,92.531 C72.123,93.464 70.739,93.979 69.319,93.979 C67.439,93.979 65.701,93.107 64.424,91.523 C64.006,91.004 62.686,88.681 61.157,85.992 C51.159,68.404 40.989,52.128 34.327,52.128 C30.896,52.128 28.394,55.433 26.529,60.173 C28.981,49.54 32.939,40.303 36.589,33.974 C42.489,41.682 71.379,79.424 77.499,87.391 C75.931,89.724 74.455,91.473 73.216,92.531 Z M24.139,60.661 L24.139,28.032 C24.14,27.994 24.322,24.322 27.778,24.322 C29.952,24.322 30.709,25.334 32.999,28.847 C33.613,29.789 34.309,30.85 35.162,32.066 C31.117,38.813 26.707,48.919 24.139,60.661 Z M42.913,25.661 C45.514,23.743 48.535,23.807 50.952,25.945 C52.58,27.384 55.789,32.85 59.188,38.637 C68.238,54.048 75.626,65.837 81.475,65.837 C85.143,65.837 87.782,61.637 89.727,55.9 C87.28,68.378 82.842,78.72 78.761,85.418 C71.487,75.946 42.032,37.463 37.809,31.948 C39.767,28.836 41.569,26.653 42.913,25.661 Z M93.815,36.669 L93.808,36.668 C93.808,29.662 93.807,23.936 93.807,23.218 C93.807,22.609 93.314,22.117 92.706,22.117 C92.098,22.117 91.605,22.61 91.605,23.218 C91.605,23.4 91.606,29.256 91.607,36.631 L91.548,37.03 C90.084,46.966 86.827,63.636 81.475,63.636 C76.421,63.636 67.192,47.921 61.086,37.523 C57.294,31.067 54.3,25.967 52.41,24.296 C49.25,21.499 45.011,21.377 41.606,23.89 C40.215,24.916 38.399,27.045 36.435,30.04 C35.839,29.169 35.316,28.37 34.843,27.644 C32.597,24.2 31.241,22.12 27.778,22.12 C22.929,22.12 21.937,26.779 21.937,28.026 L21.937,94.804 C21.937,95.411 22.43,95.905 23.038,95.905 C23.646,95.905 24.139,95.411 24.139,94.804 L24.139,81.416 L24.247,80.621 C27.187,58.891 31.352,54.329 34.327,54.329 C40.627,54.329 53.672,77.28 59.243,87.079 C61.227,90.569 62.203,92.275 62.71,92.904 C64.414,95.017 66.76,96.18 69.319,96.18 C71.263,96.18 73.155,95.478 74.646,94.204 C75.905,93.128 77.371,91.446 78.919,89.233 L79.038,89.385 C81.482,92.552 84.253,96.141 87.964,96.141 C92.637,96.141 93.776,91.899 93.807,90.408 C93.814,89.959 93.811,56.465 93.809,37.159 C93.809,36.994 93.815,36.833 93.815,36.669 L93.815,36.669 Z" id="Fill-11" fill="#FFFFFE"></path>
    </g>
</svg>