<?xml version="1.0" encoding="UTF-8"?>
<svg width="653px" height="233px" viewBox="0 0 653 233" version="1.1" xmlns="http://www.w3.org/2000/svg" xmlns:xlink="http://www.w3.org/1999/xlink">
    <title>Group 2</title>
    <g id="Page-1" stroke="none" stroke-width="1" fill="none" fill-rule="evenodd">
        <g id="Group-2" fill="#FFFFFE">
            <polyline id="Fill-1" points="316.701692 32 326 32 326 100 316.510459 100 277.392357 47.3464004 277.392357 100 268 100 268 32 277.486406 32 316.701692 84.7501374 316.701692 32"></polyline>
            <path d="M355.535805,55.0501918 C352.426278,56.8712329 349.94925,59.350137 348.104721,62.483726 C346.253961,65.6268493 345.331696,69.0782466 345.331696,72.844274 C345.331696,76.6134795 346.253961,80.0998356 348.104721,83.3065205 C349.94925,86.5132055 352.426278,89.0366027 355.535805,90.8862466 C358.651563,92.7422466 362.016582,93.6638904 365.649556,93.6638904 C369.276299,93.6638904 372.610161,92.7422466 375.654256,90.8862466 C378.704584,89.0366027 381.119297,86.5132055 382.895279,83.3065205 C384.680608,80.0998356 385.574831,76.6134795 385.574831,72.844274 C385.574831,69.0782466 384.680608,65.6268493 382.895279,62.483726 C381.119297,59.350137 378.704584,56.8712329 375.654256,55.0501918 C372.610161,53.2355068 369.276299,52.3233973 365.649556,52.3233973 C362.016582,52.3233973 358.651563,53.2355068 355.535805,55.0501918 Z M380.418251,47.8168767 C384.951679,50.3561644 388.519223,53.8234521 391.111534,58.2250959 C393.703845,62.6235616 395,67.4923836 395,72.844274 C395,78.1993425 393.691381,83.1063014 391.067913,87.5715068 C388.441329,92.0303562 384.880017,95.5484932 380.371515,98.132274 C375.866128,100.706521 370.896493,102 365.456379,102 C360.010034,102 355.037283,100.706521 350.535013,98.132274 C346.023395,95.5484932 342.483893,92.0303562 339.891582,87.5715068 C337.296155,83.1063014 336,78.1993425 336,72.844274 C336,67.4923836 337.296155,62.6235616 339.891582,58.2250959 C342.483893,53.8234521 346.023395,50.3561644 350.535013,47.8168767 C355.037283,45.2648767 360.010034,44 365.456379,44 C370.896493,44 375.878591,45.2648767 380.418251,47.8168767 L380.418251,47.8168767 Z" id="Fill-2"></path>
            <polyline id="Fill-3" points="399 45 408.957233 45 423.156564 91.6375252 437.159911 45 446.333209 45 460.434548 91.6375252 474.431573 45 484 45 464.869468 102 455.304202 102 441.597992 57.1608944 427.597806 102 418.03254 102 399 45"></polyline>
            <polyline id="Fill-4" points="540.715861 32 550 32 550 100 540.518326 100 501.39388 47.3464004 501.39388 100 492 100 492 32 501.49108 32 540.715861 84.7501374 540.715861 32"></polyline>
            <polyline id="Fill-5" points="561 45 601.029993 45 601.029993 53.1775387 570.177517 53.1775387 570.177517 69.1205447 597.803938 69.1205447 597.803938 77.285306 570.177517 77.285306 570.177517 93.8320444 602 93.8320444 602 102 561 102 561 45"></polyline>
            <polyline id="Fill-6" points="608 45 653 45 653 53.2797579 635.174874 53.2797579 635.174874 102 625.92298 102 625.92298 53.2797579 608 53.2797579 608 45"></polyline>
            <path d="M278.578898,174.034072 L307.125428,174.034072 L292.758792,141.002565 L278.578898,174.034072 Z M317.900405,199 L310.717087,182.485803 L274.893869,182.485803 L267.803922,199 L258,199 L288.196078,131 L297.903517,131 L328,199 L317.900405,199 L317.900405,199 Z" id="Fill-7"></path>
            <path d="M359.047369,173.588937 C363.509698,173.588937 366.95161,172.585911 369.382699,170.55111 C371.804192,168.529085 373.022936,165.555145 373.022936,161.632482 C373.022936,157.917451 371.804192,155.077673 369.382699,153.113147 C366.95161,151.161399 363.509698,150.177539 359.047369,150.177539 L345.378888,150.177539 L345.378888,173.588937 L359.047369,173.588937 Z M372.216838,199 L361.647996,181.565232 C361.116994,181.632313 360.24692,181.667451 359.047369,181.667451 L345.378888,181.667451 L345.378888,199 L336,199 L336,142 L359.047369,142 C366.36303,142 372.02491,143.699395 376.017015,147.088601 C380.00912,150.474613 381.995576,155.259751 381.995576,161.437626 C381.995576,166.015131 380.981556,169.873907 378.953515,172.997983 C376.935071,176.118863 373.979378,178.412408 370.124821,179.865837 L383,199 L372.216838,199 L372.216838,199 Z" id="Fill-8"></path>
            <polyline id="Fill-9" points="387 142 432 142 432 150.273369 414.17553 150.273369 414.17553 199 404.919181 199 404.919181 150.273369 387 150.273369 387 142"></polyline>
            <path d="M466.942299,150.797812 C463.977205,149.871335 461.356888,149.417615 459.075082,149.417615 C456.075509,149.417615 453.693404,149.991904 451.935033,151.146827 C450.179798,152.298578 449.299045,153.904048 449.299045,155.947374 C449.299045,158.517396 450.33965,160.449672 452.420858,161.737856 C454.508335,163.022867 457.702237,164.292013 462.005699,165.548468 C465.923636,166.798578 469.045448,167.972538 471.39621,169.057659 C473.740704,170.145952 475.756091,171.799015 477.451774,174.010503 C479.147457,176.218818 480,179.106127 480,182.669256 C480,187.749015 478.044166,191.740481 474.132498,194.646827 C470.21456,197.55 465.127511,199 458.877618,199 C454.702664,199 450.602935,198.194092 446.562758,196.572757 C442.516313,194.957768 438.996438,192.800219 436,190.093764 L439.911668,182.272648 C442.516313,184.845842 445.575438,186.873304 449.101581,188.364551 C452.621456,189.84628 455.947001,190.582385 459.075082,190.582385 C462.53227,190.582385 465.234079,189.928775 467.193047,188.608862 C469.145747,187.292123 470.129933,185.470897 470.129933,183.164223 C470.129933,181.314442 469.556347,179.78512 468.409175,178.560394 C467.271406,177.33884 465.83274,176.380635 464.105713,175.68895 C462.378686,174.997265 460.04673,174.226258 457.116113,173.366411 C453.270266,172.182932 450.179798,171.056565 447.835304,169.996827 C445.490811,168.949781 443.475424,167.344311 441.811084,165.193107 C440.159282,163.057768 439.325545,160.233917 439.325545,156.740591 C439.325545,151.921007 441.18108,148.097702 444.901553,145.251641 C448.612623,142.421444 453.564895,141 459.761504,141 C463.281379,141 466.732298,141.510832 470.129933,142.532495 C473.508762,143.554158 476.476991,144.956565 479.025217,146.739716 L475.401909,154.652845 C472.731443,153.0093 469.910529,151.727462 466.942299,150.797812" id="Fill-10"></path>
            <path d="M219.054426,214.667132 C219.029272,215.126319 218.315535,225.954945 207.603189,225.954945 C199.337043,225.954945 191.728039,216.095014 185.015137,207.39563 L183.512201,205.451949 C183.430452,205.351306 183.320404,205.20663 183.204068,205.055665 C196.456941,184.16582 210.804001,151.874938 219.063858,112.3786 C219.067002,163.297991 219.067002,213.519166 219.054426,214.667132 Z M161.232282,221.52348 C157.795654,224.457871 153.444058,226.077605 148.97927,226.077605 C143.068143,226.077605 137.603495,223.335066 133.58833,218.353206 C132.274048,216.720892 128.123682,209.414792 123.316175,200.957582 C91.8802972,145.641322 59.9036145,94.451452 38.9568435,94.451452 C28.1690364,94.451452 20.3022065,104.846053 14.4382426,119.753892 C22.1478617,86.3118978 34.5926709,57.2604827 46.0690615,37.3550582 C64.6199393,61.5975945 155.456357,180.300475 174.698962,205.357596 C169.768831,212.695146 165.127967,218.19595 161.232282,221.52348 Z M6.92356493,121.288707 L6.92356493,18.6667927 C6.92670915,18.5472784 7.49895657,6.99842094 18.3653691,6.99842094 C25.200896,6.99842094 27.5810679,10.181276 34.7813239,21.2300604 C36.7118729,24.1927575 38.9002476,27.5297231 41.5822644,31.3541813 C28.8639083,52.5742633 14.9979131,84.3587822 6.92356493,121.288707 Z M65.9530872,11.2097282 C74.1311945,5.17740012 83.6298728,5.3786874 91.2294443,12.1029405 C96.3482289,16.628759 106.43802,33.8199504 117.125212,52.0207233 C145.580372,100.49007 168.809844,137.567816 187.200367,137.567816 C198.733354,137.567816 207.030941,124.358338 213.146443,106.314821 C205.452545,145.559549 191.498511,178.086315 178.666963,199.152287 C155.795932,169.36177 63.1830324,48.3283599 49.9050057,30.9830579 C56.0613818,21.1954641 61.7272601,14.3296809 65.9530872,11.2097282 Z M226,45.8311396 L225.97799,45.8279945 C225.97799,23.793328 225.974846,5.78440706 225.974846,3.52621544 C225.974846,1.61084121 224.424747,0.0634452729 222.513064,0.0634452729 C220.60138,0.0634452729 219.051281,1.61398632 219.051281,3.52621544 C219.051281,4.09862613 219.054426,22.5164119 219.05757,45.7116253 L218.872061,46.9665256 C214.268928,78.2163752 204.028214,130.64542 187.200367,130.64542 C171.309497,130.64542 142.291522,81.2199588 123.092935,48.5170667 C111.170066,28.2122127 101.756281,12.172133 95.8137121,6.91664799 C85.8779877,-1.88023498 72.5496536,-2.26393885 61.8435961,5.63973183 C57.4699908,8.86661847 51.7600935,15.5625655 45.5848521,24.982181 C43.710899,22.242787 42.0664737,19.7298411 40.5792593,17.4464886 C33.5173488,6.61471708 29.2537911,0.072880614 18.3653691,0.072880614 C3.11906286,0.072880614 0,14.7259653 0,18.647922 L0,228.672324 C0,230.581408 1.55009878,232.135094 3.46178246,232.135094 C5.37346615,232.135094 6.92356493,230.581408 6.92356493,228.672324 L6.92356493,186.565542 L7.26314032,184.065176 C16.5071371,115.721856 29.6027992,101.373847 38.9568435,101.373847 C58.7654081,101.373847 99.7817135,173.557351 117.298144,204.37632 C123.53627,215.352767 126.605025,220.718331 128.199143,222.696608 C133.556888,229.342233 140.93322,233 148.97927,233 C155.091627,233 161.040485,230.79213 165.728512,226.785255 C169.687081,223.401113 174.296502,218.111032 179.16375,211.150895 L179.537911,211.628953 C187.222377,221.589528 195.935001,232.877341 207.603189,232.877341 C222.296113,232.877341 225.877376,219.535768 225.974846,214.846404 C225.996856,213.434248 225.987423,108.09181 225.981135,47.3722453 C225.981135,46.8533015 226,46.3469382 226,45.8311396 L226,45.8311396 Z" id="Fill-11"></path>
        </g>
    </g>
</svg>