<?xml version="1.0" encoding="UTF-8"?>
<svg width="30px" height="29px" viewBox="0 0 30 29" version="1.1" xmlns="http://www.w3.org/2000/svg" xmlns:xlink="http://www.w3.org/1999/xlink">
    <title>Group</title>
    <g id="Page-1" stroke="none" stroke-width="1" fill="none" fill-rule="evenodd">
        <g id="Setup" transform="translate(-72.000000, -985.000000)">
            <g id="Group-18" transform="translate(40.000000, 847.000000)">
                <g id="Group-16" transform="translate(32.000000, 56.000000)">
                    <g id="Group" transform="translate(0.000000, 82.000000)">
                        <ellipse id="Oval" fill="#001E34" cx="14.5288845" cy="14.5" rx="14.5288845" ry="14.5"></ellipse>
                        <path d="M18.5199203,20 L18.5199203,18.484375 L13.2386703,18.484375 L16.0199203,15.5078125 C16.749087,14.7161458 17.2738266,14.0091146 17.5941391,13.3867188 C17.9144516,12.7643229 18.0746078,12.1692708 18.0746078,11.6015625 C18.0746078,10.6223958 17.7555974,9.85546875 17.1175766,9.30078125 C16.4795557,8.74609375 15.608462,8.46875 14.5042953,8.46875 C13.7386703,8.46875 13.0628891,8.62239583 12.4769516,8.9296875 C11.8910141,9.23697917 11.4404932,9.66796875 11.1253891,10.2226562 C10.8102849,10.7773438 10.6527328,11.4010417 10.6527328,12.09375 L10.6527328,12.09375 L12.5511703,12.09375 C12.5511703,11.4427083 12.7204412,10.9296875 13.0589828,10.5546875 C13.3975245,10.1796875 13.874087,9.9921875 14.4886703,9.9921875 C15.0042953,9.9921875 15.4144516,10.1588542 15.7191391,10.4921875 C16.0238266,10.8255208 16.1761703,11.2630208 16.1761703,11.8046875 C16.1761703,12.2161458 16.0602849,12.6263021 15.8285141,13.0351562 C15.5967432,13.4440104 15.2074203,13.953125 14.6605453,14.5625 L14.6605453,14.5625 L10.8714828,18.6953125 L10.8714828,20 L18.5199203,20 Z" id="2" fill="#FFFFFF" fill-rule="nonzero"></path>
                    </g>
                </g>
            </g>
        </g>
    </g>
</svg>