<?xml version="1.0" encoding="UTF-8"?>
<svg width="30px" height="29px" viewBox="0 0 30 29" version="1.1" xmlns="http://www.w3.org/2000/svg" xmlns:xlink="http://www.w3.org/1999/xlink">
    <title>Group</title>
    <g id="Page-1" stroke="none" stroke-width="1" fill="none" fill-rule="evenodd">
        <g id="Setup" transform="translate(-72.000000, -1024.000000)">
            <g id="Group-18" transform="translate(40.000000, 847.000000)">
                <g id="Group-16" transform="translate(32.000000, 56.000000)">
                    <g id="Group" transform="translate(0.000000, 121.000000)">
                        <ellipse id="Oval" fill="#001E34" cx="14.5288845" cy="14.5" rx="14.5288845" ry="14.5"></ellipse>
                        <path d="M14.3714828,20.15625 C15.5121078,20.15625 16.4326807,19.8541667 17.1332016,19.25 C17.8337224,18.6458333 18.1839828,17.8333333 18.1839828,16.8125 C18.1839828,16.1770833 18.0212224,15.6302083 17.6957016,15.171875 C17.3701807,14.7135417 16.8949203,14.3776042 16.2699203,14.1640625 C16.7855453,13.9348958 17.2061182,13.5950521 17.5316391,13.1445312 C17.8571599,12.6940104 18.0199203,12.2135417 18.0199203,11.703125 C18.0199203,10.6875 17.6957016,9.89453125 17.0472641,9.32421875 C16.3988266,8.75390625 15.5068995,8.46875 14.3714828,8.46875 C13.6839828,8.46875 13.0628891,8.60286458 12.5082016,8.87109375 C11.9535141,9.13932292 11.5212224,9.51302083 11.2113266,9.9921875 C10.9014307,10.4713542 10.7464828,11.0026042 10.7464828,11.5859375 L10.7464828,11.5859375 L12.6449203,11.5859375 C12.6449203,11.1119792 12.8089828,10.7278646 13.1371078,10.4335938 C13.4652328,10.1393229 13.8845037,9.9921875 14.3949203,9.9921875 C14.9782537,9.9921875 15.4118474,10.1419271 15.6957016,10.4414062 C15.9795557,10.7408854 16.1214828,11.1614583 16.1214828,11.703125 C16.1214828,12.265625 15.9509099,12.6953125 15.6097641,12.9921875 C15.2686182,13.2890625 14.8063787,13.4401042 14.2230453,13.4453125 L14.2230453,13.4453125 L13.0667953,13.4453125 L13.0667953,14.9453125 L14.1839828,14.9453125 C14.8818995,14.9453125 15.4079412,15.1067708 15.7621078,15.4296875 C16.1162745,15.7526042 16.2933578,16.2135417 16.2933578,16.8125 C16.2933578,17.40625 16.124087,17.859375 15.7855453,18.171875 C15.4470037,18.484375 14.983462,18.640625 14.3949203,18.640625 C13.827212,18.640625 13.3753891,18.484375 13.0394516,18.171875 C12.7035141,17.859375 12.5355453,17.453125 12.5355453,16.953125 L12.5355453,16.953125 L10.6371078,16.953125 C10.6371078,17.921875 10.9860662,18.6979167 11.6839828,19.28125 C12.3818995,19.8645833 13.2777328,20.15625 14.3714828,20.15625 Z" id="3" fill="#FFFFFF" fill-rule="nonzero"></path>
                    </g>
                </g>
            </g>
        </g>
    </g>
</svg>