<?xml version="1.0" encoding="UTF-8"?>
<svg width="30px" height="29px" viewBox="0 0 30 29" version="1.1" xmlns="http://www.w3.org/2000/svg" xmlns:xlink="http://www.w3.org/1999/xlink">
    <title>Group</title>
    <g id="Page-1" stroke="none" stroke-width="1" fill="none" fill-rule="evenodd">
        <g id="Setup" transform="translate(-72.000000, -1102.000000)">
            <g id="Group-18" transform="translate(40.000000, 847.000000)">
                <g id="Group-16" transform="translate(32.000000, 56.000000)">
                    <g id="Group" transform="translate(0.000000, 199.000000)">
                        <ellipse id="Oval" fill="#001E34" cx="14.5288845" cy="14.5" rx="14.5288845" ry="14.5"></ellipse>
                        <path d="M14.7308578,20.15625 C15.8923162,20.15625 16.8063787,19.8138021 17.4730453,19.1289062 C18.139712,18.4440104 18.4730453,17.5234375 18.4730453,16.3671875 C18.4730453,15.1953125 18.1722641,14.2630208 17.5707016,13.5703125 C16.9691391,12.8776042 16.1266912,12.53125 15.0433578,12.53125 C14.3818995,12.53125 13.7881495,12.6822917 13.2621078,12.984375 L13.2621078,12.984375 L13.5746078,10.265625 L18.1058578,10.265625 L18.1058578,8.625 L11.9964828,8.625 L11.3792953,14.359375 L12.8949203,14.734375 C13.1761703,14.46875 13.436587,14.2903646 13.6761703,14.1992188 C13.9157537,14.1080729 14.2074203,14.0625 14.5511703,14.0625 C15.1813787,14.0625 15.6761703,14.2643229 16.0355453,14.6679688 C16.3949203,15.0716146 16.5746078,15.6197917 16.5746078,16.3125 C16.5746078,17.03125 16.4118474,17.5989583 16.0863266,18.015625 C15.7608057,18.4322917 15.3063787,18.640625 14.7230453,18.640625 C14.202212,18.640625 13.780337,18.4934896 13.4574203,18.1992188 C13.1345037,17.9049479 12.936587,17.4817708 12.8636703,16.9296875 L12.8636703,16.9296875 L11.0277328,16.9296875 C11.0850245,17.8984375 11.4561182,18.6783854 12.1410141,19.2695312 C12.8259099,19.8606771 13.6891912,20.15625 14.7308578,20.15625 Z" id="5" fill="#FFFFFF" fill-rule="nonzero"></path>
                    </g>
                </g>
            </g>
        </g>
    </g>
</svg>