<?xml version="1.0" encoding="UTF-8"?>
<svg width="30px" height="29px" viewBox="0 0 30 29" version="1.1" xmlns="http://www.w3.org/2000/svg" xmlns:xlink="http://www.w3.org/1999/xlink">
    <title>Group</title>
    <g id="Page-1" stroke="none" stroke-width="1" fill="none" fill-rule="evenodd">
        <g id="Setup" transform="translate(-72.000000, -1141.000000)">
            <g id="Group-18" transform="translate(40.000000, 847.000000)">
                <g id="Group-16" transform="translate(32.000000, 56.000000)">
                    <g id="Group" transform="translate(0.000000, 238.000000)">
                        <ellipse id="Oval" fill="#001E34" cx="14.5288845" cy="14.5" rx="14.5288845" ry="14.5"></ellipse>
                        <path d="M14.7542953,20.15625 C15.858462,20.15625 16.7503891,19.7981771 17.4300766,19.0820312 C18.1097641,18.3658854 18.4496078,17.4296875 18.4496078,16.2734375 C18.4496078,15.1536458 18.1592432,14.2395833 17.5785141,13.53125 C16.9977849,12.8229167 16.2048162,12.46875 15.1996078,12.46875 C14.2516912,12.46875 13.4730453,12.7890625 12.8636703,13.4296875 C12.983462,12.3880208 13.3610662,11.5833333 13.9964828,11.015625 C14.6318995,10.4479167 15.4808578,10.15625 16.5433578,10.140625 L16.5433578,10.140625 L16.7777328,10.140625 L16.7777328,8.5703125 L16.5824203,8.5703125 C14.7595037,8.5703125 13.3623682,9.13541667 12.3910141,10.265625 C11.4196599,11.3958333 10.9339828,12.9583333 10.9339828,14.953125 L10.9339828,14.953125 L10.9339828,15.6015625 C10.9339828,16.9609375 11.2868474,18.0598958 11.9925766,18.8984375 C12.6983057,19.7369792 13.6188787,20.15625 14.7542953,20.15625 Z M14.7386703,18.625 C14.1761703,18.625 13.717837,18.3763021 13.3636703,17.8789062 C13.0095037,17.3815104 12.8324203,16.7109375 12.8324203,15.8671875 L12.8324203,15.8671875 L12.8324203,15.2890625 C12.9938787,14.8984375 13.2477849,14.5859375 13.5941391,14.3515625 C13.9404932,14.1171875 14.3220037,14 14.7386703,14 C15.2907537,14 15.733462,14.2161458 16.0667953,14.6484375 C16.4001287,15.0807292 16.5667953,15.640625 16.5667953,16.328125 C16.5667953,17.015625 16.4027328,17.5703125 16.0746078,17.9921875 C15.7464828,18.4140625 15.3011703,18.625 14.7386703,18.625 Z" id="6" fill="#FFFFFF" fill-rule="nonzero"></path>
                    </g>
                </g>
            </g>
        </g>
    </g>
</svg>