<?xml version="1.0" encoding="UTF-8"?>
<svg width="605px" height="530px" viewBox="0 0 605 530" version="1.1" xmlns="http://www.w3.org/2000/svg" xmlns:xlink="http://www.w3.org/1999/xlink">
    <title>Group 2</title>
    <defs>
        <path d="M186.27,20.94 L186.27,12.9 L189.78,12.9 C191.5,12.9 192.925,12.6 194.055,12 C195.185,11.4 196.015,10.61 196.545,9.63 C197.075,8.65 197.34,7.6 197.34,6.48 C197.34,5.24 197.055,4.13 196.485,3.15 C195.915,2.17 195.06,1.4 193.92,0.84 C192.78,0.28 191.4,0 189.78,0 L189.78,0 L182.07,0 L182.07,20.94 L186.27,20.94 Z M189.6,9.51 L186.27,9.51 L186.27,3.42 L189.6,3.42 C191.88,3.42 193.02,4.44 193.02,6.48 C193.02,7.44 192.74,8.185 192.18,8.715 C191.62,9.245 190.76,9.51 189.6,9.51 L189.6,9.51 Z M207.57,21.21 C209.55,21.21 211.22,20.695 212.58,19.665 C213.94,18.635 214.86,17.32 215.34,15.72 L215.34,15.72 L210.81,15.72 C210.15,17.06 209.04,17.73 207.48,17.73 C206.4,17.73 205.49,17.39 204.75,16.71 C204.01,16.03 203.59,15.09 203.49,13.89 L203.49,13.89 L215.64,13.89 C215.72,13.41 215.76,12.87 215.76,12.27 C215.76,10.65 215.415,9.215 214.725,7.965 C214.035,6.715 213.065,5.75 211.815,5.07 C210.565,4.39 209.15,4.05 207.57,4.05 C205.93,4.05 204.48,4.4 203.22,5.1 C201.96,5.8 200.98,6.8 200.28,8.1 C199.58,9.4 199.23,10.91 199.23,12.63 C199.23,14.33 199.585,15.83 200.295,17.13 C201.005,18.43 201.995,19.435 203.265,20.145 C204.535,20.855 205.97,21.21 207.57,21.21 Z M211.41,11.07 L203.52,11.07 C203.68,9.95 204.115,9.075 204.825,8.445 C205.535,7.815 206.41,7.5 207.45,7.5 C208.55,7.5 209.48,7.825 210.24,8.475 C211,9.125 211.39,9.99 211.41,11.07 L211.41,11.07 Z M226.08,21.21 C228.06,21.21 229.73,20.695 231.09,19.665 C232.45,18.635 233.37,17.32 233.85,15.72 L233.85,15.72 L229.32,15.72 C228.66,17.06 227.55,17.73 225.99,17.73 C224.91,17.73 224,17.39 223.26,16.71 C222.52,16.03 222.1,15.09 222,13.89 L222,13.89 L234.15,13.89 C234.23,13.41 234.27,12.87 234.27,12.27 C234.27,10.65 233.925,9.215 233.235,7.965 C232.545,6.715 231.575,5.75 230.325,5.07 C229.075,4.39 227.66,4.05 226.08,4.05 C224.44,4.05 222.99,4.4 221.73,5.1 C220.47,5.8 219.49,6.8 218.79,8.1 C218.09,9.4 217.74,10.91 217.74,12.63 C217.74,14.33 218.095,15.83 218.805,17.13 C219.515,18.43 220.505,19.435 221.775,20.145 C223.045,20.855 224.48,21.21 226.08,21.21 Z M229.92,11.07 L222.03,11.07 C222.19,9.95 222.625,9.075 223.335,8.445 C224.045,7.815 224.92,7.5 225.96,7.5 C227.06,7.5 227.99,7.825 228.75,8.475 C229.51,9.125 229.9,9.99 229.92,11.07 L229.92,11.07 Z M241.53,20.94 L241.53,12.66 C241.53,11.12 241.865,10.04 242.535,9.42 C243.205,8.8 244.2,8.49 245.52,8.49 L245.52,8.49 L246.63,8.49 L246.63,4.08 C245.51,4.08 244.515,4.33 243.645,4.83 C242.775,5.33 242.07,6.02 241.53,6.9 L241.53,6.9 L241.53,4.32 L237.33,4.32 L237.33,20.94 L241.53,20.94 Z M262.23,12 L262.23,8.46 L249.51,8.46 L249.51,12 L262.23,12 Z M275.55,20.94 L275.55,17.4 L273.6,17.4 C272.96,17.4 272.505,17.275 272.235,17.025 C271.965,16.775 271.83,16.37 271.83,15.81 L271.83,15.81 L271.83,7.77 L275.55,7.77 L275.55,4.32 L271.83,4.32 L271.83,0.21 L267.6,0.21 L267.6,4.32 L265.62,4.32 L265.62,7.77 L267.6,7.77 L267.6,15.78 C267.6,19.22 269.37,20.94 272.91,20.94 L272.91,20.94 L275.55,20.94 Z M285.96,21.21 C287.58,21.21 289.045,20.855 290.355,20.145 C291.665,19.435 292.705,18.43 293.475,17.13 C294.245,15.83 294.63,14.33 294.63,12.63 C294.63,10.93 294.255,9.43 293.505,8.13 C292.755,6.83 291.73,5.825 290.43,5.115 C289.13,4.405 287.68,4.05 286.08,4.05 C284.48,4.05 283.03,4.405 281.73,5.115 C280.43,5.825 279.405,6.83 278.655,8.13 C277.905,9.43 277.53,10.93 277.53,12.63 C277.53,14.33 277.895,15.83 278.625,17.13 C279.355,18.43 280.36,19.435 281.64,20.145 C282.92,20.855 284.36,21.21 285.96,21.21 Z M285.96,17.55 C284.76,17.55 283.765,17.125 282.975,16.275 C282.185,15.425 281.79,14.21 281.79,12.63 C281.79,11.05 282.195,9.835 283.005,8.985 C283.815,8.135 284.82,7.71 286.02,7.71 C287.22,7.71 288.235,8.135 289.065,8.985 C289.895,9.835 290.31,11.05 290.31,12.63 C290.31,13.69 290.11,14.59 289.71,15.33 C289.31,16.07 288.775,16.625 288.105,16.995 C287.435,17.365 286.72,17.55 285.96,17.55 Z M310.5,12 L310.5,8.46 L297.78,8.46 L297.78,12 L310.5,12 Z M319.41,20.94 L319.41,12.9 L322.92,12.9 C324.64,12.9 326.065,12.6 327.195,12 C328.325,11.4 329.155,10.61 329.685,9.63 C330.215,8.65 330.48,7.6 330.48,6.48 C330.48,5.24 330.195,4.13 329.625,3.15 C329.055,2.17 328.2,1.4 327.06,0.84 C325.92,0.28 324.54,0 322.92,0 L322.92,0 L315.21,0 L315.21,20.94 L319.41,20.94 Z M322.74,9.51 L319.41,9.51 L319.41,3.42 L322.74,3.42 C325.02,3.42 326.16,4.44 326.16,6.48 C326.16,7.44 325.88,8.185 325.32,8.715 C324.76,9.245 323.9,9.51 322.74,9.51 L322.74,9.51 Z M340.71,21.21 C342.69,21.21 344.36,20.695 345.72,19.665 C347.08,18.635 348,17.32 348.48,15.72 L348.48,15.72 L343.95,15.72 C343.29,17.06 342.18,17.73 340.62,17.73 C339.54,17.73 338.63,17.39 337.89,16.71 C337.15,16.03 336.73,15.09 336.63,13.89 L336.63,13.89 L348.78,13.89 C348.86,13.41 348.9,12.87 348.9,12.27 C348.9,10.65 348.555,9.215 347.865,7.965 C347.175,6.715 346.205,5.75 344.955,5.07 C343.705,4.39 342.29,4.05 340.71,4.05 C339.07,4.05 337.62,4.4 336.36,5.1 C335.1,5.8 334.12,6.8 333.42,8.1 C332.72,9.4 332.37,10.91 332.37,12.63 C332.37,14.33 332.725,15.83 333.435,17.13 C334.145,18.43 335.135,19.435 336.405,20.145 C337.675,20.855 339.11,21.21 340.71,21.21 Z M344.55,11.07 L336.66,11.07 C336.82,9.95 337.255,9.075 337.965,8.445 C338.675,7.815 339.55,7.5 340.59,7.5 C341.69,7.5 342.62,7.825 343.38,8.475 C344.14,9.125 344.53,9.99 344.55,11.07 L344.55,11.07 Z M359.22,21.21 C361.2,21.21 362.87,20.695 364.23,19.665 C365.59,18.635 366.51,17.32 366.99,15.72 L366.99,15.72 L362.46,15.72 C361.8,17.06 360.69,17.73 359.13,17.73 C358.05,17.73 357.14,17.39 356.4,16.71 C355.66,16.03 355.24,15.09 355.14,13.89 L355.14,13.89 L367.29,13.89 C367.37,13.41 367.41,12.87 367.41,12.27 C367.41,10.65 367.065,9.215 366.375,7.965 C365.685,6.715 364.715,5.75 363.465,5.07 C362.215,4.39 360.8,4.05 359.22,4.05 C357.58,4.05 356.13,4.4 354.87,5.1 C353.61,5.8 352.63,6.8 351.93,8.1 C351.23,9.4 350.88,10.91 350.88,12.63 C350.88,14.33 351.235,15.83 351.945,17.13 C352.655,18.43 353.645,19.435 354.915,20.145 C356.185,20.855 357.62,21.21 359.22,21.21 Z M363.06,11.07 L355.17,11.07 C355.33,9.95 355.765,9.075 356.475,8.445 C357.185,7.815 358.06,7.5 359.1,7.5 C360.2,7.5 361.13,7.825 361.89,8.475 C362.65,9.125 363.04,9.99 363.06,11.07 L363.06,11.07 Z M374.67,20.94 L374.67,12.66 C374.67,11.12 375.005,10.04 375.675,9.42 C376.345,8.8 377.34,8.49 378.66,8.49 L378.66,8.49 L379.77,8.49 L379.77,4.08 C378.65,4.08 377.655,4.33 376.785,4.83 C375.915,5.33 375.21,6.02 374.67,6.9 L374.67,6.9 L374.67,4.32 L370.47,4.32 L370.47,20.94 L374.67,20.94 Z" id="path-1"></path>
    </defs>
    <g id="Page-1" stroke="none" stroke-width="1" fill="none" fill-rule="evenodd">
        <g id="Group-2" transform="translate(2.000000, 2.000000)">
            <path d="M419,0 L558,0 C581.748244,0 601,19.2517558 601,43 L601,483 C601,506.748244 581.748244,526 558,526 L43,526 C19.2517558,526 0,506.748244 0,483 L0,43 C0,19.2517558 19.2517558,0 43,0 L158.851562,0 L180.860352,0" id="Path" stroke-opacity="0" stroke="#979797" stroke-width="4" stroke-linecap="round"></path>
            <g id="Group-5" transform="translate(19.000000, 35.000000)">
                <g id="Group" transform="translate(0.000000, 95.000000)">
                    <line x1="147" y1="22" x2="397" y2="334" id="Path" stroke="#979797" stroke-width="4"></line>
                    <line x1="23" y1="192" x2="398" y2="334" id="Path" stroke="#979797" stroke-width="4"></line>
                    <line x1="161" y1="334" x2="522" y2="182" id="Path" stroke="#979797" stroke-width="4"></line>
                    <line x1="400.25" y1="28" x2="400.75" y2="338" id="Path" stroke="#979797" stroke-width="4"></line>
                    <polyline id="Path-Copy-2" stroke="#979797" stroke-width="4" points="400.538829 27 522.402628 178.821632 150.837515 27 400.228196 27 23 191.971537 523 178.821632 401.136201 342"></polyline>
                    <path d="M400,26.6024684 C241.676101,231.534156 162.514151,334 162.514151,334 C162.514151,334 157.342767,229.333333 147,20" id="Line-2" stroke="#979797" stroke-width="4" stroke-linecap="square"></path>
                    <polyline id="Line-3" stroke="#979797" stroke-width="4" stroke-linecap="square" points="150.299735 28 19 191.757813 162.236074 334 397 334"></polyline>
                    <g id="F" transform="translate(0.000000, 162.000000)">
                        <circle id="Oval" stroke="#0D2233" stroke-width="3" fill="#0D2233" cx="26.5" cy="26.5" r="25"></circle>
                        <polygon fill="#FFFFFF" fill-rule="nonzero" points="24.2482599 35 24.2482599 27.8151862 29.4222738 27.8151862 29.4222738 25.1117479 24.2482599 25.1117479 24.2482599 20.752149 31 20.752149 31 18 21 18 21 35"></polygon>
                    </g>
                    <g id="E" transform="translate(135.000000, 308.000000)">
                        <circle id="Oval" stroke="#0D2233" stroke-width="3" fill="#0D2233" cx="26.5" cy="26.5" r="25"></circle>
                        <polygon fill="#FFFFFF" fill-rule="nonzero" points="32 35 32 32.2274678 25.4567901 32.2274678 25.4567901 27.7281831 31.2592593 27.7281831 31.2592593 25.0286123 25.4567901 25.0286123 25.4567901 20.7725322 32 20.7725322 32 18 22 18 22 35"></polygon>
                    </g>
                    <g id="D" transform="translate(371.000000, 308.000000)">
                        <circle id="Oval" stroke="#0D2233" stroke-width="3" fill="#0D2233" cx="26.5" cy="26.5" r="25"></circle>
                        <path d="M24.9803922,35 C26.7777778,35 28.3586601,34.6509074 29.7230392,33.9527221 C31.0874183,33.2545368 32.1413399,32.2681471 32.8848039,30.993553 C33.628268,29.7189589 34,28.2292264 34,26.5243553 C34,24.8194842 33.628268,23.3216332 32.8848039,22.0308023 C32.1413399,20.7399713 31.0874183,19.7454632 29.7230392,19.0472779 C28.3586601,18.3490926 26.7777778,18 24.9803922,18 L24.9803922,18 L19,18 L19,35 L24.9803922,35 Z M24.4072948,32 L22,32 L22,21 L24.4072948,21 C26.1904762,21 27.5683891,21.489154 28.5410334,22.467462 C29.5136778,23.4457701 30,24.80188 30,26.5357918 C30,28.2697035 29.5136778,29.6138829 28.5410334,30.5683297 C27.5683891,31.5227766 26.1904762,32 24.4072948,32 L24.4072948,32 Z" fill="#FFFFFF" fill-rule="nonzero"></path>
                    </g>
                    <g id="C" transform="translate(495.000000, 152.000000)">
                        <circle id="Oval" stroke="#0D2233" stroke-width="3" fill="#0D2233" cx="26.5" cy="26.5" r="25"></circle>
                        <path d="M26.3049853,35 C28.1505376,35 29.7575758,34.5271155 31.1260997,33.5813464 C32.4946237,32.6355774 33.4525904,31.3122955 34,29.6115007 L34,29.6115007 L30.2228739,29.6115007 C29.8475073,30.4062646 29.3196481,31.0063114 28.6392962,31.411641 C27.9589443,31.8169705 27.1730205,32.0196353 26.2815249,32.0196353 C25.3274682,32.0196353 24.4789834,31.7931276 23.7360704,31.3401122 C22.9931574,30.8870968 22.4144673,30.243338 22,29.4088359 C21.5855327,28.5743338 21.3782991,27.6086957 21.3782991,26.5119215 C21.3782991,25.399252 21.5855327,24.42964 22,23.6030856 C22.4144673,22.7765311 22.9931574,22.1367461 23.7360704,21.6837307 C24.4789834,21.2307153 25.3274682,21.0042076 26.2815249,21.0042076 C27.1730205,21.0042076 27.9589443,21.2028986 28.6392962,21.6002805 C29.3196481,21.9976625 29.8475073,22.5937354 30.2228739,23.3884993 L30.2228739,23.3884993 L34,23.3884993 C33.4525904,21.7035998 32.4907136,20.3842917 31.1143695,19.430575 C29.7380254,18.4768583 28.1348974,18 26.3049853,18 C24.740958,18 23.3294233,18.3616176 22.0703812,19.0848527 C20.8113392,19.8080879 19.8181818,20.8174381 19.0909091,22.1129032 C18.3636364,23.4083684 18,24.8747078 18,26.5119215 C18,28.1491351 18.3636364,29.6115007 19.0909091,30.8990182 C19.8181818,32.1865358 20.8113392,33.1919121 22.0703812,33.9151473 C23.3294233,34.6383824 24.740958,35 26.3049853,35 Z" fill="#FFFFFF" fill-rule="nonzero"></path>
                    </g>
                    <g id="B" transform="translate(374.000000, 0.000000)">
                        <circle id="Oval" stroke="#0D2233" stroke-width="3" fill="#0D2233" cx="26.5" cy="26.5" r="25"></circle>
                        <path d="M27.3691149,35 C28.5279347,35 29.5317012,34.8051576 30.3804143,34.4154728 C31.2291274,34.025788 31.8779033,33.4859121 32.326742,32.7958453 C32.7755807,32.1057784 33,31.3061127 33,30.3968481 C33,29.3901624 32.6898933,28.4971347 32.0696798,27.717765 C31.4494664,26.9383954 30.6578782,26.4594078 29.6949153,26.2808023 C30.5762712,26.0047755 31.282172,25.5339064 31.8126177,24.8681948 C32.3430634,24.2024833 32.6082863,23.3744031 32.6082863,22.3839542 C32.6082863,21.5396371 32.3920276,20.7846227 31.9595104,20.1189112 C31.5269931,19.4531996 30.8904583,18.9336199 30.0499058,18.5601719 C29.2093534,18.186724 28.2096673,18 27.0508475,18 L27.0508475,18 L20,18 L20,35 L27.3691149,35 Z M26.3103448,25 L23,25 L23,21 L26.3103448,21 C27.1724138,21 27.8362069,21.1752381 28.3017241,21.5257143 C28.7672414,21.8761905 29,22.3714286 29,23.0114286 C29,23.6514286 28.7672414,24.1428571 28.3017241,24.4857143 C27.8362069,24.8285714 27.1724138,25 26.3103448,25 L26.3103448,25 Z M26.3975904,33 L23,33 L23,28 L26.3253012,28 C27.1445783,28 27.7951807,28.2260638 28.2771084,28.6781915 C28.7590361,29.1303191 29,29.7553191 29,30.5531915 C29,31.3333333 28.7710843,31.9361702 28.313253,32.3617021 C27.8554217,32.787234 27.2168675,33 26.3975904,33 L26.3975904,33 Z" fill="#FFFFFF" fill-rule="nonzero"></path>
                    </g>
                    <g id="A" transform="translate(121.000000, 0.000000)">
                        <circle id="Oval" stroke="#0D2233" stroke-width="3" fill="#0D2233" cx="26.5" cy="26.5" r="25"></circle>
                        <path d="M22.5368421,35 L23.643609,31.7653791 L30.3323308,31.7653791 L31.4390977,35 L35,35 L28.9609023,18 L25.0390977,18 L19,35 L22.5368421,35 Z M30,29 L25,29 L27.5,22 L30,29 Z" fill="#FFFFFF" fill-rule="nonzero"></path>
                    </g>
                </g>
                <g id="Peer-to-Peer" fill-rule="nonzero">
                    <use fill="#FFFFFF" xlink:href="#path-1"></use>
                    <use fill="#0D2233" xlink:href="#path-1"></use>
                </g>
            </g>
        </g>
    </g>
</svg>