<?xml version="1.0" encoding="UTF-8"?>
<svg width="605px" height="544px" viewBox="0 0 605 544" version="1.1" xmlns="http://www.w3.org/2000/svg" xmlns:xlink="http://www.w3.org/1999/xlink">
    <title>Group 2</title>
    <g id="Page-1" stroke="none" stroke-width="1" fill="none" fill-rule="evenodd">
        <g id="Group-2" transform="translate(2.000000, 0.480000)">
            <path d="M419,14.52 L558,14.52 C581.748244,14.52 601,33.7717558 601,57.52 L601,497.52 C601,521.268244 581.748244,540.52 558,540.52 L43,540.52 C19.2517558,540.52 0,521.268244 0,497.52 L0,57.52 C0,33.7717558 19.2517558,14.52 43,14.52 L158.851562,14.52 L180.860352,14.52" id="Path" stroke="#979797" stroke-width="4" stroke-linecap="round"></path>
            <g id="Group" transform="translate(15.000000, 112.520000)">
                <line x1="393.957031" y1="42.1933594" x2="460" y2="292" id="Path" stroke="#979797" stroke-width="4"></line>
                <line x1="390" y1="42.1933594" x2="270.619141" y2="262" id="Path" stroke="#979797" stroke-width="4"></line>
                <line x1="385.914062" y1="39" x2="281" y2="185.5" id="Path" stroke="#979797" stroke-width="4"></line>
                <line x1="380.246094" y1="35.5" x2="76.5585938" y2="272.197266" id="Path" stroke="#979797" stroke-width="4"></line>
                <line x1="412.5" y1="35.5" x2="536.5" y2="169.5" id="Line" stroke="#979797" stroke-width="4" stroke-linecap="square"></line>
                <line x1="479" y1="292" x2="540" y2="203" id="Line" stroke="#979797" stroke-width="4" stroke-linecap="square"></line>
                <line x1="208" y1="91" x2="455.595703" y2="295" id="Line" stroke="#979797" stroke-width="4" stroke-linecap="square"></line>
                <line x1="203" y1="99" x2="258.5" y2="185.5" id="Line" stroke="#979797" stroke-width="4" stroke-linecap="square"></line>
                <line x1="199.582031" y1="102.5" x2="254.894531" y2="259" id="Line" stroke="#979797" stroke-width="4" stroke-linecap="square"></line>
                <line x1="207.5625" y1="86.1386719" x2="531" y2="180" id="Line" stroke="#979797" stroke-width="4" stroke-linecap="square"></line>
                <line x1="42" y1="112" x2="248.863281" y2="195.794922" id="Line" stroke="#979797" stroke-width="4" stroke-linecap="square"></line>
                <line x1="42" y1="118" x2="240.238281" y2="265" id="Line" stroke="#979797" stroke-width="4" stroke-linecap="square"></line>
                <line x1="22.5" y1="128" x2="58.5" y2="259" id="Line" stroke="#979797" stroke-width="4" stroke-linecap="square"></line>
                <line x1="184" y1="99" x2="73" y2="264" id="Line" stroke="#979797" stroke-width="4" stroke-linecap="square"></line>
                <line x1="42.2675781" y1="105" x2="531" y2="186" id="Line" stroke="#979797" stroke-width="4" stroke-linecap="square"></line>
                <line x1="76.5585938" y1="278.5" x2="528" y2="189.589844" id="Line" stroke="#979797" stroke-width="4" stroke-linecap="square"></line>
                <line x1="79.7207031" y1="282.160156" x2="252" y2="298" id="Line" stroke="#979797" stroke-width="4" stroke-linecap="square"></line>
                <polyline id="Line" stroke="#979797" stroke-width="4" stroke-linecap="square" points="267 296 446 308.5 277 281.5 258.5 280.330078"></polyline>
                <line x1="79.7207031" y1="282.160156" x2="236" y2="278.5" id="Line" stroke="#979797" stroke-width="4" stroke-linecap="square"></line>
                <line x1="286.633789" y1="202" x2="528" y2="189.589844" id="Line" stroke="#979797" stroke-width="4" stroke-linecap="square"></line>
                <line x1="77" y1="274.410156" x2="245.833984" y2="211.476562" id="Line" stroke="#979797" stroke-width="4" stroke-linecap="square"></line>
                <line x1="277" y1="272.410156" x2="531" y2="193" id="Line" stroke="#979797" stroke-width="4" stroke-linecap="square"></line>
                <line x1="286.633789" y1="211.476562" x2="449.667969" y2="298" id="Line" stroke="#979797" stroke-width="4" stroke-linecap="square"></line>
                <line x1="42" y1="112" x2="449.667969" y2="304" id="Line" stroke="#979797" stroke-width="4" stroke-linecap="square"></line>
                <polyline id="Line" stroke="#979797" stroke-width="4" stroke-linecap="square" points="39 93 380.246094 22.5 212.630859 74.5136719 173.927734 83 42.2675781 99"></polyline>
                <g id="H" transform="translate(244.000000, 180.000000)">
                    <circle id="Oval" stroke="#3C526A" stroke-width="3" fill="#FFFFFF" cx="22.5" cy="22.5" r="21"></circle>
                    <text font-family="Poppins-SemiBold, Poppins" font-size="24" font-weight="500" fill="#3C526A">
                        <tspan x="14" y="31">H</tspan>
                    </text>
                </g>
                <g id="G" transform="translate(446.000000, 286.000000)">
                    <circle id="Oval" stroke="#3C526A" stroke-width="3" fill="#FFFFFF" cx="22.5" cy="22.5" r="21"></circle>
                    <text font-family="Poppins-SemiBold, Poppins" font-size="24" font-weight="500" fill="#3C526A">
                        <tspan x="14" y="31">G</tspan>
                    </text>
                </g>
                <g id="F" transform="translate(36.000000, 259.000000)">
                    <circle id="Oval" stroke="#3C526A" stroke-width="3" fill="#FFFFFF" cx="22.5" cy="22.5" r="21"></circle>
                    <text font-family="Poppins-SemiBold, Poppins" font-size="24" font-weight="500" fill="#3C526A">
                        <tspan x="16" y="31">F</tspan>
                    </text>
                </g>
                <g id="E" transform="translate(236.000000, 256.000000)">
                    <circle id="Oval" stroke="#3C526A" stroke-width="3" fill="#FFFFFF" cx="22.5" cy="22.5" r="21"></circle>
                    <text font-family="Poppins-SemiBold, Poppins" font-size="24" font-weight="500" fill="#3C526A">
                        <tspan x="16" y="31">E</tspan>
                    </text>
                </g>
                <g id="D" transform="translate(0.000000, 83.000000)">
                    <circle id="Oval" stroke="#3C526A" stroke-width="3" fill="#FFFFFF" cx="22.5" cy="22.5" r="21"></circle>
                    <text font-family="Poppins-SemiBold, Poppins" font-size="24" font-weight="500" fill="#3C526A">
                        <tspan x="14" y="31">D</tspan>
                    </text>
                </g>
                <g id="C" transform="translate(171.000000, 60.000000)">
                    <circle id="Oval" stroke="#3C526A" stroke-width="3" fill="#FFFFFF" cx="22.5" cy="22.5" r="21"></circle>
                    <text font-family="Poppins-SemiBold, Poppins" font-size="24" font-weight="500" fill="#3C526A">
                        <tspan x="13" y="31">C</tspan>
                    </text>
                </g>
                <g id="B" transform="translate(375.000000, 0.000000)">
                    <circle id="Oval" stroke="#3C526A" stroke-width="3" fill="#FFFFFF" cx="22.5" cy="22.5" r="21"></circle>
                    <text font-family="Poppins-SemiBold, Poppins" font-size="24" font-weight="500" fill="#3C526A">
                        <tspan x="15" y="31">B</tspan>
                    </text>
                </g>
                <g id="A" transform="translate(528.000000, 163.000000)">
                    <circle id="Oval" stroke="#3C526A" stroke-width="3" fill="#FFFFFF" cx="22.5" cy="22.5" r="21"></circle>
                    <text font-family="Poppins-SemiBold, Poppins" font-size="24" font-weight="500" fill="#3C526A">
                        <tspan x="14" y="31">A</tspan>
                    </text>
                </g>
            </g>
            <path d="M196.27,23.52 L196.27,15.48 L199.78,15.48 C201.5,15.48 202.925,15.18 204.055,14.58 C205.185,13.98 206.015,13.19 206.545,12.21 C207.075,11.23 207.34,10.18 207.34,9.06 C207.34,7.82 207.055,6.71 206.485,5.73 C205.915,4.75 205.06,3.98 203.92,3.42 C202.78,2.86 201.4,2.58 199.78,2.58 L199.78,2.58 L192.07,2.58 L192.07,23.52 L196.27,23.52 Z M199.6,12.09 L196.27,12.09 L196.27,6 L199.6,6 C201.88,6 203.02,7.02 203.02,9.06 C203.02,10.02 202.74,10.765 202.18,11.295 C201.62,11.825 200.76,12.09 199.6,12.09 L199.6,12.09 Z M217.69,23.79 C219.31,23.79 220.775,23.435 222.085,22.725 C223.395,22.015 224.435,21.01 225.205,19.71 C225.975,18.41 226.36,16.91 226.36,15.21 C226.36,13.51 225.985,12.01 225.235,10.71 C224.485,9.41 223.46,8.405 222.16,7.695 C220.86,6.985 219.41,6.63 217.81,6.63 C216.21,6.63 214.76,6.985 213.46,7.695 C212.16,8.405 211.135,9.41 210.385,10.71 C209.635,12.01 209.26,13.51 209.26,15.21 C209.26,16.91 209.625,18.41 210.355,19.71 C211.085,21.01 212.09,22.015 213.37,22.725 C214.65,23.435 216.09,23.79 217.69,23.79 Z M217.69,20.13 C216.49,20.13 215.495,19.705 214.705,18.855 C213.915,18.005 213.52,16.79 213.52,15.21 C213.52,13.63 213.925,12.415 214.735,11.565 C215.545,10.715 216.55,10.29 217.75,10.29 C218.95,10.29 219.965,10.715 220.795,11.565 C221.625,12.415 222.04,13.63 222.04,15.21 C222.04,16.27 221.84,17.17 221.44,17.91 C221.04,18.65 220.505,19.205 219.835,19.575 C219.165,19.945 218.45,20.13 217.69,20.13 Z M231.58,4.92 C232.32,4.92 232.935,4.685 233.425,4.215 C233.915,3.745 234.16,3.16 234.16,2.46 C234.16,1.76 233.915,1.175 233.425,0.705 C232.935,0.235 232.32,1.77635684e-15 231.58,1.77635684e-15 C230.84,1.77635684e-15 230.225,0.235 229.735,0.705 C229.245,1.175 229,1.76 229,2.46 C229,3.16 229.245,3.745 229.735,4.215 C230.225,4.685 230.84,4.92 231.58,4.92 Z M233.65,23.52 L233.65,6.9 L229.45,6.9 L229.45,23.52 L233.65,23.52 Z M241.99,23.52 L241.99,14.34 C241.99,13.02 242.325,12.005 242.995,11.295 C243.665,10.585 244.58,10.23 245.74,10.23 C246.88,10.23 247.78,10.585 248.44,11.295 C249.1,12.005 249.43,13.02 249.43,14.34 L249.43,14.34 L249.43,23.52 L253.63,23.52 L253.63,13.77 C253.63,11.53 253.02,9.785 251.8,8.535 C250.58,7.285 248.98,6.66 247,6.66 C245.96,6.66 245.005,6.865 244.135,7.275 C243.265,7.685 242.55,8.25 241.99,8.97 L241.99,8.97 L241.99,6.9 L237.79,6.9 L237.79,23.52 L241.99,23.52 Z M266.23,23.52 L266.23,19.98 L264.28,19.98 C263.64,19.98 263.185,19.855 262.915,19.605 C262.645,19.355 262.51,18.95 262.51,18.39 L262.51,18.39 L262.51,10.35 L266.23,10.35 L266.23,6.9 L262.51,6.9 L262.51,2.79 L258.28,2.79 L258.28,6.9 L256.3,6.9 L256.3,10.35 L258.28,10.35 L258.28,18.36 C258.28,21.8 260.05,23.52 263.59,23.52 L263.59,23.52 L266.23,23.52 Z M282.04,14.58 L282.04,11.04 L269.32,11.04 L269.32,14.58 L282.04,14.58 Z M295.36,23.52 L295.36,19.98 L293.41,19.98 C292.77,19.98 292.315,19.855 292.045,19.605 C291.775,19.355 291.64,18.95 291.64,18.39 L291.64,18.39 L291.64,10.35 L295.36,10.35 L295.36,6.9 L291.64,6.9 L291.64,2.79 L287.41,2.79 L287.41,6.9 L285.43,6.9 L285.43,10.35 L287.41,10.35 L287.41,18.36 C287.41,21.8 289.18,23.52 292.72,23.52 L292.72,23.52 L295.36,23.52 Z M305.77,23.79 C307.39,23.79 308.855,23.435 310.165,22.725 C311.475,22.015 312.515,21.01 313.285,19.71 C314.055,18.41 314.44,16.91 314.44,15.21 C314.44,13.51 314.065,12.01 313.315,10.71 C312.565,9.41 311.54,8.405 310.24,7.695 C308.94,6.985 307.49,6.63 305.89,6.63 C304.29,6.63 302.84,6.985 301.54,7.695 C300.24,8.405 299.215,9.41 298.465,10.71 C297.715,12.01 297.34,13.51 297.34,15.21 C297.34,16.91 297.705,18.41 298.435,19.71 C299.165,21.01 300.17,22.015 301.45,22.725 C302.73,23.435 304.17,23.79 305.77,23.79 Z M305.77,20.13 C304.57,20.13 303.575,19.705 302.785,18.855 C301.995,18.005 301.6,16.79 301.6,15.21 C301.6,13.63 302.005,12.415 302.815,11.565 C303.625,10.715 304.63,10.29 305.83,10.29 C307.03,10.29 308.045,10.715 308.875,11.565 C309.705,12.415 310.12,13.63 310.12,15.21 C310.12,16.27 309.92,17.17 309.52,17.91 C309.12,18.65 308.585,19.205 307.915,19.575 C307.245,19.945 306.53,20.13 305.77,20.13 Z M330.31,14.58 L330.31,11.04 L317.59,11.04 L317.59,14.58 L330.31,14.58 Z M339.22,23.52 L339.22,15.48 L342.73,15.48 C344.45,15.48 345.875,15.18 347.005,14.58 C348.135,13.98 348.965,13.19 349.495,12.21 C350.025,11.23 350.29,10.18 350.29,9.06 C350.29,7.82 350.005,6.71 349.435,5.73 C348.865,4.75 348.01,3.98 346.87,3.42 C345.73,2.86 344.35,2.58 342.73,2.58 L342.73,2.58 L335.02,2.58 L335.02,23.52 L339.22,23.52 Z M342.55,12.09 L339.22,12.09 L339.22,6 L342.55,6 C344.83,6 345.97,7.02 345.97,9.06 C345.97,10.02 345.69,10.765 345.13,11.295 C344.57,11.825 343.71,12.09 342.55,12.09 L342.55,12.09 Z M360.64,23.79 C362.26,23.79 363.725,23.435 365.035,22.725 C366.345,22.015 367.385,21.01 368.155,19.71 C368.925,18.41 369.31,16.91 369.31,15.21 C369.31,13.51 368.935,12.01 368.185,10.71 C367.435,9.41 366.41,8.405 365.11,7.695 C363.81,6.985 362.36,6.63 360.76,6.63 C359.16,6.63 357.71,6.985 356.41,7.695 C355.11,8.405 354.085,9.41 353.335,10.71 C352.585,12.01 352.21,13.51 352.21,15.21 C352.21,16.91 352.575,18.41 353.305,19.71 C354.035,21.01 355.04,22.015 356.32,22.725 C357.6,23.435 359.04,23.79 360.64,23.79 Z M360.64,20.13 C359.44,20.13 358.445,19.705 357.655,18.855 C356.865,18.005 356.47,16.79 356.47,15.21 C356.47,13.63 356.875,12.415 357.685,11.565 C358.495,10.715 359.5,10.29 360.7,10.29 C361.9,10.29 362.915,10.715 363.745,11.565 C364.575,12.415 364.99,13.63 364.99,15.21 C364.99,16.27 364.79,17.17 364.39,17.91 C363.99,18.65 363.455,19.205 362.785,19.575 C362.115,19.945 361.4,20.13 360.64,20.13 Z M374.53,4.92 C375.27,4.92 375.885,4.685 376.375,4.215 C376.865,3.745 377.11,3.16 377.11,2.46 C377.11,1.76 376.865,1.175 376.375,0.705 C375.885,0.235 375.27,1.77635684e-15 374.53,1.77635684e-15 C373.79,1.77635684e-15 373.175,0.235 372.685,0.705 C372.195,1.175 371.95,1.76 371.95,2.46 C371.95,3.16 372.195,3.745 372.685,4.215 C373.175,4.685 373.79,4.92 374.53,4.92 Z M376.6,23.52 L376.6,6.9 L372.4,6.9 L372.4,23.52 L376.6,23.52 Z M384.94,23.52 L384.94,14.34 C384.94,13.02 385.275,12.005 385.945,11.295 C386.615,10.585 387.53,10.23 388.69,10.23 C389.83,10.23 390.73,10.585 391.39,11.295 C392.05,12.005 392.38,13.02 392.38,14.34 L392.38,14.34 L392.38,23.52 L396.58,23.52 L396.58,13.77 C396.58,11.53 395.97,9.785 394.75,8.535 C393.53,7.285 391.93,6.66 389.95,6.66 C388.91,6.66 387.955,6.865 387.085,7.275 C386.215,7.685 385.5,8.25 384.94,8.97 L384.94,8.97 L384.94,6.9 L380.74,6.9 L380.74,23.52 L384.94,23.52 Z M409.18,23.52 L409.18,19.98 L407.23,19.98 C406.59,19.98 406.135,19.855 405.865,19.605 C405.595,19.355 405.46,18.95 405.46,18.39 L405.46,18.39 L405.46,10.35 L409.18,10.35 L409.18,6.9 L405.46,6.9 L405.46,2.79 L401.23,2.79 L401.23,6.9 L399.25,6.9 L399.25,10.35 L401.23,10.35 L401.23,18.36 C401.23,21.8 403,23.52 406.54,23.52 L406.54,23.52 L409.18,23.52 Z" id="Point-to-Point" fill="#3C526A" fill-rule="nonzero"></path>
        </g>
    </g>
</svg>