<?xml version="1.0" encoding="UTF-8"?>
<svg width="605px" height="543px" viewBox="0 0 605 543" version="1.1" xmlns="http://www.w3.org/2000/svg" xmlns:xlink="http://www.w3.org/1999/xlink">
    <title>Group 2</title>
    <g id="Page-1" stroke="none" stroke-width="1" fill="none" fill-rule="evenodd">
        <g id="Group-2" transform="translate(2.000000, 0.000000)">
            <path d="M419,15 L558,15 C581.748244,15 601,34.2517558 601,58 L601,498 C601,521.748244 581.748244,541 558,541 L43,541 C19.2517558,541 0,521.748244 0,498 L0,58 C0,34.2517558 19.2517558,15 43,15 L158.851562,15 L180.860352,15" id="Path" stroke-opacity="0" stroke="#979797" stroke-width="4" stroke-linecap="round"></path>
            <g id="Group" transform="translate(27.000000, 98.000000)">
                <line x1="147" y1="22" x2="397" y2="334" id="Path" stroke="#979797" stroke-width="4"></line>
                <line x1="23" y1="192" x2="398" y2="334" id="Path" stroke="#979797" stroke-width="4"></line>
                <line x1="161" y1="334" x2="522" y2="182" id="Path" stroke="#979797" stroke-width="4"></line>
                <line x1="400.25" y1="28" x2="400.75" y2="338" id="Path" stroke="#979797" stroke-width="4"></line>
                <polyline id="Path-Copy-2" stroke="#979797" stroke-width="4" points="400.538829 27 522.402628 178.821632 150.837515 27 400.228196 27 23 191.971537 523 178.821632 401.136201 342"></polyline>
                <path d="M400,26.6024684 C241.676101,231.534156 162.514151,334 162.514151,334 C162.514151,334 157.342767,229.333333 147,20" id="Line-2" stroke="#979797" stroke-width="4" stroke-linecap="square"></path>
                <polyline id="Line-3" stroke="#979797" stroke-width="4" stroke-linecap="square" points="150.299735 28 19 191.757813 162.236074 334 397 334"></polyline>
                <g id="F" transform="translate(0.000000, 162.000000)">
                    <circle id="Oval" stroke="#0D2233" stroke-width="3" fill="#0D2233" cx="26.5" cy="26.5" r="25"></circle>
                    <polygon fill="#FFFFFF" fill-rule="nonzero" points="24.36 34.752 24.36 27.672 29.712 27.672 29.712 25.008 24.36 25.008 24.36 20.712 31.344 20.712 31.344 18 21 18 21 34.752"></polygon>
                </g>
                <g id="E" transform="translate(135.000000, 308.000000)">
                    <circle id="Oval" stroke="#0D2233" stroke-width="3" fill="#0D2233" cx="26.5" cy="26.5" r="25"></circle>
                    <polygon fill="#FFFFFF" fill-rule="nonzero" points="31.72 34.776 31.72 32.04 25.36 32.04 25.36 27.6 31 27.6 31 24.936 25.36 24.936 25.36 20.736 31.72 20.736 31.72 18 22 18 22 34.776"></polygon>
                </g>
                <g id="D" transform="translate(371.000000, 308.000000)">
                    <circle id="Oval" stroke="#0D2233" stroke-width="3" fill="#0D2233" cx="26.5" cy="26.5" r="25"></circle>
                    <path d="M24.856,34.752 C26.616,34.752 28.164,34.408 29.5,33.72 C30.836,33.032 31.868,32.06 32.596,30.804 C33.324,29.548 33.688,28.08 33.688,26.4 C33.688,24.72 33.324,23.244 32.596,21.972 C31.868,20.7 30.836,19.72 29.5,19.032 C28.164,18.344 26.616,18 24.856,18 L24.856,18 L19,18 L19,34.752 L24.856,34.752 Z M24.736,31.896 L22.36,31.896 L22.36,20.832 L24.736,20.832 C26.496,20.832 27.856,21.324 28.816,22.308 C29.776,23.292 30.256,24.656 30.256,26.4 C30.256,28.144 29.776,29.496 28.816,30.456 C27.856,31.416 26.496,31.896 24.736,31.896 L24.736,31.896 Z" fill="#FFFFFF" fill-rule="nonzero"></path>
                </g>
                <g id="C" transform="translate(495.000000, 152.000000)">
                    <circle id="Oval" stroke="#0D2233" stroke-width="3" fill="#0D2233" cx="26.5" cy="26.5" r="25"></circle>
                    <path d="M26.496,35.112 C28.384,35.112 30.028,34.636 31.428,33.684 C32.828,32.732 33.808,31.4 34.368,29.688 L34.368,29.688 L30.504,29.688 C30.12,30.488 29.58,31.092 28.884,31.5 C28.188,31.908 27.384,32.112 26.472,32.112 C25.496,32.112 24.628,31.884 23.868,31.428 C23.108,30.972 22.516,30.324 22.092,29.484 C21.668,28.644 21.456,27.672 21.456,26.568 C21.456,25.448 21.668,24.472 22.092,23.64 C22.516,22.808 23.108,22.164 23.868,21.708 C24.628,21.252 25.496,21.024 26.472,21.024 C27.384,21.024 28.188,21.224 28.884,21.624 C29.58,22.024 30.12,22.624 30.504,23.424 L30.504,23.424 L34.368,23.424 C33.808,21.728 32.824,20.4 31.416,19.44 C30.008,18.48 28.368,18 26.496,18 C24.896,18 23.452,18.364 22.164,19.092 C20.876,19.82 19.86,20.836 19.116,22.14 C18.372,23.444 18,24.92 18,26.568 C18,28.216 18.372,29.688 19.116,30.984 C19.86,32.28 20.876,33.292 22.164,34.02 C23.452,34.748 24.896,35.112 26.496,35.112 Z" fill="#FFFFFF" fill-rule="nonzero"></path>
                </g>
                <g id="B" transform="translate(374.000000, 0.000000)">
                    <circle id="Oval" stroke="#0D2233" stroke-width="3" fill="#0D2233" cx="26.5" cy="26.5" r="25"></circle>
                    <path d="M27.224,34.752 C28.36,34.752 29.344,34.56 30.176,34.176 C31.008,33.792 31.644,33.26 32.084,32.58 C32.524,31.9 32.744,31.112 32.744,30.216 C32.744,29.224 32.44,28.344 31.832,27.576 C31.224,26.808 30.448,26.336 29.504,26.16 C30.368,25.888 31.06,25.424 31.58,24.768 C32.1,24.112 32.36,23.296 32.36,22.32 C32.36,21.488 32.148,20.744 31.724,20.088 C31.3,19.432 30.676,18.92 29.852,18.552 C29.028,18.184 28.048,18 26.912,18 L26.912,18 L20,18 L20,34.752 L27.224,34.752 Z M26.432,24.912 L23.36,24.912 L23.36,20.712 L26.432,20.712 C27.232,20.712 27.848,20.896 28.28,21.264 C28.712,21.632 28.928,22.152 28.928,22.824 C28.928,23.496 28.712,24.012 28.28,24.372 C27.848,24.732 27.232,24.912 26.432,24.912 L26.432,24.912 Z M26.744,32.016 L23.36,32.016 L23.36,27.504 L26.672,27.504 C27.488,27.504 28.136,27.708 28.616,28.116 C29.096,28.524 29.336,29.088 29.336,29.808 C29.336,30.512 29.108,31.056 28.652,31.44 C28.196,31.824 27.56,32.016 26.744,32.016 L26.744,32.016 Z" fill="#FFFFFF" fill-rule="nonzero"></path>
                </g>
                <g id="A" transform="translate(121.000000, 0.000000)">
                    <circle id="Oval" stroke="#0D2233" stroke-width="3" fill="#0D2233" cx="26.5" cy="26.5" r="25"></circle>
                    <path d="M22.528,34.776 L23.632,31.584 L30.304,31.584 L31.408,34.776 L34.96,34.776 L28.936,18 L25.024,18 L19,34.776 L22.528,34.776 Z M29.392,28.896 L24.544,28.896 L26.968,21.888 L29.392,28.896 Z" fill="#FFFFFF" fill-rule="nonzero"></path>
                </g>
            </g>
            <path d="M196.27,23.52 L196.27,15.48 L199.78,15.48 C201.5,15.48 202.925,15.18 204.055,14.58 C205.185,13.98 206.015,13.19 206.545,12.21 C207.075,11.23 207.34,10.18 207.34,9.06 C207.34,7.82 207.055,6.71 206.485,5.73 C205.915,4.75 205.06,3.98 203.92,3.42 C202.78,2.86 201.4,2.58 199.78,2.58 L199.78,2.58 L192.07,2.58 L192.07,23.52 L196.27,23.52 Z M199.6,12.09 L196.27,12.09 L196.27,6 L199.6,6 C201.88,6 203.02,7.02 203.02,9.06 C203.02,10.02 202.74,10.765 202.18,11.295 C201.62,11.825 200.76,12.09 199.6,12.09 L199.6,12.09 Z M217.69,23.79 C219.31,23.79 220.775,23.435 222.085,22.725 C223.395,22.015 224.435,21.01 225.205,19.71 C225.975,18.41 226.36,16.91 226.36,15.21 C226.36,13.51 225.985,12.01 225.235,10.71 C224.485,9.41 223.46,8.405 222.16,7.695 C220.86,6.985 219.41,6.63 217.81,6.63 C216.21,6.63 214.76,6.985 213.46,7.695 C212.16,8.405 211.135,9.41 210.385,10.71 C209.635,12.01 209.26,13.51 209.26,15.21 C209.26,16.91 209.625,18.41 210.355,19.71 C211.085,21.01 212.09,22.015 213.37,22.725 C214.65,23.435 216.09,23.79 217.69,23.79 Z M217.69,20.13 C216.49,20.13 215.495,19.705 214.705,18.855 C213.915,18.005 213.52,16.79 213.52,15.21 C213.52,13.63 213.925,12.415 214.735,11.565 C215.545,10.715 216.55,10.29 217.75,10.29 C218.95,10.29 219.965,10.715 220.795,11.565 C221.625,12.415 222.04,13.63 222.04,15.21 C222.04,16.27 221.84,17.17 221.44,17.91 C221.04,18.65 220.505,19.205 219.835,19.575 C219.165,19.945 218.45,20.13 217.69,20.13 Z M231.58,4.92 C232.32,4.92 232.935,4.685 233.425,4.215 C233.915,3.745 234.16,3.16 234.16,2.46 C234.16,1.76 233.915,1.175 233.425,0.705 C232.935,0.235 232.32,0 231.58,0 C230.84,0 230.225,0.235 229.735,0.705 C229.245,1.175 229,1.76 229,2.46 C229,3.16 229.245,3.745 229.735,4.215 C230.225,4.685 230.84,4.92 231.58,4.92 Z M233.65,23.52 L233.65,6.9 L229.45,6.9 L229.45,23.52 L233.65,23.52 Z M241.99,23.52 L241.99,14.34 C241.99,13.02 242.325,12.005 242.995,11.295 C243.665,10.585 244.58,10.23 245.74,10.23 C246.88,10.23 247.78,10.585 248.44,11.295 C249.1,12.005 249.43,13.02 249.43,14.34 L249.43,14.34 L249.43,23.52 L253.63,23.52 L253.63,13.77 C253.63,11.53 253.02,9.785 251.8,8.535 C250.58,7.285 248.98,6.66 247,6.66 C245.96,6.66 245.005,6.865 244.135,7.275 C243.265,7.685 242.55,8.25 241.99,8.97 L241.99,8.97 L241.99,6.9 L237.79,6.9 L237.79,23.52 L241.99,23.52 Z M266.23,23.52 L266.23,19.98 L264.28,19.98 C263.64,19.98 263.185,19.855 262.915,19.605 C262.645,19.355 262.51,18.95 262.51,18.39 L262.51,18.39 L262.51,10.35 L266.23,10.35 L266.23,6.9 L262.51,6.9 L262.51,2.79 L258.28,2.79 L258.28,6.9 L256.3,6.9 L256.3,10.35 L258.28,10.35 L258.28,18.36 C258.28,21.8 260.05,23.52 263.59,23.52 L263.59,23.52 L266.23,23.52 Z M282.04,14.58 L282.04,11.04 L269.32,11.04 L269.32,14.58 L282.04,14.58 Z M295.36,23.52 L295.36,19.98 L293.41,19.98 C292.77,19.98 292.315,19.855 292.045,19.605 C291.775,19.355 291.64,18.95 291.64,18.39 L291.64,18.39 L291.64,10.35 L295.36,10.35 L295.36,6.9 L291.64,6.9 L291.64,2.79 L287.41,2.79 L287.41,6.9 L285.43,6.9 L285.43,10.35 L287.41,10.35 L287.41,18.36 C287.41,21.8 289.18,23.52 292.72,23.52 L292.72,23.52 L295.36,23.52 Z M305.77,23.79 C307.39,23.79 308.855,23.435 310.165,22.725 C311.475,22.015 312.515,21.01 313.285,19.71 C314.055,18.41 314.44,16.91 314.44,15.21 C314.44,13.51 314.065,12.01 313.315,10.71 C312.565,9.41 311.54,8.405 310.24,7.695 C308.94,6.985 307.49,6.63 305.89,6.63 C304.29,6.63 302.84,6.985 301.54,7.695 C300.24,8.405 299.215,9.41 298.465,10.71 C297.715,12.01 297.34,13.51 297.34,15.21 C297.34,16.91 297.705,18.41 298.435,19.71 C299.165,21.01 300.17,22.015 301.45,22.725 C302.73,23.435 304.17,23.79 305.77,23.79 Z M305.77,20.13 C304.57,20.13 303.575,19.705 302.785,18.855 C301.995,18.005 301.6,16.79 301.6,15.21 C301.6,13.63 302.005,12.415 302.815,11.565 C303.625,10.715 304.63,10.29 305.83,10.29 C307.03,10.29 308.045,10.715 308.875,11.565 C309.705,12.415 310.12,13.63 310.12,15.21 C310.12,16.27 309.92,17.17 309.52,17.91 C309.12,18.65 308.585,19.205 307.915,19.575 C307.245,19.945 306.53,20.13 305.77,20.13 Z M330.31,14.58 L330.31,11.04 L317.59,11.04 L317.59,14.58 L330.31,14.58 Z M339.22,23.52 L339.22,15.48 L342.73,15.48 C344.45,15.48 345.875,15.18 347.005,14.58 C348.135,13.98 348.965,13.19 349.495,12.21 C350.025,11.23 350.29,10.18 350.29,9.06 C350.29,7.82 350.005,6.71 349.435,5.73 C348.865,4.75 348.01,3.98 346.87,3.42 C345.73,2.86 344.35,2.58 342.73,2.58 L342.73,2.58 L335.02,2.58 L335.02,23.52 L339.22,23.52 Z M342.55,12.09 L339.22,12.09 L339.22,6 L342.55,6 C344.83,6 345.97,7.02 345.97,9.06 C345.97,10.02 345.69,10.765 345.13,11.295 C344.57,11.825 343.71,12.09 342.55,12.09 L342.55,12.09 Z M360.64,23.79 C362.26,23.79 363.725,23.435 365.035,22.725 C366.345,22.015 367.385,21.01 368.155,19.71 C368.925,18.41 369.31,16.91 369.31,15.21 C369.31,13.51 368.935,12.01 368.185,10.71 C367.435,9.41 366.41,8.405 365.11,7.695 C363.81,6.985 362.36,6.63 360.76,6.63 C359.16,6.63 357.71,6.985 356.41,7.695 C355.11,8.405 354.085,9.41 353.335,10.71 C352.585,12.01 352.21,13.51 352.21,15.21 C352.21,16.91 352.575,18.41 353.305,19.71 C354.035,21.01 355.04,22.015 356.32,22.725 C357.6,23.435 359.04,23.79 360.64,23.79 Z M360.64,20.13 C359.44,20.13 358.445,19.705 357.655,18.855 C356.865,18.005 356.47,16.79 356.47,15.21 C356.47,13.63 356.875,12.415 357.685,11.565 C358.495,10.715 359.5,10.29 360.7,10.29 C361.9,10.29 362.915,10.715 363.745,11.565 C364.575,12.415 364.99,13.63 364.99,15.21 C364.99,16.27 364.79,17.17 364.39,17.91 C363.99,18.65 363.455,19.205 362.785,19.575 C362.115,19.945 361.4,20.13 360.64,20.13 Z M374.53,4.92 C375.27,4.92 375.885,4.685 376.375,4.215 C376.865,3.745 377.11,3.16 377.11,2.46 C377.11,1.76 376.865,1.175 376.375,0.705 C375.885,0.235 375.27,0 374.53,0 C373.79,0 373.175,0.235 372.685,0.705 C372.195,1.175 371.95,1.76 371.95,2.46 C371.95,3.16 372.195,3.745 372.685,4.215 C373.175,4.685 373.79,4.92 374.53,4.92 Z M376.6,23.52 L376.6,6.9 L372.4,6.9 L372.4,23.52 L376.6,23.52 Z M384.94,23.52 L384.94,14.34 C384.94,13.02 385.275,12.005 385.945,11.295 C386.615,10.585 387.53,10.23 388.69,10.23 C389.83,10.23 390.73,10.585 391.39,11.295 C392.05,12.005 392.38,13.02 392.38,14.34 L392.38,14.34 L392.38,23.52 L396.58,23.52 L396.58,13.77 C396.58,11.53 395.97,9.785 394.75,8.535 C393.53,7.285 391.93,6.66 389.95,6.66 C388.91,6.66 387.955,6.865 387.085,7.275 C386.215,7.685 385.5,8.25 384.94,8.97 L384.94,8.97 L384.94,6.9 L380.74,6.9 L380.74,23.52 L384.94,23.52 Z M409.18,23.52 L409.18,19.98 L407.23,19.98 C406.59,19.98 406.135,19.855 405.865,19.605 C405.595,19.355 405.46,18.95 405.46,18.39 L405.46,18.39 L405.46,10.35 L409.18,10.35 L409.18,6.9 L405.46,6.9 L405.46,2.79 L401.23,2.79 L401.23,6.9 L399.25,6.9 L399.25,10.35 L401.23,10.35 L401.23,18.36 C401.23,21.8 403,23.52 406.54,23.52 L406.54,23.52 L409.18,23.52 Z" id="Point-to-Point" fill="#0D2233" fill-rule="nonzero"></path>
        </g>
    </g>
</svg>