<?xml version="1.0" encoding="UTF-8"?>
<svg width="538px" height="138px" viewBox="0 0 538 138" version="1.1" xmlns="http://www.w3.org/2000/svg" xmlns:xlink="http://www.w3.org/1999/xlink">
    <title>jt-logo-white</title>
    <g id="Page-1" stroke="none" stroke-width="1" fill="none" fill-rule="evenodd">
        <g id="jt-logo-white" transform="translate(0.540543, 0.969000)" fill-rule="nonzero">
            <path d="M141.066457,86.512 C141.066457,91.915 138.512457,95.353 133.404457,95.353 C128.198457,95.353 125.545457,91.817 125.447457,86.021 L111.694457,86.021 C111.694457,99.872 120.732457,107.632 133.601457,107.632 C146.273457,107.632 154.918457,100.068 154.918457,86.512 L154.918457,38.377 L141.066457,38.377 L141.066457,86.512 Z M507.223457,35.953 L511.616457,35.953 L511.616457,50.284 L513.710457,50.284 L513.710457,35.953 L518.080457,35.953 L518.080457,34.251 L507.223457,34.251 L507.223457,35.953 Z M520.656457,50.284 L522.749457,50.284 L522.749457,38.391 L528.063457,50.284 L529.535457,50.284 L534.825457,38.415 L534.825457,50.284 L536.919457,50.284 L536.919457,34.366 L534.687457,34.366 L528.799457,47.523 L522.910457,34.366 L520.656457,34.366 L520.656457,50.284 Z M455.539457,63.034 L455.539457,53.112 L446.600457,53.112 L446.600457,132.486 L455.539457,132.486 L455.539457,97.023 C458.879457,102.524 465.854457,107.829 475.678457,107.829 C490.118457,107.829 501.219457,96.532 501.219457,79.832 C501.219457,63.034 490.118457,52.228 475.678457,52.228 C465.854457,52.228 458.781457,57.336 455.539457,63.034 Z M492.082457,79.832 C492.082457,92.504 483.733457,99.97 473.811457,99.97 C464.086457,99.97 455.539457,92.603 455.539457,79.93 C455.539457,67.454 464.086457,59.989 473.811457,59.989 C483.733457,59.989 492.082457,67.16 492.082457,79.832 Z M425.812457,106.945 L434.751457,106.945 L434.751457,53.113 L425.812457,53.113 L425.812457,106.945 Z M430.429457,44.369 C433.671457,44.369 436.323457,41.717 436.323457,38.279 C436.323457,34.841 433.671457,32.188 430.429457,32.188 C426.991457,32.188 424.339457,34.841 424.339457,38.279 C424.339457,41.717 426.991457,44.369 430.429457,44.369 Z M401.488457,77.671 C401.488457,65.195 407.971457,61.364 416.518457,61.364 L418.876457,61.364 L418.876457,52.13 C410.329457,52.13 404.533457,55.863 401.488457,61.855 L401.488457,53.112 L392.548457,53.112 L392.548457,106.945 L401.488457,106.945 L401.488457,77.671 Z M338.557457,45.744 L357.320457,45.744 L357.320457,106.945 L366.260457,106.945 L366.260457,45.744 L384.924457,45.744 L384.924457,38.475 L338.557457,38.475 L338.557457,45.744 Z M287.638457,106.945 L301.390457,106.945 L301.390457,83.761 L319.859457,106.945 L337.737457,106.945 L313.572457,79.832 L337.541457,52.523 L319.662457,52.523 L301.390457,75.608 L301.390457,34.251 L287.638457,34.251 L287.638457,106.945 Z M227.974457,79.734 C227.974457,96.826 239.173457,107.829 254.891457,107.829 C268.447457,107.829 277.583457,100.166 280.530457,88.575 L265.697457,88.575 C264.027457,93.487 260.490457,96.041 254.793457,96.041 C247.130457,96.041 242.022457,90.343 242.022457,79.734 C242.022457,69.124 247.130457,63.329 254.793457,63.329 C260.490457,63.329 264.125457,66.276 265.697457,70.893 L280.530457,70.893 C277.583457,58.712 268.447457,51.639 254.891457,51.639 C239.173457,51.639 227.974457,62.641 227.974457,79.734 Z M164.382457,79.537 C164.382457,96.532 175.385457,107.829 189.138457,107.829 C197.783457,107.829 203.971457,103.703 207.213457,98.988 L207.213457,106.945 L221.064457,106.945 L221.064457,52.523 L207.213457,52.523 L207.213457,60.283 C203.971457,55.765 197.979457,51.639 189.236457,51.639 C175.385457,51.639 164.382457,62.543 164.382457,79.537 Z M207.213457,79.734 C207.213457,90.049 200.337457,95.746 192.773457,95.746 C185.404457,95.746 178.430457,89.852 178.430457,79.537 C178.430457,69.223 185.404457,63.721 192.773457,63.721 C200.337457,63.721 207.213457,69.419 207.213457,79.734 L207.213457,79.734 Z" id="Fill-2" fill="#FFFFFF"></path>
            <path d="M17.3434566,108.942 C17.3854566,109.015 17.4244566,109.087 17.4604566,109.161 L21.6294566,116.382 L21.6354566,116.378 C24.8964566,122.025 30.1784566,125.829 36.0574566,127.403 C41.9404566,128.98 48.4154566,128.329 54.0554566,125.072 C54.1234566,125.033 54.1904566,124.997 54.2584566,124.962 C59.7914566,121.7 63.5234566,116.471 65.0824566,110.651 C66.6604566,104.761 66.0094566,98.281 62.7504566,92.636 L36.1944566,46.638 C32.2224566,46.506 29.0414566,43.245 29.0414566,39.239 C29.0414566,35.151 32.3564566,31.836 36.4454566,31.836 C40.5344566,31.836 43.8484566,35.151 43.8484566,39.239 C43.8484566,40.507 43.5294566,41.699 42.9694566,42.742 L69.5264566,88.742 C73.8714566,96.267 74.7454566,104.874 72.6554566,112.675 C70.5964566,120.359 65.6554566,127.282 58.3134566,131.644 C58.1224566,131.782 57.9174566,131.903 57.7014566,132.006 C50.2414566,136.215 41.7454566,137.042 34.0334566,134.976 C26.3114566,132.908 19.3604566,127.936 15.0084566,120.557 C14.8814566,120.372 14.7704566,120.175 14.6754566,119.968 L10.6914566,113.066 C10.6494566,113.001 10.6064566,112.935 10.5674566,112.867 C10.1074566,112.071 9.33645659,111.527 8.47245659,111.296 C7.60645659,111.065 6.66845659,111.148 5.87845659,111.603 C4.00745659,112.686 1.61145659,112.049 0.527456595,110.178 C-0.555543405,108.307 0.0824565944,105.911 1.95345659,104.827 C4.62745659,103.282 7.71145659,102.978 10.4964566,103.723 C13.2854566,104.47 15.8024566,106.273 17.3434566,108.942 Z M45.3494566,0 C49.4384566,0 52.7524566,3.315 52.7524566,7.404 C52.7524566,11.493 49.4384566,14.807 45.3494566,14.807 C44.0824566,14.807 42.8904566,14.488 41.8464566,13.928 L27.0354566,22.479 C26.9704566,22.522 26.9044566,22.564 26.8364566,22.603 C22.9384566,24.854 20.3124566,28.501 19.2254566,32.561 C18.1364566,36.624 18.5834566,41.094 20.8304566,44.986 L20.9714566,45.229 C21.0134566,45.301 21.0524566,45.374 21.0894566,45.448 L51.7594566,98.57 C51.9214566,98.797 52.0554566,99.038 52.1634566,99.289 C53.5154566,101.866 53.7574566,104.779 53.0494566,107.42 C52.3304566,110.107 50.6304566,112.541 48.1194566,114.093 C46.5884566,115.167 44.4604566,115.022 43.0924566,113.654 C41.5604566,112.122 41.5604566,109.636 43.0924566,108.104 L43.0934566,108.103 L43.0994566,108.109 C43.3354566,107.874 43.6034566,107.665 43.9054566,107.49 C44.7024566,107.03 45.2454566,106.26 45.4764566,105.397 C45.7094566,104.528 45.6274566,103.588 45.1744566,102.796 L45.1694566,102.787 L14.3204566,49.353 C14.2774566,49.288 14.2354566,49.222 14.1964566,49.154 L14.0544566,48.911 C10.7194566,43.133 10.0484566,36.526 11.6524566,30.537 C13.2574566,24.546 17.1404566,19.159 22.9114566,15.827 C22.9834566,15.785 23.0564566,15.747 23.1304566,15.71 L37.9504566,7.154 C38.0824566,3.181 41.3444566,0 45.3494566,0 L45.3494566,0 Z" id="Fill-3" fill="#F21B1B"></path>
        </g>
    </g>
</svg>