<?xml version="1.0" encoding="UTF-8"?>
<svg width="537px" height="138px" viewBox="0 0 537 138" version="1.1" xmlns="http://www.w3.org/2000/svg" xmlns:xlink="http://www.w3.org/1999/xlink">
    <title>Group 7</title>
    <defs>
        <polygon id="path-1" points="0.6941 0.1266 425.919 0.1266 425.919 100.4246 0.6941 100.4246"></polygon>
        <polygon id="path-3" points="0.000307433067 0.939 73.7391423 0.939 73.7391423 136.999709 0.000307433067 136.999709"></polygon>
    </defs>
    <g id="Page-1" stroke="none" stroke-width="1" fill="none" fill-rule="evenodd">
        <g id="Group-7">
            <g id="Group-3" transform="translate(111.000000, 33.061000)">
                <mask id="mask-2" fill="white">
                    <use xlink:href="#path-1"></use>
                </mask>
                <g id="Clip-2"></g>
                <path d="M96.2131,47.6726 C96.2131,57.9866 89.3371,63.6846 81.7731,63.6846 C74.4041,63.6846 67.4301,57.7906 67.4301,47.4766 C67.4301,37.1606 74.4041,31.6596 81.7731,31.6596 C89.3371,31.6596 96.2131,37.3576 96.2131,47.6726 L96.2131,47.6726 Z M53.3821,47.4766 C53.3821,64.4706 64.3841,75.7676 78.1381,75.7676 C86.7831,75.7676 92.9711,71.6416 96.2131,66.9266 L96.2131,74.8836 L110.0641,74.8836 L110.0641,20.4616 L96.2131,20.4616 L96.2131,28.2216 C92.9711,23.7026 86.9791,19.5766 78.2361,19.5766 C64.3841,19.5766 53.3821,30.4816 53.3821,47.4766 L53.3821,47.4766 Z M116.9741,47.6726 C116.9741,64.7656 128.1731,75.7676 143.8911,75.7676 C157.4471,75.7676 166.5831,68.1056 169.5301,56.5136 L154.6971,56.5136 C153.0271,61.4256 149.4901,63.9796 143.7931,63.9796 C136.1301,63.9796 131.0221,58.2816 131.0221,47.6726 C131.0221,37.0636 136.1301,31.2666 143.7931,31.2666 C149.4901,31.2666 153.1251,34.2146 154.6971,38.8316 L169.5301,38.8316 C166.5831,26.6506 157.4471,19.5766 143.8911,19.5766 C128.1731,19.5766 116.9741,30.5796 116.9741,47.6726 L116.9741,47.6726 Z M176.6381,74.8836 L190.3911,74.8836 L190.3911,51.6996 L208.8591,74.8836 L226.7371,74.8836 L202.5711,47.7706 L226.5411,20.4616 L208.6621,20.4616 L190.3911,43.5466 L190.3911,2.1896 L176.6381,2.1896 L176.6381,74.8836 Z M227.5581,13.6826 L246.3201,13.6826 L246.3201,74.8836 L255.2601,74.8836 L255.2601,13.6826 L273.9241,13.6826 L273.9241,6.4136 L227.5581,6.4136 L227.5581,13.6826 Z M290.4871,45.6096 C290.4871,33.1336 296.9721,29.3026 305.5181,29.3026 L307.8751,29.3026 L307.8751,20.0686 C299.3291,20.0686 293.5331,23.8006 290.4871,29.7936 L290.4871,21.0506 L281.5491,21.0506 L281.5491,74.8836 L290.4871,74.8836 L290.4871,45.6096 Z M319.4291,12.3076 C322.6711,12.3076 325.3231,9.6556 325.3231,6.2166 C325.3231,2.7786 322.6711,0.1266 319.4291,0.1266 C315.9911,0.1266 313.3391,2.7786 313.3391,6.2166 C313.3391,9.6556 315.9911,12.3076 319.4291,12.3076 L319.4291,12.3076 Z M314.8131,74.8836 L323.7521,74.8836 L323.7521,21.0506 L314.8131,21.0506 L314.8131,74.8836 Z M381.0821,47.7706 C381.0821,60.4436 372.7331,67.9086 362.8121,67.9086 C353.0861,67.9086 344.5391,60.5406 344.5391,47.8686 C344.5391,35.3926 353.0861,27.9266 362.8121,27.9266 C372.7331,27.9266 381.0821,35.0976 381.0821,47.7706 L381.0821,47.7706 Z M344.5391,30.9726 L344.5391,21.0506 L335.6001,21.0506 L335.6001,100.4246 L344.5391,100.4246 L344.5391,64.9616 C347.8791,70.4626 354.8551,75.7676 364.6781,75.7676 C379.1181,75.7676 390.2191,64.4706 390.2191,47.7706 C390.2191,30.9726 379.1181,20.1666 364.6781,20.1666 C354.8551,20.1666 347.7811,25.2746 344.5391,30.9726 L344.5391,30.9726 Z M409.6561,18.2216 L411.7491,18.2216 L411.7491,6.3296 L417.0631,18.2216 L418.5351,18.2216 L423.8251,6.3536 L423.8251,18.2216 L425.9191,18.2216 L425.9191,2.3046 L423.6881,2.3046 L417.7991,15.4616 L411.9101,2.3046 L409.6561,2.3046 L409.6561,18.2216 Z M396.2241,3.8916 L400.6161,3.8916 L400.6161,18.2216 L402.7101,18.2216 L402.7101,3.8916 L407.0801,3.8916 L407.0801,2.1896 L396.2241,2.1896 L396.2241,3.8916 Z M30.0671,54.4496 C30.0671,59.8536 27.5121,63.2916 22.4041,63.2916 C17.1981,63.2916 14.5461,59.7546 14.4471,53.9596 L0.6941,53.9596 C0.6941,67.8106 9.7321,75.5706 22.6011,75.5706 C35.2731,75.5706 43.9181,68.0066 43.9181,54.4496 L43.9181,6.3156 L30.0671,6.3156 L30.0671,54.4496 Z" id="Fill-1" fill="#FFFFFF" mask="url(#mask-2)"></path>
            </g>
            <g id="Group-6" transform="translate(0.000000, 0.061000)">
                <mask id="mask-4" fill="white">
                    <use xlink:href="#path-3"></use>
                </mask>
                <g id="Clip-5"></g>
                <path d="M45.3488,0.9387 C41.3438,0.9387 38.0818,4.1197 37.9508,8.0917 L23.1298,16.6487 C23.0558,16.6847 22.9838,16.7237 22.9118,16.7657 C17.1408,20.0977 13.2568,25.4837 11.6528,31.4747 C10.0478,37.4647 10.7188,44.0717 14.0548,49.8497 L14.1958,50.0927 C14.2348,50.1607 14.2778,50.2267 14.3198,50.2917 L45.1698,103.7257 L45.1748,103.7337 C45.6268,104.5257 45.7088,105.4667 45.4768,106.3347 C45.2458,107.1977 44.7018,107.9687 43.9058,108.4287 C43.6038,108.6047 43.3348,108.8127 43.0988,109.0467 L43.0928,109.0417 L43.0928,109.0427 C41.5598,110.5737 41.5598,113.0607 43.0928,114.5927 C44.4598,115.9607 46.5888,116.1057 48.1188,115.0317 C50.6298,113.4797 52.3298,111.0457 53.0498,108.3587 C53.7568,105.7177 53.5148,102.8057 52.1628,100.2277 C52.0548,99.9767 51.9208,99.7357 51.7588,99.5087 L21.0898,46.3857 C21.0528,46.3127 21.0138,46.2397 20.9718,46.1677 L20.8298,45.9237 C18.5838,42.0327 18.1358,37.5627 19.2248,33.4997 C20.3128,29.4397 22.9378,25.7927 26.8368,23.5417 C26.9048,23.5017 26.9708,23.4597 27.0358,23.4177 L41.8468,14.8667 C42.8898,15.4267 44.0818,15.7457 45.3488,15.7457 C49.4378,15.7457 52.7518,12.4317 52.7518,8.3427 C52.7518,4.2527 49.4378,0.9387 45.3488,0.9387 M17.3428,109.8807 C17.3848,109.9537 17.4238,110.0247 17.4598,110.0997 L21.6288,117.3197 L21.6358,117.3157 C24.8958,122.9637 30.1778,126.7677 36.0568,128.3417 C41.9408,129.9187 48.4148,129.2677 54.0548,126.0107 C54.1228,125.9717 54.1898,125.9357 54.2588,125.8997 C59.7908,122.6387 63.5238,117.4097 65.0818,111.5897 C66.6608,105.6987 66.0098,99.2207 62.7508,93.5747 L36.1948,47.5767 C32.2218,47.4447 29.0408,44.1827 29.0408,40.1777 C29.0408,36.0887 32.3558,32.7747 36.4448,32.7747 C40.5338,32.7747 43.8488,36.0887 43.8488,40.1777 C43.8488,41.4447 43.5288,42.6367 42.9688,43.6807 L69.5268,89.6807 C73.8708,97.2057 74.7448,105.8127 72.6558,113.6127 C70.5968,121.2967 65.6548,128.2207 58.3138,132.5817 C58.1218,132.7207 57.9168,132.8417 57.7018,132.9447 C50.2418,137.1527 41.7448,137.9807 34.0338,135.9147 C26.3108,133.8467 19.3608,128.8747 15.0078,121.4957 C14.8818,121.3117 14.7698,121.1127 14.6758,120.9067 L10.6908,114.0047 C10.6488,113.9387 10.6068,113.8737 10.5668,113.8057 C10.1078,113.0097 9.3358,112.4657 8.4718,112.2347 C7.6058,112.0027 6.6678,112.0867 5.8778,112.5417 C4.0078,113.6247 1.6108,112.9877 0.5278,111.1157 C-0.5552,109.2457 0.0828,106.8497 1.9528,105.7657 C4.6278,104.2207 7.7108,103.9157 10.4958,104.6617 C13.2848,105.4087 15.8018,107.2117 17.3428,109.8807" id="Fill-4" fill="#F21B1B" mask="url(#mask-4)"></path>
            </g>
        </g>
    </g>
</svg>