<svg id="Layer_1" data-name="Layer 1" xmlns="http://www.w3.org/2000/svg" viewBox="0 0 91.59 23.21"><defs><style>.cls-1{fill:#0b0b15;}.cls-1,.cls-2{fill-rule:evenodd;}.cls-2{fill:#ff0901;}</style></defs><path class="cls-1" d="M41.8,47.59c0,.92-.44,1.5-1.31,1.5s-1.34-.6-1.36-1.59H36.79a3.45,3.45,0,0,0,3.73,3.69,3.35,3.35,0,0,0,3.64-3.6V39.37H41.8v8.22ZM104.26,39H105v2.45h.35V39h.75v-.29h-1.85V39Zm2.29,2.45h.35v-2l.91,2h.25l.9-2v2h.36V38.69h-.38l-1,2.25-1-2.25h-.38v2.72ZM95.44,43.58V41.89H93.91V55.43h1.53v-6a4,4,0,0,0,3.43,1.84c2.47,0,4.36-1.93,4.36-4.77s-1.89-4.71-4.36-4.71a3.88,3.88,0,0,0-3.43,1.84Zm6.23,2.87a3.13,3.13,0,1,1-6.23,0,3.15,3.15,0,0,1,3.12-3.4,3.1,3.1,0,0,1,3.11,3.39Zm-11.3,4.62h1.52V41.89H90.37v9.18Zm.79-10.67a1,1,0,1,0-1-1,1,1,0,0,0,1,1Zm-4.94,5.68c0-2.13,1.11-2.78,2.56-2.78h.41V41.72a3.1,3.1,0,0,0-3,1.66V41.89H84.69v9.18h1.53v-5ZM75.49,40.63h3.2V51.07h1.52V40.63h3.18V39.39h-7.9v1.24ZM66.8,51.07h2.35v-4l3.15,4h3l-4.13-4.62,4.09-4.66h-3l-3.11,3.94V38.67H66.8v12.4ZM56.62,46.43a4.45,4.45,0,0,0,4.59,4.79,4.24,4.24,0,0,0,4.38-3.28H63.06a1.77,1.77,0,0,1-1.86,1.27c-1.31,0-2.18-1-2.18-2.78s.87-2.8,2.18-2.8a1.82,1.82,0,0,1,1.86,1.29h2.53a4.14,4.14,0,0,0-4.38-3.28,4.45,4.45,0,0,0-4.59,4.79Zm-10.85,0c0,2.89,1.88,4.82,4.23,4.82a3.64,3.64,0,0,0,3.08-1.51v1.36h2.36V41.79H53.08v1.32A3.66,3.66,0,0,0,50,41.64c-2.36,0-4.24,1.86-4.24,4.76Zm7.31,0a2.5,2.5,0,0,1-2.46,2.73,2.53,2.53,0,0,1-2.45-2.76,2.47,2.47,0,1,1,4.91,0Z" transform="translate(-17.73 -32.83)"/><path class="cls-2" d="M20.69,51.41a.08.08,0,0,1,0,0l.71,1.23h0a4.07,4.07,0,0,0,2.46,1.88,4,4,0,0,0,3.07-.4l0,0a4.06,4.06,0,0,0,1.45-5.51l-4.53-7.85a1.26,1.26,0,1,1,1.3-1.26,1.21,1.21,0,0,1-.15.6L29.59,48a5.37,5.37,0,0,1-1.91,7.31l-.1.07a5.42,5.42,0,0,1-7.29-2,.31.31,0,0,1-.05-.1l-.68-1.17,0,0a.61.61,0,0,0-.36-.27.56.56,0,0,0-.44.06.68.68,0,0,1-.92-.25.67.67,0,0,1,.25-.91,1.9,1.9,0,0,1,1.45-.19,1.93,1.93,0,0,1,1.17.89Zm4.78-18.58a1.26,1.26,0,0,0-1.26,1.22l-2.53,1.46,0,0A4.17,4.17,0,0,0,19.72,38a4.12,4.12,0,0,0,.41,3.13l0,0,0,0,5.26,9.11h0a.59.59,0,0,1,0,.45.56.56,0,0,1-.27.35.69.69,0,0,0-.13.11h0a.67.67,0,0,0,.86,1,1.93,1.93,0,0,0,.69-2.52.54.54,0,0,0-.07-.13l-5.23-9.06,0,0,0,0A2.78,2.78,0,0,1,21,38.38a2.85,2.85,0,0,1,1.3-1.7l0,0,2.52-1.46a1.21,1.21,0,0,0,.6.15,1.26,1.26,0,0,0,0-2.52Z" transform="translate(-17.73 -32.83)"/></svg>