<svg id="Layer_2" data-name="Layer 2" xmlns="http://www.w3.org/2000/svg" viewBox="0 0 143.03 97.17"><defs><style>.cls-1{fill:#bf202f;stroke:#bf202f;stroke-width:2.07px;}.cls-1,.cls-3{stroke-miterlimit:10;}.cls-2{fill:#8d8285;}.cls-3{fill:none;stroke:#231f20;stroke-width:1.52px;}.cls-4{fill:#231f20;}</style></defs><path class="cls-1" d="M69.41,34a13.63,13.63,0,0,1-2.81,4.07,14.29,14.29,0,0,1-9.78,3.84,8.68,8.68,0,0,1-7.07-3.2,13.13,13.13,0,0,1-2.64-8.6,18.06,18.06,0,0,1,4.94-12.92A16.19,16.19,0,0,1,64.29,12,23.09,23.09,0,0,1,72,13.39l-1.41,3.08-.4.91c-.33.71-.75,1.07-1.24,1.07a2.56,2.56,0,0,1-.44-.06,2.73,2.73,0,0,0,.3-1.07c0-.93-.63-1.75-1.88-2.45a9,9,0,0,0-4.39-1,10.15,10.15,0,0,0-8.34,4Q51,21.93,51,28.41a13,13,0,0,0,2.25,8,7.14,7.14,0,0,0,6,3,8.91,8.91,0,0,0,5.42-1.63,21.23,21.23,0,0,0,4.15-4.41" transform="translate(-0.67)"/><path class="cls-1" d="M65.64,37.6s.82-1.15,1.33-2,1.21-2.1,2.22-4a5.63,5.63,0,0,1,5.18-3.24,4.46,4.46,0,0,1,4,2.35q1.44,2.34,3.31,9.65t3,13.42a.54.54,0,0,0,1,.2q9.39-13.33,9.39-18.71a3.4,3.4,0,0,0-1.26-2.83.53.53,0,0,1-.08-.79l2.68-3a.55.55,0,0,1,.71-.08,4.25,4.25,0,0,1,1.9,3.75q0,3.42-5.57,12.28l-2.61,4-1.9,3c-.11.17-.48.82-1.13,1.94l-1.06,1.87c-.15.26-.44.85-.86,1.78a.66.66,0,0,1-.12.17l-3.2,3.15a.54.54,0,0,1-.91-.31,149,149,0,0,0-3.12-15.6,72.29,72.29,0,0,0-3.11-10.28C74.74,32.81,73.79,32,72.62,32c-1.86,0-3.73,3.09-4.22,3.8" transform="translate(-0.67)"/><path class="cls-2" d="M63.62,50.89A2.41,2.41,0,0,0,61.11,49c-1.31,0-2.24.62-2.24,1.63s1.39,1.44,2.72,1.84,3.3,1,3.3,3c0,1.68-1.46,2.91-3.66,2.91a3.61,3.61,0,0,1-3.82-2.94l1.13-.3a2.55,2.55,0,0,0,2.73,2.19c1.49,0,2.39-.79,2.39-1.83,0-1.46-1.73-1.76-3.15-2.21-1.14-.35-2.83-.87-2.83-2.6,0-1.56,1.47-2.71,3.48-2.71a3.46,3.46,0,0,1,3.57,2.67Z" transform="translate(-0.67)"/><path class="cls-2" d="M68.51,49.22V52.6h4.27v1.06H68.51v4.46H67.33v-10h6.54v1.1Z" transform="translate(-0.67)"/><circle class="cls-3" cx="71.33" cy="35.05" r="34.29"/><path class="cls-2" d="M.85,93.89A3.18,3.18,0,0,1,4.09,90.6a2.88,2.88,0,0,1,2.44,1.26l-.67.37a2.16,2.16,0,0,0-1.77-.92,2.59,2.59,0,0,0,0,5.16,2.13,2.13,0,0,0,1.77-.92l.68.37a2.91,2.91,0,0,1-2.45,1.25A3.17,3.17,0,0,1,.85,93.89Z" transform="translate(-0.67)"/><path class="cls-2" d="M7.25,94.76a2.28,2.28,0,1,1,2.28,2.41A2.26,2.26,0,0,1,7.25,94.76Zm3.8,0A1.6,1.6,0,0,0,9.53,93a1.8,1.8,0,0,0,0,3.56A1.6,1.6,0,0,0,11.05,94.76Z" transform="translate(-0.67)"/><path class="cls-2" d="M16.07,94.05c0-.81-.41-1.07-1-1.07a1.79,1.79,0,0,0-1.36.72v3.36H13v-4.6h.71v.67a2.27,2.27,0,0,1,1.64-.78,1.3,1.3,0,0,1,1.46,1.48v3.23h-.71Z" transform="translate(-0.67)"/><path class="cls-2" d="M20.24,92.35a2,2,0,0,1,1.69.8l-.48.43a1.35,1.35,0,0,0-1.17-.6,1.79,1.79,0,0,0,0,3.56,1.38,1.38,0,0,0,1.17-.61l.48.44a2,2,0,0,1-1.69.8,2.41,2.41,0,0,1,0-4.82Z" transform="translate(-0.67)"/><path class="cls-2" d="M24.93,92.35a2.23,2.23,0,0,1,2.21,2.46V95H23.41a1.62,1.62,0,0,0,1.66,1.59A2,2,0,0,0,26.49,96l.34.47a2.5,2.5,0,0,1-1.83.7,2.41,2.41,0,0,1-.07-4.82Zm-1.52,2.12h3a1.48,1.48,0,0,0-1.51-1.53A1.54,1.54,0,0,0,23.41,94.47Z" transform="translate(-0.67)"/><path class="cls-2" d="M28.29,92.46H29v.74a2,2,0,0,1,1.53-.84v.74a1.23,1.23,0,0,0-.29,0A1.65,1.65,0,0,0,29,93.8v3.26h-.72Z" transform="translate(-0.67)"/><path class="cls-2" d="M31.58,96.1v-3h-.76v-.63h.76V91.2h.71v1.26h.93v.63h-.93v2.85c0,.35.15.6.47.6a.65.65,0,0,0,.48-.2l.21.54a1.17,1.17,0,0,1-.85.29A.94.94,0,0,1,31.58,96.1Z" transform="translate(-0.67)"/><path class="cls-2" d="M34.21,95.93a2,2,0,0,0,1.51.66c.7,0,1.09-.31,1.09-.76s-.57-.67-1.19-.82c-.78-.18-1.66-.39-1.66-1.34,0-.71.62-1.32,1.71-1.32a2.34,2.34,0,0,1,1.71.66l-.34.5a1.76,1.76,0,0,0-1.37-.58c-.63,0-1,.28-1,.69s.53.59,1.13.73c.8.19,1.72.41,1.72,1.43,0,.77-.62,1.39-1.81,1.39a2.48,2.48,0,0,1-1.86-.72Z" transform="translate(-0.67)"/><path class="cls-2" d="M41,94.74a.53.53,0,1,1,.52.51A.53.53,0,0,1,41,94.74Z" transform="translate(-0.67)"/><path class="cls-2" d="M49.8,95.65H46.58L46,97.06h-.88l2.55-6.35h1l2.56,6.35h-.87Zm-3-.71h2.75l-1.37-3.53Z" transform="translate(-0.67)"/><path class="cls-2" d="M52,92.46h.71v.74a2,2,0,0,1,1.53-.84v.74a1.14,1.14,0,0,0-.28,0,1.69,1.69,0,0,0-1.25.73v3.26H52Z" transform="translate(-0.67)"/><path class="cls-2" d="M55.32,96.1v-3h-.76v-.63h.76V91.2H56v1.26H57v.63H56v2.85c0,.35.15.6.46.6a.69.69,0,0,0,.49-.2l.21.54a1.18,1.18,0,0,1-.86.29A.94.94,0,0,1,55.32,96.1Z" transform="translate(-0.67)"/><path class="cls-2" d="M57.86,91.2a.47.47,0,0,1,.47-.47.48.48,0,0,1,.49.47.49.49,0,0,1-.49.49A.48.48,0,0,1,57.86,91.2ZM58,92.46h.71v4.6H58Z" transform="translate(-0.67)"/><path class="cls-2" d="M60.09,95.93a2.08,2.08,0,0,0,1.52.66c.7,0,1.08-.31,1.08-.76s-.56-.67-1.18-.82c-.78-.18-1.66-.39-1.66-1.34,0-.71.61-1.32,1.71-1.32a2.32,2.32,0,0,1,1.7.66l-.33.5a1.76,1.76,0,0,0-1.37-.58c-.63,0-1,.28-1,.69s.52.59,1.13.73c.79.19,1.72.41,1.72,1.43,0,.77-.62,1.39-1.81,1.39a2.48,2.48,0,0,1-1.86-.72Z" transform="translate(-0.67)"/><path class="cls-2" d="M64.69,96.1v-3h-.76v-.63h.76V91.2h.72v1.26h.93v.63h-.93v2.85c0,.35.15.6.47.6a.65.65,0,0,0,.48-.2l.21.54a1.18,1.18,0,0,1-.86.29A.94.94,0,0,1,64.69,96.1Z" transform="translate(-0.67)"/><path class="cls-2" d="M67.32,95.93a2.08,2.08,0,0,0,1.52.66c.7,0,1.08-.31,1.08-.76s-.56-.67-1.18-.82c-.78-.18-1.66-.39-1.66-1.34,0-.71.61-1.32,1.71-1.32a2.32,2.32,0,0,1,1.7.66l-.33.5a1.77,1.77,0,0,0-1.37-.58c-.63,0-1,.28-1,.69s.52.59,1.12.73c.8.19,1.73.41,1.73,1.43,0,.77-.62,1.39-1.81,1.39A2.48,2.48,0,0,1,67,96.45Z" transform="translate(-0.67)"/><path class="cls-2" d="M74.09,94.74a.53.53,0,1,1,1,0,.53.53,0,0,1-1,0Z" transform="translate(-0.67)"/><path class="cls-2" d="M78.66,93.89a3.17,3.17,0,0,1,3.23-3.29,2.86,2.86,0,0,1,2.44,1.26l-.66.37a2.18,2.18,0,0,0-1.78-.92,2.59,2.59,0,0,0,0,5.16,2.15,2.15,0,0,0,1.78-.92l.67.37a2.88,2.88,0,0,1-2.45,1.25A3.16,3.16,0,0,1,78.66,93.89Z" transform="translate(-0.67)"/><path class="cls-2" d="M85.32,92.46H86v.74a2,2,0,0,1,1.53-.84v.74a1.14,1.14,0,0,0-.28,0A1.69,1.69,0,0,0,86,93.8v3.26h-.72Z" transform="translate(-0.67)"/><path class="cls-2" d="M88.34,91.2a.49.49,0,0,1,1,0,.49.49,0,1,1-1,0Zm.13,1.26h.71v4.6h-.71Z" transform="translate(-0.67)"/><path class="cls-2" d="M90.75,96.1v-3H90v-.63h.76V91.2h.72v1.26h.93v.63h-.93v2.85c0,.35.15.6.46.6a.69.69,0,0,0,.49-.2l.21.54a1.18,1.18,0,0,1-.86.29A.94.94,0,0,1,90.75,96.1Z" transform="translate(-0.67)"/><path class="cls-2" d="M93.29,91.2a.48.48,0,0,1,1,0,.48.48,0,1,1-1,0Zm.12,1.26h.71v4.6h-.71Z" transform="translate(-0.67)"/><path class="cls-2" d="M97.58,92.35a2,2,0,0,1,1.69.8l-.48.43a1.35,1.35,0,0,0-1.17-.6,1.79,1.79,0,0,0,0,3.56,1.38,1.38,0,0,0,1.17-.61l.48.44a2,2,0,0,1-1.69.8,2.41,2.41,0,0,1,0-4.82Z" transform="translate(-0.67)"/><path class="cls-2" d="M103.14,96.54a2,2,0,0,1-1.52.63A1.53,1.53,0,0,1,100,95.65a1.5,1.5,0,0,1,1.61-1.51,1.93,1.93,0,0,1,1.52.62v-.82c0-.62-.49-1-1.16-1a1.83,1.83,0,0,0-1.41.64l-.33-.49a2.4,2.4,0,0,1,1.84-.76c1,0,1.78.43,1.78,1.55v3.16h-.72Zm0-1.32a1.53,1.53,0,0,0-1.26-.57,1,1,0,1,0,0,2,1.53,1.53,0,0,0,1.26-.57Z" transform="translate(-0.67)"/><path class="cls-2" d="M105.29,90.71H106v6.35h-.71Z" transform="translate(-0.67)"/><path class="cls-2" d="M112,94.54h-1.26v2.52h-.79V90.71h2.55a1.85,1.85,0,0,1,2,1.91,1.76,1.76,0,0,1-1.65,1.85l1.71,2.59h-.93Zm.4-3.13h-1.66v2.43h1.66a1.22,1.22,0,1,0,0-2.43Z" transform="translate(-0.67)"/><path class="cls-2" d="M117.39,92.35a2.23,2.23,0,0,1,2.21,2.46V95h-3.72a1.62,1.62,0,0,0,1.66,1.59A2,2,0,0,0,119,96l.34.47a2.54,2.54,0,0,1-1.83.7,2.41,2.41,0,0,1-.08-4.82Zm-1.51,2.12h3a1.49,1.49,0,0,0-1.52-1.53A1.53,1.53,0,0,0,115.88,94.47Z" transform="translate(-0.67)"/><path class="cls-2" d="M120.07,92.46h.77l1.54,3.77,1.52-3.77h.78l-1.92,4.6H122Z" transform="translate(-0.67)"/><path class="cls-2" d="M125.3,91.2a.48.48,0,0,1,1,0,.48.48,0,1,1-1,0Zm.12,1.26h.72v4.6h-.72Z" transform="translate(-0.67)"/><path class="cls-2" d="M129.57,92.35a2.22,2.22,0,0,1,2.2,2.46V95h-3.72a1.62,1.62,0,0,0,1.66,1.59,2,2,0,0,0,1.42-.58l.34.47a2.54,2.54,0,0,1-1.83.7,2.41,2.41,0,0,1-.07-4.82Zm-1.52,2.12h3a1.49,1.49,0,0,0-1.51-1.53A1.54,1.54,0,0,0,128.05,94.47Z" transform="translate(-0.67)"/><path class="cls-2" d="M135.71,93.36l-1.2,3.7h-.72l-1.46-4.6h.74l1.12,3.67,1.21-3.67H136l1.21,3.67,1.13-3.67h.74l-1.47,4.6h-.71Z" transform="translate(-0.67)"/><path class="cls-2" d="M139.89,95.93a2.07,2.07,0,0,0,1.51.66c.71,0,1.09-.31,1.09-.76s-.56-.67-1.18-.82c-.78-.18-1.67-.39-1.67-1.34,0-.71.62-1.32,1.72-1.32a2.32,2.32,0,0,1,1.7.66l-.33.5a1.77,1.77,0,0,0-1.37-.58c-.63,0-1,.28-1,.69s.52.59,1.12.73c.8.19,1.72.41,1.72,1.43,0,.77-.61,1.39-1.8,1.39a2.46,2.46,0,0,1-1.86-.72Z" transform="translate(-0.67)"/><path class="cls-4" d="M6.42,75.66a9.3,9.3,0,0,1,3.92,1.1c.11,0,.2-.15.32-.15a.24.24,0,0,1,.23.24c0,1,.21,2,.21,2.13s-.12.27-.18.27-.2-.11-.26-.21a4.67,4.67,0,0,0-4.24-2.76,4.17,4.17,0,0,0-4.33,4.38c0,2.75,1.35,5.43,5,5.43a4.51,4.51,0,0,0,3.67-2.27c.06-.11.12-.11.23-.11s.13.11.13.21a11.26,11.26,0,0,1-.27,1.49.38.38,0,0,1-.24.27,8.19,8.19,0,0,1-3.92,1.11C2.15,86.79.67,84,.67,81.57.67,78.34,2.65,75.66,6.42,75.66Z" transform="translate(-0.67)"/><path class="cls-4" d="M13,75.67c.12,0,.25,0,.41,0,.36,0,.71.06,1.31.06.82,0,1.32-.06,1.6-.06s.26,0,.26.15c0,.66-1.14-.19-1.25,1.64,0,.94-.12,6.17-.12,6.34v.61c0,.5.11,1.12.36,1.2a1.88,1.88,0,0,0,.66.12c4.83,0,4.27-1.44,4.71-1.44.09,0,.18.07.18.25a2.44,2.44,0,0,1-1.78,2c-1.95,0-3.25-.15-4.18-.15s-1.15.12-1.89.12c-.3,0-.44-.07-.44-.18a.25.25,0,0,1,.24-.24.69.69,0,0,0,.44-.16c.33-.25.52-.65.52-3V81.1c0-.83,0-1.68,0-2.62q0-.66,0-1.38c0-.64-.63-.93-1.23-.94-.21,0-.22-.09-.22-.22S12.83,75.67,13,75.67Z" transform="translate(-0.67)"/><path class="cls-4" d="M21.92,86.08c.88-.34.77-.64,5.28-10.23.14-.3.21-.35.45-.35s.13,0,1.1,2.45c.71,1.76,2.85,6.72,3,7,.76,1.53,1.68.83,1.68,1.38,0,.07,0,.23-.41.23s-.94-.1-1.36-.1-1,.07-1.41.07c-.64,0-.73,0-.73-.22s.76-.13.76-.71a11.62,11.62,0,0,0-1-2.88c-.06-.12-.12-.26-.62-.26-.32,0-.85,0-1.84,0H26c-.94,0-1,.08-1.17.44a9.05,9.05,0,0,0-1,2.37c0,1,1.13.56,1.13,1,0,.12,0,.21-.26.21H23.44c-.59,0-1,.06-1.31.06s-.44,0-.44-.19A.29.29,0,0,1,21.92,86.08Zm4.35-4.43h.47l1.45,0c.39,0,.59-.07.59-.24s-1.4-3.55-1.69-3.55a20.15,20.15,0,0,0-1.59,3.52C25.5,81.63,25.64,81.65,26.27,81.65Z" transform="translate(-0.67)"/><path class="cls-4" d="M34.59,83.33a.27.27,0,0,1,.24.15A3.46,3.46,0,0,0,38.15,86a2.22,2.22,0,0,0,2.52-2.17c0-2-2.64-1.93-4.61-3.11a2.48,2.48,0,0,1-1.38-2.23c0-1.81,1.46-3,3.52-3a9.09,9.09,0,0,1,2.18.51c.09,0,.25-.13.35-.13s.21,0,.23.13c.12.69.32,1.85.32,2.06s-.12.42-.21.42-.17-.07-.22-.21a2.86,2.86,0,0,0-1-1.43,3,3,0,0,0-2-.72c-1.2,0-2.22.62-2.22,1.68,0,2.43,3.52,1.76,5.39,3.76a2.34,2.34,0,0,1,.6,1.62,3.34,3.34,0,0,1-3.53,3.46,5.63,5.63,0,0,1-3-.57,7.57,7.57,0,0,1-.74-2.46C34.38,83.42,34.48,83.33,34.59,83.33Z" transform="translate(-0.67)"/><path class="cls-4" d="M43.63,83.33a.27.27,0,0,1,.24.15A3.46,3.46,0,0,0,47.19,86a2.22,2.22,0,0,0,2.52-2.17c0-2-2.64-1.93-4.61-3.11a2.48,2.48,0,0,1-1.38-2.23c0-1.81,1.46-3,3.52-3a9.09,9.09,0,0,1,2.18.51c.1,0,.25-.13.35-.13S50,76,50,76c.12.69.32,1.85.32,2.06s-.12.42-.21.42-.17-.07-.22-.21a2.8,2.8,0,0,0-1-1.43,3,3,0,0,0-2-.72c-1.2,0-2.22.62-2.22,1.68,0,2.43,3.52,1.76,5.39,3.76a2.34,2.34,0,0,1,.6,1.62,3.34,3.34,0,0,1-3.53,3.46,5.63,5.63,0,0,1-3-.57,7.57,7.57,0,0,1-.74-2.46C43.42,83.42,43.52,83.33,43.63,83.33Z" transform="translate(-0.67)"/><path class="cls-4" d="M52.29,75.72c.43,0,.87.06,1.72.06.65,0,.38,0,1.33,0,.11,0,.41,0,.41.21s-.26.23-.7.41-.48,1.15-.48,1.74c0,3.57,0,4.22,0,5.61a3,3,0,0,0,.38,1.84c.32.44.58.47.73.47l.3,0c.16,0,.32.09.32.16,0,.25-.12.28-.38.28-.82,0-.94-.07-1.44-.07-.79,0-1.12.08-1.67.08s-.68-.11-.68-.23c0-.41.9,0,1.12-1,0-.12.17-3,.17-4v-.86c0-.44,0-1,0-1.64v-.7a7.54,7.54,0,0,0-.07-1.1c-.07-.55-.71-.76-1.13-.78s-.32-.15-.32-.23S51.93,75.72,52.29,75.72Z" transform="translate(-0.67)"/><path class="cls-4" d="M63,75.66a9.43,9.43,0,0,1,3.93,1.1c.1,0,.19-.15.31-.15a.24.24,0,0,1,.23.24c0,1,.21,2,.21,2.13s-.12.27-.18.27-.2-.11-.26-.21A4.67,4.67,0,0,0,63,76.28a4.17,4.17,0,0,0-4.33,4.38c0,2.75,1.35,5.43,5,5.43a4.51,4.51,0,0,0,3.67-2.27c.06-.11.12-.11.23-.11s.13.11.13.21a11.26,11.26,0,0,1-.27,1.49.38.38,0,0,1-.24.27,8.18,8.18,0,0,1-3.91,1.11c-4.59,0-6.07-2.84-6.07-5.22C57.21,78.34,59.2,75.66,63,75.66Z" transform="translate(-0.67)"/><path class="cls-4" d="M68.65,86.08c.88-.34.77-.64,5.27-10.23.14-.3.22-.35.46-.35s.12,0,1.09,2.45c.71,1.76,2.85,6.72,3,7,.75,1.53,1.68.83,1.68,1.38,0,.07,0,.23-.41.23s-.94-.1-1.37-.1-1,.07-1.41.07c-.63,0-.73,0-.73-.22s.76-.13.76-.71a11.57,11.57,0,0,0-1-2.88c-.06-.12-.12-.26-.62-.26-.32,0-.85,0-1.84,0h-.8c-.94,0-1,.08-1.17.44a8.69,8.69,0,0,0-1,2.37c0,1,1.12.56,1.12,1,0,.12,0,.21-.26.21H70.16c-.59,0-1,.06-1.3.06s-.44,0-.44-.19A.28.28,0,0,1,68.65,86.08ZM73,81.65h.47l1.44,0c.4,0,.59-.07.59-.24s-1.39-3.55-1.68-3.55a19.44,19.44,0,0,0-1.59,3.52C72.23,81.63,72.36,81.65,73,81.65Z" transform="translate(-0.67)"/><path class="cls-4" d="M81.15,75.67c.12,0,.26,0,.41,0,.36,0,.71.06,1.32.06.82,0,1.32-.06,1.59-.06s.26,0,.26.15c0,.66-1.14-.19-1.25,1.64,0,.94-.12,6.17-.12,6.34v.61c0,.5.11,1.12.37,1.2a1.8,1.8,0,0,0,.65.12c4.84,0,4.28-1.44,4.72-1.44.09,0,.18.07.18.25a2.45,2.45,0,0,1-1.79,2c-1.94,0-3.25-.15-4.17-.15s-1.16.12-1.9.12c-.3,0-.44-.07-.44-.18a.25.25,0,0,1,.24-.24.69.69,0,0,0,.44-.16c.34-.25.52-.65.52-3V81.1c0-.83,0-1.68,0-2.62q0-.66,0-1.38c0-.64-.63-.93-1.22-.94-.22,0-.23-.09-.23-.22S81,75.67,81.15,75.67Z" transform="translate(-0.67)"/><path class="cls-4" d="M93.54,75.72c.34,0,.67.06,1.67.06l1,0c.45,0,.5,0,.5.16s-.62.22-.62.72.48,1.41,2.12,5.12a12.66,12.66,0,0,0,1.52,2.93c.15,0,3.21-7.23,3.21-8s-1.09-.41-1.09-.77c0-.14,0-.15.32-.15h1c.58,0,.61,0,1.35,0,.17,0,.29,0,.29.21,0,.34-.56.16-1,1.1l-3.38,7.7c-1,2.21-.88,2.23-1.05,2.23s-.3-.09-.68-1c-.49-1.19-.88-2-1.56-3.51C95,77.7,95,77.22,94.53,76.73c-.76-.85-1.41-.27-1.41-.8C93.12,75.73,93.38,75.72,93.54,75.72Z" transform="translate(-0.67)"/><path class="cls-4" d="M111.21,75.53c4.58,0,5.74,3.46,5.74,5,0,4.26-2.63,6.19-6,6.19a5.29,5.29,0,0,1-5.66-5.39A5.46,5.46,0,0,1,111.21,75.53Zm.28,10.53a4.22,4.22,0,0,0,4.21-4.12c0-3.83-2.33-5.8-5-5.8-2,0-4,1.34-4,4.43C106.68,82.5,108.06,86.06,111.49,86.06Z" transform="translate(-0.67)"/><path class="cls-4" d="M118.35,75.72c.42,0,.86.06,1.71.06.65,0,.38,0,1.33,0,.11,0,.41,0,.41.21s-.25.23-.69.41-.49,1.15-.49,1.74c0,3.57,0,4.22,0,5.61a3,3,0,0,0,.38,1.84c.31.44.57.47.72.47l.31,0c.15,0,.31.09.31.16,0,.25-.12.28-.37.28-.82,0-.94-.07-1.45-.07-.78,0-1.12.08-1.66.08s-.69-.11-.69-.23c0-.41.9,0,1.13-1,0-.12.16-3,.16-4v-.86c0-.44,0-1,0-1.64v-.7a9.36,9.36,0,0,0-.06-1.1c-.08-.55-.71-.76-1.14-.78s-.32-.15-.32-.23S118,75.72,118.35,75.72Z" transform="translate(-0.67)"/><path class="cls-4" d="M129,75.66a9.43,9.43,0,0,1,3.93,1.1c.1,0,.2-.15.32-.15a.23.23,0,0,1,.22.24c0,1,.22,2,.22,2.13s-.12.27-.19.27-.19-.11-.25-.21A4.68,4.68,0,0,0,129,76.28a4.16,4.16,0,0,0-4.32,4.38c0,2.75,1.35,5.43,5,5.43a4.5,4.5,0,0,0,3.67-2.27c.06-.11.12-.11.23-.11s.14.11.14.21a9.83,9.83,0,0,1-.28,1.49.38.38,0,0,1-.24.27,8.15,8.15,0,0,1-3.91,1.11c-4.58,0-6.07-2.84-6.07-5.22C123.26,78.34,125.25,75.66,129,75.66Z" transform="translate(-0.67)"/><path class="cls-4" d="M135.57,75.67c.12,0,.25,0,.4,0,.37,0,2.2.08,3.7.08.61,0,2.58-.06,3-.06.1,0,.29,0,.29.35a13.57,13.57,0,0,0-.19,1.54c0,.19-.12.34-.24.34s-.23-.11-.23-.32a1.05,1.05,0,0,0-.89-1.09,20.09,20.09,0,0,0-2.09-.11H139c-1.06,0-1,0-1.07.92,0,.55-.06,1.84-.06,2.54,0,.27,0,.76.28.77h1.49c1.3,0,1.47-.09,1.76-.29a.79.79,0,0,0,.35-.56c0-.15.06-.26.21-.26s.2.06.2.25-.12,1.06-.12,1.59,0,.64,0,.92-.06.38-.1.38c-.19,0-.28-.15-.34-.36s-.15-.59-.38-.74a4,4,0,0,0-1.45-.22h-1.34c-.32,0-.62,0-.62.29,0,.86,0,1.33,0,2.18v.61c0,.5.11,1.12.36,1.2a1.88,1.88,0,0,0,.66.12c4.83,0,4.27-1.44,4.71-1.44.09,0,.18.07.18.25a2.44,2.44,0,0,1-1.78,2c-1.95,0-3.25-.15-4.18-.15s-1.32.14-2.06.14c-.15,0-.32,0-.32-.16,0-.41,0-.16.65-.47.47-.22.6-.62.6-2.94V81.1c0-.83,0-1.68,0-2.62q0-.66,0-1.38c0-.64-.64-.93-1.23-.94-.24,0-.24-.14-.24-.28S135.44,75.67,135.57,75.67Z" transform="translate(-0.67)"/></svg>