<?xml version="1.0" encoding="UTF-8"?>
<svg width="383px" height="55px" viewBox="0 0 383 55" version="1.1" xmlns="http://www.w3.org/2000/svg" xmlns:xlink="http://www.w3.org/1999/xlink">
    <title>CreativeandEquitablePracticesinRemoteMusicEducation</title>
    <g id="Page-1" stroke="none" stroke-width="1" fill="none" fill-rule="evenodd">
        <g id="Artboard" transform="translate(-759.000000, -65.000000)" fill="#FFFFFF" fill-rule="nonzero">
            <path d="M768.1,84.525 C770.5,84.525 772.825,84.025 773.85,83.75 C774.1,82.4 774.825,79.3 775.125,78.1 C775.175,78 774.85,77.9 774.625,77.9 C774.425,77.9 774.1,77.95 774.025,78.1 C772.9,80.875 770.825,83.325 768.45,83.325 C766.3,83.325 764.6,81.825 764.6,78.225 C764.6,72.35 768.7,67.75 771.725,67.75 C773.775,67.75 774.3,69.6 774.575,72.375 C774.6,72.525 774.925,72.6 775.125,72.6 C775.3,72.6 775.675,72.525 775.675,72.375 C775.85,71.025 776.325,67.975 776.575,66.6 C775.8,66.45 774.775,66.35 773.775,66.35 C764.875,66.35 759.825,71.575 759.825,77.35 C759.825,81.75 763.3,84.525 768.1,84.525 Z M778.525,84.225 C778.925,84.225 780.375,84.075 780.475,83.8 C781.925,79.525 783.95,75.575 785.025,75.575 C786,75.575 785.7,76.8 787.025,76.8 C788.175,76.8 788.925,75.875 788.925,74.7 C788.925,73.425 788.05,72.575 786.775,72.575 C785.25,72.575 784.075,74.2 782.4,77.425 L783.125,75.475 C783.2,75.25 783.25,75 783.25,74.725 C783.25,73.45 782.35,72.575 780.925,72.575 C778.925,72.575 776.675,74.925 776.675,75.55 C776.675,75.675 777.025,76.175 777.275,76.175 C777.55,76.175 778.525,74.8 779.05,74.8 C779.2,74.8 779.275,74.9 779.275,75.075 C779.275,75.325 779.15,75.725 778.95,76.325 L776.475,83.8 C776.375,84.075 778.125,84.225 778.525,84.225 Z M792.075,84.525 C794.2,84.525 796.525,83.025 797.275,81.475 C797.375,81.275 796.725,80.6 796.625,80.75 C795.875,81.75 794.75,82.7 793.45,82.7 C792.35,82.7 791.925,81.85 791.925,80.675 C791.925,80.3 791.95,79.9 792.05,79.45 C796.1,79.45 798.45,77.2 798.45,75.3 C798.45,73.9 797.675,72.575 795.45,72.575 C792.4,72.575 787.975,76.5 787.975,80.95 C787.975,82.975 789.725,84.525 792.075,84.525 Z M792.25,78.25 C792.55,76.175 793.7,74.225 794.75,74.225 C795.25,74.225 795.375,74.525 795.375,75.075 C795.375,76.525 794.05,78.25 792.25,78.25 Z M803.35,82.275 C802.8,82.275 802.625,82.05 802.625,81.55 C802.625,79.325 806.975,74.3 808.2,74.3 C808.475,74.3 808.6,74.475 808.6,74.875 C808.6,76.625 804.8,82.275 803.35,82.275 Z M806.248,81.127 C805.925,81.75 805.75,82.325 805.75,83.025 C805.75,83.975 806.475,84.525 807.825,84.525 C809.625,84.525 812.45,82.225 812.45,81.575 C812.45,81.425 812.125,80.95 811.85,80.95 C811.6,80.95 810.775,82.125 810.025,82.125 C809.875,82.125 809.825,82.025 809.825,81.825 C809.825,81.6 810,81.2 810.25,80.6 L813.45,73.3 C813.55,73.075 812.4,72.75 811.525,72.75 C810.8,72.75 809.825,72.825 809.725,73.05 L809.275,74.15 C809.275,73.325 808.425,72.75 807.5,72.75 C804.175,72.75 798.9,77.925 798.9,81.55 C798.9,83.3 799.85,84.525 801.475,84.525 C803.131,84.525 804.74092,83.23476 806.083576,81.3620688 L806.248,81.127 Z M816.7,84.525 C818.85,84.525 822.05,81.525 822.05,81.15 C822.05,81 821.525,80.5 821.275,80.5 C821,80.5 819.725,82.125 818.825,82.125 C818.625,82.125 818.55,81.975 818.55,81.725 C818.55,81.425 818.675,81 818.8,80.6 L820.825,74.575 L823.325,74.65 C823.525,74.65 823.85,74.1 823.85,73.75 C823.85,73.525 823.775,73.15 823.575,73.15 L821.3,73.15 L822.225,70.45 C822.325,70.175 820.8,70.025 820.375,70.025 C819.95,70.025 818.325,70.175 818.225,70.45 L817.3,73.15 L815.125,73.15 C814.95,73.15 814.625,73.7 814.625,74.05 C814.625,74.275 814.7,74.65 814.9,74.65 L816.8,74.6 L814.6,81.075 C814.425,81.55 814.35,81.925 814.35,82.375 C814.35,83.725 815.275,84.525 816.7,84.525 Z M831.075,70.55 C832.325,70.55 833.35,69.5 833.35,68.275 C833.35,67.05 832.325,66 831.075,66 C829.85,66 828.8,67.05 828.8,68.275 C828.8,69.5 829.85,70.55 831.075,70.55 Z M826.125,84.525 C828.325,84.525 831.425,81.75 831.425,81.175 C831.425,81.025 831.1,80.55 830.85,80.55 C830.6,80.55 829.375,82.125 828.625,82.125 C828.5,82.125 828.4,82.1 828.4,81.9 C828.4,81.725 828.525,81.325 828.825,80.6 L830.725,76.425 C831,75.875 831.125,75.4 831.125,74.75 C831.125,73.55 830.4,72.575 828.875,72.575 C826.875,72.575 824.025,75.55 824.025,76.15 C824.025,76.275 824.375,76.775 824.625,76.775 C824.9,76.775 826.475,74.8 827,74.8 C827.175,74.8 827.275,74.9 827.275,75.175 C827.275,75.425 827.175,75.775 826.9,76.325 L824.525,81.25 C824.275,81.8 824.125,82.3 824.125,82.775 C824.125,83.7 824.725,84.525 826.125,84.525 Z M838.275,84.525 C841.4,84.525 846.4,80 846.4,74.75 C846.4,73.425 845.65,72.575 844.6,72.575 C843.6,72.575 842.8,73.425 842.8,74.475 C842.8,75.425 843.875,75.95 843.875,77.375 C843.875,80.1 842.525,81.425 840.775,81.425 C839.425,81.425 838.7,80.375 838.7,79.05 C838.7,75.175 841.125,73.875 841.125,73.175 C841.125,72.975 840.925,72.75 840.7,72.75 C840.5,72.75 839.65,72.975 838.95,72.975 C838.2,72.975 837.75,72.575 836.775,72.575 C834.975,72.575 832.85,74.975 832.85,77.025 C832.85,78.225 833.575,78.775 834.125,78.775 C834.875,78.775 835.375,78.25 835.375,77.525 C835.375,76.75 834.35,76.45 834.35,75.95 C834.35,75.475 834.775,75.1 835.6,75.1 C836.25,75.1 836.7,75.75 837.425,75.75 C837.775,75.75 838.15,75.65 838.375,75.55 C836.75,77 835.325,79.65 835.325,81.575 C835.325,83.325 836.35,84.525 838.275,84.525 Z M851.425,84.525 C853.55,84.525 855.875,83.025 856.625,81.475 C856.725,81.275 856.075,80.6 855.975,80.75 C855.225,81.75 854.1,82.7 852.8,82.7 C851.7,82.7 851.275,81.85 851.275,80.675 C851.275,80.3 851.3,79.9 851.4,79.45 C855.45,79.45 857.8,77.2 857.8,75.3 C857.8,73.9 857.025,72.575 854.8,72.575 C851.75,72.575 847.325,76.5 847.325,80.95 C847.325,82.975 849.075,84.525 851.425,84.525 Z M851.6,78.25 C851.9,76.175 853.05,74.225 854.1,74.225 C854.6,74.225 854.725,74.525 854.725,75.075 C854.725,76.525 853.4,78.25 851.6,78.25 Z M868.85,82.275 C868.3,82.275 868.125,82.05 868.125,81.55 C868.125,79.325 872.475,74.3 873.7,74.3 C873.975,74.3 874.1,74.475 874.1,74.875 C874.1,76.625 870.3,82.275 868.85,82.275 Z M871.748,81.127 C871.425,81.75 871.25,82.325 871.25,83.025 C871.25,83.975 871.975,84.525 873.325,84.525 C875.125,84.525 877.95,82.225 877.95,81.575 C877.95,81.425 877.625,80.95 877.35,80.95 C877.1,80.95 876.275,82.125 875.525,82.125 C875.375,82.125 875.325,82.025 875.325,81.825 C875.325,81.6 875.5,81.2 875.75,80.6 L878.95,73.3 C879.05,73.075 877.9,72.75 877.025,72.75 C876.3,72.75 875.325,72.825 875.225,73.05 L874.775,74.15 C874.775,73.325 873.925,72.75 873,72.75 C869.675,72.75 864.4,77.925 864.4,81.55 C864.4,83.3 865.35,84.525 866.975,84.525 C868.631,84.525 870.24092,83.23476 871.583576,81.3620688 L871.748,81.127 Z M888.4,84.525 C890.6,84.525 893.325,82.15 893.325,81.575 C893.325,81.425 893,80.95 892.725,80.95 C892.475,80.95 891.65,82.125 890.9,82.125 C890.75,82.125 890.7,82.025 890.7,81.825 C890.7,81.6 890.875,81.2 891.125,80.6 L892.65,76.825 C892.95,76.075 893.15,75.3 893.15,74.6 C893.15,73.35 892,72.575 890.875,72.575 C888.9,72.575 886.8,74.4 885.6,76.425 L885.95,75.475 C886.025,75.25 886.075,75 886.075,74.725 C886.075,73.45 885.175,72.575 883.75,72.575 C881.75,72.575 879.5,74.925 879.5,75.55 C879.5,75.675 879.85,76.175 880.1,76.175 C880.375,76.175 881.35,74.8 881.875,74.8 C882.025,74.8 882.1,74.9 882.1,75.075 C882.1,75.325 882,75.725 881.775,76.325 L879.3,83.8 C879.2,84.075 880.95,84.225 881.35,84.225 C881.775,84.225 883.225,84.075 883.3,83.8 L884.275,81.025 C885.55,78.125 887.5,75.125 888.35,75.125 C888.775,75.125 888.875,75.4 888.875,75.825 C888.875,76.2 888.75,76.65 888.525,77.175 L886.8,81.25 C886.5,81.975 886.375,82.6 886.375,83.075 C886.375,84.025 887.05,84.525 888.4,84.525 Z M903.875,84.525 C905.8,84.525 907.8,81.775 907.8,81.15 C907.8,81 907.475,80.525 907.225,80.525 C907.025,80.525 906.3,82.025 905.65,82.025 C905.45,82.025 905.375,81.85 905.375,81.625 C905.375,81.325 905.7,80.475 905.85,80.075 L910.6,66.775 C910.7,66.525 910.75,66.3 910.75,66.125 C910.75,65.975 910.65,65.85 910.5,65.85 C910.325,65.85 910,65.975 909.875,66.025 C908.8,66.425 905.7,67.125 904.275,67.35 C904.125,67.35 904.075,67.675 904.075,67.85 C904.075,68.025 904.175,68.35 904.275,68.375 C905.2,68.475 905.625,68.625 905.625,68.975 C905.625,69.225 905.55,69.575 905.35,70.1 L904.225,73.275 C903.975,72.925 903.425,72.575 902.475,72.575 C898.675,72.575 894.5,76.775 894.5,81.025 C894.5,83.125 895.7,84.525 897.625,84.525 C899.65,84.525 901.325,82.775 902.575,80.625 C902.2,81.425 902.025,82.175 902.025,82.775 C902.025,83.875 902.65,84.525 903.875,84.525 Z M899.325,82.45 C898.875,82.45 898.55,82.05 898.55,81.275 C898.55,77.9 900.95,73.95 903.1,73.95 C903.525,73.95 903.725,74.175 903.725,74.65 C903.725,76.4 900.9,82.45 899.325,82.45 Z M930.025,84.125 C930.325,82.625 930.95,80.075 931.35,78.6 C931.4,78.475 930.95,78.275 930.675,78.275 C930.575,78.275 930.275,78.3 930.25,78.375 C929.6,80.5 927.4,82.775 924.825,82.775 L923.175,82.775 C922.525,82.775 922.025,82.525 922.025,81.775 C922.025,81.55 922.075,81.25 922.15,80.925 L923.375,75.775 L924.45,75.775 C925.925,75.775 926.775,76.5 926.55,78.45 C926.525,78.55 926.8,78.65 927.1,78.65 C927.25,78.65 927.6,78.6 927.65,78.45 C927.925,77.2 928.025,76.4 928.325,75.2 C928.6,74.025 928.75,73.6 929.05,72.35 C929.1,72.225 928.75,72.15 928.5,72.15 C928.325,72.15 928,72.225 927.95,72.35 C927.35,74.05 926.425,74.55 924.75,74.55 L923.675,74.55 L924.85,69.575 C925.15,68.35 926.025,68.1 926.675,68.1 L927.375,68.1 C929.4,68.1 930.85,70.25 930.9,72.225 C930.9,72.325 931.25,72.425 931.425,72.425 C931.625,72.425 932,72.325 932,72.225 C932,71.725 932.075,70.05 932.1,69.55 C932.15,68.825 932.275,67.55 932.4,66.75 C931.154167,66.7979167 926.992405,66.8687934 925.437567,66.8746166 L925.25,66.875 C923.9,66.875 919.7,66.8 918.4,66.75 C918.225,66.75 918.025,67.2 918.025,67.425 C918.025,67.525 918.05,67.825 918.15,67.85 C919.9,68.05 919.975,68.4 919.975,69.1 C919.975,69.35 919.9,69.625 919.825,69.95 L917.225,80.925 C916.9,82.275 916.7,82.8 914.725,83.025 C914.575,83.05 914.325,83.5 914.325,83.7 C914.325,83.9 914.4,84.15 914.45,84.125 C916,84.075 920.65,84 922.25,84 C923.85,84 928.5,84.075 930.025,84.125 Z M942.275,90.625 C942.45,90.625 942.6,90.15 942.6,89.925 C942.6,89.825 942.575,89.525 942.5,89.525 C941.775,89.4 941.15,89.3 941.15,88.6 C941.15,88.375 941.225,88.075 941.375,87.7 L947.225,72.675 C947.275,72.575 946.875,72.475 946.7,72.475 C946.55,72.475 946.075,72.55 946,72.65 C945.475,73.475 945.275,73.65 944.775,73.65 C943.8,73.65 943.525,72.575 942.1,72.575 C937.425,72.575 932.775,77.525 932.775,81.45 C932.775,83.6 934.3,84.525 935.5,84.525 C937.025,84.525 938.175,83.85 939.625,82.175 L937.35,87.7 C936.975,88.675 935.95,89.225 934.825,89.3 C934.675,89.3 934.5,89.75 934.5,89.95 C934.5,90.15 934.55,90.4 934.625,90.4 C936.425,90.4 940.425,90.475 942.275,90.625 Z M937.625,82.325 C937.125,82.325 936.9,82.05 936.9,81.55 C936.9,79.175 939.975,73.975 941.675,73.975 C942.075,73.975 942.25,74.2 942.25,74.725 C942.25,77.05 939.275,82.325 937.625,82.325 Z M956.675,84.525 C958.65,84.525 960.925,82.175 960.925,81.575 C960.925,81.425 960.575,80.95 960.3,80.95 C960.05,80.95 959.05,82.325 958.55,82.325 C958.4,82.325 958.3,82.225 958.3,82.025 C958.3,81.775 958.425,81.375 958.625,80.775 L961.175,73.175 C961.275,72.875 959.525,72.75 959.1,72.75 C958.7,72.75 957.25,72.875 957.15,73.175 L956.35,75.5 C955.075,78.575 952.925,82 952.075,82 C951.65,82 951.55,81.7 951.55,81.3 C951.55,80.9 951.675,80.45 951.9,79.925 L953.625,75.85 C953.925,75.125 954.05,74.5 954.05,74.025 C954.05,73.075 953.375,72.575 952.025,72.575 C949.825,72.575 947.1,74.95 947.1,75.55 C947.1,75.675 947.425,76.175 947.7,76.175 C947.925,76.175 948.8,74.925 949.55,74.925 C949.675,74.925 949.75,75.025 949.75,75.225 C949.75,75.45 949.575,75.85 949.325,76.45 L947.775,80.275 C947.475,81.025 947.275,81.8 947.275,82.5 C947.275,83.75 948.425,84.525 949.525,84.525 C951.525,84.525 953.55,82.6 955.025,80.1 L954.575,81.35 C954.425,81.75 954.375,82.1 954.375,82.425 C954.375,83.7 955.325,84.525 956.675,84.525 Z M969.525,70.55 C970.775,70.55 971.8,69.5 971.8,68.275 C971.8,67.05 970.775,66 969.525,66 C968.3,66 967.25,67.05 967.25,68.275 C967.25,69.5 968.3,70.55 969.525,70.55 Z M964.575,84.525 C966.775,84.525 969.875,81.75 969.875,81.175 C969.875,81.025 969.55,80.55 969.3,80.55 C969.05,80.55 967.825,82.125 967.075,82.125 C966.95,82.125 966.85,82.1 966.85,81.9 C966.85,81.725 966.975,81.325 967.275,80.6 L969.175,76.425 C969.45,75.875 969.575,75.4 969.575,74.75 C969.575,73.55 968.85,72.575 967.325,72.575 C965.325,72.575 962.475,75.55 962.475,76.15 C962.475,76.275 962.825,76.775 963.075,76.775 C963.35,76.775 964.925,74.8 965.45,74.8 C965.625,74.8 965.725,74.9 965.725,75.175 C965.725,75.425 965.625,75.775 965.35,76.325 L962.975,81.25 C962.725,81.8 962.575,82.3 962.575,82.775 C962.575,83.7 963.175,84.525 964.575,84.525 Z M974.2,84.525 C976.35,84.525 979.55,81.525 979.55,81.15 C979.55,81 979.025,80.5 978.775,80.5 C978.5,80.5 977.225,82.125 976.325,82.125 C976.125,82.125 976.05,81.975 976.05,81.725 C976.05,81.425 976.175,81 976.3,80.6 L978.325,74.575 L980.825,74.65 C981.025,74.65 981.35,74.1 981.35,73.75 C981.35,73.525 981.275,73.15 981.075,73.15 L978.8,73.15 L979.725,70.45 C979.825,70.175 978.3,70.025 977.875,70.025 C977.45,70.025 975.825,70.175 975.725,70.45 L974.8,73.15 L972.625,73.15 C972.45,73.15 972.125,73.7 972.125,74.05 C972.125,74.275 972.2,74.65 972.4,74.65 L974.3,74.6 L972.1,81.075 C971.925,81.55 971.85,81.925 971.85,82.375 C971.85,83.725 972.775,84.525 974.2,84.525 Z M985.025,82.275 C984.475,82.275 984.3,82.05 984.3,81.55 C984.3,79.325 988.65,74.3 989.875,74.3 C990.15,74.3 990.275,74.475 990.275,74.875 C990.275,76.625 986.475,82.275 985.025,82.275 Z M987.924,81.127 C987.6,81.75 987.425,82.325 987.425,83.025 C987.425,83.975 988.15,84.525 989.5,84.525 C991.3,84.525 994.125,82.225 994.125,81.575 C994.125,81.425 993.8,80.95 993.525,80.95 C993.275,80.95 992.45,82.125 991.7,82.125 C991.55,82.125 991.5,82.025 991.5,81.825 C991.5,81.6 991.675,81.2 991.925,80.6 L995.125,73.3 C995.225,73.075 994.075,72.75 993.2,72.75 C992.475,72.75 991.5,72.825 991.4,73.05 L990.95,74.15 C990.95,73.325 990.1,72.75 989.175,72.75 C985.85,72.75 980.575,77.925 980.575,81.55 C980.575,83.3 981.525,84.525 983.15,84.525 C984.806,84.525 986.41592,83.23476 987.758576,81.3620688 L987.924,81.127 Z M999.125,84.525 C1004.05,84.525 1008.45,79.4 1008.45,75.25 C1008.45,73.525 1007.75,72.575 1006.125,72.575 C1004.8,72.575 1003.475,73.1 1002.1,74.45 L1005.075,66.775 C1005.175,66.525 1005.2,66.3 1005.2,66.125 C1005.2,65.975 1005.125,65.85 1004.975,65.85 C1004.8,65.85 1004.45,65.975 1004.325,66.025 C1003.275,66.425 1000.075,67.125 998.65,67.35 C998.525,67.35 998.45,67.675 998.45,67.85 C998.45,68.025 998.55,68.35 998.675,68.375 C999.6,68.475 1000.025,68.625 1000.025,68.975 C1000.025,69.225 999.95,69.575 999.75,70.1 L996.45,78.75 C996.075,79.725 995.875,80.625 995.875,81.425 C995.875,83.225 996.9,84.525 999.125,84.525 Z M999.95,83.125 C999.55,83.125 999.375,82.9 999.375,82.375 C999.375,80.05 1002.15,74.575 1003.8,74.575 C1004.3,74.575 1004.525,74.85 1004.525,75.35 C1004.525,77.325 1001.25,83.125 999.95,83.125 Z M1011,84.525 C1013.2,84.525 1016.075,81.95 1016.075,81.375 C1016.075,81.225 1015.75,80.75 1015.5,80.75 C1015.25,80.75 1014.2,82.125 1013.45,82.125 C1013.325,82.125 1013.275,82.1 1013.275,81.975 C1013.275,81.825 1013.425,81.4 1013.675,80.6 L1018.2,66.775 C1018.275,66.525 1018.325,66.3 1018.325,66.125 C1018.325,65.975 1018.25,65.85 1018.075,65.85 C1017.925,65.85 1017.575,65.975 1017.45,66.025 C1016.375,66.425 1013.325,67.125 1011.875,67.35 C1011.75,67.35 1011.7,67.675 1011.7,67.85 C1011.7,68.025 1011.8,68.35 1011.9,68.375 C1012.825,68.475 1013.25,68.625 1013.25,68.975 C1013.25,69.225 1013.175,69.575 1012.975,70.1 L1009.45,81.25 C1009.3,81.8 1009.2,82.275 1009.2,82.7 C1009.2,83.875 1009.825,84.525 1011,84.525 Z M1021.7,84.525 C1023.825,84.525 1026.15,83.025 1026.9,81.475 C1027,81.275 1026.35,80.6 1026.25,80.75 C1025.5,81.75 1024.375,82.7 1023.075,82.7 C1021.975,82.7 1021.55,81.85 1021.55,80.675 C1021.55,80.3 1021.575,79.9 1021.675,79.45 C1025.725,79.45 1028.075,77.2 1028.075,75.3 C1028.075,73.9 1027.3,72.575 1025.075,72.575 C1022.025,72.575 1017.6,76.5 1017.6,80.95 C1017.6,82.975 1019.35,84.525 1021.7,84.525 Z M1021.875,78.25 C1022.175,76.175 1023.325,74.225 1024.375,74.225 C1024.875,74.225 1025,74.525 1025,75.075 C1025,76.525 1023.675,78.25 1021.875,78.25 Z M1043.65,84.125 C1043.825,84.125 1043.95,83.675 1043.95,83.45 C1043.95,83.325 1043.9,83.05 1043.825,83.025 C1042.075,82.825 1041.9,82.475 1041.9,81.775 C1041.9,81.55 1041.95,81.25 1042.025,80.925 L1043,76.875 C1043.775,77 1044.05,77.1 1045.25,77.1 C1049.375,77.1 1052.9,74.875 1052.9,71.375 C1052.9,68.5 1050.525,66.75 1046.375,66.75 C1044.725,66.75 1043.525,66.875 1042.2,66.875 C1040.9,66.875 1039.725,66.75 1038.05,66.75 C1037.9,66.75 1037.775,67.2 1037.775,67.425 C1037.775,67.525 1037.8,67.825 1037.9,67.85 C1039.65,68.05 1039.825,68.4 1039.825,69.1 C1039.825,69.35 1039.775,69.625 1039.7,69.95 L1037.075,80.925 C1036.775,82.2 1036.775,82.75 1034.3,83.025 C1034.15,83.05 1034,83.5 1034,83.7 C1034,83.9 1034.075,84.125 1034.125,84.125 C1035.625,84.125 1037.525,84 1038.825,84 C1040.15,84 1042,84.125 1043.65,84.125 Z M1044.375,75.9 C1043.5,75.9 1043.275,75.6 1043.45,74.925 L1044.775,69.325 C1045.05,68.2 1045.3,67.975 1046.1,67.975 C1046.975,67.975 1047.875,68.85 1047.875,70.675 C1047.875,73.775 1046.9,75.9 1044.375,75.9 Z M1054.95,84.225 C1055.35,84.225 1056.8,84.075 1056.9,83.8 C1058.35,79.525 1060.375,75.575 1061.45,75.575 C1062.425,75.575 1062.125,76.8 1063.45,76.8 C1064.6,76.8 1065.35,75.875 1065.35,74.7 C1065.35,73.425 1064.475,72.575 1063.2,72.575 C1061.675,72.575 1060.5,74.2 1058.825,77.425 L1059.55,75.475 C1059.625,75.25 1059.675,75 1059.675,74.725 C1059.675,73.45 1058.775,72.575 1057.35,72.575 C1055.35,72.575 1053.1,74.925 1053.1,75.55 C1053.1,75.675 1053.45,76.175 1053.7,76.175 C1053.975,76.175 1054.95,74.8 1055.475,74.8 C1055.625,74.8 1055.7,74.9 1055.7,75.075 C1055.7,75.325 1055.575,75.725 1055.375,76.325 L1052.9,83.8 C1052.8,84.075 1054.55,84.225 1054.95,84.225 Z M1067.6,82.275 C1067.05,82.275 1066.875,82.05 1066.875,81.55 C1066.875,79.325 1071.225,74.3 1072.45,74.3 C1072.725,74.3 1072.85,74.475 1072.85,74.875 C1072.85,76.625 1069.05,82.275 1067.6,82.275 Z M1070.499,81.127 C1070.175,81.75 1070,82.325 1070,83.025 C1070,83.975 1070.725,84.525 1072.075,84.525 C1073.875,84.525 1076.7,82.225 1076.7,81.575 C1076.7,81.425 1076.375,80.95 1076.1,80.95 C1075.85,80.95 1075.025,82.125 1074.275,82.125 C1074.125,82.125 1074.075,82.025 1074.075,81.825 C1074.075,81.6 1074.25,81.2 1074.5,80.6 L1077.7,73.3 C1077.8,73.075 1076.65,72.75 1075.775,72.75 C1075.05,72.75 1074.075,72.825 1073.975,73.05 L1073.525,74.15 C1073.525,73.325 1072.675,72.75 1071.75,72.75 C1068.425,72.75 1063.15,77.925 1063.15,81.55 C1063.15,83.3 1064.1,84.525 1065.725,84.525 C1067.381,84.525 1068.99092,83.23476 1070.33358,81.3620688 L1070.499,81.127 Z M1081.975,84.525 C1084.475,84.525 1086.975,82.375 1087.375,81.5 C1087.475,81.3 1086.85,80.65 1086.725,80.775 C1086.125,81.575 1084.525,82.8 1083.65,82.8 C1082.925,82.8 1082.2,82.325 1082.2,80.9 C1082.2,76.525 1084.1,74.05 1084.9,74.05 C1086.075,74.05 1085.475,76.825 1087.15,76.825 C1088.275,76.825 1089.075,76.025 1089.075,75.15 C1089.075,74.025 1087.7,72.575 1085.8,72.575 C1081.5,72.575 1078.05,77.35 1078.05,80.3 C1078.05,83.05 1079.975,84.525 1081.975,84.525 Z M1092.525,84.525 C1094.675,84.525 1097.875,81.525 1097.875,81.15 C1097.875,81 1097.35,80.5 1097.1,80.5 C1096.825,80.5 1095.55,82.125 1094.65,82.125 C1094.45,82.125 1094.375,81.975 1094.375,81.725 C1094.375,81.425 1094.5,81 1094.625,80.6 L1096.65,74.575 L1099.15,74.65 C1099.35,74.65 1099.675,74.1 1099.675,73.75 C1099.675,73.525 1099.6,73.15 1099.4,73.15 L1097.125,73.15 L1098.05,70.45 C1098.15,70.175 1096.625,70.025 1096.2,70.025 C1095.775,70.025 1094.15,70.175 1094.05,70.45 L1093.125,73.15 L1090.95,73.15 C1090.775,73.15 1090.45,73.7 1090.45,74.05 C1090.45,74.275 1090.525,74.65 1090.725,74.65 L1092.625,74.6 L1090.425,81.075 C1090.25,81.55 1090.175,81.925 1090.175,82.375 C1090.175,83.725 1091.1,84.525 1092.525,84.525 Z M1106.9,70.55 C1108.15,70.55 1109.175,69.5 1109.175,68.275 C1109.175,67.05 1108.15,66 1106.9,66 C1105.675,66 1104.625,67.05 1104.625,68.275 C1104.625,69.5 1105.675,70.55 1106.9,70.55 Z M1101.95,84.525 C1104.15,84.525 1107.25,81.75 1107.25,81.175 C1107.25,81.025 1106.925,80.55 1106.675,80.55 C1106.425,80.55 1105.2,82.125 1104.45,82.125 C1104.325,82.125 1104.225,82.1 1104.225,81.9 C1104.225,81.725 1104.35,81.325 1104.65,80.6 L1106.55,76.425 C1106.825,75.875 1106.95,75.4 1106.95,74.75 C1106.95,73.55 1106.225,72.575 1104.7,72.575 C1102.7,72.575 1099.85,75.55 1099.85,76.15 C1099.85,76.275 1100.2,76.775 1100.45,76.775 C1100.725,76.775 1102.3,74.8 1102.825,74.8 C1103,74.8 1103.1,74.9 1103.1,75.175 C1103.1,75.425 1103,75.775 1102.725,76.325 L1100.35,81.25 C1100.1,81.8 1099.95,82.3 1099.95,82.775 C1099.95,83.7 1100.55,84.525 1101.95,84.525 Z M1112.85,84.525 C1115.35,84.525 1117.85,82.375 1118.25,81.5 C1118.35,81.3 1117.725,80.65 1117.6,80.775 C1117,81.575 1115.4,82.8 1114.525,82.8 C1113.8,82.8 1113.075,82.325 1113.075,80.9 C1113.075,76.525 1114.975,74.05 1115.775,74.05 C1116.95,74.05 1116.35,76.825 1118.025,76.825 C1119.15,76.825 1119.95,76.025 1119.95,75.15 C1119.95,74.025 1118.575,72.575 1116.675,72.575 C1112.375,72.575 1108.925,77.35 1108.925,80.3 C1108.925,83.05 1110.85,84.525 1112.85,84.525 Z M1124.425,84.525 C1126.55,84.525 1128.875,83.025 1129.625,81.475 C1129.725,81.275 1129.075,80.6 1128.975,80.75 C1128.225,81.75 1127.1,82.7 1125.8,82.7 C1124.7,82.7 1124.275,81.85 1124.275,80.675 C1124.275,80.3 1124.3,79.9 1124.4,79.45 C1128.45,79.45 1130.8,77.2 1130.8,75.3 C1130.8,73.9 1130.025,72.575 1127.8,72.575 C1124.75,72.575 1120.325,76.5 1120.325,80.95 C1120.325,82.975 1122.075,84.525 1124.425,84.525 Z M1124.6,78.25 C1124.9,76.175 1126.05,74.225 1127.1,74.225 C1127.6,74.225 1127.725,74.525 1127.725,75.075 C1127.725,76.525 1126.4,78.25 1124.6,78.25 Z M1134.975,84.525 C1137.65,84.525 1139.7,82.925 1139.7,80.8 C1139.7,78.45 1136.35,75.825 1136.35,74.65 C1136.35,74.1 1136.575,73.825 1137.15,73.825 C1138.5,73.825 1138.8,76.475 1140.175,76.475 C1141.075,76.475 1141.6,75.75 1141.6,74.825 C1141.6,73.8 1140.1,72.575 1138.1,72.575 C1135.1,72.575 1133.35,74.475 1133.35,76.475 C1133.35,78.725 1136.475,81.225 1136.475,82.575 C1136.475,83.075 1136.25,83.325 1135.8,83.325 C1134.45,83.325 1133.85,80.525 1132.5,80.525 C1131.575,80.525 1131.05,81.125 1131.05,82.025 C1131.05,83.325 1132.975,84.525 1134.975,84.525 Z M796.6375,105.55 C797.8875,105.55 798.9125,104.5 798.9125,103.275 C798.9125,102.05 797.8875,101 796.6375,101 C795.4125,101 794.3625,102.05 794.3625,103.275 C794.3625,104.5 795.4125,105.55 796.6375,105.55 Z M791.6875,119.525 C793.8875,119.525 796.9875,116.75 796.9875,116.175 C796.9875,116.025 796.6625,115.55 796.4125,115.55 C796.1625,115.55 794.9375,117.125 794.1875,117.125 C794.0625,117.125 793.9625,117.1 793.9625,116.9 C793.9625,116.725 794.0875,116.325 794.3875,115.6 L796.2875,111.425 C796.5625,110.875 796.6875,110.4 796.6875,109.75 C796.6875,108.55 795.9625,107.575 794.4375,107.575 C792.4375,107.575 789.5875,110.55 789.5875,111.15 C789.5875,111.275 789.9375,111.775 790.1875,111.775 C790.4625,111.775 792.0375,109.8 792.5625,109.8 C792.7375,109.8 792.8375,109.9 792.8375,110.175 C792.8375,110.425 792.7375,110.775 792.4625,111.325 L790.0875,116.25 C789.8375,116.8 789.6875,117.3 789.6875,117.775 C789.6875,118.7 790.2875,119.525 791.6875,119.525 Z M807.3875,119.525 C809.5875,119.525 812.3125,117.15 812.3125,116.575 C812.3125,116.425 811.9875,115.95 811.7125,115.95 C811.4625,115.95 810.6375,117.125 809.8875,117.125 C809.7375,117.125 809.6875,117.025 809.6875,116.825 C809.6875,116.6 809.8625,116.2 810.1125,115.6 L811.6375,111.825 C811.9375,111.075 812.1375,110.3 812.1375,109.6 C812.1375,108.35 810.9875,107.575 809.8625,107.575 C807.8875,107.575 805.7875,109.4 804.5875,111.425 L804.9375,110.475 C805.0125,110.25 805.0625,110 805.0625,109.725 C805.0625,108.45 804.1625,107.575 802.7375,107.575 C800.7375,107.575 798.4875,109.925 798.4875,110.55 C798.4875,110.675 798.8375,111.175 799.0875,111.175 C799.3625,111.175 800.3375,109.8 800.8625,109.8 C801.0125,109.8 801.0875,109.9 801.0875,110.075 C801.0875,110.325 800.9875,110.725 800.7625,111.325 L798.2875,118.8 C798.1875,119.075 799.9375,119.225 800.3375,119.225 C800.7625,119.225 802.2125,119.075 802.2875,118.8 L803.2625,116.025 C804.5375,113.125 806.4875,110.125 807.3375,110.125 C807.7625,110.125 807.8625,110.4 807.8625,110.825 C807.8625,111.2 807.7375,111.65 807.5125,112.175 L805.7875,116.25 C805.4875,116.975 805.3625,117.6 805.3625,118.075 C805.3625,119.025 806.0375,119.525 807.3875,119.525 Z M837.5625,119.575 C837.7625,119.6 838.0125,119.275 838.0125,118.975 C838.0125,118.85 838.0375,118.55 837.9375,118.525 C836.5375,118.2 835.6125,117.775 835.1375,116.525 L832.7125,110.55 C834.8625,110.125 837.3125,108.175 837.3125,105.825 C837.3125,103.5 835.9125,101.75 831.1125,101.75 C829.4625,101.75 828.0375,101.875 826.7125,101.875 C825.4375,101.875 824.0375,101.75 822.3875,101.75 C822.2375,101.75 822.0875,102.2 822.0875,102.425 C822.0875,102.525 822.1375,102.825 822.2125,102.85 C823.9875,103.05 824.1625,103.4 824.1625,104.1 C824.1625,104.35 824.1125,104.625 824.0125,104.95 L821.4125,115.925 L821.38106,116.0501 L821.38106,116.0501 L821.322625,116.2862 C821.06725,117.30725 820.8625,117.7775 818.6125,118.025 C818.4625,118.05 818.3125,118.5 818.3125,118.7 C818.3125,118.9 818.3875,119.125 818.4625,119.125 C819.9375,119.125 821.8375,119 823.1625,119 C824.4875,119 826.1375,119.125 827.7875,119.125 C827.9375,119.125 828.0625,118.675 828.0625,118.45 C828.0625,118.325 828.0375,118.05 827.9375,118.025 C826.5375,117.875 826.2125,117.525 826.2125,116.775 C826.2125,116.55 826.2625,116.25 826.3375,115.925 L827.4375,111.425 C828.2875,111.425 828.6375,111.575 828.8375,112.225 L831.1125,119.125 C832.8625,119.125 835.7125,119.325 837.5625,119.575 Z M828.5625,110.225 L827.7125,110.225 L829.2375,103.8 C829.3875,103.225 829.6375,102.975 830.3625,102.975 C831.6375,102.975 832.4625,103.8 832.4625,105.625 C832.4625,108.675 830.6875,110.225 828.5625,110.225 Z M842.5375,119.525 C844.6625,119.525 846.9875,118.025 847.7375,116.475 C847.8375,116.275 847.1875,115.6 847.0875,115.75 C846.3375,116.75 845.2125,117.7 843.9125,117.7 C842.8125,117.7 842.3875,116.85 842.3875,115.675 C842.3875,115.3 842.4125,114.9 842.5125,114.45 C846.5625,114.45 848.9125,112.2 848.9125,110.3 C848.9125,108.9 848.1375,107.575 845.9125,107.575 C842.8625,107.575 838.4375,111.5 838.4375,115.95 C838.4375,117.975 840.1875,119.525 842.5375,119.525 Z M842.7125,113.25 C843.0125,111.175 844.1625,109.225 845.2125,109.225 C845.7125,109.225 845.8375,109.525 845.8375,110.075 C845.8375,111.525 844.5125,113.25 842.7125,113.25 Z M865.6875,119.525 C867.8875,119.525 871.0125,116.75 871.0125,116.175 C871.0125,116.025 870.6875,115.55 870.4375,115.55 C870.1875,115.55 868.9375,117.125 868.2125,117.125 C868.0625,117.125 867.9875,117.1 867.9875,116.9 C867.9875,116.725 868.0875,116.325 868.4125,115.6 L870.3125,111.425 C870.5625,110.875 870.7125,110.4 870.7125,109.75 C870.7125,108.55 869.9875,107.575 868.4625,107.575 C866.7375,107.575 864.7375,109.25 863.2375,111.6 L863.3625,111.3 C863.6875,110.7 863.7875,110.25 863.7875,109.65 C863.7875,108.7 863.3125,107.575 861.8375,107.575 C860.0125,107.575 858.0375,109.025 856.3625,111.525 L856.4875,111.25 C856.7625,110.7 856.8875,110.25 856.8875,109.65 C856.8875,108.5 856.2625,107.575 854.7375,107.575 C852.7375,107.575 849.8875,110.55 849.8875,111.15 C849.8875,111.275 850.2375,111.775 850.5125,111.775 C850.7625,111.775 852.3375,109.8 852.8625,109.8 C853.0375,109.8 853.1625,109.9 853.1625,110.175 C853.1625,110.425 853.0375,110.775 852.7875,111.325 L849.3875,118.7 C849.2625,118.95 850.3875,119.225 851.2875,119.225 C852.0125,119.225 853.2375,119 853.3875,118.7 L854.3625,116.575 C856.7875,112.3 858.6625,110.025 859.7625,110.025 C859.9375,110.025 860.0375,110.125 860.0375,110.4 C860.0375,110.65 859.9375,111 859.6625,111.55 L856.2375,118.7 C856.1375,118.95 857.2625,119.225 858.1875,119.225 C858.8875,119.225 860.0875,119.025 860.2625,118.7 L861.2625,116.575 C863.6875,112.3 865.3875,110.025 866.4625,110.025 C866.6375,110.025 866.7625,110.125 866.7625,110.4 C866.7625,110.65 866.6375,111 866.3875,111.55 L864.1125,116.25 C863.8375,116.8 863.7125,117.3 863.7125,117.775 C863.7125,118.7 864.3125,119.525 865.6875,119.525 Z M876.6375,119.525 C881.4875,119.525 884.3125,115.45 884.3125,111.725 C884.3125,109.325 882.6875,107.575 879.8625,107.575 C875.0125,107.575 872.1875,111.675 872.1875,115.4 C872.1875,117.775 873.8125,119.525 876.6375,119.525 Z M876.6375,118.325 C876.1375,118.325 875.8875,117.925 875.8875,117.25 C875.8875,114.525 877.9625,108.8 879.8625,108.8 C880.3875,108.8 880.6375,109.175 880.6375,109.85 C880.6375,112.575 878.5375,118.325 876.6375,118.325 Z M888.1875,119.525 C890.3375,119.525 893.5375,116.525 893.5375,116.15 C893.5375,116 893.0125,115.5 892.7625,115.5 C892.4875,115.5 891.2125,117.125 890.3125,117.125 C890.1125,117.125 890.0375,116.975 890.0375,116.725 C890.0375,116.425 890.1625,116 890.2875,115.6 L892.3125,109.575 L894.8125,109.65 C895.0125,109.65 895.3375,109.1 895.3375,108.75 C895.3375,108.525 895.2625,108.15 895.0625,108.15 L892.7875,108.15 L893.7125,105.45 C893.8125,105.175 892.2875,105.025 891.8625,105.025 C891.4375,105.025 889.8125,105.175 889.7125,105.45 L888.7875,108.15 L886.6125,108.15 C886.4375,108.15 886.1125,108.7 886.1125,109.05 C886.1125,109.275 886.1875,109.65 886.3875,109.65 L888.2875,109.6 L886.0875,116.075 C885.9125,116.55 885.8375,116.925 885.8375,117.375 C885.8375,118.725 886.7625,119.525 888.1875,119.525 Z M899.1625,119.525 C901.2875,119.525 903.6125,118.025 904.3625,116.475 C904.4625,116.275 903.8125,115.6 903.7125,115.75 C902.9625,116.75 901.8375,117.7 900.5375,117.7 C899.4375,117.7 899.0125,116.85 899.0125,115.675 C899.0125,115.3 899.0375,114.9 899.1375,114.45 C903.1875,114.45 905.5375,112.2 905.5375,110.3 C905.5375,108.9 904.7625,107.575 902.5375,107.575 C899.4875,107.575 895.0625,111.5 895.0625,115.95 C895.0625,117.975 896.8125,119.525 899.1625,119.525 Z M899.3375,113.25 C899.6375,111.175 900.7875,109.225 901.8375,109.225 C902.3375,109.225 902.4625,109.525 902.4625,110.075 C902.4625,111.525 901.1375,113.25 899.3375,113.25 Z M922.2625,119.525 C922.6125,119.525 922.9875,119.4 923.0125,119.325 L931.0875,105.475 L929.5875,115.925 C929.3875,117.325 929.0375,117.775 926.8375,118.025 C926.6875,118.05 926.5375,118.5 926.5375,118.7 C926.5375,118.9 926.6125,119.125 926.6625,119.125 C928.3125,119.125 929.9375,119 931.4875,119 C933.0375,119 934.6125,119.125 936.2625,119.125 C936.4125,119.125 936.5375,118.675 936.5375,118.45 C936.5375,118.325 936.5125,118.05 936.4125,118.025 C933.9625,117.75 934.2375,117.2 934.4125,115.925 L935.9375,104.95 C936.2125,103.425 936.5125,103.075 938.6375,102.85 C938.8125,102.825 938.9125,102.375 938.9125,102.175 C938.9125,101.975 938.8625,101.75 938.7875,101.75 C937.6875,101.75 936.5125,101.875 935.4875,101.875 C934.6125,101.875 933.1875,101.75 931.8125,101.75 L925.5125,112.375 L923.5625,101.75 C922.4625,101.75 921.2625,101.875 920.3875,101.875 C919.6625,101.875 917.3625,101.75 916.7125,101.75 C916.5625,101.75 916.4375,102.2 916.4375,102.425 C916.4375,102.525 916.4625,102.825 916.5625,102.85 C918.7875,103.05 918.9375,103.55 918.4875,104.95 L914.6625,115.925 C914.2375,117.2 913.8625,117.75 911.4125,118.025 C911.2625,118.05 911.1375,118.5 911.1375,118.7 C911.1375,118.9 911.1875,119.125 911.2625,119.125 C912.4125,119.125 913.3875,119 914.6125,119 C915.7875,119 916.6625,119.125 917.9625,119.125 C918.1125,119.125 918.2625,118.675 918.2625,118.45 C918.2625,118.325 918.2125,118.05 918.1125,118.025 C915.7125,117.75 915.8625,117.2 916.2625,115.925 L919.5125,105.975 L921.5125,119.325 C921.5625,119.4 921.8375,119.525 922.2625,119.525 Z M947.5125,119.525 C949.4875,119.525 951.7625,117.175 951.7625,116.575 C951.7625,116.425 951.4125,115.95 951.1375,115.95 C950.8875,115.95 949.8875,117.325 949.3875,117.325 C949.2375,117.325 949.1375,117.225 949.1375,117.025 C949.1375,116.775 949.2625,116.375 949.4625,115.775 L952.0125,108.175 C952.1125,107.875 950.3625,107.75 949.9375,107.75 C949.5375,107.75 948.0875,107.875 947.9875,108.175 L947.1875,110.5 C945.9125,113.575 943.7625,117 942.9125,117 C942.4875,117 942.3875,116.7 942.3875,116.3 C942.3875,115.9 942.5125,115.45 942.7375,114.925 L944.4625,110.85 C944.7625,110.125 944.8875,109.5 944.8875,109.025 C944.8875,108.075 944.2125,107.575 942.8625,107.575 C940.6625,107.575 937.9375,109.95 937.9375,110.55 C937.9375,110.675 938.2625,111.175 938.5375,111.175 C938.7625,111.175 939.6375,109.925 940.3875,109.925 C940.5125,109.925 940.5875,110.025 940.5875,110.225 C940.5875,110.45 940.4125,110.85 940.1625,111.45 L938.6125,115.275 C938.3125,116.025 938.1125,116.8 938.1125,117.5 C938.1125,118.75 939.2625,119.525 940.3625,119.525 C942.3625,119.525 944.3875,117.6 945.8625,115.1 L945.4125,116.35 C945.2625,116.75 945.2125,117.1 945.2125,117.425 C945.2125,118.7 946.1625,119.525 947.5125,119.525 Z M956.3375,119.525 C959.0125,119.525 961.0625,117.925 961.0625,115.8 C961.0625,113.45 957.7125,110.825 957.7125,109.65 C957.7125,109.1 957.9375,108.825 958.5125,108.825 C959.8625,108.825 960.1625,111.475 961.5375,111.475 C962.4375,111.475 962.9625,110.75 962.9625,109.825 C962.9625,108.8 961.4625,107.575 959.4625,107.575 C956.4625,107.575 954.7125,109.475 954.7125,111.475 C954.7125,113.725 957.8375,116.225 957.8375,117.575 C957.8375,118.075 957.6125,118.325 957.1625,118.325 C955.8125,118.325 955.2125,115.525 953.8625,115.525 C952.9375,115.525 952.4125,116.125 952.4125,117.025 C952.4125,118.325 954.3375,119.525 956.3375,119.525 Z M971.1375,105.55 C972.3875,105.55 973.4125,104.5 973.4125,103.275 C973.4125,102.05 972.3875,101 971.1375,101 C969.9125,101 968.8625,102.05 968.8625,103.275 C968.8625,104.5 969.9125,105.55 971.1375,105.55 Z M966.1875,119.525 C968.3875,119.525 971.4875,116.75 971.4875,116.175 C971.4875,116.025 971.1625,115.55 970.9125,115.55 C970.6625,115.55 969.4375,117.125 968.6875,117.125 C968.5625,117.125 968.4625,117.1 968.4625,116.9 C968.4625,116.725 968.5875,116.325 968.8875,115.6 L970.7875,111.425 C971.0625,110.875 971.1875,110.4 971.1875,109.75 C971.1875,108.55 970.4625,107.575 968.9375,107.575 C966.9375,107.575 964.0875,110.55 964.0875,111.15 C964.0875,111.275 964.4375,111.775 964.6875,111.775 C964.9625,111.775 966.5375,109.8 967.0625,109.8 C967.2375,109.8 967.3375,109.9 967.3375,110.175 C967.3375,110.425 967.2375,110.775 966.9625,111.325 L964.5875,116.25 C964.3375,116.8 964.1875,117.3 964.1875,117.775 C964.1875,118.7 964.7875,119.525 966.1875,119.525 Z M977.0875,119.525 C979.5875,119.525 982.0875,117.375 982.4875,116.5 C982.5875,116.3 981.9625,115.65 981.8375,115.775 C981.2375,116.575 979.6375,117.8 978.7625,117.8 C978.0375,117.8 977.3125,117.325 977.3125,115.9 C977.3125,111.525 979.2125,109.05 980.0125,109.05 C981.1875,109.05 980.5875,111.825 982.2625,111.825 C983.3875,111.825 984.1875,111.025 984.1875,110.15 C984.1875,109.025 982.8125,107.575 980.9125,107.575 C976.6125,107.575 973.1625,112.35 973.1625,115.3 C973.1625,118.05 975.0875,119.525 977.0875,119.525 Z M1005.7125,119.125 C1006.0125,117.625 1006.6375,115.075 1007.0375,113.6 C1007.0875,113.475 1006.6375,113.275 1006.3625,113.275 C1006.2625,113.275 1005.9625,113.3 1005.9375,113.375 C1005.2875,115.5 1003.0875,117.775 1000.5125,117.775 L998.8625,117.775 C998.2125,117.775 997.7125,117.525 997.7125,116.775 C997.7125,116.55 997.7625,116.25 997.8375,115.925 L999.0625,110.775 L1000.1375,110.775 C1001.6125,110.775 1002.4625,111.5 1002.2375,113.45 C1002.2125,113.55 1002.4875,113.65 1002.7875,113.65 C1002.9375,113.65 1003.2875,113.6 1003.3375,113.45 C1003.6125,112.2 1003.7125,111.4 1004.0125,110.2 C1004.2875,109.025 1004.4375,108.6 1004.7375,107.35 C1004.7875,107.225 1004.4375,107.15 1004.1875,107.15 C1004.0125,107.15 1003.6875,107.225 1003.6375,107.35 C1003.0375,109.05 1002.1125,109.55 1000.4375,109.55 L999.3625,109.55 L1000.5375,104.575 C1000.8375,103.35 1001.7125,103.1 1002.3625,103.1 L1003.0625,103.1 C1005.0875,103.1 1006.5375,105.25 1006.5875,107.225 C1006.5875,107.325 1006.9375,107.425 1007.1125,107.425 C1007.3125,107.425 1007.6875,107.325 1007.6875,107.225 C1007.6875,106.725 1007.7625,105.05 1007.7875,104.55 C1007.8375,103.825 1007.9625,102.55 1008.0875,101.75 C1006.84167,101.797917 1002.6799,101.868793 1001.12507,101.874617 L1000.9375,101.875 C999.5875,101.875 995.3875,101.8 994.0875,101.75 C993.9125,101.75 993.7125,102.2 993.7125,102.425 C993.7125,102.525 993.7375,102.825 993.8375,102.85 C995.5875,103.05 995.6625,103.4 995.6625,104.1 C995.6625,104.35 995.5875,104.625 995.5125,104.95 L992.9125,115.925 C992.5875,117.275 992.3875,117.8 990.4125,118.025 C990.2625,118.05 990.0125,118.5 990.0125,118.7 C990.0125,118.9 990.0875,119.15 990.1375,119.125 C991.6875,119.075 996.3375,119 997.9375,119 C999.5375,119 1004.1875,119.075 1005.7125,119.125 Z M1018.5625,119.525 C1020.4875,119.525 1022.4875,116.775 1022.4875,116.15 C1022.4875,116 1022.1625,115.525 1021.9125,115.525 C1021.7125,115.525 1020.9875,117.025 1020.3375,117.025 C1020.1375,117.025 1020.0625,116.85 1020.0625,116.625 C1020.0625,116.325 1020.3875,115.475 1020.5375,115.075 L1025.2875,101.775 C1025.3875,101.525 1025.4375,101.3 1025.4375,101.125 C1025.4375,100.975 1025.3375,100.85 1025.1875,100.85 C1025.0125,100.85 1024.6875,100.975 1024.5625,101.025 C1023.4875,101.425 1020.3875,102.125 1018.9625,102.35 C1018.8125,102.35 1018.7625,102.675 1018.7625,102.85 C1018.7625,103.025 1018.8625,103.35 1018.9625,103.375 C1019.8875,103.475 1020.3125,103.625 1020.3125,103.975 C1020.3125,104.225 1020.2375,104.575 1020.0375,105.1 L1018.9125,108.275 C1018.6625,107.925 1018.1125,107.575 1017.1625,107.575 C1013.3625,107.575 1009.1875,111.775 1009.1875,116.025 C1009.1875,118.125 1010.3875,119.525 1012.3125,119.525 C1014.3375,119.525 1016.0125,117.775 1017.2625,115.625 C1016.8875,116.425 1016.7125,117.175 1016.7125,117.775 C1016.7125,118.875 1017.3375,119.525 1018.5625,119.525 Z M1014.0125,117.45 C1013.5625,117.45 1013.2375,117.05 1013.2375,116.275 C1013.2375,112.9 1015.6375,108.95 1017.7875,108.95 C1018.2125,108.95 1018.4125,109.175 1018.4125,109.65 C1018.4125,111.4 1015.5875,117.45 1014.0125,117.45 Z M1033.4875,119.525 C1035.4625,119.525 1037.7375,117.175 1037.7375,116.575 C1037.7375,116.425 1037.3875,115.95 1037.1125,115.95 C1036.8625,115.95 1035.8625,117.325 1035.3625,117.325 C1035.2125,117.325 1035.1125,117.225 1035.1125,117.025 C1035.1125,116.775 1035.2375,116.375 1035.4375,115.775 L1037.9875,108.175 C1038.0875,107.875 1036.3375,107.75 1035.9125,107.75 C1035.5125,107.75 1034.0625,107.875 1033.9625,108.175 L1033.1625,110.5 C1031.8875,113.575 1029.7375,117 1028.8875,117 C1028.4625,117 1028.3625,116.7 1028.3625,116.3 C1028.3625,115.9 1028.4875,115.45 1028.7125,114.925 L1030.4375,110.85 C1030.7375,110.125 1030.8625,109.5 1030.8625,109.025 C1030.8625,108.075 1030.1875,107.575 1028.8375,107.575 C1026.6375,107.575 1023.9125,109.95 1023.9125,110.55 C1023.9125,110.675 1024.2375,111.175 1024.5125,111.175 C1024.7375,111.175 1025.6125,109.925 1026.3625,109.925 C1026.4875,109.925 1026.5625,110.025 1026.5625,110.225 C1026.5625,110.45 1026.3875,110.85 1026.1375,111.45 L1024.5875,115.275 C1024.2875,116.025 1024.0875,116.8 1024.0875,117.5 C1024.0875,118.75 1025.2375,119.525 1026.3375,119.525 C1028.3375,119.525 1030.3625,117.6 1031.8375,115.1 L1031.3875,116.35 C1031.2375,116.75 1031.1875,117.1 1031.1875,117.425 C1031.1875,118.7 1032.1375,119.525 1033.4875,119.525 Z M1042.8875,119.525 C1045.3875,119.525 1047.8875,117.375 1048.2875,116.5 C1048.3875,116.3 1047.7625,115.65 1047.6375,115.775 C1047.0375,116.575 1045.4375,117.8 1044.5625,117.8 C1043.8375,117.8 1043.1125,117.325 1043.1125,115.9 C1043.1125,111.525 1045.0125,109.05 1045.8125,109.05 C1046.9875,109.05 1046.3875,111.825 1048.0625,111.825 C1049.1875,111.825 1049.9875,111.025 1049.9875,110.15 C1049.9875,109.025 1048.6125,107.575 1046.7125,107.575 C1042.4125,107.575 1038.9625,112.35 1038.9625,115.3 C1038.9625,118.05 1040.8875,119.525 1042.8875,119.525 Z M1054.3625,117.275 C1053.8125,117.275 1053.6375,117.05 1053.6375,116.55 C1053.6375,114.325 1057.9875,109.3 1059.2125,109.3 C1059.4875,109.3 1059.6125,109.475 1059.6125,109.875 C1059.6125,111.625 1055.8125,117.275 1054.3625,117.275 Z M1057.261,116.127 C1056.9375,116.75 1056.7625,117.325 1056.7625,118.025 C1056.7625,118.975 1057.4875,119.525 1058.8375,119.525 C1060.6375,119.525 1063.4625,117.225 1063.4625,116.575 C1063.4625,116.425 1063.1375,115.95 1062.8625,115.95 C1062.6125,115.95 1061.7875,117.125 1061.0375,117.125 C1060.8875,117.125 1060.8375,117.025 1060.8375,116.825 C1060.8375,116.6 1061.0125,116.2 1061.2625,115.6 L1064.4625,108.3 C1064.5625,108.075 1063.4125,107.75 1062.5375,107.75 C1061.8125,107.75 1060.8375,107.825 1060.7375,108.05 L1060.2875,109.15 C1060.2875,108.325 1059.4375,107.75 1058.5125,107.75 C1055.1875,107.75 1049.9125,112.925 1049.9125,116.55 C1049.9125,118.3 1050.8625,119.525 1052.4875,119.525 C1054.1435,119.525 1055.75342,118.23476 1057.09608,116.362069 L1057.261,116.127 Z M1067.7125,119.525 C1069.8625,119.525 1073.0625,116.525 1073.0625,116.15 C1073.0625,116 1072.5375,115.5 1072.2875,115.5 C1072.0125,115.5 1070.7375,117.125 1069.8375,117.125 C1069.6375,117.125 1069.5625,116.975 1069.5625,116.725 C1069.5625,116.425 1069.6875,116 1069.8125,115.6 L1071.8375,109.575 L1074.3375,109.65 C1074.5375,109.65 1074.8625,109.1 1074.8625,108.75 C1074.8625,108.525 1074.7875,108.15 1074.5875,108.15 L1072.3125,108.15 L1073.2375,105.45 C1073.3375,105.175 1071.8125,105.025 1071.3875,105.025 C1070.9625,105.025 1069.3375,105.175 1069.2375,105.45 L1068.3125,108.15 L1066.1375,108.15 C1065.9625,108.15 1065.6375,108.7 1065.6375,109.05 C1065.6375,109.275 1065.7125,109.65 1065.9125,109.65 L1067.8125,109.6 L1065.6125,116.075 C1065.4375,116.55 1065.3625,116.925 1065.3625,117.375 C1065.3625,118.725 1066.2875,119.525 1067.7125,119.525 Z M1082.0875,105.55 C1083.3375,105.55 1084.3625,104.5 1084.3625,103.275 C1084.3625,102.05 1083.3375,101 1082.0875,101 C1080.8625,101 1079.8125,102.05 1079.8125,103.275 C1079.8125,104.5 1080.8625,105.55 1082.0875,105.55 Z M1077.1375,119.525 C1079.3375,119.525 1082.4375,116.75 1082.4375,116.175 C1082.4375,116.025 1082.1125,115.55 1081.8625,115.55 C1081.6125,115.55 1080.3875,117.125 1079.6375,117.125 C1079.5125,117.125 1079.4125,117.1 1079.4125,116.9 C1079.4125,116.725 1079.5375,116.325 1079.8375,115.6 L1081.7375,111.425 C1082.0125,110.875 1082.1375,110.4 1082.1375,109.75 C1082.1375,108.55 1081.4125,107.575 1079.8875,107.575 C1077.8875,107.575 1075.0375,110.55 1075.0375,111.15 C1075.0375,111.275 1075.3875,111.775 1075.6375,111.775 C1075.9125,111.775 1077.4875,109.8 1078.0125,109.8 C1078.1875,109.8 1078.2875,109.9 1078.2875,110.175 C1078.2875,110.425 1078.1875,110.775 1077.9125,111.325 L1075.5375,116.25 C1075.2875,116.8 1075.1375,117.3 1075.1375,117.775 C1075.1375,118.7 1075.7375,119.525 1077.1375,119.525 Z M1088.5625,119.525 C1093.4125,119.525 1096.2375,115.45 1096.2375,111.725 C1096.2375,109.325 1094.6125,107.575 1091.7875,107.575 C1086.9375,107.575 1084.1125,111.675 1084.1125,115.4 C1084.1125,117.775 1085.7375,119.525 1088.5625,119.525 Z M1088.5625,118.325 C1088.0625,118.325 1087.8125,117.925 1087.8125,117.25 C1087.8125,114.525 1089.8875,108.8 1091.7875,108.8 C1092.3125,108.8 1092.5625,109.175 1092.5625,109.85 C1092.5625,112.575 1090.4625,118.325 1088.5625,118.325 Z M1106.1875,119.525 C1108.3875,119.525 1111.1125,117.15 1111.1125,116.575 C1111.1125,116.425 1110.7875,115.95 1110.5125,115.95 C1110.2625,115.95 1109.4375,117.125 1108.6875,117.125 C1108.5375,117.125 1108.4875,117.025 1108.4875,116.825 C1108.4875,116.6 1108.6625,116.2 1108.9125,115.6 L1110.4375,111.825 C1110.7375,111.075 1110.9375,110.3 1110.9375,109.6 C1110.9375,108.35 1109.7875,107.575 1108.6625,107.575 C1106.6875,107.575 1104.5875,109.4 1103.3875,111.425 L1103.7375,110.475 C1103.8125,110.25 1103.8625,110 1103.8625,109.725 C1103.8625,108.45 1102.9625,107.575 1101.5375,107.575 C1099.5375,107.575 1097.2875,109.925 1097.2875,110.55 C1097.2875,110.675 1097.6375,111.175 1097.8875,111.175 C1098.1625,111.175 1099.1375,109.8 1099.6625,109.8 C1099.8125,109.8 1099.8875,109.9 1099.8875,110.075 C1099.8875,110.325 1099.7875,110.725 1099.5625,111.325 L1097.0875,118.8 C1096.9875,119.075 1098.7375,119.225 1099.1375,119.225 C1099.5625,119.225 1101.0125,119.075 1101.0875,118.8 L1102.0625,116.025 C1103.3375,113.125 1105.2875,110.125 1106.1375,110.125 C1106.5625,110.125 1106.6625,110.4 1106.6625,110.825 C1106.6625,111.2 1106.5375,111.65 1106.3125,112.175 L1104.5875,116.25 C1104.2875,116.975 1104.1625,117.6 1104.1625,118.075 C1104.1625,119.025 1104.8375,119.525 1106.1875,119.525 Z" id="CreativeandEquitablePracticesinRemoteMusicEducation"></path>
        </g>
    </g>
</svg>